<?xml version="1.0" encoding="utf-8"?>
<!-- Generator: Adobe Illustrator 22.1.0, SVG Export Plug-In . SVG Version: 6.00 Build 0)  -->
<svg version="1.1" id="Layer_1" xmlns="http://www.w3.org/2000/svg" xmlns:xlink="http://www.w3.org/1999/xlink" x="0px" y="0px"
	 viewBox="0 0 380 200" style="enable-background:new 0 0 380 200;" xml:space="preserve">
<style type="text/css">
	.st0{fill:#00B0AA;}
	.st1{fill:#F05323;}
	.st2{fill:#535349;}
	.st3{fill:#FFFFFF;}
</style>
<g>
	<path class="st1" d="M29.9,187C29.9,187,29.9,187,29.9,187c-0.1,0-0.2-0.1-0.2-0.2c0.9-19.1,4.9-38.1,9.1-56.5
		c0.1-4.5,0.3-9.1,0.5-13.5c-0.5,1.3-1,2.6-1.4,3.9c0,0.1-0.1,0.1-0.1,0.1c-0.1,0-0.1,0-0.2,0c-3.5-2-12,5.8-18.3,11.5
		c-2.8,2.5-5.1,4.7-6.8,5.8c-0.1,0.1-0.2,0-0.3,0c-0.1-0.1,0-0.2,0-0.3c1.6-1.1,4-3.3,6.8-5.8c6.6-6,14.8-13.4,18.6-11.6
		c0.6-1.6,1.2-3.2,1.8-4.9c1.5-31.1,5.4-59.5,11-80.3c0-0.1,0.1-0.1,0.2-0.1c0.1,0,0.2,0,0.2,0.1c3.1,8.6-0.9,31.7-3.1,44.2
		c-0.5,2.8-0.9,5-1,6.4c-0.7,5.3-1.5,10.7-2.3,16.2c0.7-2,1.4-4,2.1-5.9c2.8-14.2,4.9-28.5,5.2-42.8c0-0.1,0.1-0.2,0.2-0.2
		c0.1,0,0.2,0.1,0.2,0.2c0.7,4.5,1.3,9.2,1.8,14c0.8-4.9,1.8-9.6,3.2-14.2c0-0.1,0.1-0.2,0.2-0.1c0.1,0,0.2,0.1,0.2,0.2l-0.1,1.3
		c-0.6,5.7-1.3,11.8-2,17.9c0.5,3,0.9,6.5,1.3,10.5c1.4-19.6,3.1-39.6,8-57.2c0-0.1,0.1-0.1,0.2-0.1c0.1,0,0.2,0.1,0.2,0.2
		c1.6,9.5,2,19.4,1.8,29.5c0.6-4.2,1.3-8.3,2.2-12.2c0-0.1,0.1-0.1,0.2-0.1c0.1,0,0.2,0.1,0.2,0.2c0.2,2,0.5,4.1,0.7,6.2
		c0.7-1.2,1.4-2.3,2.1-3.3c0.1-0.6,0.2-1.2,0.3-1.9c0-0.1,0.1-0.2,0.2-0.2c0.1,0,0.2,0.1,0.2,0.2c0,0.3,0.1,0.5,0.1,0.8
		c0.1-0.1,0.1-0.2,0.2-0.3c-0.2-4.7-0.3-9.4-0.3-14.2c0-0.1,0.1-0.2,0.2-0.2c0.1,0,0.2,0.1,0.2,0.2c0.6,6.3,1.2,12.6,1.7,18.9
		c0.9,5.5,1.5,11,1.8,16.5c0.1-0.1,0.2-0.1,0.3-0.2c0-1.3-0.1-3.2-0.1-5.3c-0.3-8.2-0.7-21.4,1.2-28.3c0-6.2,0.1-12.4,0.1-18.6
		c0-0.1,0.1-0.2,0.2-0.2c0.1,0,0.2,0,0.2,0.1c3,9.6,3.6,22.5,3.6,35.4c0.4,3,0.7,6,1,9c1.5-12.8,3.5-25.1,6.1-37.7
		c0-0.1,0.1-0.1,0.2-0.1c0.1,0,0.2,0,0.2,0.1c3.6,9.3-1.2,32.9-5.2,50.7c0,0.1,0.1,0.1,0,0.2c0,0.1-0.1,0.2-0.1,0.2
		c-0.1,0.4-0.2,0.7-0.2,1.1c0.1,1.4,0.1,2.8,0.1,4.2c1.1-1.2,2.3-2.3,3.4-3.2c0.1-0.1,0.2,0,0.3,0c0.1,0.1,0,0.2,0,0.3
		c-1.2,0.9-2.4,2.1-3.6,3.4c0.3,13.1-0.4,26.2-2,38.5c0,7.3,0,14.6,0,22.6c0,5,0,10.2,0,15.9c0,0.1-0.1,0.2-0.2,0.2
		c-0.1,0-0.2-0.1-0.2-0.2c-1.4-13-1.7-15.9-2.2-24.8c0,0-0.1-0.1-0.1-0.1c0-0.4,0-0.7,0-1.1c-0.1-1.9-0.2-4-0.3-6.5l-0.1-2.5
		c-0.2-3.1-0.3-6.2-0.5-9.3c0,20.7-0.1,41.5-0.7,62.1c0,0.1-0.1,0.2-0.2,0.2c-0.1,0-0.2-0.1-0.2-0.2l0-1c0-19.8,0.1-39.8-0.3-59.9
		c-1.2,7.6-2.6,15.1-4.2,22.3c-0.4,6-1.2,12.3-2.5,19.6c0,0.1-0.1,0.2-0.2,0.2c-0.1,0-0.2-0.1-0.2-0.2c-0.9-10.5,0.3-17,1.7-24.6
		c0.4-2.2,0.8-4.4,1.2-6.8c0-0.4,0.1-0.8,0.1-1.2c0-3.1,0-6.3,0-9.6c0-2.8,0-5.7,0-8.7c-0.7,0.8-1.5,1.5-2.2,2.3
		c-1.2,21.3-4.1,43-8.4,62.8c0,0.1-0.1,0.2-0.2,0.1c-0.1,0-0.2-0.1-0.2-0.2c-0.1-11.5,1.8-23.4,3.6-35c1-6.5,2.1-13.3,2.8-19.7
		c0.2-2.1,0.4-4.1,0.5-6.2c-0.1,0.1-0.2,0.2-0.2,0.2c-1.1,1.1-2.2,2.2-3.3,3.4c-0.2,9.1-0.8,18.5-3.3,25.1c0,0.1-0.1,0.1-0.2,0.1
		c-0.1,0-0.2-0.1-0.2-0.2l0.1-4.3c0.1-5.2,0.3-10.5,0.5-15.9c-1.3,2.3-2.7,4.5-4.1,6.5c-0.4,12.1-1.8,26.4-6.4,34.7
		c-0.3,2.3-0.6,4.6-1,6.9c0,0.1-0.1,0.2-0.2,0.2c-0.1,0-0.2-0.1-0.2-0.2c-0.1-1.5-0.1-3.1-0.1-4.6c-1,1.3-2.1,2.4-3.3,3.2
		c-0.1,0-0.1,0-0.2,0c-0.1,0-0.1-0.1-0.1-0.1c-2.7-10.7-1.3-24.2,0.4-36.7c-0.9,0.8-1.9,1.5-2.8,2.2c-1.5,4.5-3.3,8.7-5.2,12.7
		c0,0.1-0.1,0.1-0.2,0.1c-0.1,0-0.1-0.1-0.1-0.2c0-0.3,0-0.5,0-0.8c-2.6,15.5-5.4,31.7-8.6,48.8C30.1,186.9,30,187,29.9,187z
		 M38.7,132.2c-3.8,16.9-7.3,34.2-8.5,51.7c3.1-16.9,5.9-33,8.4-48.3C38.7,134.4,38.7,133.3,38.7,132.2z M69.1,105.2
		c-0.2,2.2-0.4,4.5-0.6,6.7c-0.7,6.4-1.7,13.2-2.8,19.7c-1.7,10.9-3.5,22.2-3.6,33.2c4.1-19.1,6.8-40,8-60.5
		C69.8,104.5,69.5,104.9,69.1,105.2z M47.5,123.7c-1.7,12.5-3.2,25.9-0.5,36.7c1.2-0.9,2.3-2,3.2-3.4c0-9.9,0.9-19.6,2-29.4
		c-0.4,0.3-0.8,0.7-1.1,1c-0.1,0.1-0.2,0.1-0.2,0c-0.1-0.1-0.1-0.1-0.1-0.2c0.5-1.2,1.1-2.5,1.8-3.7c0.2-1.5,0.4-3,0.5-4.6
		c0-0.4,0.1-0.8,0.1-1.2C51.3,120.5,49.4,122.1,47.5,123.7z M50.6,157c0,1,0,2,0,2.9c0.2-1.3,0.4-2.5,0.5-3.8
		C50.9,156.5,50.8,156.7,50.6,157z M52.6,127.1c-1.1,9.8-2,19.4-2.1,29.2c0.2-0.4,0.5-0.7,0.7-1.1c1.3-9.9,2.2-19.8,2.8-29.6
		C53.6,126.1,53.1,126.6,52.6,127.1z M77.2,108.4c0.3,15.6,0.3,31.2,0.3,46.6c0.3-17,0.4-34,0.3-50.9
		C77.7,105.5,77.5,107,77.2,108.4z M54.5,125.2c-0.6,9.6-1.5,19.4-2.7,29.1c4.1-8.2,5.5-21.6,5.9-33.1
		C56.6,122.6,55.5,123.9,54.5,125.2z M72.2,126.3c-0.1,0.5-0.2,1-0.3,1.5c-1.3,7.2-2.5,13.5-1.8,23.1c1-5.7,1.7-10.9,2.1-15.7
		c-0.2,0.8-0.4,1.5-0.6,2.3c0,0.1-0.1,0.2-0.2,0.1c-0.1,0-0.2-0.1-0.2-0.2C71.5,133.7,71.8,130,72.2,126.3z M79.7,128.5
		c0.5,8.2,0.7,11.4,1.9,21.7c0-4.4,0-8.5,0-12.4c0-7,0-13.5,0-19.9C81,121.5,80.4,125.1,79.7,128.5z M39,135.6c0,0.8,0,1.6,0,2.4
		c1.7-3.6,3.3-7.4,4.7-11.4c-1.2,0.9-2.4,1.8-3.6,2.7C39.7,131.4,39.4,133.5,39,135.6z M72.7,124.2c-0.4,3.7-0.7,7.3-1,11
		c0.2-0.8,0.4-1.7,0.6-2.5C72.6,129.8,72.7,127.1,72.7,124.2z M62.5,113.4c-0.2,5.6-0.3,11.2-0.5,16.6l-0.1,3.1
		c2.1-6.4,2.7-15,2.9-23.4c-0.2,0.2-0.4,0.4-0.5,0.6C63.7,111.3,63.1,112.3,62.5,113.4z M39.2,130.3c0,0.9,0,1.7-0.1,2.6
		c0.2-1.2,0.4-2.3,0.6-3.4c0,0,0,0-0.1,0c-0.1-0.1-0.1-0.2,0-0.2c0.1-0.1,0.1-0.2,0.2-0.3c0.2-1.3,0.4-2.6,0.6-3.9
		C40,126.8,39.6,128.6,39.2,130.3z M73.2,120.3c0,3.4-0.1,6.7-0.3,10.1c1.5-7.1,2.8-14.6,4-22c-0.1-6.9-0.3-13.8-0.5-20.7
		c-0.1,0.1-0.1,0.2-0.2,0.3c-0.4,6.9-1.1,13.7-1.8,20.5c-0.1,1.2-0.2,2.4-0.3,3.6C73.9,115.1,73.5,117.8,73.2,120.3z M45.2,121.9
		c-1.7,2.2-3.3,4.4-4.8,6.7c1.2-0.8,2.3-1.7,3.5-2.6C44.4,124.6,44.8,123.3,45.2,121.9z M39.7,115.6c-0.2,4.2-0.4,8.5-0.5,12.8
		c0.5-2.1,0.9-4.1,1.4-6.2c0.2-0.8,0.4-1.6,0.6-2.5c0.8-4.8,1.5-9.6,2.2-14.3c-0.8,2.1-1.5,4.1-2.2,6.2
		C40.6,113,40.2,114.3,39.7,115.6z M41.6,119.9c-0.4,2.8-0.9,5.5-1.3,8.3c1.7-2.5,3.5-4.9,5.3-7.3c1.6-5.1,2.9-10.5,4-16
		c0-0.4,0.1-0.8,0.1-1.1c-1.5,0.6-3.1,1-4.7,1.2c0,0-0.1,0-0.1,0C43.8,109.9,42.7,114.9,41.6,119.9z M52.4,125.6
		c-0.4,0.7-0.7,1.4-1,2.1c0.3-0.2,0.6-0.5,0.8-0.8C52.3,126.5,52.4,126.1,52.4,125.6z M80.8,86.2c-0.7,12.6-1.1,25.9-1.1,40.7
		c0.7-3.8,1.4-7.7,1.9-11.7c0-9.7-0.1-19.6-0.3-31.4C81.1,84.7,80.9,85.5,80.8,86.2z M52.9,124.7c-0.1,0.6-0.1,1.2-0.2,1.8
		c0.5-0.5,1-1,1.4-1.5c0.1-0.9,0.1-1.7,0.1-2.6C53.8,123.2,53.3,124,52.9,124.7z M45.9,121.1c-0.5,1.5-0.9,3-1.4,4.5
		c0.9-0.7,1.8-1.4,2.7-2.1c0.2-1.6,0.5-3.3,0.7-4.9C47.2,119.4,46.5,120.2,45.9,121.1z M54.7,121.8c0,0.9-0.1,1.8-0.2,2.7
		c1-1.2,2.1-2.6,3.1-4.1c0-0.3,0-0.7,0-1c0-0.6,0-1.2,0-1.8C56.6,119,55.6,120.4,54.7,121.8z M53.6,118.5c-0.1,0.5-0.1,1.1-0.2,1.6
		c-0.1,1.2-0.3,2.5-0.4,3.7c0.4-0.7,0.8-1.4,1.3-2.1c0.1-1.3,0.1-2.6,0.2-3.9C54.2,118,53.9,118.3,53.6,118.5z M48.3,118
		c0,0.1,0,0.3-0.1,0.4c-0.2,1.6-0.4,3.1-0.7,4.7c1.9-1.6,3.8-3.2,5.7-4.8c0.1-1.3,0.3-2.5,0.4-3.8c0.1-1.2,0.3-2.4,0.4-3.6
		C52.2,113.3,50.2,115.6,48.3,118z M54.9,117.4c-0.1,1.2-0.1,2.4-0.2,3.6c0.9-1.4,1.9-2.7,3-4c0-0.7,0-1.4,0-2.1
		C56.8,115.8,55.8,116.6,54.9,117.4z M78.3,102.3c0.1,1.9,0.2,3.8,0.3,5.7c0.2,3.5,0.4,7.1,0.6,10.5l0.1,2.4
		c0.1-11.3,0.4-21.7,0.9-31.7c-0.5,3.2-1,6.6-1.5,9.8c-0.1,0.9-0.3,1.7-0.4,2.6C78.3,101.9,78.3,102.1,78.3,102.3z M49.2,108.3
		c-0.9,4-1.9,7.9-3,11.7c0.6-0.7,1.2-1.5,1.7-2.2C48.4,114.5,48.9,111.3,49.2,108.3z M58.1,117.2c0,0.8,0,1.6,0,2.3
		c0,0.1,0,0.3,0,0.4c1.4-2,2.8-4.3,4.1-6.6c0-0.3,0-0.5,0-0.8C60.7,114,59.4,115.6,58.1,117.2z M54.6,110.4
		c-0.1,1.4-0.3,2.8-0.5,4.1c-0.1,1.1-0.3,2.3-0.4,3.4c0.3-0.2,0.5-0.5,0.8-0.7c0.1-2.3,0.2-4.6,0.2-6.9c0,0-0.1,0-0.1,0
		C54.6,110.4,54.6,110.4,54.6,110.4z M50,104.9c0,0.4-0.1,0.8-0.1,1.2c-0.4,3.4-0.9,7.2-1.5,11.2c1.9-2.4,3.9-4.7,5.8-7
		c0.3-2.4,0.5-4.9,0.7-7.4c0-0.7,0-1.4,0-2.1c-1.5,1.1-3,2-4.6,2.7C50.2,103.9,50.1,104.4,50,104.9z M55.2,110.3
		c-0.1,2.2-0.1,4.4-0.2,6.7c0.9-0.8,1.9-1.6,2.8-2.5c0-1.7,0-3.4,0-5.2C56.7,109.9,55.8,110.1,55.2,110.3z M58.1,114.6
		c0,0.7,0,1.3,0,1.9c1.3-1.6,2.7-3.2,4.1-4.7c0-0.3,0-0.6,0-1C60.8,112.2,59.5,113.4,58.1,114.6z M73.1,101.1c0,3.2,0,6.2,0,9.1
		c0,2,0,4,0,5.9c0.1-0.9,0.2-1.8,0.3-2.7c0.2-1.7,0.4-3.3,0.5-5c0.4-5.9,0.5-11.8,0.5-17.6c-0.4,0.8-0.9,1.6-1.3,2.4
		c0,0.2,0,0.5,0,0.7c0,2.3-0.1,4.4-0.1,6.5c0.2-0.2,0.4-0.3,0.6-0.5c0.1-0.1,0.2-0.1,0.3,0c0.1,0.1,0.1,0.2,0,0.3
		C73.7,100.5,73.4,100.8,73.1,101.1z M44,103.7c-0.5,3.6-1.1,7.3-1.6,11c1.2-5.4,2.4-10.8,3.5-16.2C45.3,100.2,44.6,102,44,103.7z
		 M50.5,35.9c-5.4,20.5-9.2,48.2-10.7,78.4c0.3-0.9,0.7-1.8,1-2.7c1-2.6,1.9-5.3,2.9-7.9c0.9-6.1,1.7-12.1,2.5-18
		c0.2-1.4,0.6-3.6,1-6.4C49.3,67.2,53.2,44.8,50.5,35.9z M58,109.1c0,1.7,0,3.4,0,5.1c1.4-1.2,2.8-2.5,4.1-3.7
		c0.1-1.7,0.1-3.5,0.2-5.2C60.7,107.1,59.3,108.3,58,109.1z M62.5,112c0,0.2,0,0.4,0,0.5c0.2-0.4,0.5-0.9,0.7-1.3
		C63,111.5,62.8,111.8,62.5,112z M81.6,82.2c0.2,11.3,0.3,20.9,0.3,30.1c1.4-11.3,1.9-23.2,1.7-35.2c-0.4,0.5-0.8,1-1.3,1.5
		C82.1,79.9,81.8,81.1,81.6,82.2z M62.6,110.6c0,0.3,0,0.6,0,0.9c0.5-0.5,0.9-1,1.4-1.5c0.2-0.4,0.5-0.9,0.7-1.3
		C64,109.3,63.3,109.9,62.6,110.6z M62.8,104.7c-0.1,1.8-0.1,3.6-0.2,5.3c0.7-0.7,1.5-1.4,2.2-2c0-2,0-4,0-5.9
		C64.2,103.1,63.5,104,62.8,104.7z M55.2,109.7c0,0,0,0.1,0,0.1c0.8-0.1,1.7-0.5,2.5-1c0-0.7,0-1.3,0-2
		C56.8,107.8,56,108.8,55.2,109.7z M55.2,105.2c0,1.3,0,2.6-0.1,3.9c0.8-0.9,1.6-1.9,2.4-2.8c-0.1-2.5-0.2-5-0.3-7.4
		c-0.5,0.4-1,0.8-1.5,1.2C55.6,101.8,55.4,103.5,55.2,105.2z M65.2,108.5c0,0.1,0,0.1,0,0.2c1-1,2-2.1,3-3.1
		c0.2-0.2,0.4-0.4,0.5-0.5c0,0,0-0.1,0-0.1c-0.6,0.6-1.3,1.2-1.9,1.7c-0.5,0.4-0.9,0.8-1.4,1.3C65.4,108.1,65.3,108.3,65.2,108.5z
		 M58,106.5c0,0.7,0,1.5,0.1,2.2c1.4-0.9,2.9-2.3,4.4-4c0-1.2,0.1-2.3,0.1-3.5c-1.2,1.4-2.5,2.9-3.7,4.3
		C58.6,105.7,58.3,106.1,58,106.5z M65.3,101.6c0,2,0,4,0,6c1.2-2.2,2.3-4.4,3.5-6.6c0.1-0.2,0.3-0.5,0.4-0.7c0.1-1.7,0.2-3.4,0.2-5
		C67.9,97.8,66.5,99.9,65.3,101.6z M69,101.2c-1,1.9-2,3.8-3,5.7c0.2-0.2,0.4-0.4,0.6-0.5c0.7-0.7,1.5-1.3,2.2-2
		C68.9,103.3,69,102.3,69,101.2z M76.7,87.1c0.2,6.4,0.4,12.8,0.5,19.1c0.2-1.5,0.5-2.9,0.7-4.4c-0.3-5.1-0.5-10.3-0.8-15.5
		C77,86.6,76.8,86.9,76.7,87.1z M57.7,98.6c0.1,2.4,0.2,4.8,0.3,7.3c0.2-0.2,0.4-0.5,0.6-0.7c1.3-1.5,2.7-3.1,4-4.7
		c0.1-2.4,0.2-4.7,0.4-7.1C61.2,95.3,59.5,97.1,57.7,98.6z M69.2,104.6C69.2,104.6,69.2,104.6,69.2,104.6c0.3-0.2,0.5-0.5,0.8-0.7
		C69.7,104.1,69.5,104.3,69.2,104.6z M50.9,91.3c-2.6,4.3-4.6,8.8-5.6,13.2c1.6-0.2,3.1-0.6,4.5-1.2c0.3-2.8,0.5-5.7,0.8-8.5
		C50.7,93.6,50.8,92.4,50.9,91.3z M63,100.6c-0.1,1.2-0.1,2.3-0.2,3.5c0.7-0.8,1.4-1.7,2-2.6c0-0.7,0-1.4,0-2.1c0-0.3,0-0.7,0-1
		C64.2,99.2,63.6,99.9,63,100.6z M69.5,100.4c-0.1,1.2-0.1,2.4-0.2,3.6c0.3-0.3,0.6-0.6,1-0.9c0.1-1.5,0.2-3.1,0.2-4.6
		C70.1,99.2,69.8,99.8,69.5,100.4z M53,88c-0.8,5-1.6,10.1-2.6,15c1.6-0.7,3.1-1.6,4.5-2.7c0-5-0.1-9.8-0.3-14.6
		C54.1,86.5,53.5,87.2,53,88z M70.8,97.7c-0.1,1.7-0.2,3.3-0.2,5c0.7-0.7,1.5-1.3,2.2-2c0-2.2,0-4.4,0.1-6.8
		C72.2,95.2,71.5,96.5,70.8,97.7z M46.8,96c-0.4,2-0.8,4-1.2,6c1.2-3.9,3.1-7.8,5.4-11.6c0.3-3,0.6-5.9,0.9-8.9
		C50.2,86.4,48.5,91.2,46.8,96z M51.3,90.6c-0.1,1.4-0.3,2.8-0.4,4.2c-0.2,2.1-0.4,4.3-0.6,6.5c0.8-4.2,1.5-8.4,2.2-12.6
		C52.1,89.3,51.7,89.9,51.3,90.6z M74.9,90.2c0,3.6,0,7.3-0.2,10.9c0.4-4.1,0.7-8.3,1-12.4C75.5,89.2,75.2,89.7,74.9,90.2z M65.2,98
		c0,0.5,0,1,0,1.5c0,0.5,0,1,0,1.5c1.4-2,2.8-4.2,4.1-6.5c0-0.5,0-1,0.1-1.5C68,94.6,66.6,96.3,65.2,98z M63.4,93
		c-0.1,2.4-0.2,4.7-0.4,7.1c0.6-0.7,1.2-1.5,1.9-2.2c0-2.4,0-4.6,0-6.6C64.4,91.8,63.9,92.4,63.4,93z M56.9,92.5
		c-0.4,2.4-0.7,4.7-1,7.1c0.5-0.4,0.9-0.7,1.4-1.1C57.2,96.4,57.1,94.5,56.9,92.5z M69.7,94.6c-0.1,1.7-0.1,3.3-0.2,4.9
		c0.3-0.6,0.6-1.2,1-1.9c0.1-1.6,0.1-3.2,0.2-4.7C70.3,93.5,70,94,69.7,94.6z M78.2,84.6c0,4.9,0,9.8,0.1,14.7c0-0.1,0-0.2,0-0.2
		c0.5-3.5,1.1-7.2,1.7-10.7c0.1-0.7,0.2-1.4,0.4-2.2c0.1-1.8,0.2-3.5,0.3-5.3C79.9,82,79,83.3,78.2,84.6z M56.5,87.2
		c-0.3,3.9-0.6,7.9-0.9,11.8c0.3-2.6,0.7-5.3,1.2-8.1C56.7,89.6,56.6,88.4,56.5,87.2z M55,85.2c0.2,4.3,0.3,8.6,0.3,13.1
		c0.3-4.1,0.6-8.3,0.9-12.3c0-0.4,0.1-0.7,0.1-1.1c0-0.4-0.1-0.8-0.1-1.1C55.8,84.2,55.4,84.7,55,85.2z M57.2,90.9
		c0.2,2.3,0.3,4.8,0.5,7.2c1.8-1.6,3.6-3.4,5.4-5.3c0.3-5.9,0.7-11.9,1.3-17.7c-1.7,1.6-3.4,3.3-5,5C58.5,83.7,57.8,87.3,57.2,90.9z
		 M65.3,90.8c-0.1,2-0.1,4.2-0.1,6.6c1.4-1.7,2.8-3.4,4.2-5.1c0.1-2.2,0.1-4.5,0.2-6.7c0,0-0.1,0.1-0.1,0.1
		C68.2,87.4,66.7,89.1,65.3,90.8z M71,92.2c0,1.6-0.1,3.1-0.2,4.7c0.7-1.2,1.3-2.5,2-3.7c0-1.6,0.1-3.1,0.1-4.8
		c-0.4,0.9-0.9,1.8-1.3,2.6C71.5,91.4,71.2,91.8,71,92.2z M77.5,85.8c0.1,3,0.3,6,0.4,9c0-3.2,0-6.4,0-9.6
		C77.7,85.4,77.6,85.6,77.5,85.8z M69.8,92.4c0,0.4,0,0.9,0,1.3c0.3-0.5,0.6-1.1,0.9-1.7c0-0.3,0-0.5,0-0.8
		C70.4,91.7,70.1,92,69.8,92.4z M51.9,55.3c-0.4,12.8-2.2,25.6-4.7,38.3c1.6-4.6,3.2-9.1,4.8-13.7c0.4-3.8,0.9-7.6,1.5-11.3
		C53.1,64,52.5,59.5,51.9,55.3z M73.4,87.8c-0.1,1.6-0.1,3.1-0.1,4.7c0.4-0.8,0.9-1.6,1.3-2.3c0-1.3,0-2.6,0-3.9
		C74.1,86.8,73.8,87.3,73.4,87.8z M64.7,74.7c-0.5,5.8-0.9,11.7-1.3,17.7c0.5-0.6,1-1.1,1.5-1.7c0.1-4.7,0.4-9.5,0.6-14.6
		c0-0.7,0.1-1.4,0.1-2.2C65.3,74.1,65,74.4,64.7,74.7z M70,85.1c-0.1,2.2-0.1,4.4-0.2,6.7c0.3-0.4,0.6-0.7,0.9-1.1
		c0.1-2.2,0.1-4.3,0.1-6.5C70.6,84.5,70.3,84.8,70,85.1z M71.1,90.8c0,0.2,0,0.4,0,0.5c0.3-0.5,0.5-1,0.8-1.5
		C71.6,90.1,71.3,90.4,71.1,90.8z M66,73.5c0,0.8-0.1,1.7-0.1,2.5c-0.2,4.9-0.4,9.6-0.6,14.1c1.3-1.6,2.6-3.1,4-4.7
		c0.1-0.2,0.3-0.3,0.4-0.5c0-1.2,0.1-2.4,0.1-3.6c0.1-3.7,0.2-7.4,0.3-11.2C68.7,71.2,67.4,72.3,66,73.5z M71.2,83.7
		c0,2.1-0.1,4.3-0.1,6.5c0.6-0.7,1.1-1.5,1.7-2.2c0.1-0.2,0.2-0.4,0.3-0.5c0.1-1.7,0.1-3.4,0.2-5.2c0-0.3,0-0.7,0-1
		C72.6,82.1,71.9,82.9,71.2,83.7z M52.4,79.9c-0.4,3.3-0.7,6.6-1,9.8c0.4-0.6,0.8-1.3,1.3-1.9c0.6-3.7,1.1-7.3,1.5-11
		c0-0.7-0.1-1.3-0.1-2C53.5,76.6,52.9,78.3,52.4,79.9z M74.9,85.8c0,1.2,0,2.5,0,3.7c0.3-0.5,0.6-1,0.9-1.5c0.1-1.2,0.1-2.5,0.2-3.7
		C75.6,84.7,75.2,85.2,74.9,85.8z M56.7,84.9c0.1,1.5,0.3,3,0.4,4.5c0.5-2.9,1.1-5.8,1.7-8.7c-0.7,0.7-1.3,1.5-2,2.3
		C56.8,83.6,56.7,84.2,56.7,84.9z M76.3,86c0,0.4,0,0.8-0.1,1.2c0-0.1,0.1-0.1,0.1-0.2C76.3,86.7,76.3,86.3,76.3,86z M54.3,78.8
		c-0.4,2.8-0.8,5.5-1.2,8.3c0.5-0.7,1-1.4,1.5-2C54.5,83,54.4,80.9,54.3,78.8z M73.7,80.8c0,0.5,0,1-0.1,1.5
		c-0.1,1.5-0.1,2.9-0.2,4.3c0.4-0.7,0.7-1.5,1-2.2c0-1.5-0.1-2.9-0.1-4.4C74.1,80.2,73.9,80.5,73.7,80.8z M76.6,83.4
		c0,1,0.1,2,0.1,3.1c0.1-0.2,0.3-0.5,0.4-0.7c0-1-0.1-2-0.1-3C76.8,83,76.7,83.2,76.6,83.4z M74.5,85.3c-0.2,0.3-0.3,0.7-0.5,1
		c0.2-0.2,0.3-0.4,0.5-0.7C74.5,85.5,74.5,85.4,74.5,85.3z M77.3,82.2c0,1,0.1,1.9,0.1,2.9c0.1-0.2,0.3-0.4,0.4-0.6c0-1,0-2,0-3
		C77.7,81.7,77.5,82,77.3,82.2z M74.9,84.5c0,0.2,0,0.4,0,0.6c0.4-0.5,0.8-1.1,1.2-1.6c0-0.6,0.1-1.2,0.1-1.8
		C75.7,82.6,75.3,83.5,74.9,84.5z M54.5,76.9c0.2,2.6,0.3,5.2,0.4,7.8c0.4-0.5,0.8-1,1.2-1.5c-0.4-3.6-0.8-6.8-1.2-9.6
		C54.8,74.7,54.7,75.8,54.5,76.9z M70.5,69.9c-0.1,3.8-0.2,7.7-0.3,11.5c0,1-0.1,2.1-0.1,3.1c0.3-0.3,0.5-0.6,0.8-0.9
		c0-4.7,0-9.3-0.1-13.8C70.6,69.8,70.6,69.9,70.5,69.9z M78.2,80.9c0,1,0,2,0,3c0.8-1.3,1.7-2.6,2.6-3.8c0.1-1.3,0.2-2.5,0.3-3.7
		C80.1,77.9,79.2,79.5,78.2,80.9z M74.7,79.5c0,1.3,0.1,2.7,0.1,4c0.4-1,0.8-1.9,1.2-2.9c0-0.8-0.1-1.7-0.1-2.5
		C75.6,78.6,75.2,79.1,74.7,79.5z M81.1,80.3c-0.1,1.1-0.1,2.1-0.2,3.2c0.1-0.4,0.2-0.9,0.3-1.3c0-0.5,0-1.1,0-1.6
		C81.2,80.5,81.2,80.4,81.1,80.3C81.2,80.3,81.2,80.3,81.1,80.3z M71.1,69.5c0.1,4.5,0.2,9,0.1,13.6c0.7-0.8,1.4-1.6,2.1-2.5
		c0.2-4.2,0.3-8.6,0.4-13C72.8,68.3,71.9,68.9,71.1,69.5z M76.5,81.4c0,0.4,0,0.9,0.1,1.3c0.1-0.2,0.3-0.4,0.4-0.6
		c0-0.8-0.1-1.6-0.1-2.3c-0.1,0.3-0.3,0.6-0.4,0.9C76.5,80.9,76.5,81.2,76.5,81.4z M64.6,26.4c-4.7,17.2-6.3,36.8-7.7,55.9
		c0.7-0.8,1.4-1.6,2.1-2.4c1.9-8.5,4.3-16.8,7.3-23.8C66.4,46,66.1,36,64.6,26.4z M77.2,78.9c0,0.9,0.1,1.8,0.1,2.7
		c0.2-0.2,0.3-0.5,0.5-0.8c0-0.8,0-1.6,0-2.5c0-0.3,0-0.6,0-0.9C77.6,77.9,77.4,78.4,77.2,78.9z M81.5,79.7c0,0.3,0,0.5,0,0.8
		c0,0,0,0,0,0c0.1-0.4,0.2-0.8,0.3-1.2C81.7,79.5,81.6,79.6,81.5,79.7z M78.2,76.5c0,0.6,0,1.2,0,1.9c0,0.6,0,1.3,0,1.9
		c1-1.5,2-3.1,2.9-4.7c0-0.1,0-0.3,0-0.4c0-0.7,0-1.4,0-2.1c-0.9,0.7-1.7,1.5-2.6,2.4C78.4,75.8,78.3,76.2,78.2,76.5z M74,69.4
		c-0.1,3.6-0.2,7.3-0.3,10.8c0.2-0.3,0.5-0.5,0.7-0.8C74.3,76.1,74.2,72.7,74,69.4z M76.6,77.5c0,0.7,0,1.4,0,2.1
		c0.1-0.3,0.2-0.5,0.3-0.8c0-0.5,0-1,0-1.5C76.8,77.3,76.7,77.4,76.6,77.5z M66.2,57.2c-2.8,6.6-5,14.3-6.8,22.3
		c1.6-1.7,3.2-3.3,4.9-4.9c0.5-5.6,1.1-11.2,1.9-16.6C66.2,57.7,66.2,57.4,66.2,57.2z M81.5,75.6c0,1.2,0,2.4,0,3.5
		c0.2-0.2,0.3-0.4,0.5-0.6c0.2-1,0.5-2.1,0.7-3.2c0.2-1,0.5-2,0.7-3.1C82.8,73.4,82.2,74.5,81.5,75.6z M74.3,67.3
		c0.2,3.9,0.3,7.8,0.4,11.7c0.4-0.5,0.8-0.9,1.2-1.4c-0.2-3.7-0.3-7.4-0.5-11.1C75.1,66.8,74.7,67,74.3,67.3z M53.6,70.1
		c-0.4,2.7-0.8,5.3-1.1,8c0.5-1.4,0.9-2.8,1.4-4.2C53.9,72.7,53.8,71.4,53.6,70.1z M77.2,76.9c0,0.3,0,0.7,0,1
		c0.2-0.5,0.4-1,0.6-1.5c0,0,0-0.1,0-0.1C77.6,76.4,77.4,76.7,77.2,76.9z M83.5,73.5c-0.1,0.7-0.3,1.3-0.4,1.9
		c-0.2,0.8-0.4,1.7-0.5,2.5c0.4-0.4,0.7-0.9,1.1-1.3C83.6,75.6,83.6,74.5,83.5,73.5z M76.5,66c0.2,3.7,0.2,7.3,0.2,11
		c0.1-0.1,0.1-0.2,0.2-0.2c-0.1-3.6-0.1-7.2-0.1-10.8c0,0,0-0.1,0-0.1C76.6,65.9,76.5,65.9,76.5,66z M77.1,65.6c0,0.1,0,0.2,0,0.4
		c0,3.4,0,6.9,0.1,10.4c0.2-0.2,0.4-0.4,0.6-0.6c0-3.5,0-7,0-10.5C77.5,65.4,77.3,65.5,77.1,65.6z M75.8,66.4
		c0.2,3.1,0.3,6.2,0.5,9.3c0-3.1,0-6.3-0.2-9.4C76,66.2,75.9,66.3,75.8,66.4z M78.1,65c0,3.4,0,6.9,0,10.3c0,0,0,0,0,0
		c1.4-3.9,2.5-7.4,3.1-10.1c0-0.3,0-0.6,0-0.9c0-0.2,0-0.5,0-0.7C80.3,64,79.2,64.5,78.1,65z M54.3,74c0,0.3,0,0.6,0.1,1
		c0.1-0.6,0.2-1.3,0.2-1.9C54.5,73.4,54.4,73.7,54.3,74z M81.7,72.6c-0.1,0.7-0.1,1.5-0.2,2.2c0.7-1.1,1.3-2.3,1.9-3.4
		c0,0,0-0.1,0-0.1C82.9,71.7,82.3,72.1,81.7,72.6z M81.3,67c-0.6,2.3-1.4,4.9-2.4,7.6c0.8-0.7,1.5-1.4,2.3-2.1
		C81.2,70.8,81.2,68.9,81.3,67z M66.1,61.4c-0.5,4.2-1,8.4-1.4,12.7c0.3-0.3,0.6-0.5,0.9-0.8C65.8,69.4,66,65.4,66.1,61.4z
		 M53.9,68.6c0.1,1.5,0.3,2.9,0.4,4.4c0.1-0.4,0.3-0.9,0.4-1.3c0-0.1,0.1-0.1,0.1-0.1c0.7-5.6,1.3-11.1,1.8-16.3
		C55.5,59.6,54.6,64,53.9,68.6z M66.6,57.9C66.5,63,66.3,68,66,73c1.3-1.2,2.7-2.3,4.1-3.3c0.1-2.3,0.2-4.6,0.3-6.9
		c-0.2-4.3-0.5-8.5-0.9-12.6c-0.9,1.7-1.8,3.4-2.6,5.3C66.8,56.3,66.7,57.1,66.6,57.9z M82.8,61.3c-0.4,3.6-0.7,7.2-1.1,10.8
		c0.5-0.4,1.1-0.9,1.6-1.2C83.3,67.6,83.1,64.4,82.8,61.3z M83.1,59.3c0.3,3.7,0.6,7.5,0.7,11.2c3.8-17.4,8.5-40.4,5.4-50
		C86.6,33.5,84.5,46.2,83.1,59.3z M81.7,65.2c0,1.6-0.1,3.2-0.1,4.8c0.3-3.6,0.7-7.2,1.1-10.7c-0.2-2.6-0.5-5.2-0.8-7.8
		c0,3.9-0.1,7.7-0.2,11.4c0,0,0,0,0.1,0c0.1,0,0.1,0,0.2,0c0.1,0,0.1,0.1,0.1,0.2C82,63.8,81.8,64.5,81.7,65.2z M70.6,66.9
		c0,0.8-0.1,1.7-0.1,2.5c0.1,0,0.1-0.1,0.2-0.1C70.7,68.5,70.6,67.7,70.6,66.9z M70.8,62.8c0.1,2.1,0.2,4.1,0.2,6.2
		c0.9-0.6,1.7-1.2,2.6-1.8c0-1.9,0-3.9,0-5.8c0-0.4,0-0.9-0.1-1.3c-0.1-2.6-0.2-5.2-0.4-7.9c-0.2-2.3-0.4-4.5-0.8-6.7
		c-0.1,0.1-0.1,0.2-0.2,0.2C71.6,51.3,71.1,57.1,70.8,62.8z M74,61.4c0.1,1.8,0.2,3.6,0.2,5.4c0.4-0.2,0.7-0.5,1.1-0.7
		c-0.3-5.7-0.7-11.4-1.1-17.1c-0.3-1.6-0.6-3.2-0.9-4.8c0,0-0.1,0.1-0.1,0.1c0.1,2.6,0.2,5.2,0.3,7.7C73.9,55.2,74,58.3,74,61.4z
		 M75,53.9c0.3,4,0.5,8.1,0.7,12.1c0.1-0.1,0.2-0.1,0.3-0.2C75.9,61.8,75.5,57.8,75,53.9z M77.7,33.4c-1.5,7.1-1.1,19-0.8,26.6
		c0.1,2,0.1,3.8,0.1,5.1c0.2-0.1,0.4-0.2,0.7-0.4C77.7,54.4,77.7,43.9,77.7,33.4z M78.1,31.8c0,11,0,21.9,0,32.8
		c1.1-0.6,2.2-1.1,3.2-1.5c0.1-4.8,0.2-9.7,0.2-14.6c-0.8-6.1-1.8-12.1-3-17.9C78.4,31,78.2,31.4,78.1,31.8z M69.9,49.6
		c0.3,3.2,0.5,6.5,0.7,9.9c0.3-4.4,0.7-8.8,1.2-13C71.2,47.4,70.5,48.5,69.9,49.6z M68.9,44c-0.7,3.3-1.3,6.7-1.8,10.2
		c0.8-1.6,1.5-3.2,2.4-4.6C69.3,47.7,69.1,45.8,68.9,44z M72.8,45.1c0.1,0.5,0.1,1,0.2,1.4c0-0.5,0-1.1-0.1-1.6
		C72.9,45,72.9,45,72.8,45.1z M78.6,29.8C78.6,29.8,78.6,29.8,78.6,29.8c0.1,0,0.2,0.1,0.2,0.1c1.1,5.1,2,10.4,2.7,15.7
		c-0.1-11.4-0.8-22.5-3.3-31.2c-0.1,5.4-0.1,10.7-0.1,16.1c0.1-0.3,0.2-0.5,0.3-0.7C78.4,29.8,78.5,29.8,78.6,29.8z M73.5,43.7
		C73.5,43.7,73.5,43.7,73.5,43.7c0.1,0,0.2,0.1,0.2,0.1c0.1,0.6,0.2,1.1,0.4,1.7c-0.3-3.8-0.6-7.5-1-11.2c0,3.2,0.1,6.3,0.2,9.5
		c0,0,0,0,0.1-0.1C73.4,43.8,73.4,43.7,73.5,43.7z"/>
</g>
<g>
	<g>
		<path class="st2" d="M128.8,138.1v-11.6c-0.1,0.8-0.1,0.9-0.6,2.2l-3.6,9.3h-2.7l-3.3-9.2c-0.3-0.9-0.4-1.2-0.6-2.5v11.7h-2.7
			v-15.8h3.6l4.2,11.3c0.2,0.5,0.2,0.6,0.3,1.2c0.1-0.7,0.1-0.8,0.3-1.2l4.4-11.3h3.6v15.8H128.8z"/>
	</g>
	<g>
		<path class="st2" d="M146.5,138.1l-1.2-3.9h-5.3l-1.3,3.9h-3.2l5.7-15.8h2.7l5.7,15.8H146.5z M142.6,125.9l-1.8,5.7h3.7
			L142.6,125.9z"/>
	</g>
	<g>
		<path class="st2" d="M161.5,138.1l-3.6-6.3h-1.5v6.3h-3v-15.8h5.3c2.3,0,3.3,0.3,4.3,1.2c0.9,0.8,1.3,1.9,1.3,3.4
			c0,1.2-0.3,2.2-0.9,3c-0.6,0.8-1.1,1.1-2.5,1.5l3.9,6.8H161.5z M158.3,124.9h-2v4.3h2c1.9,0,2.7-0.7,2.7-2.2
			C161,125.5,160.3,124.9,158.3,124.9z"/>
	</g>
	<g>
		<path class="st2" d="M176.9,138.1l-5.3-7.5v7.5h-3v-15.8h3v7.4l4.9-7.4h3.5l-5.4,7.7l5.7,8.1H176.9z"/>
	</g>
	<g>
		<path class="st2" d="M183.9,138.1v-15.8h9.6v2.6h-6.6v3.9h5.4v2.6h-5.4v4.2h6.9v2.6H183.9z"/>
	</g>
	<g>
		<path class="st2" d="M204.1,124.9v13.2h-3v-13.2h-4.7v-2.6h12.5v2.6H204.1z"/>
	</g>
	<g>
		<path class="st2" d="M212.6,138.1v-15.8h3v15.8H212.6z"/>
	</g>
	<g>
		<path class="st2" d="M231.9,138.3l-6.8-10.2c0-0.1-0.2-0.3-0.3-0.6c-0.1-0.2-0.2-0.3-0.2-0.3c-0.1-0.2-0.1-0.3-0.2-0.5v11.6h-2.9
			v-15.8h3.5l6.6,10.4c0,0,0.1,0.2,0.2,0.3c0.1,0.2,0.1,0.3,0.1,0.3l0.1,0.4l0.1,0.3v-11.7h2.8v15.9H231.9z"/>
	</g>
	<g>
		<path class="st2" d="M252.5,137.9c-1.7,0.4-2.7,0.5-4,0.5c-5.2,0-8.9-3.3-8.9-8.2c0-2.4,0.9-4.5,2.6-6c1.6-1.5,3.4-2.1,6.2-2.1
			c1.2,0,2.3,0.1,3.3,0.4c0.8,0.2,1.2,0.4,2.3,0.8l-0.7,2.5c-0.6-0.2-1-0.4-1.3-0.5c-1.1-0.4-2.2-0.6-3.3-0.6c-3.5,0-6,2.2-6,5.3
			c0,3.2,2.7,5.7,6.2,5.7c0.7,0,1.1-0.1,2.1-0.3v-4.4h3v6.5C253.3,137.7,252.8,137.8,252.5,137.9z"/>
	</g>
	<g>
		<path class="st2" d="M271.5,131.9v6.2h-2.6v-6.2h-6.2v-2.6h6.2V123h2.6v6.2h6.2v2.6H271.5z"/>
	</g>
	<g>
		<path class="st2" d="M300,138.1v-11.6c-0.1,0.8-0.1,0.9-0.6,2.2l-3.6,9.3h-2.7l-3.3-9.2c-0.3-0.9-0.4-1.2-0.6-2.5v11.7h-2.7v-15.8
			h3.6l4.2,11.3c0.2,0.5,0.2,0.6,0.3,1.2c0.1-0.7,0.1-0.8,0.3-1.2l4.4-11.3h3.6v15.8H300z"/>
	</g>
	<g>
		<path class="st2" d="M308.8,138.1v-15.8h9.6v2.6h-6.6v3.9h5.4v2.6h-5.4v4.2h6.9v2.6H308.8z"/>
	</g>
	<g>
		<path class="st2" d="M335.3,135.8c-1.5,1.6-3.5,2.3-6.4,2.3H323v-15.8h5.9c3,0,4.9,0.7,6.4,2.3c1.4,1.5,2.1,3.5,2.1,5.5
			C337.4,132.3,336.6,134.3,335.3,135.8z M332.4,125.9c-0.8-0.6-2.1-0.9-3.8-0.9h-2.4v10.5h2.4c3.6,0,5.6-1.9,5.6-5.3
			C334.2,128.4,333.5,126.8,332.4,125.9z"/>
	</g>
	<g>
		<path class="st2" d="M341.6,138.1v-15.8h3v15.8H341.6z"/>
	</g>
	<g>
		<path class="st2" d="M359.2,138.1l-1.2-3.9h-5.3l-1.3,3.9h-3.2l5.7-15.8h2.7l5.7,15.8H359.2z M355.3,125.9l-1.8,5.7h3.7
			L355.3,125.9z"/>
	</g>
</g>
<g>
	<g>
		<path class="st2" d="M140.9,65.5c-2.3-1.4-3.3-1.9-4.8-2.3c-1.7-0.6-4.5-1-6.3-1c-5.2,0-8.7,2.6-8.7,6.4c0,3.4,2,5.1,11.3,10
			c3.1,1.7,5.5,3.2,7.2,4.6c2.2,1.9,3.5,5,3.5,8.3c0,7.8-5.8,12.7-15,12.7c-3.1,0-6-0.6-8.4-1.5c-1.7-0.7-2.9-1.4-5.9-3.4l2.9-4.5
			c2.6,1.7,3.7,2.3,5.2,3c2,0.8,4.2,1.2,6.6,1.2c5.4,0,8.6-2.6,8.6-6.9c0-1.3-0.2-2.4-0.7-3.2c-0.8-1.4-2.1-2.7-3.9-3.7
			c-0.8-0.4-3.3-1.7-7.6-4.1c-6.8-3.7-9.7-7.3-9.7-11.9c0-7.3,6-12.1,15-12.1c2.6,0,5.3,0.3,7.7,1.1c1.9,0.6,3,1.2,5.5,2.7
			L140.9,65.5z"/>
	</g>
	<g>
		<path class="st2" d="M174.9,102.1c-2.6,1.4-5.6,2.1-8.7,2.1c-9.5,0-16-6.6-16-16.2c0-9.9,6.8-16.8,16.4-16.8
			c1.6,0,3.1,0.2,4.6,0.6c2.1,0.6,3,1,5.2,2.6l-3,4.2c-2.4-2-4.2-2.7-7-2.7c-6.3,0-10.5,4.8-10.5,11.9c0,7.2,4.2,11.7,10.9,11.7
			c3,0,5-0.7,7.5-2.6l2.7,4.1C176.1,101.4,175.4,101.8,174.9,102.1z"/>
	</g>
	<g>
		<path class="st2" d="M198.6,77.7c-1-0.9-1.6-1.2-2.2-1.2c-1.9,0-4.4,2.8-7.4,8.2v18.6h-5.2V72h5.2v5.7c3.9-5,5.8-6.5,8.1-6.5
			c1.2,0,2.6,0.8,4,2.1L198.6,77.7z"/>
	</g>
	<g>
		<path class="st2" d="M229.2,104.2c-4.3-0.3-5.8-1.4-6.1-4.3c-1.6,1.4-2.3,1.9-3.3,2.5c-1.9,1.1-4.4,1.8-6.6,1.8
			c-5,0-8.4-3.2-8.4-8.2c0-4.6,2.4-7.6,7-8.7l10.8-2.6V79c0-2.6-1.9-3.9-5.9-3.9c-3.2,0-4.8,0.9-4.8,2.7c0,0.3,0.1,0.6,0.3,1.2
			l-5.2,1.1c-0.5-0.8-0.6-1.2-0.6-1.9c0-4.1,4.6-7,11.3-7c6.3,0,10.2,3,10.2,7.8v16.9v2.3c0.1,0.8,1,1.4,2.6,1.7L229.2,104.2z
			 M222.7,89l-11.7,3c-0.8,1.4-0.9,2.1-0.9,3.4c0,2.5,1.7,4.1,4.2,4.1c2.3,0,3.9-0.8,8.4-4V89z"/>
	</g>
	<g>
		<path class="st2" d="M246.3,104.2c-3.6,0-6-2.8-6-7V76.4H235v-3l5.2-1.3v-9.1h5.2V72h8.3v4.3h-8.3v17.8l0.1,1.4
			c0.1,1,0.1,1.6,0.1,1.9c0.1,1,0.7,1.5,1.8,1.5c1.3,0,2.3-0.6,4.6-2.2l2.1,3.5C250.5,103.3,248.8,104.2,246.3,104.2z"/>
	</g>
	<g>
		<path class="st2" d="M283,102.1c-2.6,1.4-5.6,2.1-8.7,2.1c-9.5,0-16-6.6-16-16.2c0-9.9,6.8-16.8,16.4-16.8c1.6,0,3.1,0.2,4.6,0.6
			c2.1,0.6,3,1,5.2,2.6l-3,4.2c-2.4-2-4.2-2.7-7-2.7c-6.3,0-10.5,4.8-10.5,11.9c0,7.2,4.2,11.7,10.9,11.7c3,0,5-0.7,7.5-2.6l2.7,4.1
			C284.2,101.4,283.5,101.8,283,102.1z"/>
	</g>
	<g>
		<path class="st2" d="M312.2,103.3V81.1c0-2.1-0.1-2.8-0.5-3.7c-0.5-1-1.7-1.7-3.1-1.7c-3.2,0-6.6,2.3-12,8.4v19.1h-5.2V53h5.2
			v25.6c2.1-2.4,2.7-3,4.2-4.3c2.4-2,5.5-3.1,8.4-3.1c5.5,0,8.2,2.8,8.2,8.7v23.4H312.2z"/>
	</g>
	<g>
		<path class="st2" d="M337.7,70.1V58.5c-0.1,0.8-0.1,0.9-0.6,2.2l-3.6,9.3h-2.7l-3.3-9.2c-0.3-0.9-0.4-1.2-0.6-2.5v11.7h-2.7V54.3
			h3.6l4.2,11.3c0.2,0.5,0.2,0.6,0.3,1.2c0.1-0.7,0.1-0.8,0.3-1.2l4.4-11.3h3.6v15.8H337.7z"/>
	</g>
	<g>
		<path class="st2" d="M360.2,70.1V58.5c-0.1,0.8-0.1,0.9-0.6,2.2l-3.6,9.3h-2.7l-3.3-9.2c-0.3-0.9-0.4-1.2-0.6-2.5v11.7h-2.7V54.3
			h3.6l4.2,11.3c0.2,0.5,0.2,0.6,0.3,1.2c0.1-0.7,0.1-0.8,0.3-1.2l4.4-11.3h3.6v15.8H360.2z"/>
	</g>
</g>
</svg>
