<?xml version="1.0" encoding="utf-8"?>
<!-- Generator: Adobe Illustrator 21.1.0, SVG Export Plug-In . SVG Version: 6.00 Build 0)  -->
<svg version="1.1" xmlns="http://www.w3.org/2000/svg" xmlns:xlink="http://www.w3.org/1999/xlink" x="0px" y="0px"
	 viewBox="0 0 2400 1080" style="enable-background:new 0 0 2400 1080;" xml:space="preserve">
<style type="text/css">
	.st0{display:none;}
	.st1{display:inline;}
	.st2{fill:#FFCCCC;}
	.st3{opacity:0.5;}
	.st4{fill:#9999CC;}
	.st5{font-family:'Moon-Light';}
	.st6{font-size:148px;}
	.st7{font-family:'Montserrat-Light';}
	.st8{font-size:48px;}
</style>
<g id="Layer_1" class="st0">
	<g class="st1">
		<rect class="st2" width="2400" height="1080"/>
	</g>
</g>
<g id="Layer_3">
	<g>
		<g class="st3">
			<path class="st4" d="M1975.5,465c-8,3.3-15.8,7.1-23.6,10.9c-7.8,3.9-15.5,7.8-23.1,11.9c-15.3,8.2-30.3,16.8-45.2,25.7
				c-14.9,8.9-29.6,18.1-44.1,27.5c-14.6,9.4-28.9,19-43.2,28.9c-28.5,19.7-56.5,40.1-84,61.2c-27.5,21.1-54.6,42.6-80.9,65.1
				c-52.7,44.8-102.6,92.9-150.3,143l-8.9,9.4l-8.8,9.5c-3,3.2-5.9,6.3-8.8,9.5c-2.9,3.2-5.9,6.4-8.7,9.6
				c-11.6,12.9-23,25.8-34.3,39c-11.3,13.1-22.3,26.5-33.2,40c-5.4,6.7-10.8,13.5-16,20.4c-5.2,6.8-10.5,13.8-15.4,20.7l-7.4-9.1
				c7.9-3.2,15.9-6.5,23.9-10c8-3.4,15.9-6.9,23.8-10.5c15.8-7.1,31.5-14.5,47.1-22c31.2-15.1,62-31.2,92.3-48
				c30.3-16.9,60.1-34.7,89.4-53.3c29.2-18.7,57.9-38.2,85.9-58.7c28-20.5,55-42.2,81.5-64.6l5-4.2l4.9-4.3l9.8-8.5l9.7-8.6l4.8-4.3
				l4.8-4.4c12.8-11.6,25.4-23.6,37.8-35.6c12.4-12.1,24.6-24.4,36.5-36.9c11.9-12.5,23.7-25.2,35.1-38.1
				c11.4-13,22.6-26.1,33.3-39.5c5.4-6.7,10.7-13.5,15.8-20.3c2.6-3.4,5.1-6.9,7.6-10.3c1.2-1.7,2.5-3.5,3.7-5.2l1.8-2.6l1.7-2.5
				l4.7-7l7.5,4.1l1.3,0.7l1.4,0.7l2.8,1.4c1.9,0.9,3.8,1.9,5.8,2.7c3.9,1.8,7.8,3.4,11.8,5c8,3.1,16.1,5.8,24.4,7.9
				c16.5,4.2,33.4,6.4,49.8,5.2c16.4-1.2,32.1-6,45.4-14.7c14.2-9.3,27.2-20.1,37.2-33c5-6.4,9.3-13.4,12.8-20.8
				c3.5-7.4,6.4-15.2,8.8-23.4c2.4-8.2,4.5-16.7,6.7-25.5c2.2-8.7,4.8-17.7,8-26.6c1.6-4.5,3.4-8.8,5.6-13.3
				c2.1-4.5,4.5-8.7,7.2-12.8c5.2-8.2,11.4-15.6,17.9-22.4c6.6-6.8,13.6-13.1,21-18.8c3.7-2.9,7.5-5.6,11.3-8.3
				c1.9-1.3,3.9-2.6,5.9-3.9c1-0.6,2-1.3,3-1.9l1.6-0.9l1.7-1l2.7,18.4c-8.4-1.9-17-3.7-25.6-5.5c-8.6-1.7-17.2-3.4-25.8-4.9
				c-17.2-3.2-34.5-6-51.9-8.6c-8.7-1.3-17.4-2.5-26-3.6c-8.7-1.1-17.3-2.1-25.9-2.7c-17.2-1.3-34.4-1.5-51.2,0.8
				c-16.7,2.3-33,7.3-46.9,16.3c-14.1,8.9-26.2,21.2-35.8,35.4c-9.6,14.1-16.9,30-22.2,46.6c-2.7,8.3-4.8,16.7-6.5,25.3
				c-0.8,4.3-1.6,8.6-2.2,12.9c-0.3,2.2-0.5,4.3-0.7,6.5c-0.1,1.1-0.2,2.2-0.2,3.3c0,0.5,0,1.1,0,1.6l0,0.3c0,0,0,0.1,0,0
				c0.9,0.2-1.5-1.1-1.8-0.2c-0.1,0.2-0.1,0.2-0.1,0.2c0-0.1,0.1-0.4,0.1-0.7l2,0.2c0,0.3,0,0.5-0.1,1c0,0.1,0,0.1-0.1,0.4
				c-0.4,1.1-2.9-0.4-2-0.2c-0.1-0.2-0.1-0.3-0.1-0.4l-0.1-0.5c-0.1-0.6-0.1-1.2-0.1-1.7c0-1.1-0.1-2.2,0-3.4c0-2.2,0.1-4.5,0.2-6.7
				c0.2-4.4,0.6-8.9,1.1-13.3c1.1-8.8,2.7-17.6,4.8-26.3c2.1-8.7,4.9-17.3,8.2-25.6c3.3-8.4,7.2-16.6,11.9-24.3
				c9.4-15.6,21.7-29.7,36.9-40.4c3.8-2.7,7.9-5.1,12-7.2c4.1-2.2,8.4-4.1,12.8-5.7c2.2-0.9,4.4-1.6,6.6-2.3
				c2.2-0.7,4.4-1.4,6.7-1.9c4.5-1.2,9-2.2,13.5-3c18.1-3.2,36.4-3.6,54.4-2.8c9,0.4,17.9,1.1,26.8,2c8.9,0.9,17.7,1.8,26.5,2.9
				c17.6,2.1,35.2,4.6,52.7,7.4c8.8,1.4,17.5,2.9,26.3,4.5c8.8,1.6,17.4,3.2,26.3,5.1l24.8,5.2l-22.1,13.2l-1.2,0.7l-1.3,0.8
				l-2.6,1.7c-1.8,1.2-3.5,2.3-5.2,3.6c-3.5,2.4-6.9,5-10.2,7.7c-6.6,5.3-12.9,11-18.6,17.1c-5.7,6.1-10.9,12.6-15.2,19.5
				c-2.2,3.4-4.1,6.9-5.8,10.6c-1.7,3.6-3.3,7.5-4.7,11.5c-5.7,15.7-8.9,33.1-14.1,50.9c-2.6,8.9-5.8,17.9-10,26.6
				c-4.2,8.7-9.3,17-15.3,24.6c-6,7.6-12.7,14.5-19.9,20.7c-7.2,6.2-14.8,11.7-22.7,16.8c-8.3,5.3-17.4,9.4-26.8,12.2
				c-9.4,2.8-19.1,4.4-28.7,4.9c-19.3,1.1-38.1-1.9-56.1-6.8c-9-2.5-17.8-5.6-26.3-9.1c-4.3-1.8-8.5-3.6-12.7-5.7
				c-2.1-1-4.2-2-6.2-3.1l-3.1-1.7l-1.6-0.9l-1.7-1l12.2-2.9c-0.7,1.1-1.3,1.9-2,2.9l-1.9,2.7c-1.3,1.8-2.6,3.6-3.9,5.4
				c-2.6,3.6-5.3,7.1-8,10.5c-5.4,7-10.9,13.8-16.5,20.5c-11.2,13.5-22.9,26.6-34.8,39.4c-23.8,25.6-48.8,50.1-74.7,73.6
				c-12.9,11.7-26,23.3-39.3,34.5l-5,4.2l-5,4.2l-10,8.4l-10.1,8.2l-5.1,4.1l-5.1,4.1l-10.2,8.1l-10.3,8
				c-6.8,5.4-13.8,10.6-20.7,15.9c-3.5,2.7-7,5.2-10.5,7.8l-10.5,7.8c-7,5.1-14.1,10.2-21.2,15.3c-28.4,20.2-57.3,39.5-86.7,58.3
				c-14.7,9.3-29.5,18.5-44.4,27.5c-14.9,9-29.9,17.8-45,26.5c-30.2,17.4-60.7,34.1-91.6,50.2c-15.4,8.1-31,15.9-46.6,23.6
				c-7.8,3.8-15.7,7.6-23.6,11.3c-7.9,3.7-15.8,7.4-23.9,10.9l-19,8.3l11.6-17.4c4.9-7.4,9.9-14.5,15.1-21.6
				c5.1-7.1,10.3-14.1,15.5-21.1c10.5-14,21.3-27.7,32.2-41.3c22-27.1,44.9-53.6,68.6-79.2c47.5-51.3,98.3-99.4,152-144.2
				c26.8-22.4,54.4-43.9,82.6-64.5c7-5.2,14.1-10.2,21.2-15.3c7.1-5,14.3-10.1,21.5-15c14.4-9.9,28.9-19.6,43.6-29
				c29.4-18.8,59.4-36.7,90.2-53.1c15.4-8.2,31-16,46.9-23.3c7.9-3.6,15.9-7.2,24-10.5c8.1-3.3,16.2-6.5,24.5-9.2L1975.5,465z"/>
		</g>
		<g class="st3">
			<path class="st4" d="M2009.1,444.3c2.6-9.3,6.3-18.2,10.4-27c4.1-8.8,8.8-17.3,14-25.5c2.6-4.1,5.4-8.1,8.3-12
				c2.9-3.9,6-7.7,9.2-11.4c6.4-7.4,13.4-14.3,21.3-20.5c3.9-3.1,8.1-5.8,12.4-8.3c4.3-2.5,8.7-4.7,13.2-6.7
				c9.1-3.9,18.5-6.9,28-8.9c9.6-2,19.3-3.2,29-3.6c9.7-0.3,19.4-0.1,28.9,1.6c-9.6,0.4-19.1,1.4-28.5,2.9
				c-9.4,1.5-18.6,3.5-27.7,6.1c-18,5.2-35.3,12.9-49.9,24.2c-1.8,1.4-3.6,2.8-5.3,4.4c-1.8,1.5-3.5,3.1-5.2,4.7
				c-3.4,3.2-6.7,6.5-9.9,9.9c-6.4,6.9-12.4,14.1-18,21.7c-5.7,7.6-11,15.5-16,23.6C2018.3,427.4,2013.6,435.7,2009.1,444.3z"/>
		</g>
		<g class="st3">
			<path class="st4" d="M2167.1,401c-2.3,4.8-5.2,9.4-8.3,13.8c-3.1,4.4-6.6,8.5-10.2,12.4c-7.4,7.8-15.9,14.8-25.7,20.1
				c-9.9,5.3-21.1,7.8-32,8.1c-5.5,0.1-10.9-0.3-16.2-1.2c-2.7-0.5-5.3-1.1-7.9-1.8c-2.6-0.7-5.1-1.6-7.6-2.8
				c10.7,0.5,21,0.1,31.1-1.4c10-1.5,19.7-4.2,28.5-8.8c8.8-4.6,17.2-10.6,25.2-17.2C2151.9,415.7,2159.5,408.5,2167.1,401z"/>
		</g>
		<g class="st3">
			<path class="st4" d="M2158.2,359.7c-6.8,4-13.6,7.8-20.2,11.8c-3.3,2-6.6,4-9.8,6.2c-1.6,1-3.1,2.2-4.7,3.3
				c-1.5,1.1-3,2.3-4.5,3.5c-6,4.8-11.8,10-17.7,15.1c-5.9,5.1-11.8,10.2-17.9,15.2c4.7-6.3,9.9-12.2,15.3-17.9
				c5.4-5.7,11.1-11.1,17.2-16.2c1.5-1.3,3.2-2.5,4.8-3.7c1.6-1.1,3.3-2.2,5-3.3c3.4-2.1,6.9-4,10.5-5.7
				C2143.1,364.5,2150.5,361.7,2158.2,359.7z"/>
		</g>
		<g class="st3">
			<path class="st4" d="M1951.7,477c3.9,2.1,7,4.8,9.9,7.6c2.9,2.8,5.5,5.9,7.8,9.1c2.3,3.2,4.4,6.6,6.2,10.2
				c1.8,3.6,3.3,7.4,4.1,11.7c-3.9-2.1-7-4.8-9.9-7.6c-2.9-2.8-5.5-5.9-7.8-9.1c-2.3-3.2-4.4-6.6-6.2-10.2
				C1954.1,485.1,1952.5,481.3,1951.7,477z"/>
		</g>
		<g class="st3">
			<path class="st4" d="M1974.7,469.1c2.5,1.6,4.6,3.6,6.5,5.6c2,2,3.7,4.2,5.4,6.4c1.7,2.2,3.2,4.6,4.5,7.1c1.3,2.5,2.6,5,3.4,7.9
				c-2.5-1.6-4.6-3.6-6.6-5.6c-2-2-3.7-4.2-5.4-6.4c-1.7-2.3-3.2-4.6-4.5-7.1C1976.7,474.5,1975.5,472,1974.7,469.1z"/>
		</g>
	</g>
	<g>
		<g class="st3">
			<path class="st4" d="M1572.9,201.6c-27.6,61.8-56.4,123.1-85.5,184.2c-29.1,61.1-58.8,121.9-88.8,182.6
				c-14.9,30.4-30.1,60.6-45.5,90.7c-15.4,30.1-31,60.1-46.8,90l-47.4,89.8c-15.8,29.9-31.3,60-46.7,90.1l-1.2-4.1
				c6.7,4.4,13.5,8.7,20.3,13c6.8,4.3,13.5,8.6,20.4,12.9c6.8,4.3,13.6,8.6,20.4,12.8l20.5,12.7l-4.8,1.3
				c7.7-15.3,15.3-30.6,22.8-45.9c7.6-15.3,15.1-30.7,22.6-46.1l44.9-92.3c7.5-15.4,15-30.7,22.6-46.1c7.5-15.4,15.1-30.7,22.7-46
				l46-91.7c30.7-61.1,61.3-122.3,92.6-183.1c31.3-60.8,63-121.4,95-181.9l-0.9,3l6.1-41.1l6.2-41.1l6.4-41.1l6.4-41.1l10,5.1
				l-28,25.3c-9.3,8.5-18.7,16.8-28.1,25.2l-14.1,12.6l-14.1,12.5c-9.4,8.4-18.9,16.7-28.4,25l-1.4-1.4c8.7-9.1,17.5-18.1,26.3-27.1
				l13.2-13.5l13.3-13.5c8.8-9,17.7-17.9,26.5-26.9l26.6-26.8l11.8-11.9l-1.8,16.9l-4.5,41.3l-4.6,41.3l-4.7,41.3l-4.8,41.3
				l-0.2,1.4l-0.8,1.5c-30.4,61.3-61.1,122.4-92.2,183.3c-31.1,60.9-62.8,121.5-94.6,182.1l-47.6,90.9c-8,15.1-16,30.2-24,45.3
				c-8,15.1-16.1,30.2-24.2,45.2l-48.7,90.3c-8.1,15-16.2,30.1-24.2,45.2c-8.1,15.1-16,30.2-24,45.4l-1.7,3.3l-3.1-2l-20.2-13.1
				c-6.8-4.4-13.5-8.7-20.3-13c-6.8-4.3-13.6-8.6-20.4-12.9c-6.8-4.3-13.6-8.5-20.5-12.8l-2.4-1.5l1.3-2.6
				c14.9-30.4,29.5-60.9,44-91.5l43.2-91.8c14.4-30.6,29-61.1,43.8-91.6c14.8-30.4,29.9-60.7,45.2-90.9
				c30.5-60.4,61.3-120.7,92.6-180.7c31.3-60,63-119.8,95.8-179L1572.9,201.6z"/>
		</g>
		<g class="st3">
			<path class="st4" d="M1258.7,841.4c7.2,2.6,13.9,5.9,20.4,9.5c6.5,3.6,12.8,7.5,19,11.6c6.2,4.1,12.1,8.5,17.9,13.2
				c5.8,4.7,11.4,9.7,16.5,15.4c-7.2-2.6-13.9-5.9-20.4-9.5c-6.5-3.6-12.8-7.5-19-11.6c-6.1-4.1-12.1-8.5-17.9-13.2
				C1269.4,852.1,1263.8,847.1,1258.7,841.4z"/>
		</g>
		<g class="st3">
			<path class="st4" d="M1273.7,815.2c6.9,2.4,13.3,5.7,19.6,9.1c6.3,3.5,12.3,7.2,18.2,11.2c5.9,4,11.6,8.2,17.1,12.8
				c5.5,4.6,10.8,9.4,15.7,14.9c-6.9-2.4-13.4-5.6-19.6-9.1c-6.3-3.5-12.3-7.2-18.2-11.2c-5.9-4-11.6-8.3-17.1-12.8
				C1283.9,825.5,1278.5,820.7,1273.7,815.2z"/>
		</g>
		<g class="st3">
			<path class="st4" d="M1580.3,196c7.2,2.3,13.8,5.4,20.3,8.6c6.5,3.3,12.8,6.9,19,10.8c6.2,3.9,12.1,8,17.9,12.4
				c5.8,4.5,11.4,9.1,16.6,14.6c-7.2-2.3-13.8-5.4-20.3-8.6c-6.5-3.3-12.8-6.9-19-10.8c-6.1-3.9-12.1-8-17.9-12.5
				C1591.1,206.1,1585.5,201.4,1580.3,196z"/>
		</g>
		<g class="st3">
			<path class="st4" d="M1647.9,128.2c2.9-0.5,5.3-0.2,7.5,0.3c2.3,0.5,4.3,1.4,6.2,2.5c1.9,1.1,3.7,2.5,5.2,4.2
				c1.6,1.7,3,3.7,3.9,6.4c-2.9,0.5-5.3,0.2-7.5-0.3c-2.3-0.5-4.3-1.4-6.2-2.5c-1.9-1.1-3.7-2.5-5.2-4.2
				C1650.3,132.9,1648.9,131,1647.9,128.2z"/>
		</g>
		<g class="st3">
			<path class="st4" d="M1312.1,782.2c10.5-21.4,21.2-42.7,31.8-64l32.1-63.9c10.7-21.3,21.5-42.5,32.3-63.8l32.3-63.7l32.6-63.6
				c10.9-21.2,21.7-42.4,32.6-63.6l32.8-63.5c11-21.1,22-42.3,33.1-63.3c-10.5,21.4-21.2,42.7-31.8,64l-32.1,63.9
				c-10.7,21.3-21.5,42.5-32.3,63.8l-32.3,63.7l-32.6,63.6c-10.9,21.2-21.7,42.4-32.6,63.6l-32.8,63.5
				C1334.2,739.9,1323.3,761.1,1312.1,782.2z"/>
		</g>
		<g class="st3">
			<path class="st4" d="M1338.4,797.1l7.8-16.1l7.9-16l15.7-32.1c10.6-21.4,21.1-42.7,31.8-64c10.6-21.3,21.4-42.6,32.1-63.9
				l32.3-63.7l32.6-63.6c10.9-21.2,21.8-42.4,32.8-63.5c11-21.1,22-42.3,33.1-63.3l16.7-31.6l8.4-15.8l8.4-15.7l-7.8,16.1l-7.9,16
				l-15.7,32.1c-10.6,21.4-21.1,42.7-31.8,64c-10.6,21.3-21.4,42.6-32.1,63.9l-32.3,63.7l-32.6,63.6c-10.9,21.2-21.8,42.4-32.8,63.5
				c-11,21.1-22,42.3-33.1,63.3l-16.7,31.6l-8.4,15.8L1338.4,797.1z"/>
		</g>
	</g>
</g>
<g id="Layer_2">
	<text transform="matrix(1 0 0 1 63 540)" class="st4 st5 st6">illustration</text>
	<text transform="matrix(1 0 0 1 194 615)" class="st4 st7 st8">digital art and character design</text>
</g>
</svg>
