<svg id="Layer_1" data-name="Layer 1" xmlns="http://www.w3.org/2000/svg" xmlns:xlink="http://www.w3.org/1999/xlink" viewBox="0 0 612 792"><defs><style>.cls-1,.cls-11,.cls-12,.cls-13,.cls-14,.cls-15,.cls-16,.cls-25,.cls-29,.cls-38{fill:none;}.cls-2{font-size:24px;font-family:Moon-Bold, Moon;font-weight:700;}.cls-18,.cls-2,.cls-3{fill:#231f20;}.cls-3{font-size:11px;font-family:Montserrat-Light, Montserrat;font-weight:300;}.cls-4{letter-spacing:-0.01em;}.cls-5{letter-spacing:0.03em;}.cls-6{letter-spacing:-0.03em;}.cls-7{letter-spacing:-0.03em;}.cls-8{letter-spacing:-0.03em;}.cls-9{letter-spacing:-0.03em;}.cls-10{fill:#5fc9db;}.cls-11,.cls-12{stroke:#39479e;}.cls-11,.cls-12,.cls-13,.cls-14,.cls-15,.cls-16,.cls-25,.cls-38{stroke-miterlimit:10;}.cls-11{stroke-width:4.19px;}.cls-12{stroke-width:4.14px;}.cls-13{stroke:#f04d4d;stroke-width:2.43px;}.cls-14,.cls-15{stroke:#5fc9db;}.cls-14{stroke-width:2.4px;}.cls-15{stroke-width:1.59px;}.cls-16,.cls-25{stroke:#f0627a;}.cls-16{stroke-width:6.77px;}.cls-17{fill:#39499e;}.cls-18{font-size:14px;font-family:Montserrat-Medium, Montserrat;font-weight:500;}.cls-19{letter-spacing:-0.08em;}.cls-20{letter-spacing:-0.03em;}.cls-21{letter-spacing:-0.02em;}.cls-22{letter-spacing:-0.01em;}.cls-23{letter-spacing:-0.02em;}.cls-24{fill:url(#linear-gradient);}.cls-25{stroke-width:6.86px;}.cls-26{fill:#f1637b;}.cls-27{fill:#60c9db;}.cls-28{fill:#394a9d;}.cls-29{stroke:#676767;stroke-linecap:round;stroke-linejoin:round;stroke-width:1.37px;}.cls-30{fill:url(#linear-gradient-2);}.cls-31{fill:#fff;}.cls-32{fill:url(#linear-gradient-3);}.cls-33{fill:#676767;}.cls-34{clip-path:url(#clip-path);}.cls-35{fill:url(#linear-gradient-4);}.cls-36{fill:#eeedee;}.cls-37{fill:url(#linear-gradient-5);}.cls-38{stroke:#eee;}</style><linearGradient id="linear-gradient" x1="107.06" y1="302.42" x2="207.68" y2="378.81" gradientUnits="userSpaceOnUse"><stop offset="0" stop-color="#fbcccd"/><stop offset="1" stop-color="#9999cb"/></linearGradient><linearGradient id="linear-gradient-2" x1="115.81" y1="609.88" x2="201.01" y2="674.56" gradientUnits="userSpaceOnUse"><stop offset="0" stop-color="#fbcccb"/><stop offset="1" stop-color="#9797ca"/></linearGradient><linearGradient id="linear-gradient-3" x1="-4962.24" y1="646.27" x2="-5015.87" y2="686.99" gradientTransform="matrix(-1, 0, 0, 1, -4769.64, 0)" xlink:href="#linear-gradient-2"/><clipPath id="clip-path"><circle class="cls-1" cx="162.66" cy="608.98" r="1.56"/></clipPath><linearGradient id="linear-gradient-4" x1="391.09" y1="596.85" x2="498.58" y2="678.47" xlink:href="#linear-gradient-2"/><linearGradient id="linear-gradient-5" x1="464.2" y1="644.34" x2="531.81" y2="695.68" xlink:href="#linear-gradient-2"/></defs><text class="cls-2" transform="translate(47.08 485.74)">Illustrations</text><text class="cls-3" transform="translate(47.08 507.72)">Crea<tspan class="cls-4" x="24.53" y="0">t</tspan><tspan x="28.68" y="0">e the prima</tspan><tspan class="cls-5" x="91.32" y="0">r</tspan><tspan x="95.65" y="0">y illust</tspan><tspan class="cls-6" x="129.27" y="0">r</tspan><tspan x="133.01" y="0">ation with the main g</tspan><tspan class="cls-7" x="249.15" y="0">r</tspan><tspan x="252.89" y="0">adient and use the circle </tspan><tspan x="0" y="13.2">and squiggle elements as a</tspan><tspan class="cls-7" x="146.76" y="13.2">cc</tspan><tspan x="158.53" y="13.2">ents</tspan></text><text class="cls-3" transform="translate(47.08 733.72)"><tspan class="cls-8">e</tspan><tspan class="cls-9" x="6.15" y="0">x</tspan><tspan x="11.58" y="0">ample 1</tspan></text><text class="cls-3" transform="translate(356.08 733.72)"><tspan class="cls-8">e</tspan><tspan class="cls-9" x="6.15" y="0">x</tspan><tspan x="11.58" y="0">ample 2</tspan></text><path class="cls-10" d="M242.82,322.09c-3.53,0-5.32-2.52-6.63-4.36s-2-2.69-3.4-2.69-2.14.92-3.4,2.69-3.1,4.36-6.63,4.36-5.32-2.52-6.63-4.36-2-2.69-3.4-2.69-2.14.92-3.4,2.69-3.1,4.36-6.63,4.36-5.33-2.52-6.63-4.36-2-2.69-3.4-2.69a2,2,0,1,1,0-4c3.53,0,5.32,2.52,6.63,4.35s2,2.69,3.4,2.69,2.14-.92,3.4-2.69,3.1-4.35,6.63-4.35,5.32,2.52,6.63,4.35,2,2.69,3.4,2.69,2.14-.92,3.4-2.69,3.1-4.35,6.63-4.35,5.32,2.52,6.63,4.35,2,2.69,3.4,2.69a2,2,0,1,1,0,4Zm2.36-11.58a2,2,0,0,0-2-2c-1.42,0-2.14-.93-3.4-2.69s-3.1-4.36-6.63-4.36-5.33,2.52-6.63,4.36-2,2.69-3.41,2.69-2.14-.93-3.4-2.69-3.1-4.36-6.63-4.36-5.32,2.52-6.63,4.36-2,2.69-3.4,2.69-2.14-.93-3.4-2.69-3.1-4.36-6.63-4.36a2,2,0,1,0,0,4c1.42,0,2.14.93,3.4,2.69s3.1,4.36,6.63,4.36,5.33-2.52,6.63-4.36,2-2.69,3.4-2.69,2.15.93,3.4,2.69,3.1,4.36,6.63,4.36,5.33-2.52,6.64-4.36,2-2.69,3.4-2.69,2.14.93,3.4,2.69,3.1,4.36,6.63,4.36A2,2,0,0,0,245.18,310.51Z"/><circle class="cls-11" cx="114.43" cy="295.62" r="11.96"/><circle class="cls-12" cx="117.76" cy="138.37" r="11.82"/><circle class="cls-13" cx="224.33" cy="288.56" r="6.95"/><circle class="cls-14" cx="87.8" cy="120.8" r="6.86"/><circle class="cls-15" cx="87.38" cy="306.08" r="4.53"/><circle class="cls-16" cx="78" cy="161.66" r="19.34"/><path class="cls-17" d="M405.31,157.19c-5.79,0-8.74-4.13-10.88-7.15s-3.26-4.42-5.59-4.42-3.51,1.52-5.58,4.42-5.09,7.15-10.88,7.15-8.74-4.13-10.89-7.15-3.25-4.42-5.58-4.42-3.51,1.52-5.58,4.42-5.09,7.15-10.88,7.15-8.73-4.13-10.88-7.15-3.25-4.42-5.58-4.42a3.26,3.26,0,1,1,0-6.51c5.79,0,8.73,4.14,10.88,7.16s3.25,4.41,5.58,4.41,3.52-1.51,5.58-4.41,5.09-7.16,10.88-7.16,8.74,4.14,10.89,7.16,3.25,4.41,5.58,4.41,3.51-1.51,5.58-4.41,5.09-7.16,10.88-7.16,8.74,4.14,10.89,7.16,3.25,4.41,5.58,4.41a3.26,3.26,0,0,1,0,6.51Zm3.87-19a3.25,3.25,0,0,0-3.25-3.25c-2.33,0-3.52-1.52-5.58-4.42s-5.09-7.15-10.89-7.15-8.73,4.13-10.88,7.15-3.25,4.42-5.58,4.42-3.52-1.52-5.59-4.42-5.08-7.15-10.88-7.15-8.73,4.13-10.88,7.15-3.25,4.42-5.58,4.42-3.52-1.52-5.58-4.42-5.09-7.15-10.89-7.15a3.26,3.26,0,0,0,0,6.51c2.33,0,3.52,1.51,5.59,4.41s5.08,7.16,10.88,7.16,8.73-4.14,10.88-7.16,3.25-4.41,5.58-4.41,3.52,1.51,5.58,4.41,5.09,7.16,10.89,7.16,8.73-4.14,10.88-7.16,3.25-4.41,5.58-4.41,3.52,1.51,5.59,4.41,5.08,7.16,10.88,7.16A3.25,3.25,0,0,0,409.18,138.18Z"/><text class="cls-2" transform="translate(47.08 58.74)">Design Elements</text><text class="cls-18" transform="translate(153.44 134.31)">Circle Elements:</text><text class="cls-18" transform="translate(52.66 247.13)">Design Elements With Logo</text><text class="cls-3" transform="translate(154.08 154.36)"><tspan class="cls-19">T</tspan><tspan x="5.26" y="0">o be used as a</tspan><tspan class="cls-20" x="81.57" y="0">cc</tspan><tspan x="93.35" y="0">ents </tspan><tspan class="cls-4" x="0" y="13.2">t</tspan><tspan x="4.15" y="13.2">o mimic bubbles</tspan></text><text class="cls-3" transform="translate(47.08 80.72)">Use as a<tspan class="cls-20" x="43.47" y="0">cc</tspan><tspan x="55.24" y="0">ents, only on whi</tspan><tspan class="cls-4" x="145.21" y="0">t</tspan><tspan x="149.36" y="0">e bac</tspan><tspan class="cls-21" x="178.77" y="0">k</tspan><tspan x="184.75" y="0">grounds</tspan></text><text class="cls-18" transform="translate(434.44 128.51)">Squiggle Elements:</text><text class="cls-3" transform="translate(435.08 148.56)"><tspan class="cls-19">T</tspan><tspan x="5.26" y="0">o be used as a</tspan><tspan class="cls-20" x="81.57" y="0">cc</tspan><tspan x="93.35" y="0">ents </tspan><tspan class="cls-4" x="0" y="13.2">t</tspan><tspan x="4.15" y="13.2">o mimic </tspan><tspan class="cls-22" x="51.9" y="13.2">w</tspan><tspan class="cls-21" x="61.17" y="13.2">a</tspan><tspan class="cls-23" x="67.23" y="13.2">v</tspan><tspan x="72.45" y="13.2">es</tspan></text><path class="cls-24" d="M204.16,362.37A18.41,18.41,0,0,1,192.79,354c4,1.9,11.18,4.94,20.12,0,10.94-6.06,9.82-18.77,9.82-18.77a14.89,14.89,0,0,1-14.2,10.59,14,14,0,0,1-10.21-4.8c2.23-.14,8.88.05,13.64-8.13,3.67-6.33.25-13.67.25-13.67s-1.94,8.55-10.53,11.53a10.21,10.21,0,0,1-4.28.62,43.7,43.7,0,1,0-86.22-10.05,44.29,44.29,0,0,0,.58,7.14,11,11,0,0,1-3.4-.81c-8.45-3.35-10-12-10-12s-3.51,11.53,6.36,18.93a20.29,20.29,0,0,0,7,2.85c-1,2.09-4.38,6.57-11.41,6.47C87,343.74,85.5,330.81,85.5,330.81s-1.9,19.39,15.6,22.63c9.31,1.72,14.07-2.1,17.68-4-.48,3.67-6.13,8.88-12.74,10.46-12.34,3-18.16-6.11-18.16-6.11s6.94,20.37,26.15,18.47c11.4-1.13,16-7.09,20-10.47a34.91,34.91,0,0,1-4.54,8.56c-5.48,7.83,4.39,23,4.39,23s-3.29-9.4,8.3-16.45c6.82-4.15,10-8.15,11.41-11.16,1.43,3,4.58,7,11.41,11.16,11.59,7.05,8.3,16.45,8.3,16.45s9.86-15.19,4.38-23a34.2,34.2,0,0,1-4.76-9.23l.13-.05c2,2.5,7.9,13.09,23.87,13.66,19.59.7,26.38-18.44,26.38-18.44A19.52,19.52,0,0,1,204.16,362.37Zm-63.78-42.61A5.72,5.72,0,1,1,146.1,314,5.72,5.72,0,0,1,140.38,319.76Zm14.13,17.55c-4.41,0-8-2.24-8.48-5.1-.05-.32.35-.58.83-.58h15.3c.48,0,.88.26.83.58C162.56,335.07,158.93,337.31,154.51,337.31Zm14.69-17.55a5.72,5.72,0,1,1,5.72-5.72A5.72,5.72,0,0,1,169.2,319.76Z"/><circle class="cls-25" cx="210.63" cy="368.22" r="19.58"/><path class="cls-17" d="M147.59,376.67c-5.88,0-8.86-4.2-11-7.26s-3.29-4.47-5.66-4.47-3.56,1.53-5.66,4.47-5.16,7.26-11,7.26-8.86-4.2-11-7.26-3.3-4.47-5.66-4.47-3.56,1.53-5.66,4.47-5.16,7.26-11,7.26-8.86-4.2-11-7.26-3.29-4.47-5.66-4.47a3.3,3.3,0,0,1,0-6.6c5.88,0,8.86,4.19,11,7.25s3.3,4.48,5.66,4.48,3.56-1.54,5.66-4.48,5.16-7.25,11-7.25,8.86,4.19,11,7.25,3.29,4.48,5.66,4.48,3.56-1.54,5.66-4.48,5.16-7.25,11-7.25,8.86,4.19,11,7.25,3.3,4.48,5.66,4.48a3.3,3.3,0,0,1,0,6.6Zm3.92-19.28a3.29,3.29,0,0,0-3.29-3.3c-2.37,0-3.57-1.53-5.67-4.47s-5.16-7.25-11-7.25-8.86,4.19-11,7.25-3.29,4.47-5.66,4.47-3.56-1.53-5.66-4.47-5.16-7.25-11-7.25-8.86,4.19-11,7.25-3.29,4.47-5.66,4.47-3.56-1.53-5.65-4.47-5.16-7.25-11-7.25a3.3,3.3,0,1,0,0,6.59c2.36,0,3.57,1.54,5.66,4.48s5.16,7.25,11,7.25,8.86-4.19,11-7.25,3.3-4.48,5.66-4.48,3.56,1.54,5.66,4.48,5.16,7.25,11,7.25,8.86-4.19,11-7.25,3.3-4.48,5.66-4.48,3.56,1.54,5.66,4.48,5.16,7.25,11,7.25A3.29,3.29,0,0,0,151.51,357.39Z"/><path class="cls-26" d="M255.05,694.25a5.82,5.82,0,1,1,5.82-5.82A5.82,5.82,0,0,1,255.05,694.25Zm0-9.9a4.08,4.08,0,1,0,4.09,4.08A4.08,4.08,0,0,0,255.05,684.35Z"/><path class="cls-27" d="M128.13,667.84c-4,0-6-2.83-7.44-4.89s-2.23-3-3.82-3-2.41,1-3.82,3-3.48,4.89-7.44,4.89-6-2.83-7.45-4.89-2.22-3-3.81-3-2.41,1-3.82,3-3.48,4.89-7.44,4.89-6-2.83-7.45-4.89-2.22-3-3.82-3a2.23,2.23,0,0,1,0-4.45c4,0,6,2.83,7.45,4.89s2.22,3,3.82,3,2.4-1,3.81-3,3.48-4.89,7.45-4.89,6,2.83,7.44,4.89,2.22,3,3.82,3,2.4-1,3.81-3,3.48-4.89,7.45-4.89,6,2.83,7.44,4.89,2.23,3,3.82,3a2.23,2.23,0,1,1,0,4.45Zm2.65-13a2.22,2.22,0,0,0-2.23-2.22c-1.59,0-2.4-1-3.82-3s-3.48-4.9-7.44-4.9-6,2.83-7.44,4.9-2.23,3-3.82,3-2.41-1-3.82-3-3.48-4.9-7.44-4.9-6,2.83-7.45,4.9-2.22,3-3.81,3-2.41-1-3.82-3-3.48-4.9-7.44-4.9a2.23,2.23,0,1,0,0,4.45c1.59,0,2.4,1,3.81,3s3.49,4.89,7.45,4.89,6-2.83,7.44-4.89,2.22-3,3.82-3,2.4,1,3.81,3,3.49,4.89,7.45,4.89,6-2.83,7.44-4.89,2.23-3,3.82-3,2.41,1,3.82,3,3.48,4.89,7.44,4.89A2.23,2.23,0,0,0,130.78,654.84Z"/><path class="cls-28" d="M179.77,705.11a10.63,10.63,0,1,1,10.62-10.63A10.64,10.64,0,0,1,179.77,705.11Zm0-18.08a7.46,7.46,0,1,0,7.45,7.45A7.46,7.46,0,0,0,179.77,687Z"/><path class="cls-26" d="M68.74,654.7a11,11,0,1,1,11-11A11,11,0,0,1,68.74,654.7Zm0-18.73a7.73,7.73,0,1,0,7.72,7.72A7.73,7.73,0,0,0,68.74,636Z"/><path class="cls-27" d="M267.63,652.71a13.27,13.27,0,1,1,13.27-13.27A13.29,13.29,0,0,1,267.63,652.71Zm0-22.58a9.31,9.31,0,1,0,9.31,9.31A9.33,9.33,0,0,0,267.63,630.13Z"/><path class="cls-27" d="M110.57,616.56a20.36,20.36,0,1,1,20.36-20.35A20.38,20.38,0,0,1,110.57,616.56Zm0-34.64a14.29,14.29,0,1,0,14.29,14.29A14.31,14.31,0,0,0,110.57,581.92Z"/><line class="cls-29" x1="162.97" y1="557.36" x2="162.97" y2="623.21"/><path class="cls-30" d="M197.28,602H129.5A15.55,15.55,0,0,0,114,617.57v36.21a15.55,15.55,0,0,0,15.55,15.54h.24l-9.14,17.87,45.69-17.87h31a15.54,15.54,0,0,0,15.54-15.54V617.57A15.55,15.55,0,0,0,197.28,602Z"/><circle class="cls-31" cx="139.71" cy="635.67" r="6.23"/><circle class="cls-31" cx="164.01" cy="635.67" r="6.23"/><circle class="cls-31" cx="188.31" cy="635.67" r="6.23"/><path class="cls-32" d="M197.54,645.53H236a8.81,8.81,0,0,1,8.82,8.81v20.54A8.82,8.82,0,0,1,236,683.7h-.13L241,693.83,215.12,683.7H197.54a8.81,8.81,0,0,1-8.81-8.82V654.34A8.8,8.8,0,0,1,197.54,645.53Z"/><circle class="cls-31" cx="230.2" cy="664.61" r="3.53"/><circle class="cls-31" cx="216.41" cy="664.61" r="3.53"/><circle class="cls-31" cx="202.63" cy="664.61" r="3.53"/><circle class="cls-31" cx="162.66" cy="608.98" r="1.56"/><path class="cls-29" d="M158,597.52V607a2.07,2.07,0,0,0,2.08,2.07h1.25"/><polygon class="cls-33" points="154.59 600.09 157.99 598.65 161.38 600.09 157.99 592.05 154.59 600.09"/><g class="cls-34"><path class="cls-29" d="M158,600.21v7.31a1.56,1.56,0,0,0,1.57,1.56h1.86a1.56,1.56,0,0,0,1.56-1.56v-.1"/><polygon class="cls-33" points="152.93 604.05 157.99 601.9 163.04 604.05 157.99 592.05 152.93 604.05"/></g><path class="cls-28" d="M283.78,619.85c-6.6,0-9.95-4.71-12.39-8.14s-3.71-5-6.36-5-4,1.72-6.35,5-5.8,8.14-12.39,8.14-9.94-4.71-12.39-8.14-3.7-5-6.35-5-4,1.72-6.35,5-5.8,8.14-12.39,8.14-9.94-4.71-12.39-8.14-3.7-5-6.35-5a3.71,3.71,0,0,1,0-7.41c6.59,0,9.94,4.71,12.39,8.14s3.7,5,6.35,5,4-1.72,6.35-5,5.79-8.14,12.39-8.14,9.94,4.71,12.39,8.14,3.7,5,6.35,5,4-1.72,6.35-5,5.8-8.14,12.39-8.14,10,4.71,12.39,8.14,3.7,5,6.36,5a3.71,3.71,0,0,1,0,7.41Zm4.4-21.64a3.7,3.7,0,0,0-3.7-3.7c-2.65,0-4-1.72-6.36-5s-5.79-8.14-12.38-8.14-10,4.71-12.39,8.14-3.7,5-6.36,5-4-1.72-6.35-5-5.79-8.14-12.39-8.14-9.94,4.71-12.38,8.14-3.71,5-6.36,5-4-1.72-6.35-5-5.79-8.14-12.39-8.14a3.71,3.71,0,0,0,0,7.41c2.65,0,4,1.72,6.36,5s5.79,8.14,12.38,8.14,10-4.71,12.39-8.14,3.7-5,6.35-5,4,1.72,6.36,5,5.79,8.14,12.38,8.14,9.95-4.71,12.39-8.14,3.7-5,6.36-5,4,1.72,6.35,5,5.79,8.14,12.39,8.14A3.71,3.71,0,0,0,288.18,598.21Z"/><path class="cls-27" d="M565.62,614.17c-6.83,0-10.29-4.87-12.82-8.43s-3.84-5.2-6.58-5.2-4.15,1.78-6.58,5.2-6,8.43-12.82,8.43-10.3-4.87-12.83-8.43-3.83-5.2-6.57-5.2-4.14,1.78-6.58,5.2-6,8.43-12.82,8.43-10.29-4.87-12.82-8.43-3.83-5.2-6.58-5.2a3.84,3.84,0,0,1,0-7.67c6.83,0,10.29,4.87,12.82,8.43s3.83,5.2,6.58,5.2,4.14-1.78,6.58-5.2,6-8.43,12.82-8.43,10.29,4.87,12.82,8.43,3.83,5.2,6.58,5.2,4.14-1.78,6.57-5.2,6-8.43,12.83-8.43,10.29,4.87,12.82,8.43,3.83,5.2,6.58,5.2a3.84,3.84,0,0,1,0,7.67Zm4.56-22.4a3.83,3.83,0,0,0-3.83-3.83c-2.75,0-4.15-1.78-6.58-5.2s-6-8.43-12.82-8.43-10.3,4.87-12.83,8.43-3.83,5.2-6.57,5.2-4.15-1.78-6.58-5.2-6-8.43-12.82-8.43-10.3,4.87-12.83,8.43-3.83,5.2-6.57,5.2-4.15-1.78-6.58-5.2-6-8.43-12.82-8.43a3.84,3.84,0,0,0,0,7.67c2.74,0,4.14,1.78,6.57,5.2s6,8.43,12.83,8.43,10.29-4.87,12.82-8.43,3.83-5.2,6.58-5.2,4.14,1.78,6.57,5.2,6,8.43,12.83,8.43,10.29-4.87,12.82-8.43S544.2,582,547,582s4.14,1.78,6.57,5.2,6,8.43,12.83,8.43A3.83,3.83,0,0,0,570.18,591.77Z"/><path class="cls-26" d="M548.31,704.53a5.84,5.84,0,1,1,5.84-5.84A5.85,5.85,0,0,1,548.31,704.53Zm0-9.94a4.1,4.1,0,1,0,4.1,4.1A4.11,4.11,0,0,0,548.31,694.59Z"/><path class="cls-28" d="M408.07,708a7.06,7.06,0,1,1,7.06-7.06A7.06,7.06,0,0,1,408.07,708Zm0-12a5,5,0,1,0,5,5A5,5,0,0,0,408.07,696Z"/><path class="cls-26" d="M383.88,622.05a26,26,0,1,1,26-26A26.06,26.06,0,0,1,383.88,622.05Zm0-44.31A18.28,18.28,0,1,0,402.16,596,18.3,18.3,0,0,0,383.88,577.74Z"/><rect class="cls-31" x="386.04" y="611.83" width="115.26" height="59"/><path class="cls-35" d="M498,600.85H391.66a7.27,7.27,0,0,0-7.26,7.26v59.1a7.27,7.27,0,0,0,7.26,7.26H498a7.27,7.27,0,0,0,7.26-7.26v-59.1A7.27,7.27,0,0,0,498,600.85Zm0,69.22H391.66a2.86,2.86,0,0,1-2.87-2.86V615.67h112.1v51.54A2.87,2.87,0,0,1,498,670.07Z"/><rect class="cls-36" x="438.46" y="621.44" width="56.81" height="42.81" rx="1.26"/><rect class="cls-37" x="460.14" y="647.51" width="75.74" height="45.01" rx="3.29"/><path class="cls-31" d="M509.56,668.93,494.14,660a1.72,1.72,0,0,0-2.58,1.49v17.8a1.72,1.72,0,0,0,2.58,1.49l15.42-8.9A1.72,1.72,0,0,0,509.56,668.93Z"/><circle class="cls-31" cx="416.43" cy="608.81" r="3.09"/><circle class="cls-31" cx="404.36" cy="608.81" r="3.09"/><circle class="cls-31" cx="392.3" cy="608.81" r="3.09"/><path class="cls-28" d="M552.77,643.66a11.53,11.53,0,1,1,11.52-11.52A11.54,11.54,0,0,1,552.77,643.66Zm0-19.61a8.09,8.09,0,1,0,8.09,8.09A8.1,8.1,0,0,0,552.77,624.05Z"/><path class="cls-27" d="M371.62,704.33a16.89,16.89,0,1,1,16.89-16.88A16.9,16.9,0,0,1,371.62,704.33Zm0-28.74a11.86,11.86,0,1,0,11.86,11.86A11.87,11.87,0,0,0,371.62,675.59Z"/><path class="cls-28" d="M432.65,665.38c-4,0-6-2.83-7.48-4.91s-2.23-3-3.83-3-2.42,1-3.84,3-3.49,4.91-7.47,4.91-6-2.83-7.48-4.91-2.23-3-3.83-3-2.42,1-3.83,3-3.5,4.91-7.48,4.91-6-2.83-7.47-4.91-2.24-3-3.84-3a2.24,2.24,0,0,1,0-4.47c4,0,6,2.84,7.48,4.91s2.23,3,3.83,3,2.42-1,3.83-3,3.5-4.91,7.48-4.91,6,2.84,7.47,4.91,2.24,3,3.84,3,2.41-1,3.83-3,3.5-4.91,7.48-4.91,6,2.84,7.47,4.91,2.24,3,3.84,3a2.24,2.24,0,0,1,0,4.47Zm2.66-13a2.24,2.24,0,0,0-2.24-2.24c-1.6,0-2.41-1-3.83-3s-3.5-4.91-7.48-4.91-6,2.84-7.47,4.91-2.24,3-3.84,3-2.41-1-3.83-3-3.5-4.91-7.48-4.91-6,2.84-7.47,4.91-2.23,3-3.83,3-2.42-1-3.84-3-3.49-4.91-7.47-4.91a2.24,2.24,0,1,0,0,4.47c1.6,0,2.41,1,3.83,3s3.5,4.91,7.48,4.91,6-2.83,7.47-4.91,2.23-3,3.83-3,2.42,1,3.84,3,3.49,4.91,7.47,4.91,6-2.83,7.48-4.91,2.23-3,3.83-3,2.42,1,3.84,3,3.49,4.91,7.47,4.91A2.23,2.23,0,0,0,435.31,652.33Z"/><line class="cls-38" x1="322.2" y1="557.5" x2="322.2" y2="707.5"/><line class="cls-38" x1="228.68" y1="425.5" x2="50.18" y2="425.5"/></svg>