<svg id="Layer_1" data-name="Layer 1" xmlns="http://www.w3.org/2000/svg" xmlns:xlink="http://www.w3.org/1999/xlink" viewBox="0 0 438 411"><defs><style>.cls-1{fill:#010101;}.cls-2{fill:#231f20;}.cls-3{fill:url(#linear-gradient);}</style><linearGradient id="linear-gradient" x1="96.1" y1="147.93" x2="341.9" y2="147.93" gradientUnits="userSpaceOnUse"><stop offset="0" stop-color="#fbcccd"/><stop offset="1" stop-color="#9999cb"/></linearGradient></defs><path class="cls-1" d="M31.68,343.13A1.2,1.2,0,0,1,32,344a1.22,1.22,0,0,1-.35.87,1.1,1.1,0,0,1-.83.36,1.13,1.13,0,0,1-.85-.36,1.22,1.22,0,0,1-.35-.87,1.18,1.18,0,0,1,.35-.86,1.23,1.23,0,0,1,1.7,0ZM30,347.85h1.72v13.39H30Z"/><path class="cls-1" d="M36.79,342.28H38.5v19H36.79Z"/><path class="cls-1" d="M43.76,342.28h1.71v19H43.76Z"/><path class="cls-1" d="M62.11,347.85v13.39H60.37V358a5,5,0,0,1-2,2.41,6.16,6.16,0,0,1-3.18.84,4.9,4.9,0,0,1-3.72-1.39,5.31,5.31,0,0,1-1.34-3.82v-8.23h1.74v7.82a4,4,0,0,0,1,2.95,3.79,3.79,0,0,0,2.85,1.06,4.28,4.28,0,0,0,3.37-1.47,5.65,5.65,0,0,0,1.23-3.79v-6.57Z"/><path class="cls-1" d="M72.3,349.47a6.75,6.75,0,0,0-1.86-.27,3.78,3.78,0,0,0-2.06.5,1.66,1.66,0,0,0-.78,1.5,1.54,1.54,0,0,0,.42,1.12,3.17,3.17,0,0,0,1,.7,16.22,16.22,0,0,0,1.75.6,17.86,17.86,0,0,1,2.25.81,4,4,0,0,1,1.48,1.15,3,3,0,0,1,.61,2,3.16,3.16,0,0,1-1.38,2.77,5.9,5.9,0,0,1-3.45,1,8.15,8.15,0,0,1-2.81-.49,6.1,6.1,0,0,1-2.27-1.38l.69-1.22A6.46,6.46,0,0,0,68,359.45a6.53,6.53,0,0,0,2.41.46,4,4,0,0,0,2.21-.56,1.85,1.85,0,0,0,.86-1.64A1.71,1.71,0,0,0,73,356.5a3,3,0,0,0-1.08-.74c-.44-.18-1-.39-1.81-.63a18.52,18.52,0,0,1-2.19-.79,3.9,3.9,0,0,1-1.43-1.11,2.91,2.91,0,0,1-.59-1.91,3,3,0,0,1,1.31-2.65,5.72,5.72,0,0,1,3.29-.9,7.83,7.83,0,0,1,2.22.31,7.12,7.12,0,0,1,1.92.84L74,350.23A6.31,6.31,0,0,0,72.3,349.47Z"/><path class="cls-1" d="M85.31,360.32a5.44,5.44,0,0,1-3,1,3.19,3.19,0,0,1-2.43-.94,4,4,0,0,1-.89-2.84v-8H77.1l0-1.33H79v-3.45h1.71v3.45l4.35,0v1.35H80.73v7.69c0,1.65.62,2.48,1.84,2.48a4.38,4.38,0,0,0,2.22-.72Z"/><path class="cls-1" d="M92,348.63a5.51,5.51,0,0,1,3-.83v1.61a4.54,4.54,0,0,0-3.41,1.24,5.22,5.22,0,0,0-1.47,3.43v7.16H88.4V347.85h1.71V351A5.07,5.07,0,0,1,92,348.63Z"/><path class="cls-1" d="M105.49,361.24l0-2.25a4.88,4.88,0,0,1-2.07,1.75,7.21,7.21,0,0,1-2.94.57,5.19,5.19,0,0,1-2.39-.52,3.8,3.8,0,0,1-2.16-3.51,3.25,3.25,0,0,1,1.34-2.74,6.12,6.12,0,0,1,3.69-1h4.5v-1a3.17,3.17,0,0,0-1-2.45,3.93,3.93,0,0,0-2.75-.87,7.23,7.23,0,0,0-4.32,1.61l-.77-1.17a11,11,0,0,1,2.58-1.39,8.16,8.16,0,0,1,2.81-.45A5.38,5.38,0,0,1,105.8,349a4.43,4.43,0,0,1,1.35,3.36l0,8.87Zm-1.7-2.19a4.05,4.05,0,0,0,1.68-2.33v-1.84h-4.32a5.07,5.07,0,0,0-2.69.58,2,2,0,0,0-.92,1.77,2.39,2.39,0,0,0,.89,1.93,3.55,3.55,0,0,0,2.33.72A5.24,5.24,0,0,0,103.79,359.05Z"/><path class="cls-1" d="M118.5,360.32a5.44,5.44,0,0,1-3,1,3.16,3.16,0,0,1-2.42-.94,4,4,0,0,1-.9-2.84v-8h-1.92l0-1.33h1.94v-3.45h1.71v3.45l4.35,0v1.35h-4.35v7.69c0,1.65.62,2.48,1.84,2.48A4.44,4.44,0,0,0,118,359Z"/><path class="cls-1" d="M123.3,343.13a1.28,1.28,0,0,1,0,1.73,1.11,1.11,0,0,1-.83.36,1.15,1.15,0,0,1-.86-.36,1.21,1.21,0,0,1-.34-.87,1.16,1.16,0,0,1,1.2-1.2A1.11,1.11,0,0,1,123.3,343.13Zm-1.71,4.72h1.71v13.39h-1.71Z"/><path class="cls-1" d="M137.12,348.65a6.06,6.06,0,0,1,2.4,2.39,6.92,6.92,0,0,1,.87,3.48,7,7,0,0,1-.87,3.51,6,6,0,0,1-2.4,2.4,7.45,7.45,0,0,1-7,0,6.15,6.15,0,0,1-2.4-2.4,7,7,0,0,1-.87-3.51,6.92,6.92,0,0,1,.87-3.48,6.19,6.19,0,0,1,2.4-2.39,7.53,7.53,0,0,1,7,0ZM131,349.94a4.74,4.74,0,0,0-1.79,1.87,5.79,5.79,0,0,0-.64,2.73,5.85,5.85,0,0,0,.64,2.76,4.67,4.67,0,0,0,1.79,1.87,5.17,5.17,0,0,0,2.61.66,5.1,5.1,0,0,0,2.6-.66A4.55,4.55,0,0,0,138,357.3a5.74,5.74,0,0,0,.64-2.76,5.67,5.67,0,0,0-.64-2.73,4.61,4.61,0,0,0-1.79-1.87,5.1,5.1,0,0,0-2.6-.66A5.17,5.17,0,0,0,131,349.94Z"/><path class="cls-1" d="M154.79,349.19a5.22,5.22,0,0,1,1.37,3.82v8.23h-1.74v-7.82a4,4,0,0,0-1-3,3.87,3.87,0,0,0-2.91-1.08,4.57,4.57,0,0,0-3.31,1.28,5.27,5.27,0,0,0-1.42,3.37v7.21H144V347.85h1.71V351a5,5,0,0,1,2-2.35,6.53,6.53,0,0,1,3.26-.82A5,5,0,0,1,154.79,349.19Z"/><path class="cls-1" d="M169.52,353.15a1.73,1.73,0,0,1,.49,1.24,1.7,1.7,0,0,1-.5,1.24,1.67,1.67,0,0,1-1.22.5,1.64,1.64,0,0,1-1.2-.5,1.84,1.84,0,0,1,0-2.48,1.73,1.73,0,0,1,2.43,0Z"/><path class="cls-1" d="M189.3,361.24l0-2.25a4.88,4.88,0,0,1-2.07,1.75,7.14,7.14,0,0,1-2.94.57,5.18,5.18,0,0,1-2.38-.52,3.8,3.8,0,0,1-2.16-3.51,3.22,3.22,0,0,1,1.34-2.74,6.08,6.08,0,0,1,3.69-1h4.5v-1a3.17,3.17,0,0,0-.95-2.45,3.94,3.94,0,0,0-2.76-.87,7.27,7.27,0,0,0-4.32,1.61l-.76-1.17a11,11,0,0,1,2.58-1.39,8.12,8.12,0,0,1,2.81-.45A5.34,5.34,0,0,1,189.6,349a4.4,4.4,0,0,1,1.36,3.36l0,8.87Zm-1.7-2.19a4.08,4.08,0,0,0,1.67-2.33v-1.84H185a5,5,0,0,0-2.68.58,2,2,0,0,0-.92,1.77,2.41,2.41,0,0,0,.88,1.93,3.59,3.59,0,0,0,2.34.72A5.29,5.29,0,0,0,187.6,359.05Z"/><path class="cls-1" d="M206.33,349.19a5.22,5.22,0,0,1,1.36,3.82v8.23H206v-7.82a4,4,0,0,0-1.05-3,3.87,3.87,0,0,0-2.91-1.08,4.55,4.55,0,0,0-3.31,1.28,5.22,5.22,0,0,0-1.42,3.37v7.21h-1.71V347.85h1.71V351a5,5,0,0,1,2-2.35,6.48,6.48,0,0,1,3.26-.82A5,5,0,0,1,206.33,349.19Z"/><path class="cls-1" d="M214,343.13a1.28,1.28,0,0,1,0,1.73,1.11,1.11,0,0,1-.83.36,1.15,1.15,0,0,1-.86-.36,1.21,1.21,0,0,1-.34-.87,1.16,1.16,0,0,1,1.2-1.2A1.11,1.11,0,0,1,214,343.13Zm-1.71,4.72H214v13.39h-1.71Z"/><path class="cls-1" d="M239.76,349.18a5.28,5.28,0,0,1,1.33,3.83v8.23h-1.74v-7.82a4.09,4.09,0,0,0-1-3,3.83,3.83,0,0,0-2.85-1.06,4.35,4.35,0,0,0-3.36,1.48,5.68,5.68,0,0,0-1.22,3.79v6.59h-1.73v-7.82a4.09,4.09,0,0,0-1-3,3.83,3.83,0,0,0-2.85-1.06,4.38,4.38,0,0,0-3.37,1.48,5.63,5.63,0,0,0-1.23,3.79v6.59H219V347.85h1.71V351a4.92,4.92,0,0,1,2-2.37,6.31,6.31,0,0,1,3.21-.82,5.15,5.15,0,0,1,3.18.94,4.56,4.56,0,0,1,1.68,2.66,4.92,4.92,0,0,1,2-2.68,6.14,6.14,0,0,1,3.36-.92A4.9,4.9,0,0,1,239.76,349.18Z"/><path class="cls-1" d="M254.07,361.24l0-2.25a4.82,4.82,0,0,1-2.07,1.75,7.12,7.12,0,0,1-2.93.57,5.19,5.19,0,0,1-2.39-.52,3.8,3.8,0,0,1-2.16-3.51,3.22,3.22,0,0,1,1.34-2.74,6.08,6.08,0,0,1,3.69-1H254v-1a3.17,3.17,0,0,0-1-2.45,3.94,3.94,0,0,0-2.76-.87,7.27,7.27,0,0,0-4.32,1.61l-.76-1.17a11,11,0,0,1,2.58-1.39,8.12,8.12,0,0,1,2.81-.45,5.38,5.38,0,0,1,3.76,1.21,4.43,4.43,0,0,1,1.35,3.36l0,8.87Zm-1.7-2.19a4,4,0,0,0,1.67-2.33v-1.84h-4.31a5.07,5.07,0,0,0-2.69.58,2,2,0,0,0-.92,1.77,2.41,2.41,0,0,0,.88,1.93,3.59,3.59,0,0,0,2.34.72A5.29,5.29,0,0,0,252.37,359.05Z"/><path class="cls-1" d="M267.07,360.32a5.41,5.41,0,0,1-3,1,3.19,3.19,0,0,1-2.43-.94,4,4,0,0,1-.89-2.84v-8h-1.92l0-1.33h1.94v-3.45h1.71v3.45l4.34,0v1.35H262.5v7.69c0,1.65.61,2.48,1.84,2.48a4.38,4.38,0,0,0,2.22-.72Z"/><path class="cls-1" d="M271.88,343.13a1.2,1.2,0,0,1,.33.86,1.22,1.22,0,0,1-.35.87,1.1,1.1,0,0,1-.83.36,1.13,1.13,0,0,1-.85-.36,1.22,1.22,0,0,1-.35-.87,1.18,1.18,0,0,1,.35-.86,1.15,1.15,0,0,1,.85-.34A1.13,1.13,0,0,1,271.88,343.13Zm-1.71,4.72h1.71v13.39h-1.71Z"/><path class="cls-1" d="M285.7,348.65a6.19,6.19,0,0,1,2.4,2.39,6.92,6.92,0,0,1,.87,3.48,7,7,0,0,1-.87,3.51,6.15,6.15,0,0,1-2.4,2.4,7.45,7.45,0,0,1-6.95,0,6.15,6.15,0,0,1-2.4-2.4,7,7,0,0,1-.87-3.51,6.92,6.92,0,0,1,.87-3.48,6.19,6.19,0,0,1,2.4-2.39,7.53,7.53,0,0,1,6.95,0Zm-6.08,1.29a4.67,4.67,0,0,0-1.79,1.87,5.67,5.67,0,0,0-.64,2.73,5.74,5.74,0,0,0,.64,2.76,4.61,4.61,0,0,0,1.79,1.87,5.47,5.47,0,0,0,5.21,0,4.61,4.61,0,0,0,1.79-1.87,5.74,5.74,0,0,0,.64-2.76,5.67,5.67,0,0,0-.64-2.73,4.67,4.67,0,0,0-1.79-1.87,5.47,5.47,0,0,0-5.21,0Z"/><path class="cls-1" d="M303.37,349.19a5.22,5.22,0,0,1,1.37,3.82v8.23H303v-7.82a4,4,0,0,0-1.05-3,3.87,3.87,0,0,0-2.91-1.08,4.57,4.57,0,0,0-3.31,1.28,5.22,5.22,0,0,0-1.42,3.37v7.21H292.6V347.85h1.71V351a5,5,0,0,1,2-2.35,6.51,6.51,0,0,1,3.26-.82A5,5,0,0,1,303.37,349.19Z"/><path class="cls-1" d="M318.1,353.15a1.72,1.72,0,0,1,.48,1.24,1.69,1.69,0,0,1-1.71,1.74,1.62,1.62,0,0,1-1.2-.5,1.84,1.84,0,0,1,0-2.48,1.62,1.62,0,0,1,1.2-.5A1.66,1.66,0,0,1,318.1,353.15Z"/><path class="cls-1" d="M341.66,342.28v19h-1.72v-3.07a5.58,5.58,0,0,1-2.14,2.34,6.15,6.15,0,0,1-3.22.83,6.51,6.51,0,0,1-3.37-.87,5.92,5.92,0,0,1-2.3-2.43,7.4,7.4,0,0,1-.82-3.52,7.27,7.27,0,0,1,.83-3.5,6,6,0,0,1,2.3-2.4,6.41,6.41,0,0,1,3.33-.87,6.16,6.16,0,0,1,3.24.84,5.75,5.75,0,0,1,2.15,2.35v-8.66Zm-4.17,16.9a4.72,4.72,0,0,0,1.8-1.88,5.57,5.57,0,0,0,.65-2.73,5.67,5.67,0,0,0-.65-2.75,4.77,4.77,0,0,0-1.8-1.9,5.26,5.26,0,0,0-5.21,0,4.87,4.87,0,0,0-1.81,1.9,5.57,5.57,0,0,0-.67,2.75,5.68,5.68,0,0,0,.65,2.73,4.77,4.77,0,0,0,1.82,1.88,5.09,5.09,0,0,0,2.62.68A5,5,0,0,0,337.49,359.18Z"/><path class="cls-1" d="M356.76,349.78a7.6,7.6,0,0,1,1.5,5.33H347.1a5.17,5.17,0,0,0,1.58,3.46,4.89,4.89,0,0,0,3.48,1.31,6,6,0,0,0,2.37-.46,5.24,5.24,0,0,0,1.89-1.3l1,1a6.64,6.64,0,0,1-2.34,1.62,7.54,7.54,0,0,1-3,.58,6.85,6.85,0,0,1-3.45-.86,6.05,6.05,0,0,1-2.37-2.39,7.59,7.59,0,0,1,0-7,6.1,6.1,0,0,1,2.37-2.41,6.72,6.72,0,0,1,3.39-.85A5.82,5.82,0,0,1,356.76,349.78Zm0,4a4.9,4.9,0,0,0-1.39-3.34A4.55,4.55,0,0,0,352,349.2a4.74,4.74,0,0,0-3.37,1.26,4.94,4.94,0,0,0-1.56,3.32Z"/><path class="cls-1" d="M367.05,349.47a6.75,6.75,0,0,0-1.86-.27,3.81,3.81,0,0,0-2.06.5,1.66,1.66,0,0,0-.78,1.5,1.54,1.54,0,0,0,.42,1.12,3.27,3.27,0,0,0,1.05.7,16.22,16.22,0,0,0,1.75.6,17.86,17.86,0,0,1,2.25.81,4,4,0,0,1,1.48,1.15,3,3,0,0,1,.62,2,3.16,3.16,0,0,1-1.38,2.77,5.9,5.9,0,0,1-3.45,1,8.11,8.11,0,0,1-2.81-.49,6.14,6.14,0,0,1-2.28-1.38l.69-1.22a6.85,6.85,0,0,0,4.47,1.71,4,4,0,0,0,2.21-.56,1.85,1.85,0,0,0,.86-1.64,1.71,1.71,0,0,0-.44-1.21,2.89,2.89,0,0,0-1.08-.74q-.66-.27-1.8-.63a18.12,18.12,0,0,1-2.2-.79,4,4,0,0,1-1.43-1.11,3.35,3.35,0,0,1,.73-4.56,5.66,5.66,0,0,1,3.28-.9,7.78,7.78,0,0,1,2.22.31,7,7,0,0,1,1.92.84l-.66,1.31A6.52,6.52,0,0,0,367.05,349.47Z"/><path class="cls-1" d="M375,343.13a1.2,1.2,0,0,1,.33.86,1.22,1.22,0,0,1-.35.87,1.1,1.1,0,0,1-.83.36,1.13,1.13,0,0,1-.85-.36A1.22,1.22,0,0,1,373,344a1.18,1.18,0,0,1,.35-.86,1.23,1.23,0,0,1,1.7,0Zm-1.72,4.72H375v13.39h-1.72Z"/><path class="cls-1" d="M391.58,347.85v12a6.87,6.87,0,0,1-.81,3.4,5.56,5.56,0,0,1-2.34,2.24,7.64,7.64,0,0,1-3.52.78,8.59,8.59,0,0,1-5.49-2.05l.82-1.23a7.64,7.64,0,0,0,2.14,1.36,6.38,6.38,0,0,0,2.46.46,5,5,0,0,0,3.66-1.34,4.78,4.78,0,0,0,1.37-3.59v-2.17a5.33,5.33,0,0,1-2,2.19,5.88,5.88,0,0,1-3.07.8,6,6,0,0,1-3.18-.84,5.7,5.7,0,0,1-2.17-2.29,7,7,0,0,1-.78-3.34,6.93,6.93,0,0,1,.78-3.32,5.67,5.67,0,0,1,2.18-2.27,6.2,6.2,0,0,1,3.2-.82,5.83,5.83,0,0,1,3,.78,5.33,5.33,0,0,1,2,2.21v-2.94Zm-4,10.79a4.49,4.49,0,0,0,1.71-1.8,5.8,5.8,0,0,0,0-5.18,4.59,4.59,0,0,0-1.71-1.81,5.06,5.06,0,0,0-5,0,4.71,4.71,0,0,0-1.73,1.81,5.76,5.76,0,0,0,0,5.2,4.71,4.71,0,0,0,4.21,2.44A4.74,4.74,0,0,0,387.55,358.64Z"/><path class="cls-1" d="M407,349.19a5.22,5.22,0,0,1,1.37,3.82v8.23h-1.74v-7.82a4,4,0,0,0-1.05-3,3.86,3.86,0,0,0-2.91-1.08,4.57,4.57,0,0,0-3.31,1.28,5.27,5.27,0,0,0-1.42,3.37v7.21h-1.71V347.85h1.71V351a4.92,4.92,0,0,1,2-2.35,6.47,6.47,0,0,1,3.25-.82A5,5,0,0,1,407,349.19Z"/><path class="cls-2" d="M31.71,326.66a3.48,3.48,0,0,1-1.89-2,3.76,3.76,0,0,1,0-2.76l3.74-9.32v0l10.83-27.15a2.1,2.1,0,0,1,.15-.3l.06-.15.11-.16a.44.44,0,0,1,.09-.15l.12-.12s0-.06.09-.12.12-.14.12-.16l.11-.09q.12-.12.15-.12s0,0,.12-.09a.75.75,0,0,0,.15-.13l.11-.09.18-.09.2-.09.09-.06.12-.06.21-.06.2-.06.12,0,.21,0,.14,0h.68l.18,0,.14,0a.55.55,0,0,1,.21.07q.18,0,.12,0a2.35,2.35,0,0,1,.65.27s0,0,.11.06l.18.12.12.1.15.12s.06,0,.11.09a.64.64,0,0,0,.15.12s0,.06.09.13.12.13.12.15l.08.12q.12.12.12.15a.44.44,0,0,0,.09.16.44.44,0,0,1,.09.15,2.1,2.1,0,0,1,.15.3L61.61,312.6v0L65.34,322a3.66,3.66,0,0,1,0,2.76,3.46,3.46,0,0,1-1.88,2,3.38,3.38,0,0,1-4.53-2l-2.83-7.1h-17l-2.82,7.1A3.22,3.22,0,0,1,33,326.94h-.68Zm21.54-16.23-5.68-14.18-5.65,14.18Z"/><path class="cls-2" d="M113.28,283.1a3.36,3.36,0,0,1,1.83,1.32,3.53,3.53,0,0,1,.71,2.17v36.74a3.57,3.57,0,0,1-1,2.54,3.4,3.4,0,0,1-4.95,0,3.52,3.52,0,0,1-1-2.54V299.55l-11,18.83v0l0,0,0,0,0,0-.12.21-.09.13-.15.15-.12.12-.11.12a1,1,0,0,1-.18.16l-.09.09-.2.12a0,0,0,0,1,0,0l0,0h0a.64.64,0,0,1-.21.12c-.08.05-.11.07-.09.07l-.17.06a3.18,3.18,0,0,1-1.42.27h-.06s0,0-.11,0a3.49,3.49,0,0,1-.77-.15l-.12,0-.11,0-.21-.09s0,0-.06-.07a1.2,1.2,0,0,1-.23-.12h0l0,0,0,0a.8.8,0,0,1-.21-.15s0,0-.09-.06a1.36,1.36,0,0,1-.17-.16l-.12-.12L92.3,319a.51.51,0,0,0-.15-.15.26.26,0,0,1-.05-.13,1.16,1.16,0,0,1-.15-.21l0,0a0,0,0,0,0,0,0v0a0,0,0,0,0,0,0l-11-18.83v23.78a3.47,3.47,0,0,1-1,2.54,3.31,3.31,0,0,1-2.47,1.07A3.21,3.21,0,0,1,75,325.87a3.47,3.47,0,0,1-1-2.54V286.59a3.52,3.52,0,0,1,.7-2.17,3.36,3.36,0,0,1,1.86-1.32,3.46,3.46,0,0,1,2.2.12,3.57,3.57,0,0,1,1.71,1.5l14.48,24.85,14.48-24.85a3.41,3.41,0,0,1,1.68-1.5l1.09-.43Z"/><path class="cls-2" d="M153.34,319.69a3.21,3.21,0,0,1,2.44,1.07,3.58,3.58,0,0,1,1,2.57,3.48,3.48,0,0,1-1,2.54,3.21,3.21,0,0,1-2.44,1.07H132a3.23,3.23,0,0,1-2.44-1.07,3.47,3.47,0,0,1-1-2.54V286.68a3.49,3.49,0,0,1,1-2.57A3.23,3.23,0,0,1,132,283h0l21.28.06a3.31,3.31,0,0,1,2.47,1.07,3.62,3.62,0,0,1,1,2.57,3.48,3.48,0,0,1-1,2.54,3.21,3.21,0,0,1-2.44,1.07h0l-17.78-.07v11.1h12.84a3.37,3.37,0,0,1,2.47,1,3.72,3.72,0,0,1,0,5.14,3.37,3.37,0,0,1-2.47,1H135.53v11.09Z"/><path class="cls-2" d="M169.53,283.1a3.23,3.23,0,0,1,2.44,1.07,3.45,3.45,0,0,1,1,2.54v33h15.57a3.32,3.32,0,0,1,2.47,1.07,3.73,3.73,0,0,1,0,5.08,3.32,3.32,0,0,1-2.47,1.07h-19a3.24,3.24,0,0,1-2.45-1.07,3.51,3.51,0,0,1-1-2.54V286.71a3.49,3.49,0,0,1,1-2.54A3.24,3.24,0,0,1,169.53,283.1Z"/><path class="cls-2" d="M203.2,326.94a3.24,3.24,0,0,1-2.45-1.07,3.47,3.47,0,0,1-1-2.54V286.86a3.47,3.47,0,0,1,1-2.54,3.33,3.33,0,0,1,4.89,0,3.51,3.51,0,0,1,1,2.54v36.47a3.51,3.51,0,0,1-1,2.54A3.23,3.23,0,0,1,203.2,326.94Z"/><path class="cls-2" d="M218.67,326.66a3.46,3.46,0,0,1-1.88-2,3.76,3.76,0,0,1,0-2.76l3.74-9.32v0l10.83-27.15a2.1,2.1,0,0,1,.15-.3l.05-.15.12-.16a.44.44,0,0,1,.09-.15l.12-.12s0-.06.09-.12.12-.14.12-.16l.11-.09q.12-.12.15-.12s0,0,.12-.09a.61.61,0,0,0,.14-.13l.12-.09.18-.09.21-.09.08-.06.12-.06.21-.06.2-.06.12,0,.21,0,.14,0h.68l.18,0,.14,0a.55.55,0,0,1,.21.07q.18,0,.12,0a2.48,2.48,0,0,1,.65.27l.11.06.18.12.12.1.15.12s.06,0,.11.09a.64.64,0,0,0,.15.12s0,.06.09.13.12.13.12.15l.08.12q.12.12.12.15a.44.44,0,0,0,.09.16.44.44,0,0,1,.09.15,2.1,2.1,0,0,1,.15.3l10.83,27.15v0l3.73,9.32a3.66,3.66,0,0,1,0,2.76,3.46,3.46,0,0,1-1.88,2,3.38,3.38,0,0,1-4.53-2l-2.83-7.1H226l-2.82,7.1a3.22,3.22,0,0,1-3.21,2.23h-.68Zm21.55-16.23-5.68-14.18-5.65,14.18Z"/><path class="cls-2" d="M292.37,326.94a19.91,19.91,0,0,1-14.92-6.45,22.49,22.49,0,0,1,0-31,20.58,20.58,0,0,1,29.87,0,22.57,22.57,0,0,1,0,31A20,20,0,0,1,292.37,326.94Zm0-36.69a13.4,13.4,0,0,0-10,4.31,15.05,15.05,0,0,0,0,20.82,13.74,13.74,0,0,0,20,0,15.13,15.13,0,0,0,0-20.82A13.48,13.48,0,0,0,292.37,290.25Z"/><path class="cls-2" d="M342.58,326.94a19.91,19.91,0,0,1-14.92-6.45,22.49,22.49,0,0,1,0-31,20.58,20.58,0,0,1,29.87,0,22.57,22.57,0,0,1,0,31A20,20,0,0,1,342.58,326.94Zm0-36.69a13.4,13.4,0,0,0-10,4.31,15.05,15.05,0,0,0,0,20.82,13.74,13.74,0,0,0,20,0,15.13,15.13,0,0,0,0-20.82A13.48,13.48,0,0,0,342.58,290.25Z"/><path class="cls-2" d="M402.26,325.56h0v0l-21.16-28.28v26.08a3.47,3.47,0,0,1-1,2.54,3.32,3.32,0,0,1-4.88,0,3.47,3.47,0,0,1-1-2.54V286.71a3.51,3.51,0,0,1,.64-2.08,3.47,3.47,0,0,1,1.71-1.32,3.21,3.21,0,0,1,2.12-.06,3.43,3.43,0,0,1,1.74,1.26l21.16,28.3v-26.1a3.51,3.51,0,0,1,1-2.54A3.32,3.32,0,0,1,405,283.1a3.21,3.21,0,0,1,2.44,1.07,3.45,3.45,0,0,1,1,2.54v36.68a1,1,0,0,1,0,.19v.15a.82.82,0,0,1,0,.18.42.42,0,0,1,0,.18l0,.16a.44.44,0,0,1-.06.18.53.53,0,0,1-.06.15,1.08,1.08,0,0,1-.06.19l-.06.15-.09.15-.09.19-.08.09-.12.18-.09.12-.12.13q-.09.12-.12.12s0,.06-.11.12a.64.64,0,0,1-.15.12q.09-.06,0,0l0,0a3.28,3.28,0,0,1-.44.31h0a4.84,4.84,0,0,1-.47.21l-.06,0a1.68,1.68,0,0,1-.5.13l-.09,0-.5,0-.38,0s0,0-.06,0l-.29-.06s0,0-.12,0l-.24-.07-.12-.06a.69.69,0,0,1-.23-.09.17.17,0,0,1-.12-.06l-.2-.09-.12-.09-.21-.16-.12-.09a3.08,3.08,0,0,1-.26-.24l0,0v0l-.12-.13Z"/><path class="cls-3" d="M307.76,195.84a33,33,0,0,1-20.28-14.91c7.06,3.38,19.94,8.8,35.87,0,19.51-10.79,17.51-33.46,17.51-33.46a26.53,26.53,0,0,1-25.31,18.88c-7.7.25-15.5-5-18.21-8.55,4-.26,15.84.08,24.32-14.5,6.55-11.28.46-24.38.46-24.38s-3.47,15.25-18.78,20.56a17.91,17.91,0,0,1-7.63,1.1A77.9,77.9,0,1,0,143,135.39,19.88,19.88,0,0,1,137,134c-15.07-6-17.85-21.38-17.85-21.38s-6.26,20.56,11.34,33.76c2.71,2,9.49,4.75,12.54,5.08-1.69,3.73-7.79,11.71-20.34,11.53-23.73-.34-26.44-23.39-26.44-23.39S92.82,174.14,124,179.9c16.61,3.07,25.09-3.73,31.53-7.12-.87,6.54-10.93,15.84-22.72,18.65-22,5.25-32.38-10.9-32.38-10.9s12.38,36.33,46.62,32.94c20.33-2,28.61-12.64,35.69-18.67a62.63,62.63,0,0,1-8.1,15.25c-9.77,14,7.82,41,7.82,41s-5.87-16.76,14.79-29.32c12.17-7.4,17.79-14.53,20.35-19.91,2.56,5.38,8.17,12.51,20.34,19.91,20.66,12.56,14.8,29.32,14.8,29.32s17.59-27.09,7.82-41a60.17,60.17,0,0,1-8.49-16.44l.23-.11c3.64,4.46,14.09,23.36,42.56,24.37,34.93,1.25,47-32.88,47-32.88S329.11,200.92,307.76,195.84Zm-113.71-76a10.19,10.19,0,1,1,10.2-10.19A10.19,10.19,0,0,1,194.05,119.86Zm25.19,31.29c-7.87,0-14.34-4-15.12-9.09-.09-.56.63-1,1.48-1h27.28c.85,0,1.57.48,1.48,1C233.58,147.17,227.11,151.15,219.24,151.15Zm26.19-31.29a10.19,10.19,0,1,1,10.19-10.19A10.19,10.19,0,0,1,245.43,119.86Z"/></svg>