<svg id="Layer_1" data-name="Layer 1" xmlns="http://www.w3.org/2000/svg" xmlns:xlink="http://www.w3.org/1999/xlink" viewBox="0 0 612 792"><defs><style>.cls-1{fill:#5fc9db;}.cls-10,.cls-17,.cls-18,.cls-2,.cls-3,.cls-4,.cls-42,.cls-5,.cls-6{fill:none;stroke-miterlimit:10;}.cls-2,.cls-3{stroke:#39479e;}.cls-2{stroke-width:5.21px;}.cls-3{stroke-width:4.83px;}.cls-4{stroke:#f04d4d;stroke-width:3.03px;}.cls-5,.cls-6{stroke:#5fc9db;}.cls-5{stroke-width:2.8px;}.cls-6{stroke-width:1.98px;}.cls-7{fill:url(#linear-gradient);}.cls-8{fill:#010101;}.cls-9{fill:url(#linear-gradient-2);}.cls-10{stroke:#d1d3d4;stroke-width:0.7px;}.cls-11{opacity:0.05;}.cls-12{fill:#fbcccd;}.cls-13{fill:#9899cb;}.cls-14{fill:#eee;}.cls-15{fill:#39479e;}.cls-16{fill:#f16163;}.cls-17,.cls-18{stroke:#f0627a;}.cls-17{stroke-width:8.53px;}.cls-18{stroke-width:7.9px;}.cls-19{fill:#39499e;}.cls-20{font-size:24px;font-family:Moon-Bold, Moon;font-weight:700;}.cls-20,.cls-21,.cls-28{fill:#231f20;}.cls-21{font-size:14px;font-family:Montserrat-Medium, Montserrat;font-weight:500;}.cls-22{letter-spacing:-0.02em;}.cls-23{letter-spacing:0em;}.cls-24{letter-spacing:0.02em;}.cls-25{letter-spacing:-0.02em;}.cls-26{letter-spacing:0em;}.cls-27{letter-spacing:-0.03em;}.cls-28{font-size:11px;font-family:Montserrat-Light, Montserrat;font-weight:300;}.cls-29{letter-spacing:-0.03em;}.cls-30{letter-spacing:-0.03em;}.cls-31{letter-spacing:-0.01em;}.cls-32{letter-spacing:0em;}.cls-33{letter-spacing:-0.01em;}.cls-34{letter-spacing:0em;}.cls-35{letter-spacing:-0.02em;}.cls-36{letter-spacing:0em;}.cls-37{letter-spacing:0em;}.cls-38{letter-spacing:-0.01em;}.cls-39{letter-spacing:-0.03em;}.cls-40{letter-spacing:-0.02em;}.cls-41{letter-spacing:-0.05em;}.cls-42{stroke:#eee;}.cls-43{letter-spacing:-0.08em;}.cls-44{letter-spacing:-0.01em;}</style><linearGradient id="linear-gradient" x1="467.27" y1="728.43" x2="467.27" y2="591.97" gradientUnits="userSpaceOnUse"><stop offset="0" stop-color="#fbcccd"/><stop offset="1" stop-color="#9999cb"/></linearGradient><linearGradient id="linear-gradient-2" x1="138.54" y1="238.04" x2="138.54" y2="133.94" xlink:href="#linear-gradient"/></defs><path class="cls-1" d="M573.16,644.65c-4.39,0-6.62-3.13-8.25-5.42s-2.47-3.34-4.23-3.34-2.67,1.14-4.23,3.34-3.86,5.42-8.25,5.42-6.62-3.13-8.25-5.42-2.47-3.34-4.23-3.34-2.67,1.14-4.23,3.34-3.86,5.42-8.25,5.42-6.62-3.13-8.25-5.42-2.46-3.34-4.23-3.34a2.47,2.47,0,0,1,0-4.94c4.39,0,6.62,3.14,8.25,5.42s2.46,3.35,4.23,3.35,2.66-1.15,4.23-3.35,3.86-5.42,8.25-5.42,6.62,3.14,8.25,5.42,2.46,3.35,4.23,3.35,2.66-1.15,4.23-3.35,3.86-5.42,8.25-5.42,6.62,3.14,8.25,5.42,2.46,3.35,4.23,3.35a2.47,2.47,0,0,1,0,4.93Zm2.93-14.4a2.47,2.47,0,0,0-2.46-2.47c-1.77,0-2.67-1.15-4.23-3.35s-3.86-5.42-8.25-5.42-6.63,3.14-8.25,5.42-2.47,3.35-4.23,3.35-2.67-1.15-4.23-3.35-3.86-5.42-8.25-5.42-6.62,3.14-8.25,5.42-2.47,3.35-4.23,3.35-2.67-1.15-4.23-3.35-3.86-5.42-8.25-5.42a2.47,2.47,0,0,0,0,4.94c1.77,0,2.66,1.14,4.23,3.34s3.86,5.42,8.25,5.42,6.62-3.13,8.25-5.42,2.46-3.34,4.23-3.34,2.66,1.14,4.23,3.34,3.85,5.42,8.25,5.42,6.62-3.13,8.24-5.42,2.47-3.34,4.24-3.34,2.66,1.14,4.23,3.34,3.86,5.42,8.25,5.42A2.46,2.46,0,0,0,576.09,630.25Z"/><circle class="cls-2" cx="413.43" cy="611.72" r="14.88"/><circle class="cls-3" cx="126.51" cy="593.51" r="13.78"/><circle class="cls-4" cx="550.16" cy="602.94" r="8.64"/><circle class="cls-5" cx="91.6" cy="573.03" r="8"/><circle class="cls-6" cx="379.78" cy="624.74" r="5.64"/><path class="cls-7" d="M526,691.88A21.78,21.78,0,0,1,512.56,682c4.66,2.23,13.18,5.82,23.72,0,12.9-7.14,11.58-22.13,11.58-22.13a17.55,17.55,0,0,1-16.74,12.49c-5.09.16-10.25-3.29-12-5.66,2.63-.17,10.47,0,16.08-9.59,4.33-7.45.3-16.12.3-16.12s-2.29,10.09-12.42,13.6a12,12,0,0,1-5,.73,51.51,51.51,0,1,0-101-3.43,12.79,12.79,0,0,1-4-.95c-10-4-11.81-14.13-11.81-14.13s-4.14,13.59,7.5,22.32a24,24,0,0,0,8.3,3.36c-1.12,2.47-5.16,7.74-13.46,7.63-15.69-.23-17.48-15.47-17.48-15.47s-2.24,22.86,18.38,26.67c11,2,16.59-2.46,20.85-4.7-.57,4.32-7.23,10.47-15,12.33-14.55,3.47-21.42-7.21-21.42-7.21s8.19,24,30.84,21.78c13.44-1.33,18.91-8.36,23.6-12.35a41.23,41.23,0,0,1-5.36,10.09c-6.46,9.24,5.17,27.15,5.17,27.15s-3.88-11.08,9.79-19.39c8-4.9,11.76-9.61,13.45-13.17,1.69,3.56,5.41,8.27,13.45,13.17,13.67,8.31,9.79,19.39,9.79,19.39s11.63-17.91,5.17-27.15a39.9,39.9,0,0,1-5.61-10.87l.15-.07c2.4,2.95,9.31,15.44,28.15,16.12,23.09.82,31.1-21.75,31.1-21.75S540.09,695.25,526,691.88Zm-41.22-63.72A6.74,6.74,0,1,1,478,634.9,6.74,6.74,0,0,1,484.75,628.16Zm-16.9,27.51c5.61,0,10.16-4.74,10.16-2.4s-4.55,6.47-10.16,6.47-10.15-4.12-10.15-6.47S462.24,655.67,467.85,655.67Zm-17.08-27.51A6.74,6.74,0,1,1,444,634.9,6.74,6.74,0,0,1,450.77,628.16Z"/><path class="cls-8" d="M62.82,261.75a.63.63,0,0,1-.39-.39.71.71,0,0,1,0-.57l1.72-4.14h0l5-12.08.06-.14.05,0,0-.07.07-.05,0,0a.58.58,0,0,1,.26-.11h.07l.08,0,.08,0H70a.54.54,0,0,1,.27.11l.05,0s0,.05.06.05a.25.25,0,0,1,.05.07s0,.05,0,0a.53.53,0,0,1,.06.14l5,12.08h0l1.72,4.14a.71.71,0,0,1,0,.57.67.67,0,0,1-.4.39.71.71,0,0,1-.28.06.67.67,0,0,1-.68-.45l-1.54-3.69h-9l-1.53,3.69a.68.68,0,0,1-.68.45H63Zm10.92-5.56-3.91-9.42-3.9,9.42Z"/><path class="cls-8" d="M82.09,261.07a.72.72,0,0,1-.21.53.73.73,0,0,1-.52.21.76.76,0,0,1-.53-.21.72.72,0,0,1-.21-.53v-16.2a.66.66,0,0,1,.55-.7.66.66,0,0,1,.82.33l7.37,12.17,7.37-12.17a.67.67,0,0,1,.83-.33.66.66,0,0,1,.54.7v16.2a.73.73,0,0,1-.22.53.72.72,0,0,1-.52.21.73.73,0,0,1-.52-.21.72.72,0,0,1-.21-.53V247.51l-6.64,11h0l0,.06-.05.05,0,.05-.06,0s0,0,0,0l0,0s0,0-.08,0l-.06,0h-.14l-.07,0-.07,0h-.14l-.06,0s0,0-.08,0h0s0,0,0,0,0,0,0,0l-.06,0,0-.05,0-.05-.05-.06h0l-6.64-11Z"/><path class="cls-8" d="M103.78,261.81a.67.67,0,0,1-.51-.22.68.68,0,0,1-.23-.52V244.81a.68.68,0,0,1,.23-.52.62.62,0,0,1,.51-.22l9.82,0a.73.73,0,0,1,.52.22.7.7,0,0,1,.22.52.69.69,0,0,1-.22.53.72.72,0,0,1-.52.21l-9.07,0v6.65h6.78a.74.74,0,0,1,0,1.48h-6.78v6.65h9.07a.73.73,0,0,1,.52.22.69.69,0,0,1,.22.52.67.67,0,0,1-.22.52.69.69,0,0,1-.52.22Z"/><path class="cls-8" d="M118.78,244.13a.72.72,0,0,1,.52.22.7.7,0,0,1,.21.52v15.47h8a.73.73,0,0,1,.74.73.69.69,0,0,1-.22.53.72.72,0,0,1-.52.21h-8.75a.72.72,0,0,1-.74-.74v-16.2a.73.73,0,0,1,.74-.74Z"/><path class="cls-8" d="M132.87,261.07a.68.68,0,0,1-.23.52.71.71,0,0,1-1,0,.68.68,0,0,1-.23-.52V244.88a.7.7,0,0,1,.23-.52.71.71,0,0,1,1,0,.7.7,0,0,1,.23.52Z"/><path class="cls-8" d="M137.24,261.75a.73.73,0,0,1-.39-1l1.71-4.14h0l5-12.08.06-.14.05,0,0-.07.06-.05.05,0a.54.54,0,0,1,.26-.11h.06l.09,0,.07,0h.07a.54.54,0,0,1,.27.11l.05,0s0,.05.06.05l0,.07s.05.05.05,0l.06.14,5,12.08h0l1.71,4.14a.73.73,0,0,1-.39,1,.72.72,0,0,1-.29.06.68.68,0,0,1-.68-.45l-1.53-3.69h-9l-1.53,3.69a.68.68,0,0,1-.68.45h-.15Zm10.92-5.56-3.91-9.42-3.91,9.42Z"/><path class="cls-8" d="M167.87,261.81a8.84,8.84,0,1,1,6.27-2.59A8.54,8.54,0,0,1,167.87,261.81Zm0-16.25a7.43,7.43,0,1,0,5.22,2.18A7.11,7.11,0,0,0,167.87,245.56Z"/><path class="cls-8" d="M188.19,261.81a8.86,8.86,0,1,1,6.26-2.59A8.54,8.54,0,0,1,188.19,261.81Zm0-16.25a7.44,7.44,0,1,0,5.21,2.18A7.09,7.09,0,0,0,188.19,245.56Z"/><path class="cls-8" d="M213.41,261.56v0h0L202.08,247v14.11a.68.68,0,0,1-.23.52.71.71,0,0,1-1,0,.68.68,0,0,1-.23-.52V244.8a.74.74,0,0,1,1.33-.46l11.32,14.57V244.8a.7.7,0,0,1,.21-.52.71.71,0,0,1,.52-.23.74.74,0,0,1,.53.23.7.7,0,0,1,.21.52v16.32s0,.05,0,.08l0,.06a.12.12,0,0,1,0,.07l0,.06a.15.15,0,0,1,0,.07l0,.06-.05.06,0,.05s-.05,0,0,0,0,0,0,0l0,0-.07,0,0,0-.09,0h-.38l-.1,0,0,0-.09-.05-.05,0,0,0Z"/><path class="cls-8" d="M81.43,267.61a.39.39,0,0,1,0,.52.34.34,0,0,1-.26.11.33.33,0,0,1-.26-.11.39.39,0,0,1,0-.52.36.36,0,0,1,.26-.11A.35.35,0,0,1,81.43,267.61Zm-.52,1.44h.52v4.08h-.52Z"/><path class="cls-8" d="M83,267.35h.52v5.78H83Z"/><path class="cls-8" d="M85.11,267.35h.53v5.78h-.53Z"/><path class="cls-8" d="M90.71,269.05v4.08h-.53v-1a1.55,1.55,0,0,1-.61.74,1.84,1.84,0,0,1-1,.25,1.5,1.5,0,0,1-1.13-.42,1.62,1.62,0,0,1-.41-1.17v-2.5h.53v2.38a1.25,1.25,0,0,0,.32.9,1.17,1.17,0,0,0,.86.32,1.26,1.26,0,0,0,1-.45,1.7,1.7,0,0,0,.38-1.15v-2Z"/><path class="cls-8" d="M93.81,269.54a2.23,2.23,0,0,0-.56-.08,1.18,1.18,0,0,0-.63.15.5.5,0,0,0-.24.46.45.45,0,0,0,.13.34.89.89,0,0,0,.32.21,4.27,4.27,0,0,0,.53.19,5.37,5.37,0,0,1,.69.24,1.28,1.28,0,0,1,.45.35,1,1,0,0,1,.19.61,1,1,0,0,1-.42.84,1.77,1.77,0,0,1-1.06.29,2.7,2.7,0,0,1-.85-.14,1.84,1.84,0,0,1-.7-.43l.21-.37a2,2,0,0,0,.63.38,1.91,1.91,0,0,0,.74.14,1.15,1.15,0,0,0,.67-.17.54.54,0,0,0,.26-.5.52.52,0,0,0-.13-.37,1,1,0,0,0-.33-.22,4.79,4.79,0,0,0-.55-.19,5.79,5.79,0,0,1-.67-.25,1.19,1.19,0,0,1-.44-.33,1,1,0,0,1,.23-1.39,1.66,1.66,0,0,1,1-.28,2.13,2.13,0,0,1,.67.1,2.1,2.1,0,0,1,.59.25l-.2.4A2.12,2.12,0,0,0,93.81,269.54Z"/><path class="cls-8" d="M97.78,272.85a1.67,1.67,0,0,1-.9.3,1,1,0,0,1-.74-.29,1.17,1.17,0,0,1-.28-.86v-2.43h-.58v-.41h.59v-1.05h.52v1.05h1.33v.42H96.38v2.34c0,.51.19.76.57.76a1.29,1.29,0,0,0,.67-.22Z"/><path class="cls-8" d="M99.82,269.28a1.79,1.79,0,0,1,.91-.25v.49a1.4,1.4,0,0,0-1,.38,1.64,1.64,0,0,0-.45,1.05v2.18h-.52v-4.08h.52V270A1.62,1.62,0,0,1,99.82,269.28Z"/><path class="cls-8" d="M103.93,273.13v-.69a1.59,1.59,0,0,1-.64.54,2.24,2.24,0,0,1-.89.17,1.54,1.54,0,0,1-.73-.16,1.15,1.15,0,0,1-.66-1.07,1,1,0,0,1,.41-.83,1.81,1.81,0,0,1,1.13-.31h1.37v-.31a1,1,0,0,0-.29-.75,1.22,1.22,0,0,0-.84-.26,2.19,2.19,0,0,0-1.32.49l-.23-.36a3.54,3.54,0,0,1,.78-.42,2.54,2.54,0,0,1,.86-.14,1.64,1.64,0,0,1,1.15.37,1.36,1.36,0,0,1,.41,1v2.71Zm-.52-.67a1.22,1.22,0,0,0,.52-.71v-.56h-1.32a1.53,1.53,0,0,0-.82.18.59.59,0,0,0-.28.53.72.72,0,0,0,.27.59,1.08,1.08,0,0,0,.71.22A1.58,1.58,0,0,0,103.41,272.46Z"/><path class="cls-8" d="M107.9,272.85a1.67,1.67,0,0,1-.91.3,1,1,0,0,1-.74-.29A1.22,1.22,0,0,1,106,272v-2.43h-.58v-.41H106v-1.05h.52v1.05h1.33v.42H106.5v2.34c0,.51.19.76.56.76a1.29,1.29,0,0,0,.68-.22Z"/><path class="cls-8" d="M109.36,267.61a.39.39,0,0,1,0,.52.32.32,0,0,1-.25.11.33.33,0,0,1-.27-.11.39.39,0,0,1,0-.52.37.37,0,0,1,.27-.11A.34.34,0,0,1,109.36,267.61Zm-.52,1.44h.52v4.08h-.52Z"/><path class="cls-8" d="M113.58,269.29a2,2,0,0,1,.73.73,2.16,2.16,0,0,1,.26,1.06,2.2,2.2,0,0,1-.26,1.07,1.9,1.9,0,0,1-.73.73,2.11,2.11,0,0,1-1.06.26,2.06,2.06,0,0,1-1.06-.26,1.83,1.83,0,0,1-.73-.73,2.1,2.1,0,0,1-.27-1.07,2.06,2.06,0,0,1,.27-1.06,1.9,1.9,0,0,1,.73-.73,2.16,2.16,0,0,1,1.06-.26A2.22,2.22,0,0,1,113.58,269.29Zm-1.86.39a1.48,1.48,0,0,0-.54.57,1.86,1.86,0,0,0,0,1.68,1.48,1.48,0,0,0,.54.57,1.64,1.64,0,0,0,.8.2,1.6,1.6,0,0,0,.79-.2,1.44,1.44,0,0,0,.55-.57,2,2,0,0,0,0-1.68,1.44,1.44,0,0,0-.55-.57,1.6,1.6,0,0,0-.79-.2A1.64,1.64,0,0,0,111.72,269.68Z"/><path class="cls-8" d="M119,269.45a1.61,1.61,0,0,1,.42,1.17v2.51h-.53v-2.39a1.25,1.25,0,0,0-.32-.9,1.18,1.18,0,0,0-.89-.33,1.44,1.44,0,0,0-1,.39,1.65,1.65,0,0,0-.43,1v2.2h-.52v-4.08h.52V270a1.52,1.52,0,0,1,.62-.72,2,2,0,0,1,1-.25A1.55,1.55,0,0,1,119,269.45Z"/><path class="cls-8" d="M123.45,270.66a.56.56,0,0,1,0,.76.51.51,0,0,1-.37.15.5.5,0,0,1-.37-.15.59.59,0,0,1,0-.76.53.53,0,0,1,.74,0Z"/><path class="cls-8" d="M129.48,273.13v-.69a1.5,1.5,0,0,1-.63.54,2.24,2.24,0,0,1-.89.17,1.54,1.54,0,0,1-.73-.16,1.15,1.15,0,0,1-.66-1.07,1,1,0,0,1,.41-.83,1.81,1.81,0,0,1,1.13-.31h1.37v-.31a1,1,0,0,0-.29-.75,1.22,1.22,0,0,0-.84-.26A2.19,2.19,0,0,0,127,270l-.23-.36a3.33,3.33,0,0,1,.78-.42,2.54,2.54,0,0,1,.86-.14,1.64,1.64,0,0,1,1.15.37,1.36,1.36,0,0,1,.41,1v2.71Zm-.52-.67a1.16,1.16,0,0,0,.51-.71v-.56h-1.31a1.53,1.53,0,0,0-.82.18.59.59,0,0,0-.28.53.72.72,0,0,0,.27.59,1.08,1.08,0,0,0,.71.22A1.6,1.6,0,0,0,129,272.46Z"/><path class="cls-8" d="M134.67,269.45a1.61,1.61,0,0,1,.42,1.17v2.51h-.53v-2.39a1.25,1.25,0,0,0-.32-.9,1.18,1.18,0,0,0-.89-.33,1.44,1.44,0,0,0-1,.39,1.65,1.65,0,0,0-.43,1v2.2h-.52v-4.08h.52V270a1.52,1.52,0,0,1,.62-.72,2.05,2.05,0,0,1,1-.25A1.52,1.52,0,0,1,134.67,269.45Z"/><path class="cls-8" d="M137,267.61a.4.4,0,0,1,.1.26.36.36,0,0,1-.11.26.31.31,0,0,1-.25.11.33.33,0,0,1-.26-.11.37.37,0,1,1,.52-.52Zm-.52,1.44H137v4.08h-.52Z"/><path class="cls-8" d="M144.87,269.45a1.61,1.61,0,0,1,.4,1.17v2.51h-.53v-2.39a1.22,1.22,0,0,0-.31-.9,1.15,1.15,0,0,0-.87-.33,1.3,1.3,0,0,0-1,.46,1.74,1.74,0,0,0-.37,1.15v2h-.53v-2.39a1.22,1.22,0,0,0-.31-.9,1.15,1.15,0,0,0-.87-.33,1.3,1.3,0,0,0-1,.46,1.69,1.69,0,0,0-.37,1.15v2h-.52v-4.08h.52V270a1.43,1.43,0,0,1,.6-.72,2,2,0,0,1,1-.25,1.6,1.6,0,0,1,1,.29,1.33,1.33,0,0,1,.51.81,1.5,1.5,0,0,1,.6-.82,2,2,0,0,1,1-.28A1.5,1.5,0,0,1,144.87,269.45Z"/><path class="cls-8" d="M149.23,273.13v-.69a1.5,1.5,0,0,1-.63.54,2.29,2.29,0,0,1-.9.17A1.53,1.53,0,0,1,147,273a1.17,1.17,0,0,1-.49-.44,1.15,1.15,0,0,1-.17-.63,1,1,0,0,1,.41-.83,1.78,1.78,0,0,1,1.12-.31h1.37v-.31a1,1,0,0,0-.28-.75,1.27,1.27,0,0,0-.85-.26,2.18,2.18,0,0,0-1.31.49l-.24-.36a3.6,3.6,0,0,1,.79-.42,2.54,2.54,0,0,1,.86-.14,1.61,1.61,0,0,1,1.14.37,1.37,1.37,0,0,1,.42,1v2.71Zm-.52-.67a1.24,1.24,0,0,0,.51-.71v-.56H147.9a1.5,1.5,0,0,0-.81.18.59.59,0,0,0-.28.53.72.72,0,0,0,.27.59,1,1,0,0,0,.71.22A1.6,1.6,0,0,0,148.71,272.46Z"/><path class="cls-8" d="M153.19,272.85a1.67,1.67,0,0,1-.9.3,1,1,0,0,1-.74-.29,1.22,1.22,0,0,1-.27-.86v-2.43h-.59v-.41h.59v-1.05h.52v1.05h1.32v.42H151.8v2.34c0,.51.19.76.56.76a1.32,1.32,0,0,0,.68-.22Z"/><path class="cls-8" d="M154.66,267.61a.35.35,0,0,1,.1.26.36.36,0,0,1-.11.26.31.31,0,0,1-.25.11.33.33,0,0,1-.26-.11.37.37,0,1,1,.52-.52Zm-.52,1.44h.52v4.08h-.52Z"/><path class="cls-8" d="M158.87,269.29a1.9,1.9,0,0,1,.73.73,2.06,2.06,0,0,1,.27,1.06,2.1,2.1,0,0,1-.27,1.07,1.83,1.83,0,0,1-.73.73,2.06,2.06,0,0,1-1.06.26,2.11,2.11,0,0,1-1.06-.26,1.9,1.9,0,0,1-.73-.73,2.1,2.1,0,0,1-.26-1.07A2.06,2.06,0,0,1,156,270a2,2,0,0,1,.73-.73,2.22,2.22,0,0,1,1.06-.26A2.16,2.16,0,0,1,158.87,269.29Zm-1.85.39a1.44,1.44,0,0,0-.55.57,2,2,0,0,0,0,1.68,1.44,1.44,0,0,0,.55.57,1.6,1.6,0,0,0,.79.2,1.64,1.64,0,0,0,.8-.2,1.48,1.48,0,0,0,.54-.57,1.86,1.86,0,0,0,0-1.68,1.48,1.48,0,0,0-.54-.57,1.64,1.64,0,0,0-.8-.2A1.6,1.6,0,0,0,157,269.68Z"/><path class="cls-8" d="M164.26,269.45a1.61,1.61,0,0,1,.42,1.17v2.51h-.53v-2.39a1.25,1.25,0,0,0-.32-.9,1.19,1.19,0,0,0-.89-.33,1.42,1.42,0,0,0-1,.39,1.59,1.59,0,0,0-.43,1v2.2H161v-4.08h.52V270a1.47,1.47,0,0,1,.62-.72,2,2,0,0,1,1-.25A1.55,1.55,0,0,1,164.26,269.45Z"/><path class="cls-8" d="M168.75,270.66a.56.56,0,0,1,0,.76.53.53,0,0,1-.37.15.5.5,0,0,1-.37-.15.56.56,0,0,1,0-.76.53.53,0,0,1,.74,0Z"/><path class="cls-8" d="M175.93,267.35v5.78h-.52v-.94a1.75,1.75,0,0,1-.65.72,2,2,0,0,1-1,.25,1.94,1.94,0,0,1-1-.27,1.75,1.75,0,0,1-.71-.74,2.31,2.31,0,0,1-.25-1.07,2.2,2.2,0,0,1,.26-1.07,1.89,1.89,0,0,1,.7-.73,1.94,1.94,0,0,1,1-.27,1.86,1.86,0,0,1,1,.26,1.77,1.77,0,0,1,.66.72v-2.64Zm-1.27,5.15a1.44,1.44,0,0,0,.55-.57,1.77,1.77,0,0,0,.2-.84,1.73,1.73,0,0,0-.2-.83,1.4,1.4,0,0,0-.55-.58,1.51,1.51,0,0,0-.79-.21,1.54,1.54,0,0,0-.8.21,1.46,1.46,0,0,0-.55.58,1.62,1.62,0,0,0-.2.83,1.66,1.66,0,0,0,.2.84,1.44,1.44,0,0,0,.55.57,1.61,1.61,0,0,0,1.59,0Z"/><path class="cls-8" d="M180.53,269.63a2.3,2.3,0,0,1,.46,1.63h-3.4a1.59,1.59,0,0,0,.48,1.05,1.49,1.49,0,0,0,1.06.4,1.79,1.79,0,0,0,.73-.14,1.61,1.61,0,0,0,.57-.39l.3.29a2.08,2.08,0,0,1-.71.5,2.51,2.51,0,0,1-.92.17,2,2,0,0,1-1-.26,1.75,1.75,0,0,1-.72-.73,2.16,2.16,0,0,1-.26-1.06,2.23,2.23,0,0,1,.26-1.07,1.87,1.87,0,0,1,.72-.73,2.11,2.11,0,0,1,1-.26A1.76,1.76,0,0,1,180.53,269.63Zm0,1.22a1.49,1.49,0,0,0-.43-1,1.33,1.33,0,0,0-1-.38,1.45,1.45,0,0,0-1,.38,1.49,1.49,0,0,0-.48,1Z"/><path class="cls-8" d="M183.67,269.54a2.23,2.23,0,0,0-.56-.08,1.18,1.18,0,0,0-.63.15.5.5,0,0,0-.24.46.45.45,0,0,0,.13.34.81.81,0,0,0,.32.21,4.27,4.27,0,0,0,.53.19,5.37,5.37,0,0,1,.69.24,1.37,1.37,0,0,1,.45.35,1,1,0,0,1,.19.61,1,1,0,0,1-.42.84,1.79,1.79,0,0,1-1.06.29,2.7,2.7,0,0,1-.85-.14,1.84,1.84,0,0,1-.7-.43l.21-.37a2,2,0,0,0,.63.38,1.91,1.91,0,0,0,.74.14,1.15,1.15,0,0,0,.67-.17.54.54,0,0,0,.26-.5.52.52,0,0,0-.13-.37,1,1,0,0,0-.33-.22,4.79,4.79,0,0,0-.55-.19,5.79,5.79,0,0,1-.67-.25,1.19,1.19,0,0,1-.44-.33,1,1,0,0,1,.23-1.39,1.66,1.66,0,0,1,1-.28,2.13,2.13,0,0,1,.67.1,2.1,2.1,0,0,1,.59.25l-.2.4A2.12,2.12,0,0,0,183.67,269.54Z"/><path class="cls-8" d="M186.1,267.61a.36.36,0,0,1,0,.52.31.31,0,0,1-.25.11.31.31,0,0,1-.26-.11.36.36,0,0,1,0-.52.35.35,0,0,1,.26-.11A.33.33,0,0,1,186.1,267.61Zm-.52,1.44h.52v4.08h-.52Z"/><path class="cls-8" d="M191.15,269.05v3.65a2.08,2.08,0,0,1-.25,1,1.67,1.67,0,0,1-.71.68,2.31,2.31,0,0,1-1.07.23,2.61,2.61,0,0,1-1.68-.62l.25-.37a2.33,2.33,0,0,0,.66.41,2,2,0,0,0,.75.14,1.52,1.52,0,0,0,1.11-.41,1.45,1.45,0,0,0,.42-1.09V272a1.61,1.61,0,0,1-.62.67,1.72,1.72,0,0,1-.94.25,1.88,1.88,0,0,1-1-.26,1.78,1.78,0,0,1-.66-.7,2.27,2.27,0,0,1,0-2,1.78,1.78,0,0,1,.67-.69,1.85,1.85,0,0,1,1-.25,1.79,1.79,0,0,1,.93.24,1.67,1.67,0,0,1,.62.67v-.89Zm-1.23,3.29a1.45,1.45,0,0,0,.52-.55,1.62,1.62,0,0,0,.19-.79,1.59,1.59,0,0,0-.19-.79,1.32,1.32,0,0,0-.52-.55,1.36,1.36,0,0,0-.75-.2,1.44,1.44,0,0,0-1.29.75,1.71,1.71,0,0,0-.19.79,1.68,1.68,0,0,0,.19.79,1.55,1.55,0,0,0,.53.55,1.53,1.53,0,0,0,1.51,0Z"/><path class="cls-8" d="M195.85,269.45a1.61,1.61,0,0,1,.42,1.17v2.51h-.53v-2.39a1.25,1.25,0,0,0-.32-.9,1.18,1.18,0,0,0-.89-.33,1.44,1.44,0,0,0-1,.39,1.65,1.65,0,0,0-.43,1v2.2h-.52v-4.08h.52V270a1.52,1.52,0,0,1,.62-.72,2,2,0,0,1,1-.25A1.53,1.53,0,0,1,195.85,269.45Z"/><path class="cls-9" d="M183.31,210.16a16.54,16.54,0,0,1-10.22-7.52c3.55,1.71,10,4.44,18.09,0,9.84-5.45,8.84-16.88,8.84-16.88a13.39,13.39,0,0,1-12.77,9.52,12.59,12.59,0,0,1-9.19-4.31c2-.13,8,0,12.27-7.32,3.3-5.69.23-12.29.23-12.29s-1.75,7.69-9.48,10.37a9,9,0,0,1-3.84.55,39.31,39.31,0,1,0-77.56-9,38.93,38.93,0,0,0,.53,6.43,10.25,10.25,0,0,1-3.06-.72c-7.6-3-9-10.79-9-10.79s-3.15,10.37,5.72,17a18.23,18.23,0,0,0,6.33,2.57c-.85,1.88-3.93,5.9-10.26,5.81-12-.17-13.34-11.8-13.34-11.8s-1.71,17.45,14,20.35c8.37,1.55,12.65-1.88,15.9-3.59-.43,3.3-5.51,8-11.46,9.41-11.1,2.65-16.33-5.5-16.33-5.5s6.24,18.33,23.52,16.62c10.25-1,14.43-6.38,18-9.42a31.12,31.12,0,0,1-4.09,7.69c-4.93,7,4,20.71,4,20.71s-3-8.45,7.46-14.79c6.14-3.73,9-7.33,10.27-10,1.29,2.71,4.12,6.31,10.26,10,10.42,6.34,7.46,14.79,7.46,14.79s8.88-13.66,3.95-20.71a30,30,0,0,1-4.28-8.29l.11,0c1.84,2.25,7.11,11.78,21.48,12.29,17.61.63,23.72-16.59,23.72-16.59A17.55,17.55,0,0,1,183.31,210.16Zm-31.44-48.61a5.15,5.15,0,1,1-5.14,5.14A5.14,5.14,0,0,1,151.87,161.55Zm-12.89,21c4.28,0,7.75-3.62,7.75-1.83s-3.47,4.93-7.75,4.93-7.75-3.14-7.75-4.93S134.7,182.54,139,182.54Zm-13-21a5.15,5.15,0,1,1-5.14,5.14A5.14,5.14,0,0,1,126,161.55Z"/><line class="cls-10" x1="44.21" y1="133.75" x2="233.46" y2="133.75"/><line class="cls-10" x1="44.04" y1="275.01" x2="233.17" y2="275.01"/><line class="cls-10" x1="43.88" y1="293.55" x2="233.09" y2="293.55"/><line class="cls-10" x1="62.12" y1="115.02" x2="62.12" y2="293.65"/><line class="cls-10" x1="43.64" y1="114.92" x2="43.64" y2="294"/><line class="cls-10" x1="215.01" y1="115.06" x2="215.06" y2="293.59"/><g class="cls-11"><path class="cls-8" d="M62.79,293.14a.74.74,0,0,1-.4-1L64.11,288v0l5-12.07a.53.53,0,0,1,.06-.14l0-.05,0-.06.06-.05,0,0a.85.85,0,0,1,.26-.11h.28a.81.81,0,0,1,.27.11l0,0,.06.05,0,.06,0,.05.07.14,5,12.07v0l1.72,4.14a.68.68,0,0,1,0,.56.66.66,0,0,1-.4.4.72.72,0,0,1-1-.4l-1.53-3.68h-9l-1.53,3.68a.67.67,0,0,1-.68.46h-.15Zm10.91-5.56-3.9-9.42-3.91,9.42Z"/><path class="cls-8" d="M82.06,292.46a.72.72,0,0,1-.73.74.72.72,0,0,1-.53-.21.74.74,0,0,1-.21-.53v-16.2a.73.73,0,0,1,1.37-.37l7.36,12.17,7.37-12.17a.73.73,0,0,1,1.37.37v16.2a.71.71,0,0,1-.22.53.7.7,0,0,1-.52.21.72.72,0,0,1-.73-.74V278.9l-6.64,11v0h0l0,.06,0,.05,0,.05-.06.05h-.06l-.07,0-.07,0h-.42l-.06,0-.07,0h-.06l-.07-.05,0-.05,0-.05-.05-.06h0l0,0-6.63-11Z"/><path class="cls-8" d="M103.75,293.2a.75.75,0,0,1-.74-.74V276.19a.67.67,0,0,1,.22-.51.68.68,0,0,1,.52-.23l9.81,0a.67.67,0,0,1,.52.22.74.74,0,0,1-.52,1.26l-9.07,0v6.65h6.78a.67.67,0,0,1,.52.22.68.68,0,0,1,.23.52.7.7,0,0,1-.23.52.71.71,0,0,1-.52.22h-6.78v6.65h9.07a.74.74,0,0,1,0,1.48Z"/><path class="cls-8" d="M118.74,275.52a.73.73,0,0,1,.73.74v15.47h8a.73.73,0,0,1,.74.73.71.71,0,0,1-.22.53.7.7,0,0,1-.52.21h-8.75a.72.72,0,0,1-.74-.74v-16.2a.7.7,0,0,1,.21-.52A.71.71,0,0,1,118.74,275.52Z"/><path class="cls-8" d="M132.83,292.46a.67.67,0,0,1-.22.52.69.69,0,0,1-.52.22.75.75,0,0,1-.74-.74V276.27a.75.75,0,0,1,.74-.74.69.69,0,0,1,.52.22.67.67,0,0,1,.22.52Z"/><path class="cls-8" d="M137.21,293.14a.66.66,0,0,1-.4-.4.68.68,0,0,1,0-.56l1.72-4.14v0l5-12.07.07-.14.05-.05,0-.06.07-.05.05,0a.76.76,0,0,1,.26-.11h.28a.81.81,0,0,1,.27.11l0,0,.06.05.05.06.05.05a.53.53,0,0,1,.06.14l5,12.07v0l1.72,4.14a.74.74,0,0,1-.4,1,.72.72,0,0,1-1-.4l-1.54-3.68h-9l-1.53,3.68a.67.67,0,0,1-.68.46h-.15Zm10.91-5.56-3.91-9.42-3.9,9.42Z"/><path class="cls-8" d="M167.83,293.2a8.86,8.86,0,1,1,6.27-2.59A8.53,8.53,0,0,1,167.83,293.2Zm0-16.25a7.41,7.41,0,1,0,5.22,2.17A7.08,7.08,0,0,0,167.83,277Z"/><path class="cls-8" d="M188.15,293.2a8.84,8.84,0,1,1,6.27-2.59A8.54,8.54,0,0,1,188.15,293.2Zm0-16.25a7.41,7.41,0,1,0,5.22,2.17A7.1,7.1,0,0,0,188.15,277Z"/><path class="cls-8" d="M213.37,292.94h0L202,278.35v14.11a.67.67,0,0,1-.22.52.69.69,0,0,1-.52.22.75.75,0,0,1-.74-.74V276.18a.73.73,0,0,1,1.32-.45L213.2,290.3V276.18a.72.72,0,0,1,.21-.52.74.74,0,0,1,1.05,0,.72.72,0,0,1,.21.52v16.33a.17.17,0,0,1,0,.07s0,0,0,.07l0,.07s0,0,0,.06a.09.09,0,0,1,0,.06l0,.07-.05.06-.05,0,0,0s0,0,0,0l0,0-.08,0-.05,0-.08,0h-.39l-.1,0,0,0-.08-.05-.05,0,0,0Z"/></g><line class="cls-10" x1="43.29" y1="115.25" x2="233.54" y2="115.25"/><g class="cls-11"><path class="cls-8" d="M62.7,133.34a.66.66,0,0,1-.4-.4.68.68,0,0,1,0-.56L64,128.23h0l5-12.07s0-.09.07-.14l0-.05,0-.06.07-.05s0,0,0,0a.76.76,0,0,1,.26-.11h.28a.81.81,0,0,1,.27.11l0,0,.06.05,0,.06,0,.05a.53.53,0,0,1,.06.14l5,12.07h0l1.72,4.15a.74.74,0,0,1-.4,1,.72.72,0,0,1-1-.4l-1.53-3.68h-9l-1.53,3.68a.67.67,0,0,1-.68.46h-.15Zm10.91-5.56-3.91-9.42-3.9,9.42Z"/><path class="cls-8" d="M82,132.66a.74.74,0,0,1-.21.53.71.71,0,0,1-.51.21.76.76,0,0,1-.54-.21.74.74,0,0,1-.21-.53v-16.2a.67.67,0,0,1,.55-.71.68.68,0,0,1,.83.33l7.36,12.18,7.37-12.18a.68.68,0,0,1,.83-.33.67.67,0,0,1,.54.71v16.2a.71.71,0,0,1-.22.53.72.72,0,0,1-.52.21.72.72,0,0,1-.73-.74V119.1l-6.64,11v0h0l0,.06,0,0,0,.05-.06.05h-.06l-.08,0-.06,0H89l-.06,0-.07,0h0s0,0,0,0,0,0-.06-.05l-.05-.05,0,0,0-.06h0v0L82,119.1Z"/><path class="cls-8" d="M103.66,133.4a.67.67,0,0,1-.52-.22.68.68,0,0,1-.23-.52V116.39a.71.71,0,0,1,.23-.52.67.67,0,0,1,.52-.22l9.81,0a.67.67,0,0,1,.52.22.7.7,0,0,1,.22.52.73.73,0,0,1-.22.53.7.7,0,0,1-.52.21l-9.07,0v6.65h6.78a.75.75,0,0,1,.74.74.69.69,0,0,1-.22.52.71.71,0,0,1-.52.22H104.4v6.65h9.07a.74.74,0,0,1,0,1.48Z"/><path class="cls-8" d="M118.65,115.71a.71.71,0,0,1,.52.23.7.7,0,0,1,.21.52v15.47h8a.72.72,0,0,1,.52.21.74.74,0,0,1,0,1.05.72.72,0,0,1-.52.21h-8.75a.72.72,0,0,1-.74-.74v-16.2a.7.7,0,0,1,.21-.52A.72.72,0,0,1,118.65,115.71Z"/><path class="cls-8" d="M132.74,132.66a.71.71,0,0,1-.22.52.69.69,0,0,1-.52.22.75.75,0,0,1-.74-.74V116.47a.75.75,0,0,1,.74-.74.69.69,0,0,1,.52.22.71.71,0,0,1,.22.52Z"/><path class="cls-8" d="M137.11,133.34a.64.64,0,0,1-.39-.4.68.68,0,0,1,0-.56l1.72-4.15h0l5-12.07.06-.14.05-.05,0-.06.06-.05.05,0a1,1,0,0,1,.26-.11h.29a.81.81,0,0,1,.27.11l.05,0,.06.05.05.06s.05.06.05.05l.06.14,5,12.07h0l1.72,4.15a.74.74,0,0,1-.4,1,.71.71,0,0,1-.28.06.67.67,0,0,1-.68-.46l-1.54-3.68h-9l-1.53,3.68a.68.68,0,0,1-.68.46h-.15ZM148,127.78l-3.91-9.42-3.9,9.42Z"/><path class="cls-8" d="M167.74,133.4a8.84,8.84,0,1,1,6.27-2.59A8.55,8.55,0,0,1,167.74,133.4Zm0-16.25a7.41,7.41,0,1,0,5.22,2.17A7.08,7.08,0,0,0,167.74,117.15Z"/><path class="cls-8" d="M188.06,133.4a8.86,8.86,0,1,1,6.26-2.59A8.54,8.54,0,0,1,188.06,133.4Zm0-16.25a7.43,7.43,0,1,0,5.21,2.17A7.08,7.08,0,0,0,188.06,117.15Z"/><path class="cls-8" d="M213.28,133.14h0L202,118.54v14.12a.71.71,0,0,1-.22.52.69.69,0,0,1-.52.22.67.67,0,0,1-.52-.22.68.68,0,0,1-.23-.52V116.38a.68.68,0,0,1,.5-.7.67.67,0,0,1,.83.24l11.32,14.58V116.38a.72.72,0,0,1,.21-.52.7.7,0,0,1,.52-.22.73.73,0,0,1,.53.22.72.72,0,0,1,.21.52v16.33a.17.17,0,0,1,0,.07.14.14,0,0,1,0,.06.15.15,0,0,1,0,.08.14.14,0,0,0,0,.06.15.15,0,0,1,0,.06l0,.06-.05.07,0,.05,0,0,0,0,0,0-.07,0,0,0-.09,0h-.38l-.1,0,0,0-.08-.05,0,0,0,0Z"/></g><g class="cls-11"><path class="cls-8" d="M44.1,157.54a.74.74,0,0,1,1-.4l4.14,1.72h0l12.07,5,.14.06,0,0,.06.05s0,0,.05.06,0,.06,0,0a.85.85,0,0,1,.11.26v.06a.44.44,0,0,1,0,.09.32.32,0,0,1,0,.07v.06a.81.81,0,0,1-.11.27l0,.05-.05.06-.06.05,0,0-.14.07-12.07,5h0L45.06,172a.74.74,0,0,1-1-.4.72.72,0,0,1,.4-1l3.68-1.53v-9L44.5,158.5a.67.67,0,0,1-.46-.68v-.15Zm5.56,10.91,9.42-3.9-9.42-3.91Z"/><path class="cls-8" d="M44.78,176.81a.74.74,0,0,1-.53-.21.75.75,0,0,1-.21-.52.72.72,0,0,1,.21-.53.74.74,0,0,1,.53-.21H61a.73.73,0,0,1,.37,1.37l-12.17,7.36,12.17,7.37a.73.73,0,0,1-.37,1.37H44.78a.71.71,0,0,1-.53-.22.7.7,0,0,1-.21-.52.72.72,0,0,1,.74-.73H58.34l-11-6.64h0l-.06-.05,0,0-.05-.05,0-.06v0s0,0,0,0a.25.25,0,0,1,0-.07l0-.07s0-.05,0-.07a.13.13,0,0,1,0-.06.22.22,0,0,1,0-.08.17.17,0,0,1,0-.07s0-.05,0-.06,0-.05,0-.08l0-.06a.25.25,0,0,1,0-.07v0h0s0,0,0,0l0-.07.05,0,0,0,.06,0h0l0,0,11-6.63Z"/><path class="cls-8" d="M44,198.5a.75.75,0,0,1,.74-.74H61.05a.67.67,0,0,1,.51.22.65.65,0,0,1,.23.52l0,9.81a.67.67,0,0,1-.22.52.74.74,0,0,1-1.26-.52l0-9.07H53.65V206a.67.67,0,0,1-.22.52.68.68,0,0,1-.52.23.7.7,0,0,1-.52-.23.71.71,0,0,1-.22-.52v-6.78H45.52v9.07a.74.74,0,0,1-1.48,0Z"/><path class="cls-8" d="M61.73,213.49a.71.71,0,0,1-.23.52.7.7,0,0,1-.52.21H45.51v8a.73.73,0,0,1-.73.74.71.71,0,0,1-.53-.22.7.7,0,0,1-.21-.52v-8.75a.72.72,0,0,1,.74-.74H61a.7.7,0,0,1,.52.21A.72.72,0,0,1,61.73,213.49Z"/><path class="cls-8" d="M44.78,227.58a.67.67,0,0,1-.52-.22.69.69,0,0,1-.22-.52.75.75,0,0,1,.74-.74H61a.75.75,0,0,1,.74.74.69.69,0,0,1-.22.52.67.67,0,0,1-.52.22Z"/><path class="cls-8" d="M44.1,232a.66.66,0,0,1,.4-.4.68.68,0,0,1,.56,0l4.14,1.72h0l12.07,5,.14.07,0,0,.06.05.05.07,0,.05a.76.76,0,0,1,.11.26v.06a.45.45,0,0,1,0,.08.32.32,0,0,1,0,.08v.06a.81.81,0,0,1-.11.27l0,0-.05.06-.06.05s-.06.05,0,.05l-.14.06-12.07,5h0l-4.14,1.72a.74.74,0,0,1-1-.4.72.72,0,0,1,.4-1l3.68-1.54v-9l-3.68-1.53a.67.67,0,0,1-.46-.68v-.15Zm5.56,10.91L59.08,239l-9.42-3.9Z"/></g><line class="cls-10" x1="233.5" y1="114.91" x2="233.5" y2="293.65"/><g class="cls-11"><path class="cls-8" d="M215.49,157.54a.67.67,0,0,1,.39-.4.71.71,0,0,1,.57,0l4.14,1.72h0l12.07,5,.14.06.05,0,.06.05s0,0,0,.06l0,0a.68.68,0,0,1,.12.26v.06a.55.55,0,0,0,0,.09.24.24,0,0,0,0,.07v.06a.66.66,0,0,1-.12.27l0,.05,0,.06-.06.05-.05,0-.14.07-12.07,5h0L216.45,172a.71.71,0,0,1-.57,0,.74.74,0,0,1,0-1.36l3.69-1.53v-9l-3.69-1.53a.67.67,0,0,1-.45-.68v-.15Zm5.56,10.91,9.42-3.9-9.42-3.91Z"/><path class="cls-8" d="M216.17,176.81a.74.74,0,0,1-.53-.21.75.75,0,0,1-.21-.52.72.72,0,0,1,.21-.53.74.74,0,0,1,.53-.21h16.2a.67.67,0,0,1,.71.54.69.69,0,0,1-.34.83l-12.17,7.36,12.17,7.37a.68.68,0,0,1,.34.83.67.67,0,0,1-.71.54h-16.2a.71.71,0,0,1-.53-.22.7.7,0,0,1-.21-.52.72.72,0,0,1,.74-.73h13.56l-11-6.64h0l-.06-.05-.05,0,0-.05-.05-.06s0,0,0,0,0,0,0,0l0-.07,0-.07a.17.17,0,0,1,0-.07.13.13,0,0,1,0-.06.22.22,0,0,1,0-.08.17.17,0,0,1,0-.07s0-.05,0-.06a.22.22,0,0,1,0-.08l0-.06,0-.07v0h0s0,0,0,0l.05-.07,0,0,.05,0,.06,0h0v0l11-6.63Z"/><path class="cls-8" d="M215.43,198.5a.75.75,0,0,1,.74-.74h16.26a.77.77,0,0,1,.75.74l0,9.81a.67.67,0,0,1-.22.52.74.74,0,0,1-1.26-.52l0-9.07H225V206a.67.67,0,0,1-.22.52.68.68,0,0,1-.52.23.7.7,0,0,1-.52-.23.67.67,0,0,1-.22-.52v-6.78h-6.65v9.07a.67.67,0,0,1-.22.52.69.69,0,0,1-.52.22.75.75,0,0,1-.74-.74Z"/><path class="cls-8" d="M233.11,213.49a.73.73,0,0,1-.74.73H216.9v8a.73.73,0,0,1-.73.74.71.71,0,0,1-.53-.22.7.7,0,0,1-.21-.52v-8.75a.72.72,0,0,1,.74-.74h16.2a.7.7,0,0,1,.52.21A.71.71,0,0,1,233.11,213.49Z"/><path class="cls-8" d="M216.17,227.58a.67.67,0,0,1-.52-.22.69.69,0,0,1-.22-.52.75.75,0,0,1,.74-.74h16.19a.75.75,0,0,1,.74.74.69.69,0,0,1-.22.52.67.67,0,0,1-.52.22Z"/><path class="cls-8" d="M215.49,232a.64.64,0,0,1,.39-.4.71.71,0,0,1,.57,0l4.14,1.72h0l12.07,5,.14.07.05,0,.06.05,0,.07s0,.05,0,.05a.62.62,0,0,1,.12.26v.06a.28.28,0,0,0,0,.08.54.54,0,0,0,0,.08v.06a.66.66,0,0,1-.12.27l0,0s0,.05,0,.06l-.06.05-.05.05-.14.06-12.07,5h0l-4.14,1.72a.71.71,0,0,1-.57,0,.74.74,0,0,1,0-1.36l3.69-1.54v-9l-3.69-1.53a.67.67,0,0,1-.45-.68v-.15Zm5.56,10.91,9.42-3.91-9.42-3.9Z"/></g><rect class="cls-12" x="43.29" y="400.99" width="60.78" height="51.61"/><rect class="cls-13" x="119.14" y="400.99" width="60.78" height="51.61"/><rect class="cls-14" x="194.98" y="400.99" width="60.78" height="51.61"/><rect x="270.83" y="400.99" width="60.78" height="51.61"/><rect class="cls-1" x="514.76" y="401.19" width="60.78" height="51.61"/><rect class="cls-15" x="439.11" y="400.79" width="60.78" height="51.61"/><rect class="cls-16" x="364.28" y="400.79" width="60.78" height="51.61"/><circle class="cls-17" cx="533.11" cy="702.05" r="24.36"/><circle class="cls-18" cx="80.17" cy="620.65" r="22.54"/><path class="cls-19" d="M143.39,719.61c-6.76,0-10.19-4.82-12.69-8.34s-3.79-5.15-6.51-5.15-4.09,1.77-6.5,5.15-5.94,8.34-12.69,8.34-10.18-4.82-12.68-8.34-3.79-5.15-6.51-5.15-4.1,1.77-6.5,5.15-5.94,8.34-12.69,8.34-10.18-4.82-12.68-8.34-3.79-5.15-6.51-5.15a3.79,3.79,0,1,1,0-7.58c6.75,0,10.18,4.82,12.68,8.33s3.8,5.15,6.51,5.15,4.1-1.76,6.51-5.15,5.93-8.33,12.68-8.33S96,703.36,98.5,706.87,102.29,712,105,712s4.1-1.76,6.51-5.15,5.93-8.33,12.68-8.33,10.19,4.82,12.69,8.33,3.79,5.15,6.51,5.15a3.8,3.8,0,0,1,0,7.59Zm4.51-22.16a3.79,3.79,0,0,0-3.79-3.79c-2.72,0-4.1-1.76-6.51-5.15s-5.93-8.33-12.69-8.33-10.18,4.82-12.68,8.33-3.79,5.15-6.51,5.15-4.1-1.76-6.5-5.15-5.94-8.33-12.69-8.33S76.35,685,73.85,688.51s-3.79,5.15-6.51,5.15-4.1-1.76-6.5-5.15-5.94-8.33-12.69-8.33a3.79,3.79,0,1,0,0,7.58c2.72,0,4.1,1.77,6.51,5.15s5.93,8.34,12.68,8.34,10.18-4.82,12.69-8.34,3.78-5.15,6.5-5.15,4.1,1.77,6.51,5.15,5.93,8.34,12.68,8.34,10.18-4.82,12.69-8.34,3.79-5.15,6.5-5.15,4.1,1.77,6.51,5.15,5.93,8.34,12.69,8.34A3.8,3.8,0,0,0,147.9,697.45Z"/><path class="cls-19" d="M454.68,712.55c-7.31,0-11-5.21-13.73-9-2.6-3.66-4.1-5.57-7-5.57s-4.43,1.91-7,5.57c-2.71,3.81-6.42,9-13.73,9s-11-5.21-13.73-9c-2.6-3.66-4.1-5.57-7-5.57s-4.43,1.91-7,5.57c-2.71,3.81-6.42,9-13.72,9s-11-5.21-13.73-9c-2.61-3.66-4.1-5.57-7-5.57a4.11,4.11,0,1,1,0-8.21c7.31,0,11,5.21,13.73,9s4.1,5.57,7,5.57,4.43-1.91,7-5.57,6.41-9,13.72-9,11,5.21,13.73,9,4.1,5.57,7,5.57,4.44-1.91,7-5.57,6.42-9,13.73-9,11,5.21,13.73,9,4.1,5.57,7,5.57a4.11,4.11,0,1,1,0,8.21Zm4.89-24a4.11,4.11,0,0,0-4.11-4.1c-2.94,0-4.43-1.91-7-5.57s-6.42-9-13.73-9-11,5.21-13.73,9-4.1,5.57-7,5.57-4.43-1.91-7-5.57-6.42-9-13.73-9-11,5.21-13.73,9-4.1,5.57-7,5.57-4.43-1.91-7-5.57-6.41-9-13.72-9a4.11,4.11,0,1,0,0,8.21c2.94,0,4.43,1.91,7,5.57s6.42,9,13.72,9,11-5.22,13.73-9,4.1-5.57,7-5.57,4.44,1.91,7,5.57,6.42,9,13.73,9,11-5.22,13.73-9,4.1-5.57,7-5.57,4.44,1.91,7,5.57,6.42,9,13.73,9A4.11,4.11,0,0,0,459.57,688.57Z"/><text class="cls-20" transform="translate(43.29 69.38)">Logo +<tspan x="0" y="28.8">Clear Space</tspan></text><text class="cls-20" transform="translate(299.51 69.38)">Brand<tspan x="0" y="28.8">Typography</tspan></text><text class="cls-20" transform="translate(43.29 368.31)">Colors</text><text class="cls-20" transform="translate(43.29 546.45)">Design Elements</text><text class="cls-20" transform="translate(299.51 151.85)">Moon * Headers</text><text class="cls-21" transform="translate(299.51 177.23)">Montser<tspan class="cls-22" x="57.76" y="0">r</tspan><tspan class="cls-23" x="63.14" y="0">at Medium * Subheaders</tspan></text><text class="cls-21" transform="translate(163.44 589.66)">Circle Elements:</text><text class="cls-21" transform="translate(381.66 545.48)">Design Elements in Use</text><text class="cls-21" transform="translate(43.29 391.07)">Prima<tspan class="cls-24" x="42" y="0">r</tspan><tspan x="47.99" y="0">y</tspan></text><text class="cls-21" transform="translate(364.28 391.07)">Se<tspan class="cls-25" x="17.08" y="0">c</tspan><tspan class="cls-26" x="24.71" y="0">onda</tspan><tspan class="cls-24" x="60.65" y="0">r</tspan><tspan class="cls-23" x="66.64" y="0">y/</tspan><tspan class="cls-27" x="78.97" y="0">A</tspan><tspan class="cls-22" x="89.08" y="0">cc</tspan><tspan x="104.34" y="0">ent</tspan></text><text class="cls-28" transform="translate(299.51 201.33)">Montser<tspan class="cls-29" x="43.96" y="0">r</tspan><tspan x="47.7" y="0">at Light * Body</tspan><tspan x="0" y="26.4">Lorem ipsum dolor iset this is a sample body </tspan><tspan x="0" y="39.6">pa</tspan><tspan class="cls-29" x="13.74" y="39.6">r</tspan><tspan x="17.48" y="39.6">ag</tspan><tspan class="cls-30" x="30.78" y="39.6">r</tspan><tspan x="34.52" y="39.6">aph </tspan><tspan class="cls-31" x="58.54" y="39.6">f</tspan><tspan x="62.01" y="39.6">or r</tspan><tspan class="cls-32" x="79.86" y="39.6">e</tspan><tspan class="cls-33" x="86.31" y="39.6">f</tspan><tspan class="cls-34" x="89.77" y="39.6">eren</tspan><tspan class="cls-29" x="113.95" y="39.6">c</tspan><tspan x="119.83" y="39.6">e. E</tspan><tspan class="cls-35" x="138.62" y="39.6">v</tspan><tspan x="143.83" y="39.6">er </tspan><tspan class="cls-35" x="157.36" y="39.6">w</tspan><tspan x="166.59" y="39.6">ondered what </tspan><tspan x="0" y="52.8">the </tspan><tspan class="cls-29" x="21" y="52.8">c</tspan><tspan x="26.88" y="52.8">o</tspan><tspan class="cls-35" x="33.66" y="52.8">p</tspan><tspan x="40.9" y="52.8">y </tspan><tspan class="cls-31" x="49.36" y="52.8">f</tspan><tspan class="cls-36" x="52.82" y="52.8">or documents and pa</tspan><tspan class="cls-29" x="169.24" y="52.8">r</tspan><tspan x="172.98" y="52.8">ag</tspan><tspan class="cls-29" x="186.28" y="52.8">r</tspan><tspan x="190.02" y="52.8">aphs </tspan><tspan class="cls-37" x="218.99" y="52.8">o</tspan><tspan x="225.73" y="52.8">f </tspan><tspan class="cls-38" x="0" y="66">t</tspan><tspan class="cls-39" x="4.15" y="66">e</tspan><tspan x="10.3" y="66">xt should look li</tspan><tspan class="cls-40" x="94.55" y="66">k</tspan><tspan x="100.54" y="66">e? </tspan><tspan class="cls-41" x="114.65" y="66">W</tspan><tspan x="125.41" y="66">ell, this is it!</tspan></text><line class="cls-42" x1="348.8" y1="397.55" x2="348.8" y2="455.95"/><text class="cls-28" transform="translate(164.08 609.71)"><tspan class="cls-43">T</tspan><tspan x="5.26" y="0">o be used as a</tspan><tspan class="cls-29" x="81.57" y="0">cc</tspan><tspan x="93.35" y="0">ents </tspan><tspan class="cls-38" x="0" y="13.2">t</tspan><tspan x="4.15" y="13.2">o mimic bubbles</tspan></text><text class="cls-21" transform="translate(163.44 686.86)">Squiggle Elements:</text><text class="cls-28" transform="translate(164.08 706.91)"><tspan class="cls-43">T</tspan><tspan x="5.26" y="0">o be used as a</tspan><tspan class="cls-29" x="81.57" y="0">cc</tspan><tspan x="93.35" y="0">ents </tspan><tspan class="cls-38" x="0" y="13.2">t</tspan><tspan x="4.15" y="13.2">o mimic </tspan><tspan class="cls-44" x="51.9" y="13.2">w</tspan><tspan class="cls-40" x="61.17" y="13.2">a</tspan><tspan class="cls-35" x="67.23" y="13.2">v</tspan><tspan x="72.45" y="13.2">es</tspan></text></svg>