<svg id="Layer_1" data-name="Layer 1" xmlns="http://www.w3.org/2000/svg" viewBox="0 0 612 792"><defs><style>.cls-1{fill:#fbcccd;}.cls-2{fill:#9899cb;}.cls-3{fill:#c7c9e6;}.cls-4{fill:#98216d;}.cls-5{fill:#2b2c77;}.cls-6{fill:#e04362;}.cls-7{fill:#6963ac;}.cls-8{fill:#eee;}.cls-9{fill:#5fc9db;}.cls-10{fill:#39479e;}.cls-11{fill:#f16163;}.cls-12{font-size:24px;font-family:Moon-Bold, Moon;font-weight:700;}.cls-12,.cls-13,.cls-21{fill:#231f20;}.cls-13{font-size:14px;font-family:Montserrat-Medium, Montserrat;font-weight:500;}.cls-14{letter-spacing:0.02em;}.cls-15{letter-spacing:-0.02em;}.cls-16{letter-spacing:0em;}.cls-17{letter-spacing:0em;}.cls-18{letter-spacing:-0.03em;}.cls-19{letter-spacing:-0.02em;}.cls-20,.cls-33{fill:none;stroke-miterlimit:10;}.cls-20{stroke:#9899cb;stroke-width:1.14px;}.cls-21{font-size:10px;font-family:Montserrat-Light, Montserrat;font-weight:300;}.cls-22{letter-spacing:-0.02em;}.cls-23{letter-spacing:-0.03em;}.cls-24{letter-spacing:-0.05em;}.cls-25{letter-spacing:0em;}.cls-26{letter-spacing:0em;}.cls-27{letter-spacing:-0.03em;}.cls-28{letter-spacing:-0.02em;}.cls-29{letter-spacing:0.03em;}.cls-30{letter-spacing:0.03em;}.cls-31{letter-spacing:0em;}.cls-32{letter-spacing:-0.02em;}.cls-33{stroke:#eee;}</style></defs><rect class="cls-1" x="279.18" y="264" width="60" height="60"/><rect class="cls-2" x="280.44" y="156.09" width="60" height="60"/><rect class="cls-3" x="397.18" y="156" width="60" height="60"/><rect class="cls-4" x="47.96" y="264.45" width="60" height="60"/><rect class="cls-5" x="46.96" y="156.09" width="60" height="60"/><rect class="cls-6" x="163.57" y="264.45" width="60" height="60"/><rect class="cls-7" x="163.7" y="156.09" width="60" height="60"/><rect class="cls-8" x="164.18" y="379" width="60" height="60"/><rect x="47.96" y="378.93" width="60" height="60"/><rect class="cls-9" x="279.18" y="589" width="60" height="60"/><rect class="cls-10" x="164.57" y="587.16" width="60" height="60"/><rect class="cls-11" x="49.96" y="587.16" width="60" height="60"/><text class="cls-12" transform="translate(47.18 97.74)">Color Palette</text><text class="cls-13" transform="translate(47.18 139.5)">Prima<tspan class="cls-14" x="42" y="0">r</tspan><tspan x="47.99" y="0">y</tspan></text><text class="cls-13" transform="translate(47.18 565.5)">Se<tspan class="cls-15" x="17.08" y="0">c</tspan><tspan class="cls-16" x="24.71" y="0">onda</tspan><tspan class="cls-14" x="60.65" y="0">r</tspan><tspan class="cls-17" x="66.64" y="0">y/</tspan><tspan class="cls-18" x="78.97" y="0">A</tspan><tspan class="cls-19" x="89.08" y="0">cc</tspan><tspan x="104.34" y="0">ent</tspan></text><rect class="cls-20" x="268.44" y="146.5" width="84.24" height="204"/><text class="cls-21" transform="translate(280.18 340.42)">Blush Pink</text><text class="cls-21" transform="translate(52.18 665.59)"><tspan class="cls-22">C</tspan><tspan x="6.83" y="0">o</tspan><tspan class="cls-23" x="12.99" y="0">r</tspan><tspan x="16.39" y="0">al</tspan></text><text class="cls-21" transform="translate(162.18 665.59)">Indigo</text><text class="cls-21" transform="translate(276.18 666.42)"><tspan class="cls-24">T</tspan><tspan x="4.99" y="0">urqoise</tspan></text><text class="cls-21" transform="translate(280.18 233.59)">S<tspan class="cls-25" x="6.08" y="0">o</tspan><tspan class="cls-26" x="12.21" y="0">f</tspan><tspan x="15.51" y="0">t Iris</tspan></text><text class="cls-21" transform="translate(395.41 233.5)">Pale Iris</text><text class="cls-21" transform="translate(161.41 340.42)">St<tspan class="cls-27" x="9.93" y="0">r</tspan><tspan class="cls-28" x="13.33" y="0">a</tspan><tspan x="18.84" y="0">wber</tspan><tspan class="cls-29" x="43.7" y="0">r</tspan><tspan x="47.64" y="0">y</tspan></text><text class="cls-21" transform="translate(166.41 233.59)">Purple</text><text class="cls-21" transform="translate(47.18 340.42)">Ber<tspan class="cls-30" x="16.74" y="0">r</tspan><tspan class="cls-31" x="20.68" y="0">y</tspan></text><text class="cls-21" transform="translate(52.18 233.59)">N<tspan class="cls-28" x="7.96" y="0">a</tspan><tspan x="13.47" y="0">vy Violet</tspan></text><text class="cls-21" transform="translate(46.18 457.92)">Black</text><text class="cls-21" transform="translate(161.41 457.92)">Light Gr<tspan class="cls-32" x="38.51" y="0">e</tspan><tspan x="44.23" y="0">y</tspan></text><line class="cls-33" x1="175.68" y1="506.75" x2="46.6" y2="506.75"/></svg>