<svg id="Layer_1" data-name="Layer 1" xmlns="http://www.w3.org/2000/svg" xmlns:xlink="http://www.w3.org/1999/xlink" viewBox="0 0 612 792"><defs><style>.cls-1,.cls-29{fill:none;stroke-miterlimit:10;}.cls-1{stroke:#d1d3d4;stroke-width:0.7px;}.cls-2{opacity:0.05;}.cls-3{fill:#010101;}.cls-10,.cls-4,.cls-6,.cls-7{fill:#231f20;}.cls-5{fill:url(#linear-gradient);}.cls-6{font-size:24px;font-family:Moon-Bold, Moon;font-weight:700;}.cls-7{font-size:14px;font-family:Montserrat-Medium, Montserrat;font-weight:500;}.cls-8{letter-spacing:-0.02em;}.cls-9{letter-spacing:0em;}.cls-10{font-size:11px;font-family:Montserrat-Light, Montserrat;font-weight:300;}.cls-11{letter-spacing:-0.03em;}.cls-12{letter-spacing:0em;}.cls-13{letter-spacing:-0.03em;}.cls-14{letter-spacing:-0.01em;}.cls-15{letter-spacing:0em;}.cls-16{letter-spacing:-0.02em;}.cls-17{letter-spacing:-0.03em;}.cls-18{letter-spacing:0em;}.cls-19{letter-spacing:-0.01em;}.cls-20{letter-spacing:-0.03em;}.cls-21{letter-spacing:-0.02em;}.cls-22{letter-spacing:-0.05em;}.cls-23{letter-spacing:-0.03em;}.cls-24{letter-spacing:0em;}.cls-25{fill:url(#linear-gradient-2);}.cls-26{letter-spacing:-0.01em;}.cls-27{fill:url(#linear-gradient-3);}.cls-28{fill:url(#linear-gradient-4);}.cls-29{stroke:#eee;}</style><linearGradient id="linear-gradient" x1="305.57" y1="191.73" x2="402.6" y2="191.73" gradientUnits="userSpaceOnUse"><stop offset="0" stop-color="#fbcccd"/><stop offset="1" stop-color="#9999cb"/></linearGradient><linearGradient id="linear-gradient-2" x1="471.75" y1="407.5" x2="527.74" y2="407.5" xlink:href="#linear-gradient"/><linearGradient id="linear-gradient-3" x1="59.97" y1="459.32" x2="110.77" y2="459.32" xlink:href="#linear-gradient"/><linearGradient id="linear-gradient-4" x1="491.52" y1="252.77" x2="554.65" y2="252.77" xlink:href="#linear-gradient"/></defs><line class="cls-1" x1="44.21" y1="144.25" x2="233.46" y2="144.25"/><line class="cls-1" x1="44.04" y1="285.51" x2="233.17" y2="285.51"/><line class="cls-1" x1="43.88" y1="304.05" x2="233.09" y2="304.05"/><line class="cls-1" x1="62.12" y1="125.52" x2="62.12" y2="304.15"/><line class="cls-1" x1="43.64" y1="125.42" x2="43.64" y2="304.5"/><line class="cls-1" x1="215.01" y1="125.56" x2="215.06" y2="304.09"/><g class="cls-2"><path class="cls-3" d="M62.79,303.64a.74.74,0,0,1-.4-1l1.72-4.14v0l5-12.07a.53.53,0,0,1,.06-.14l0-.05,0-.06.06-.05,0,0a.85.85,0,0,1,.26-.11h.28a.81.81,0,0,1,.27.11l0,0,.06.05,0,.06,0,.05.07.14,5,12.07v0l1.72,4.14a.68.68,0,0,1,0,.56.66.66,0,0,1-.4.4.72.72,0,0,1-1-.4l-1.53-3.68h-9l-1.53,3.68a.67.67,0,0,1-.68.46h-.15Zm10.91-5.56-3.9-9.42-3.91,9.42Z"/><path class="cls-3" d="M82.06,303a.72.72,0,0,1-.73.74.72.72,0,0,1-.53-.21.74.74,0,0,1-.21-.53v-16.2a.73.73,0,0,1,1.37-.37l7.36,12.17,7.37-12.17a.73.73,0,0,1,1.37.37V303a.71.71,0,0,1-.22.53.7.7,0,0,1-.52.21.72.72,0,0,1-.73-.74V289.4l-6.64,11v0h0l0,.06,0,.05,0,.05-.06.05h-.06l-.07,0-.07,0h-.42l-.06,0-.07,0h-.06l-.07-.05,0-.05,0-.05-.05-.06h0l0,0-6.63-11Z"/><path class="cls-3" d="M103.75,303.7A.75.75,0,0,1,103,303V286.69a.67.67,0,0,1,.22-.51.68.68,0,0,1,.52-.23l9.81,0a.67.67,0,0,1,.52.22.74.74,0,0,1-.52,1.26l-9.07,0v6.65h6.78a.67.67,0,0,1,.52.22.68.68,0,0,1,.23.52.7.7,0,0,1-.23.52.71.71,0,0,1-.52.22h-6.78v6.65h9.07a.74.74,0,0,1,0,1.48Z"/><path class="cls-3" d="M118.74,286a.73.73,0,0,1,.73.74v15.47h8a.73.73,0,0,1,.74.73.71.71,0,0,1-.22.53.7.7,0,0,1-.52.21h-8.75A.72.72,0,0,1,118,303v-16.2a.7.7,0,0,1,.21-.52A.71.71,0,0,1,118.74,286Z"/><path class="cls-3" d="M132.83,303a.67.67,0,0,1-.22.52.69.69,0,0,1-.52.22.75.75,0,0,1-.74-.74V286.77a.75.75,0,0,1,.74-.74.69.69,0,0,1,.52.22.67.67,0,0,1,.22.52Z"/><path class="cls-3" d="M137.21,303.64a.66.66,0,0,1-.4-.4.68.68,0,0,1,0-.56l1.72-4.14v0l5-12.07.07-.14.05-.05,0-.06.07-.05.05,0a.76.76,0,0,1,.26-.11h.28a.81.81,0,0,1,.27.11l0,0,.06.05.05.06.05.05a.53.53,0,0,1,.06.14l5,12.07v0l1.72,4.14a.74.74,0,0,1-.4,1,.72.72,0,0,1-1-.4l-1.54-3.68h-9l-1.53,3.68a.67.67,0,0,1-.68.46h-.15Zm10.91-5.56-3.91-9.42-3.9,9.42Z"/><path class="cls-3" d="M167.83,303.7a8.86,8.86,0,1,1,6.27-2.59A8.53,8.53,0,0,1,167.83,303.7Zm0-16.25a7.41,7.41,0,1,0,5.22,2.17A7.08,7.08,0,0,0,167.83,287.45Z"/><path class="cls-3" d="M188.15,303.7a8.84,8.84,0,1,1,6.27-2.59A8.54,8.54,0,0,1,188.15,303.7Zm0-16.25a7.41,7.41,0,1,0,5.22,2.17A7.1,7.1,0,0,0,188.15,287.45Z"/><path class="cls-3" d="M213.37,303.44h0L202,288.85V303a.67.67,0,0,1-.22.52.69.69,0,0,1-.52.22.75.75,0,0,1-.74-.74V286.68a.73.73,0,0,1,1.32-.45L213.2,300.8V286.68a.72.72,0,0,1,.21-.52.74.74,0,0,1,1.05,0,.72.72,0,0,1,.21.52V303a.17.17,0,0,1,0,.07s0,0,0,.07l0,.07s0,0,0,.06a.09.09,0,0,1,0,.06l0,.07-.05.06-.05,0,0,0s0,0,0,0l0,0-.08,0-.05,0-.08,0h-.39l-.1,0,0,0-.08-.05-.05,0,0,0Z"/></g><line class="cls-1" x1="43.29" y1="125.75" x2="233.54" y2="125.75"/><g class="cls-2"><path class="cls-3" d="M62.7,143.84a.66.66,0,0,1-.4-.4.68.68,0,0,1,0-.56L64,138.73h0l5-12.07s0-.09.07-.14l0-.05,0-.06.07-.05s0,0,0,0a.76.76,0,0,1,.26-.11h.28a.81.81,0,0,1,.27.11l0,0,.06.05,0,.06,0,.05a.53.53,0,0,1,.06.14l5,12.07h0l1.72,4.15a.74.74,0,0,1-.4,1,.72.72,0,0,1-1-.4l-1.53-3.68h-9l-1.53,3.68a.67.67,0,0,1-.68.46h-.15Zm10.91-5.56-3.91-9.42-3.9,9.42Z"/><path class="cls-3" d="M82,143.16a.74.74,0,0,1-.21.53.71.71,0,0,1-.51.21.76.76,0,0,1-.54-.21.74.74,0,0,1-.21-.53V127a.67.67,0,0,1,.55-.71.68.68,0,0,1,.83.33l7.36,12.18,7.37-12.18a.68.68,0,0,1,.83-.33A.67.67,0,0,1,98,127v16.2a.71.71,0,0,1-.22.53.72.72,0,0,1-.52.21.72.72,0,0,1-.73-.74V129.6l-6.64,11v0h0l0,.06,0,0,0,.05-.06.05h-.06l-.08,0-.06,0H89l-.06,0-.07,0h0s0,0,0,0,0,0-.06-.05l-.05-.05,0,0,0-.06h0v0L82,129.6Z"/><path class="cls-3" d="M103.66,143.9a.67.67,0,0,1-.52-.22.68.68,0,0,1-.23-.52V126.89a.71.71,0,0,1,.23-.52.67.67,0,0,1,.52-.22l9.81,0a.67.67,0,0,1,.52.22.7.7,0,0,1,.22.52.73.73,0,0,1-.22.53.7.7,0,0,1-.52.21l-9.07,0v6.65h6.78a.75.75,0,0,1,.74.74.69.69,0,0,1-.22.52.71.71,0,0,1-.52.22H104.4v6.65h9.07a.74.74,0,0,1,0,1.48Z"/><path class="cls-3" d="M118.65,126.21a.71.71,0,0,1,.52.23.7.7,0,0,1,.21.52v15.47h8a.72.72,0,0,1,.52.21.74.74,0,0,1,0,1.05.72.72,0,0,1-.52.21h-8.75a.72.72,0,0,1-.74-.74V127a.7.7,0,0,1,.21-.52A.72.72,0,0,1,118.65,126.21Z"/><path class="cls-3" d="M132.74,143.16a.71.71,0,0,1-.22.52.69.69,0,0,1-.52.22.75.75,0,0,1-.74-.74V127a.75.75,0,0,1,.74-.74.69.69,0,0,1,.52.22.71.71,0,0,1,.22.52Z"/><path class="cls-3" d="M137.11,143.84a.64.64,0,0,1-.39-.4.68.68,0,0,1,0-.56l1.72-4.15h0l5-12.07.06-.14.05-.05,0-.06.06-.05.05,0a1,1,0,0,1,.26-.11h.29a.81.81,0,0,1,.27.11l.05,0,.06.05.05.06s.05.06.05.05l.06.14,5,12.07h0l1.72,4.15a.74.74,0,0,1-.4,1,.71.71,0,0,1-.28.06.67.67,0,0,1-.68-.46l-1.54-3.68h-9l-1.53,3.68a.68.68,0,0,1-.68.46h-.15ZM148,138.28l-3.91-9.42-3.9,9.42Z"/><path class="cls-3" d="M167.74,143.9a8.84,8.84,0,1,1,6.27-2.59A8.55,8.55,0,0,1,167.74,143.9Zm0-16.25a7.41,7.41,0,1,0,5.22,2.17A7.08,7.08,0,0,0,167.74,127.65Z"/><path class="cls-3" d="M188.06,143.9a8.86,8.86,0,1,1,6.26-2.59A8.54,8.54,0,0,1,188.06,143.9Zm0-16.25a7.43,7.43,0,1,0,5.21,2.17A7.08,7.08,0,0,0,188.06,127.65Z"/><path class="cls-3" d="M213.28,143.64h0L202,129v14.12a.71.71,0,0,1-.22.52.69.69,0,0,1-.52.22.67.67,0,0,1-.52-.22.68.68,0,0,1-.23-.52V126.88a.68.68,0,0,1,.5-.7.67.67,0,0,1,.83.24L213.11,141V126.88a.72.72,0,0,1,.21-.52.7.7,0,0,1,.52-.22.73.73,0,0,1,.53.22.72.72,0,0,1,.21.52v16.33a.17.17,0,0,1,0,.07.14.14,0,0,1,0,.06.15.15,0,0,1,0,.08.14.14,0,0,0,0,.06.15.15,0,0,1,0,.06l0,.06-.05.07,0,.05,0,0,0,0,0,0-.07,0,0,0-.09,0h-.38l-.1,0,0,0-.08-.05,0,0,0,0Z"/></g><g class="cls-2"><path class="cls-3" d="M44.1,168a.74.74,0,0,1,1-.4l4.14,1.72h0l12.07,5,.14.06,0,0,.06.05s0,0,.05.06,0,.06,0,0a.85.85,0,0,1,.11.26V175a.44.44,0,0,1,0,.09.32.32,0,0,1,0,.07v.06a.81.81,0,0,1-.11.27l0,.05-.05.06-.06.05,0,0-.14.07-12.07,5h0l-4.14,1.72a.74.74,0,0,1-1-.4.72.72,0,0,1,.4-1l3.68-1.53v-9L44.5,169a.67.67,0,0,1-.46-.68v-.15ZM49.66,179l9.42-3.9-9.42-3.91Z"/><path class="cls-3" d="M44.78,187.31a.74.74,0,0,1-.53-.21.75.75,0,0,1-.21-.52.72.72,0,0,1,.21-.53.74.74,0,0,1,.53-.21H61a.73.73,0,0,1,.37,1.37l-12.17,7.36,12.17,7.37a.73.73,0,0,1-.37,1.37H44.78a.71.71,0,0,1-.53-.22.7.7,0,0,1-.21-.52.72.72,0,0,1,.74-.73H58.34l-11-6.64h0l-.06-.05,0,0-.05-.05,0-.06v0s0,0,0,0a.25.25,0,0,1,0-.07l0-.07s0-.05,0-.07a.13.13,0,0,1,0-.06.22.22,0,0,1,0-.08.17.17,0,0,1,0-.07s0-.05,0-.06,0-.05,0-.08l0-.06a.25.25,0,0,1,0-.07v0h0s0,0,0,0l0-.07.05,0,0,0,.06,0h0l0,0,11-6.63Z"/><path class="cls-3" d="M44,209a.75.75,0,0,1,.74-.74H61.05a.67.67,0,0,1,.51.22.65.65,0,0,1,.23.52l0,9.81a.67.67,0,0,1-.22.52.74.74,0,0,1-1.26-.52l0-9.07H53.65v6.78a.67.67,0,0,1-.22.52.68.68,0,0,1-.52.23.7.7,0,0,1-.52-.23.71.71,0,0,1-.22-.52v-6.78H45.52v9.07a.74.74,0,0,1-1.48,0Z"/><path class="cls-3" d="M61.73,224a.71.71,0,0,1-.23.52.7.7,0,0,1-.52.21H45.51v8a.73.73,0,0,1-.73.74.71.71,0,0,1-.53-.22.7.7,0,0,1-.21-.52V224a.72.72,0,0,1,.74-.74H61a.7.7,0,0,1,.52.21A.72.72,0,0,1,61.73,224Z"/><path class="cls-3" d="M44.78,238.08a.67.67,0,0,1-.52-.22.69.69,0,0,1-.22-.52.75.75,0,0,1,.74-.74H61a.75.75,0,0,1,.74.74.69.69,0,0,1-.22.52.67.67,0,0,1-.52.22Z"/><path class="cls-3" d="M44.1,242.46a.66.66,0,0,1,.4-.4.68.68,0,0,1,.56,0l4.14,1.72h0l12.07,5,.14.07,0,0,.06.05.05.07,0,.05a.76.76,0,0,1,.11.26v.06a.45.45,0,0,1,0,.08.32.32,0,0,1,0,.08v.06a.81.81,0,0,1-.11.27l0,0-.05.06-.06.05s-.06.05,0,.05l-.14.06-12.07,5h0l-4.14,1.72a.74.74,0,0,1-1-.4.72.72,0,0,1,.4-1L48.18,254v-9l-3.68-1.53a.67.67,0,0,1-.46-.68v-.15Zm5.56,10.91,9.42-3.91-9.42-3.9Z"/></g><line class="cls-1" x1="233.5" y1="125.41" x2="233.5" y2="304.15"/><g class="cls-2"><path class="cls-3" d="M215.49,168a.67.67,0,0,1,.39-.4.71.71,0,0,1,.57,0l4.14,1.72h0l12.07,5,.14.06.05,0,.06.05s0,0,0,.06l0,0a.68.68,0,0,1,.12.26V175a.55.55,0,0,0,0,.09.24.24,0,0,0,0,.07v.06a.66.66,0,0,1-.12.27l0,.05,0,.06-.06.05-.05,0-.14.07-12.07,5h0l-4.14,1.72a.71.71,0,0,1-.57,0,.74.74,0,0,1,0-1.36l3.69-1.53v-9L215.88,169a.67.67,0,0,1-.45-.68v-.15ZM221.05,179l9.42-3.9-9.42-3.91Z"/><path class="cls-3" d="M216.17,187.31a.74.74,0,0,1-.53-.21.75.75,0,0,1-.21-.52.72.72,0,0,1,.21-.53.74.74,0,0,1,.53-.21h16.2a.67.67,0,0,1,.71.54.69.69,0,0,1-.34.83l-12.17,7.36,12.17,7.37a.68.68,0,0,1,.34.83.67.67,0,0,1-.71.54h-16.2a.71.71,0,0,1-.53-.22.7.7,0,0,1-.21-.52.72.72,0,0,1,.74-.73h13.56l-11-6.64h0l-.06-.05-.05,0,0-.05-.05-.06s0,0,0,0,0,0,0,0l0-.07,0-.07a.17.17,0,0,1,0-.07.13.13,0,0,1,0-.06.22.22,0,0,1,0-.08.17.17,0,0,1,0-.07s0-.05,0-.06a.22.22,0,0,1,0-.08l0-.06,0-.07v0h0s0,0,0,0l.05-.07,0,0,.05,0,.06,0h0v0l11-6.63Z"/><path class="cls-3" d="M215.43,209a.75.75,0,0,1,.74-.74h16.26a.77.77,0,0,1,.75.74l0,9.81a.67.67,0,0,1-.22.52.74.74,0,0,1-1.26-.52l0-9.07H225v6.78a.67.67,0,0,1-.22.52.68.68,0,0,1-.52.23.7.7,0,0,1-.52-.23.67.67,0,0,1-.22-.52v-6.78h-6.65v9.07a.67.67,0,0,1-.22.52.69.69,0,0,1-.52.22.75.75,0,0,1-.74-.74Z"/><path class="cls-3" d="M233.11,224a.73.73,0,0,1-.74.73H216.9v8a.73.73,0,0,1-.73.74.71.71,0,0,1-.53-.22.7.7,0,0,1-.21-.52V224a.72.72,0,0,1,.74-.74h16.2a.7.7,0,0,1,.52.21A.71.71,0,0,1,233.11,224Z"/><path class="cls-3" d="M216.17,238.08a.67.67,0,0,1-.52-.22.69.69,0,0,1-.22-.52.75.75,0,0,1,.74-.74h16.19a.75.75,0,0,1,.74.74.69.69,0,0,1-.22.52.67.67,0,0,1-.52.22Z"/><path class="cls-3" d="M215.49,242.46a.64.64,0,0,1,.39-.4.71.71,0,0,1,.57,0l4.14,1.72h0l12.07,5,.14.07.05,0,.06.05,0,.07s0,.05,0,.05a.62.62,0,0,1,.12.26v.06a.28.28,0,0,0,0,.08.54.54,0,0,0,0,.08v.06a.66.66,0,0,1-.12.27l0,0s0,.05,0,.06l-.06.05-.05.05-.14.06-12.07,5h0l-4.14,1.72a.71.71,0,0,1-.57,0,.74.74,0,0,1,0-1.36l3.69-1.54v-9l-3.69-1.53a.67.67,0,0,1-.45-.68v-.15Zm5.56,10.91,9.42-3.91-9.42-3.9Z"/></g><path class="cls-3" d="M65.14,268.78a.51.51,0,0,1,0,.68.42.42,0,0,1-.33.14.44.44,0,0,1-.34-.14.47.47,0,0,1,.34-.81A.42.42,0,0,1,65.14,268.78Zm-.67,1.86h.67v5.29h-.67Z"/><path class="cls-3" d="M67.16,268.44h.68v7.49h-.68Z"/><path class="cls-3" d="M69.91,268.44h.68v7.49h-.68Z"/><path class="cls-3" d="M77.16,270.64v5.29h-.69v-1.26a2,2,0,0,1-.78.94,2.41,2.41,0,0,1-1.26.34A2,2,0,0,1,73,275.4a2.06,2.06,0,0,1-.53-1.51v-3.25h.68v3.09a1.59,1.59,0,0,0,.41,1.16,1.49,1.49,0,0,0,1.12.42,1.68,1.68,0,0,0,1.34-.58,2.25,2.25,0,0,0,.48-1.5v-2.59Z"/><path class="cls-3" d="M81.18,271.28a2.69,2.69,0,0,0-.74-.1,1.52,1.52,0,0,0-.81.19.67.67,0,0,0-.31.59.63.63,0,0,0,.17.45,1.33,1.33,0,0,0,.41.27,5.86,5.86,0,0,0,.69.24,7.77,7.77,0,0,1,.89.32,1.63,1.63,0,0,1,.59.45,1.22,1.22,0,0,1,.24.79,1.24,1.24,0,0,1-.55,1.09,2.32,2.32,0,0,1-1.36.38,3.5,3.5,0,0,1-1.11-.19,2.44,2.44,0,0,1-.89-.55l.27-.48a2.54,2.54,0,0,0,.81.49,2.62,2.62,0,0,0,1,.18,1.57,1.57,0,0,0,.88-.22.73.73,0,0,0,.33-.64.64.64,0,0,0-.17-.48,1,1,0,0,0-.43-.3,7.1,7.1,0,0,0-.71-.24,6.14,6.14,0,0,1-.86-.32,1.51,1.51,0,0,1-.57-.43,1.23,1.23,0,0,1-.23-.76,1.16,1.16,0,0,1,.52-1,2.21,2.21,0,0,1,1.29-.36,3.17,3.17,0,0,1,.88.12,2.63,2.63,0,0,1,.76.34l-.26.51A2.6,2.6,0,0,0,81.18,271.28Z"/><path class="cls-3" d="M86.31,275.56a2.19,2.19,0,0,1-1.17.4,1.23,1.23,0,0,1-1-.38,1.53,1.53,0,0,1-.36-1.11v-3.15h-.75v-.53h.76v-1.36h.68v1.36h1.71v.54H84.51v3c0,.66.24,1,.72,1a1.7,1.7,0,0,0,.88-.28Z"/><path class="cls-3" d="M89,271a2.24,2.24,0,0,1,1.18-.33v.64a1.77,1.77,0,0,0-1.35.49,2.05,2.05,0,0,0-.58,1.35v2.83h-.68v-5.29h.68v1.23A2,2,0,0,1,89,271Z"/><path class="cls-3" d="M94.28,275.93V275a1.9,1.9,0,0,1-.82.69,2.79,2.79,0,0,1-1.16.23,2,2,0,0,1-.94-.21,1.58,1.58,0,0,1-.63-.57,1.5,1.5,0,0,1-.22-.82,1.27,1.27,0,0,1,.53-1.07,2.35,2.35,0,0,1,1.46-.4h1.77v-.4a1.24,1.24,0,0,0-.37-1,1.55,1.55,0,0,0-1.09-.34,2.9,2.9,0,0,0-1.71.63l-.3-.46a4.69,4.69,0,0,1,1-.55,3.15,3.15,0,0,1,1.11-.18,2.11,2.11,0,0,1,1.48.48,1.75,1.75,0,0,1,.54,1.33v3.5Zm-.67-.86a1.58,1.58,0,0,0,.66-.93v-.72h-1.7a1.92,1.92,0,0,0-1.06.23.77.77,0,0,0-.37.69,1,1,0,0,0,.35.77,1.41,1.41,0,0,0,.93.28A2.16,2.16,0,0,0,93.61,275.07Z"/><path class="cls-3" d="M99.42,275.56a2.25,2.25,0,0,1-1.17.4,1.24,1.24,0,0,1-1-.38,1.53,1.53,0,0,1-.36-1.11v-3.15h-.75v-.53h.76v-1.36h.68v1.36h1.71v.54H97.61v3c0,.66.24,1,.73,1a1.7,1.7,0,0,0,.87-.28Z"/><path class="cls-3" d="M101.31,268.78a.51.51,0,0,1,0,.68.42.42,0,0,1-.33.14.42.42,0,0,1-.34-.14.48.48,0,0,1,0-.68.45.45,0,0,1,.34-.13A.44.44,0,0,1,101.31,268.78Zm-.67,1.86h.67v5.29h-.67Z"/><path class="cls-3" d="M106.77,271a2.52,2.52,0,0,1,1,.94,2.84,2.84,0,0,1,.34,1.37,2.89,2.89,0,0,1-.34,1.39,2.48,2.48,0,0,1-1,.95,3,3,0,0,1-2.75,0,2.39,2.39,0,0,1-.94-.95,2.79,2.79,0,0,1-.35-1.39,2.74,2.74,0,0,1,.35-1.37A2.43,2.43,0,0,1,104,271a3,3,0,0,1,2.75,0Zm-2.4.51a1.75,1.75,0,0,0-.71.74,2.46,2.46,0,0,0,0,2.16,1.75,1.75,0,0,0,.71.74,2.15,2.15,0,0,0,2,0,1.75,1.75,0,0,0,.71-.74,2.46,2.46,0,0,0,0-2.16,1.75,1.75,0,0,0-.71-.74,2.15,2.15,0,0,0-2,0Z"/><path class="cls-3" d="M113.74,271.17a2.07,2.07,0,0,1,.54,1.51v3.25h-.68v-3.09a1.58,1.58,0,0,0-.42-1.17,1.53,1.53,0,0,0-1.15-.42,1.74,1.74,0,0,0-1.3.5,2,2,0,0,0-.56,1.33v2.85h-.68v-5.29h.68v1.23a1.91,1.91,0,0,1,.8-.92,2.56,2.56,0,0,1,1.28-.33A2,2,0,0,1,113.74,271.17Z"/><path class="cls-3" d="M119.56,272.74a.69.69,0,0,1,.19.48.68.68,0,0,1-.68.69.63.63,0,0,1-.47-.2.66.66,0,0,1-.19-.49.65.65,0,0,1,.19-.48.6.6,0,0,1,.47-.2A.63.63,0,0,1,119.56,272.74Z"/><path class="cls-3" d="M127.36,275.93V275a1.93,1.93,0,0,1-.81.69,2.86,2.86,0,0,1-1.16.23,2.08,2.08,0,0,1-.95-.21,1.58,1.58,0,0,1-.63-.57,1.5,1.5,0,0,1-.22-.82,1.27,1.27,0,0,1,.53-1.07,2.35,2.35,0,0,1,1.46-.4h1.77v-.4a1.24,1.24,0,0,0-.37-1,1.55,1.55,0,0,0-1.09-.34,2.87,2.87,0,0,0-1.7.63l-.31-.46a4.69,4.69,0,0,1,1-.55,3.15,3.15,0,0,1,1.11-.18,2.11,2.11,0,0,1,1.48.48,1.75,1.75,0,0,1,.54,1.33v3.5Zm-.67-.86a1.58,1.58,0,0,0,.66-.93v-.72h-1.7a1.92,1.92,0,0,0-1.06.23.76.76,0,0,0-.36.69,1,1,0,0,0,.34.77,1.43,1.43,0,0,0,.93.28A2.13,2.13,0,0,0,126.69,275.07Z"/><path class="cls-3" d="M134.09,271.17a2.1,2.1,0,0,1,.53,1.51v3.25h-.68v-3.09a1.62,1.62,0,0,0-.41-1.17,1.55,1.55,0,0,0-1.15-.42,1.76,1.76,0,0,0-1.31.5,2.08,2.08,0,0,0-.56,1.33v2.85h-.68v-5.29h.68v1.23a1.91,1.91,0,0,1,.8-.92,2.57,2.57,0,0,1,1.29-.33A2,2,0,0,1,134.09,271.17Z"/><path class="cls-3" d="M137.11,268.78a.51.51,0,0,1,.13.34.48.48,0,0,1-.14.34.46.46,0,0,1-.66,0,.48.48,0,0,1,0-.68.44.44,0,0,1,.33-.13A.45.45,0,0,1,137.11,268.78Zm-.68,1.86h.68v5.29h-.68Z"/><path class="cls-3" d="M147.28,271.17a2.07,2.07,0,0,1,.53,1.51v3.25h-.69v-3.09a1.62,1.62,0,0,0-.41-1.17,1.48,1.48,0,0,0-1.12-.42,1.71,1.71,0,0,0-1.33.58,2.25,2.25,0,0,0-.48,1.5v2.6h-.68v-3.09a1.62,1.62,0,0,0-.41-1.17,1.5,1.5,0,0,0-1.13-.42,1.74,1.74,0,0,0-1.33.58,2.25,2.25,0,0,0-.48,1.5v2.6h-.68v-5.29h.68v1.24a1.85,1.85,0,0,1,.78-.93,2.52,2.52,0,0,1,1.27-.33,2,2,0,0,1,1.25.38,1.75,1.75,0,0,1,.66,1,1.93,1.93,0,0,1,.78-1.05,2.45,2.45,0,0,1,1.33-.37A1.9,1.9,0,0,1,147.28,271.17Z"/><path class="cls-3" d="M152.93,275.93V275a1.9,1.9,0,0,1-.82.69,2.79,2.79,0,0,1-1.16.23,2,2,0,0,1-.94-.21,1.58,1.58,0,0,1-.63-.57,1.5,1.5,0,0,1-.22-.82,1.24,1.24,0,0,1,.53-1.07,2.35,2.35,0,0,1,1.46-.4h1.77v-.4a1.24,1.24,0,0,0-.37-1,1.55,1.55,0,0,0-1.09-.34,2.87,2.87,0,0,0-1.71.63l-.3-.46a4.69,4.69,0,0,1,1-.55,3.15,3.15,0,0,1,1.11-.18,2.11,2.11,0,0,1,1.48.48,1.75,1.75,0,0,1,.54,1.33v3.5Zm-.67-.86a1.58,1.58,0,0,0,.66-.93v-.72h-1.7a1.92,1.92,0,0,0-1.06.23.75.75,0,0,0-.37.69,1,1,0,0,0,.35.77,1.4,1.4,0,0,0,.92.28A2.17,2.17,0,0,0,152.26,275.07Z"/><path class="cls-3" d="M158.06,275.56a2.19,2.19,0,0,1-1.17.4,1.23,1.23,0,0,1-.95-.38,1.53,1.53,0,0,1-.36-1.11v-3.15h-.75v-.53h.76v-1.36h.68v1.36H158v.54h-1.71v3c0,.66.24,1,.72,1a1.7,1.7,0,0,0,.88-.28Z"/><path class="cls-3" d="M160,268.78a.51.51,0,0,1,0,.68.43.43,0,0,1-.33.14.42.42,0,0,1-.34-.14.48.48,0,0,1,0-.68.45.45,0,0,1,.34-.13A.44.44,0,0,1,160,268.78Zm-.68,1.86H160v5.29h-.68Z"/><path class="cls-3" d="M165.42,271a2.43,2.43,0,0,1,.94.94,2.74,2.74,0,0,1,.35,1.37,2.79,2.79,0,0,1-.35,1.39,2.39,2.39,0,0,1-.94.95,3,3,0,0,1-2.75,0,2.39,2.39,0,0,1-.94-.95,2.79,2.79,0,0,1-.35-1.39,2.74,2.74,0,0,1,.35-1.37,2.43,2.43,0,0,1,.94-.94,3,3,0,0,1,2.75,0Zm-2.4.51a1.75,1.75,0,0,0-.71.74,2.46,2.46,0,0,0,0,2.16,1.75,1.75,0,0,0,.71.74,2.15,2.15,0,0,0,2,0,1.75,1.75,0,0,0,.71-.74,2.46,2.46,0,0,0,0-2.16,1.75,1.75,0,0,0-.71-.74,2.15,2.15,0,0,0-2,0Z"/><path class="cls-3" d="M172.39,271.17a2.07,2.07,0,0,1,.54,1.51v3.25h-.69v-3.09a1.58,1.58,0,0,0-.41-1.17,1.53,1.53,0,0,0-1.15-.42,1.74,1.74,0,0,0-1.3.5,2,2,0,0,0-.56,1.33v2.85h-.68v-5.29h.68v1.23a1.86,1.86,0,0,1,.8-.92,2.56,2.56,0,0,1,1.28-.33A2,2,0,0,1,172.39,271.17Z"/><path class="cls-3" d="M178.21,272.74a.69.69,0,0,1,.19.48.68.68,0,0,1-.68.69.62.62,0,0,1-.47-.2.66.66,0,0,1-.19-.49.65.65,0,0,1,.19-.48.59.59,0,0,1,.47-.2A.63.63,0,0,1,178.21,272.74Z"/><path class="cls-3" d="M187.5,268.44v7.49h-.67v-1.21a2.29,2.29,0,0,1-.85.92,2.4,2.4,0,0,1-1.27.33,2.56,2.56,0,0,1-1.33-.35,2.32,2.32,0,0,1-.91-.95,3,3,0,0,1-.32-1.4,2.87,2.87,0,0,1,.33-1.38,2.4,2.4,0,0,1,.9-.94,2.55,2.55,0,0,1,1.32-.35,2.46,2.46,0,0,1,1.28.33,2.38,2.38,0,0,1,.85.93v-3.42Zm-1.64,6.68a1.9,1.9,0,0,0,.71-.75,2.2,2.2,0,0,0,.26-1.07,2.28,2.28,0,0,0-.26-1.09,1.9,1.9,0,0,0-.71-.75,2,2,0,0,0-1-.27,2,2,0,0,0-1,.27,1.9,1.9,0,0,0-.71.75,2.18,2.18,0,0,0-.27,1.09,2.2,2.2,0,0,0,.26,1.07,1.86,1.86,0,0,0,.72.75,2.07,2.07,0,0,0,1,.26A2,2,0,0,0,185.86,275.12Z"/><path class="cls-3" d="M193.47,271.4a3.06,3.06,0,0,1,.59,2.11h-4.41a2,2,0,0,0,.63,1.36,1.92,1.92,0,0,0,1.37.52,2.42,2.42,0,0,0,.94-.18,2,2,0,0,0,.74-.51l.39.38a2.62,2.62,0,0,1-.93.64,3,3,0,0,1-1.18.23,2.64,2.64,0,0,1-1.36-.34,2.5,2.5,0,0,1-.94-.94,3.05,3.05,0,0,1,0-2.76,2.45,2.45,0,0,1,.94-1,2.69,2.69,0,0,1,1.34-.34A2.32,2.32,0,0,1,193.47,271.4Zm0,1.58a2,2,0,0,0-.55-1.31,1.79,1.79,0,0,0-1.31-.49,1.87,1.87,0,0,0-1.33.49,2,2,0,0,0-.62,1.31Z"/><path class="cls-3" d="M197.53,271.28a2.69,2.69,0,0,0-.74-.1,1.52,1.52,0,0,0-.81.19.67.67,0,0,0-.31.59.63.63,0,0,0,.17.45,1.33,1.33,0,0,0,.41.27,5.86,5.86,0,0,0,.69.24,7.77,7.77,0,0,1,.89.32,1.63,1.63,0,0,1,.59.45,1.22,1.22,0,0,1,.24.79,1.24,1.24,0,0,1-.55,1.09,2.32,2.32,0,0,1-1.36.38,3.5,3.5,0,0,1-1.11-.19,2.44,2.44,0,0,1-.89-.55l.27-.48a2.54,2.54,0,0,0,.81.49,2.62,2.62,0,0,0,.95.18,1.57,1.57,0,0,0,.88-.22.73.73,0,0,0,.33-.64.64.64,0,0,0-.17-.48,1,1,0,0,0-.43-.3,7.1,7.1,0,0,0-.71-.24,6.14,6.14,0,0,1-.86-.32,1.51,1.51,0,0,1-.57-.43A1.23,1.23,0,0,1,195,272a1.16,1.16,0,0,1,.52-1,2.21,2.21,0,0,1,1.29-.36,3.17,3.17,0,0,1,.88.12,2.63,2.63,0,0,1,.76.34l-.26.51A2.6,2.6,0,0,0,197.53,271.28Z"/><path class="cls-3" d="M200.68,268.78a.51.51,0,0,1,.13.34.48.48,0,0,1-.14.34.46.46,0,0,1-.66,0,.48.48,0,0,1,0-.68.44.44,0,0,1,.33-.13A.45.45,0,0,1,200.68,268.78Zm-.68,1.86h.68v5.29H200Z"/><path class="cls-3" d="M207.21,270.64v4.73a2.74,2.74,0,0,1-.32,1.34,2.19,2.19,0,0,1-.92.89,3.09,3.09,0,0,1-1.39.3,3.37,3.37,0,0,1-2.17-.8l.32-.49a3,3,0,0,0,.85.54,2.58,2.58,0,0,0,1,.18,2,2,0,0,0,1.45-.53,1.9,1.9,0,0,0,.54-1.42v-.85a2.1,2.1,0,0,1-.81.86,2.3,2.3,0,0,1-1.21.32,2.42,2.42,0,0,1-1.26-.33,2.26,2.26,0,0,1-.85-.91,2.74,2.74,0,0,1-.31-1.32,2.7,2.7,0,0,1,.31-1.31,2.17,2.17,0,0,1,.86-.89,2.42,2.42,0,0,1,1.26-.33,2.23,2.23,0,0,1,1.2.31,2.27,2.27,0,0,1,.81.87v-1.16Zm-1.59,4.26a1.7,1.7,0,0,0,.67-.71,2.21,2.21,0,0,0,0-2,1.79,1.79,0,0,0-.67-.72,2,2,0,0,0-2,0,1.89,1.89,0,0,0-.68.72,2.23,2.23,0,0,0,0,2.05,1.83,1.83,0,0,0,.68.7,1.77,1.77,0,0,0,1,.26A1.82,1.82,0,0,0,205.62,274.9Z"/><path class="cls-3" d="M213.3,271.17a2.07,2.07,0,0,1,.54,1.51v3.25h-.69v-3.09a1.62,1.62,0,0,0-.41-1.17,1.55,1.55,0,0,0-1.15-.42,1.76,1.76,0,0,0-1.31.5,2.13,2.13,0,0,0-.56,1.33v2.85h-.67v-5.29h.67v1.23a1.93,1.93,0,0,1,.81-.92,2.56,2.56,0,0,1,1.28-.33A2,2,0,0,1,213.3,271.17Z"/><path class="cls-4" d="M65.16,262.28a1.38,1.38,0,0,1-.75-.77,1.47,1.47,0,0,1,0-1.09l1.48-3.68h0L70.16,246l.06-.12,0-.06.05-.06a.15.15,0,0,1,0-.06l.05-.05,0,0s0-.05,0-.06l0,0,.06-.05s0,0,0,0l.06,0,0,0,.07,0,.08,0s0,0,0,0l0,0,.08,0,.08,0h.13l.06,0h.27l.07,0h.05l.09,0h0a1,1,0,0,1,.26.11l0,0,.07,0,0,0,.06.05s0,0,0,0l.06,0s0,0,0,0a.17.17,0,0,1,0,.06l0,.05s0,0,0,.06a.15.15,0,0,0,0,.06l0,.06a.34.34,0,0,1,.06.12L77,256.73h0l1.47,3.68a1.47,1.47,0,0,1,0,1.09,1.37,1.37,0,0,1-1.26.88,1.28,1.28,0,0,1-1.27-.88l-1.11-2.8H68.06l-1.12,2.8a1.27,1.27,0,0,1-1.26.88h-.27Zm8.5-6.41-2.24-5.6-2.23,5.6Z"/><path class="cls-4" d="M97.36,245.08a1.43,1.43,0,0,1,.72.52,1.45,1.45,0,0,1,.28.86V261a1.39,1.39,0,0,1-.4,1,1.3,1.3,0,0,1-1,.42,1.32,1.32,0,0,1-1-.42,1.42,1.42,0,0,1-.39-1v-9.38L91.28,259h0v0h0l0,.08,0,.05-.06.06a.23.23,0,0,0,0,.05l0,.05-.06.06,0,0-.08.05h0v0h0a.19.19,0,0,1-.08,0l0,0-.07,0a1.22,1.22,0,0,1-.56.11H90a1.59,1.59,0,0,1-.3-.06h-.05l0,0-.09,0s0,0,0,0l-.09,0h0v0h0a.21.21,0,0,1-.08-.06l0,0-.07-.06,0-.05-.05-.05s0,0,0-.06a.09.09,0,0,1,0-.05l0-.08h0s0,0,0,0h0l-4.32-7.43V261a1.4,1.4,0,0,1-.41,1,1.33,1.33,0,0,1-1.94,0,1.39,1.39,0,0,1-.4-1v-14.5a1.44,1.44,0,0,1,.27-.86,1.4,1.4,0,0,1,.74-.52,1.37,1.37,0,0,1,.87,0,1.42,1.42,0,0,1,.67.59l5.72,9.81,5.71-9.81a1.4,1.4,0,0,1,.66-.59l.44-.17Z"/><path class="cls-4" d="M113.17,259.53a1.26,1.26,0,0,1,1,.42,1.37,1.37,0,0,1,.41,1,1.36,1.36,0,0,1-.41,1,1.26,1.26,0,0,1-1,.42h-8.41a1.3,1.3,0,0,1-1-.42,1.39,1.39,0,0,1-.4-1V246.5a1.39,1.39,0,0,1,.4-1,1.3,1.3,0,0,1,1-.42h0l8.4,0a1.31,1.31,0,0,1,1,.43,1.44,1.44,0,0,1,.39,1,1.34,1.34,0,0,1-.41,1,1.26,1.26,0,0,1-1,.42h0l-7,0v4.38h5.07a1.32,1.32,0,0,1,1,.41,1.46,1.46,0,0,1,0,2,1.32,1.32,0,0,1-1,.41h-5.07v4.38Z"/><path class="cls-4" d="M119.56,245.08a1.23,1.23,0,0,1,1,.43,1.36,1.36,0,0,1,.41,1v13h6.14a1.32,1.32,0,0,1,1,.42,1.46,1.46,0,0,1,0,2,1.32,1.32,0,0,1-1,.42h-7.51a1.3,1.3,0,0,1-1-.42,1.39,1.39,0,0,1-.4-1V246.51a1.35,1.35,0,0,1,.4-1A1.27,1.27,0,0,1,119.56,245.08Z"/><path class="cls-4" d="M132.85,262.39a1.3,1.3,0,0,1-1-.42,1.39,1.39,0,0,1-.4-1V246.57a1.35,1.35,0,0,1,.4-1,1.3,1.3,0,0,1,1-.43,1.27,1.27,0,0,1,1,.43,1.36,1.36,0,0,1,.41,1V261a1.4,1.4,0,0,1-.41,1A1.26,1.26,0,0,1,132.85,262.39Z"/><path class="cls-4" d="M139,262.28a1.34,1.34,0,0,1-.74-.77,1.47,1.47,0,0,1,0-1.09l1.47-3.68h0L144,246a.61.61,0,0,1,.05-.12l0-.06,0-.06s0,0,0-.06l.05-.05,0,0,0-.06,0,0,.06-.05,0,0,.06,0,0,0,.07,0,.08,0,0,0,0,0,.09,0,.08,0H145l.05,0h.27l.07,0h.06l.08,0h.05a1.12,1.12,0,0,1,.25.11l0,0,.07,0,0,0,.06.05s0,0,0,0,0,0,.06,0a.09.09,0,0,0,0,0l.05.06,0,.05s.05,0,.05.06l0,.06s0,0,0,.06l.06.12,4.27,10.72h0l1.48,3.68a1.47,1.47,0,0,1,0,1.09,1.38,1.38,0,0,1-.75.77,1.35,1.35,0,0,1-.52.11,1.27,1.27,0,0,1-1.26-.88l-1.12-2.8h-6.73l-1.11,2.8a1.28,1.28,0,0,1-1.27.88h-.27Zm8.5-6.41-2.24-5.6-2.23,5.6Z"/><path class="cls-4" d="M168.05,262.39a7.86,7.86,0,0,1-5.89-2.55,8.88,8.88,0,0,1,0-12.25,8.13,8.13,0,0,1,11.79,0,8.91,8.91,0,0,1,0,12.25A7.88,7.88,0,0,1,168.05,262.39Zm0-14.48a5.26,5.26,0,0,0-4,1.7,5.94,5.94,0,0,0,0,8.22,5.43,5.43,0,0,0,7.91,0,6,6,0,0,0,0-8.22A5.3,5.3,0,0,0,168.05,247.91Z"/><path class="cls-4" d="M187.87,262.39a7.86,7.86,0,0,1-5.89-2.55,8.88,8.88,0,0,1,0-12.25,8.13,8.13,0,0,1,11.79,0,8.91,8.91,0,0,1,0,12.25A7.88,7.88,0,0,1,187.87,262.39Zm0-14.48a5.26,5.26,0,0,0-4,1.7,5.94,5.94,0,0,0,0,8.22,5.43,5.43,0,0,0,7.91,0,6,6,0,0,0,0-8.22A5.3,5.3,0,0,0,187.87,247.91Z"/><path class="cls-4" d="M211.43,261.85h0v0l-8.36-11.16V261a1.39,1.39,0,0,1-.4,1,1.3,1.3,0,0,1-1,.42,1.26,1.26,0,0,1-1-.42,1.4,1.4,0,0,1-.41-1V246.51a1.38,1.38,0,0,1,.26-.82,1.37,1.37,0,0,1,1.51-.55,1.31,1.31,0,0,1,.68.5l8.36,11.17v-10.3a1.38,1.38,0,0,1,.39-1,1.29,1.29,0,0,1,1-.43,1.23,1.23,0,0,1,1,.43,1.36,1.36,0,0,1,.41,1V261a.56.56,0,0,0,0,.07v.06a.25.25,0,0,1,0,.07.17.17,0,0,1,0,.08v.06s0,.06,0,.07a.15.15,0,0,1,0,.06.14.14,0,0,1,0,.07l0,.06,0,.06,0,.07,0,0s0,0,0,.07l0,.05,0,.05-.05.05,0,0-.05,0s0,0,0,0h0l-.17.12h0l-.19.08s0,0,0,0a.65.65,0,0,1-.2,0l0,0h-.37l-.11,0s0,0-.05,0l-.09,0,0,0-.09,0s0,0-.05,0l-.08,0-.05,0-.08-.06,0,0-.11-.09v0h0l0-.05Z"/><path d="M174.12,210.64a13,13,0,0,1-8-5.89c2.78,1.34,7.87,3.48,14.16,0,7.7-4.26,6.91-13.21,6.91-13.21a10.47,10.47,0,0,1-10,7.45,9.85,9.85,0,0,1-7.19-3.37c1.57-.1,6.25,0,9.6-5.73,2.59-4.45.18-9.62.18-9.62a12,12,0,0,1-7.41,8.12,7.15,7.15,0,0,1-3,.43,31.09,31.09,0,0,0,.82-7.07,30.76,30.76,0,1,0-61.09,5,7.74,7.74,0,0,1-2.4-.57,12,12,0,0,1-7-8.44s-2.47,8.12,4.47,13.33a14.49,14.49,0,0,0,5,2,8.47,8.47,0,0,1-8,4.55c-9.37-.14-10.44-9.24-10.44-9.24s-1.34,13.65,11,15.93c6.56,1.21,9.9-1.47,12.45-2.81-.34,2.58-4.32,6.25-9,7.36-8.68,2.07-12.78-4.3-12.78-4.3s4.88,14.33,18.4,13c8-.8,11.29-5,14.09-7.37a24.91,24.91,0,0,1-3.2,6c-3.86,5.51,3.09,16.2,3.09,16.2s-2.32-6.61,5.84-11.57c4.8-2.92,7-5.74,8-7.86,1,2.12,3.23,4.94,8,7.86,8.15,5,5.84,11.57,5.84,11.57s6.94-10.69,3.09-16.2a23.45,23.45,0,0,1-3.35-6.49l.09,0c1.43,1.76,5.56,9.21,16.8,9.62,13.78.49,18.56-13,18.56-13A13.76,13.76,0,0,1,174.12,210.64Zm-44.88-30a4,4,0,1,1,4-4A4,4,0,0,1,129.24,180.65ZM139.18,193c-3.1,0-5.66-1.57-6-3.59,0-.22.25-.41.59-.41h10.77c.33,0,.61.19.58.41C144.84,191.43,142.29,193,139.18,193Zm10.34-12.35a4,4,0,1,1,4-4A4,4,0,0,1,149.52,180.65Z"/><line class="cls-1" x1="259.21" y1="144.25" x2="448.46" y2="144.25"/><line class="cls-1" x1="259.04" y1="285.51" x2="448.17" y2="285.51"/><line class="cls-1" x1="258.88" y1="304.05" x2="448.09" y2="304.05"/><line class="cls-1" x1="277.12" y1="125.52" x2="277.12" y2="304.15"/><line class="cls-1" x1="258.64" y1="125.42" x2="258.64" y2="304.5"/><line class="cls-1" x1="430.01" y1="125.56" x2="430.06" y2="304.09"/><g class="cls-2"><path class="cls-3" d="M277.79,303.64a.74.74,0,0,1-.4-1l1.72-4.14v0l5-12.07a.53.53,0,0,1,.06-.14l.05-.05,0-.06.06-.05.05,0a.85.85,0,0,1,.26-.11h.28a.81.81,0,0,1,.27.11l.05,0,.06.05.05.06.05.05.07.14,5,12.07v0l1.72,4.14a.68.68,0,0,1,0,.56.66.66,0,0,1-.4.4.72.72,0,0,1-1-.4l-1.53-3.68h-9l-1.53,3.68a.67.67,0,0,1-.68.46h-.15Zm10.91-5.56-3.9-9.42-3.91,9.42Z"/><path class="cls-3" d="M297.06,303a.72.72,0,0,1-.73.74.72.72,0,0,1-.53-.21.74.74,0,0,1-.21-.53v-16.2a.73.73,0,0,1,1.37-.37l7.36,12.17,7.37-12.17a.73.73,0,0,1,1.37.37V303a.71.71,0,0,1-.22.53.7.7,0,0,1-.52.21.72.72,0,0,1-.73-.74V289.4l-6.64,11v0h0l-.05.06-.05.05,0,.05-.06.05h-.06l-.07,0-.07,0h-.42l-.06,0-.07,0h-.06l-.07-.05-.05-.05,0-.05-.05-.06h0l0,0-6.63-11Z"/><path class="cls-3" d="M318.75,303.7A.75.75,0,0,1,318,303V286.69a.67.67,0,0,1,.22-.51.68.68,0,0,1,.52-.23l9.81,0a.67.67,0,0,1,.52.22.74.74,0,0,1-.52,1.26l-9.07,0v6.65h6.78a.67.67,0,0,1,.52.22.68.68,0,0,1,.23.52.7.7,0,0,1-.23.52.71.71,0,0,1-.52.22h-6.78v6.65h9.07a.74.74,0,0,1,0,1.48Z"/><path class="cls-3" d="M333.74,286a.73.73,0,0,1,.73.74v15.47h8a.73.73,0,0,1,.74.73.71.71,0,0,1-.22.53.7.7,0,0,1-.52.21h-8.75A.72.72,0,0,1,333,303v-16.2a.7.7,0,0,1,.21-.52A.71.71,0,0,1,333.74,286Z"/><path class="cls-3" d="M347.83,303a.67.67,0,0,1-.22.52.69.69,0,0,1-.52.22.75.75,0,0,1-.74-.74V286.77a.75.75,0,0,1,.74-.74.69.69,0,0,1,.52.22.67.67,0,0,1,.22.52Z"/><path class="cls-3" d="M352.21,303.64a.66.66,0,0,1-.4-.4.68.68,0,0,1,0-.56l1.72-4.14v0l5-12.07.07-.14,0-.05,0-.06.07-.05.05,0a.76.76,0,0,1,.26-.11h.28a.81.81,0,0,1,.27.11l.05,0,.06.05,0,.06.05.05a.53.53,0,0,1,.06.14l5,12.07v0l1.72,4.14a.74.74,0,0,1-.4,1,.72.72,0,0,1-1-.4l-1.54-3.68h-9l-1.53,3.68a.67.67,0,0,1-.68.46h-.15Zm10.91-5.56-3.91-9.42-3.9,9.42Z"/><path class="cls-3" d="M382.83,303.7a8.86,8.86,0,1,1,6.27-2.59A8.53,8.53,0,0,1,382.83,303.7Zm0-16.25a7.41,7.41,0,1,0,5.22,2.17A7.08,7.08,0,0,0,382.83,287.45Z"/><path class="cls-3" d="M403.15,303.7a8.84,8.84,0,1,1,6.27-2.59A8.54,8.54,0,0,1,403.15,303.7Zm0-16.25a7.41,7.41,0,1,0,5.22,2.17A7.1,7.1,0,0,0,403.15,287.45Z"/><path class="cls-3" d="M428.37,303.44h0L417,288.85V303a.67.67,0,0,1-.22.52.69.69,0,0,1-.52.22.75.75,0,0,1-.74-.74V286.68a.73.73,0,0,1,1.32-.45L428.2,300.8V286.68a.72.72,0,0,1,.21-.52.74.74,0,0,1,1,0,.72.72,0,0,1,.21.52V303a.17.17,0,0,1,0,.07s0,0,0,.07l0,.07,0,.06a.09.09,0,0,1,0,.06l0,.07,0,.06-.05,0,0,0,0,0,0,0-.08,0-.05,0-.08,0h-.39l-.1,0-.05,0-.08-.05-.05,0,0,0Z"/></g><line class="cls-1" x1="258.29" y1="125.75" x2="448.54" y2="125.75"/><g class="cls-2"><path class="cls-3" d="M277.7,143.84a.66.66,0,0,1-.4-.4.68.68,0,0,1,0-.56l1.72-4.15h0l5-12.07.07-.14.05-.05,0-.06.07-.05s.05,0,.05,0a.76.76,0,0,1,.26-.11h.28a.81.81,0,0,1,.27.11l.05,0,.06.05,0,.06.05.05a.53.53,0,0,1,.06.14l5,12.07h0l1.72,4.15a.74.74,0,0,1-.4,1,.72.72,0,0,1-1-.4l-1.53-3.68h-9l-1.53,3.68a.67.67,0,0,1-.68.46h-.15Zm10.91-5.56-3.91-9.42-3.9,9.42Z"/><path class="cls-3" d="M297,143.16a.74.74,0,0,1-.21.53.71.71,0,0,1-.51.21.76.76,0,0,1-.54-.21.74.74,0,0,1-.21-.53V127a.67.67,0,0,1,.55-.71.68.68,0,0,1,.83.33l7.36,12.18,7.37-12.18a.68.68,0,0,1,.83-.33.67.67,0,0,1,.54.71v16.2a.71.71,0,0,1-.22.53.72.72,0,0,1-.52.21.72.72,0,0,1-.73-.74V129.6l-6.64,11v0h0l-.05.06-.05,0-.05.05-.06.05h-.06l-.08,0-.06,0H304l-.06,0-.07,0h0s0,0,0,0,0,0-.06-.05l-.05-.05,0,0-.05-.06h0v0l-6.64-11Z"/><path class="cls-3" d="M318.66,143.9a.67.67,0,0,1-.52-.22.68.68,0,0,1-.23-.52V126.89a.71.71,0,0,1,.23-.52.67.67,0,0,1,.52-.22l9.81,0a.67.67,0,0,1,.52.22.7.7,0,0,1,.22.52.73.73,0,0,1-.22.53.7.7,0,0,1-.52.21l-9.07,0v6.65h6.78a.75.75,0,0,1,.74.74.69.69,0,0,1-.22.52.71.71,0,0,1-.52.22H319.4v6.65h9.07a.74.74,0,0,1,0,1.48Z"/><path class="cls-3" d="M333.65,126.21a.71.71,0,0,1,.52.23.7.7,0,0,1,.21.52v15.47h8a.72.72,0,0,1,.52.21.74.74,0,0,1,0,1.05.72.72,0,0,1-.52.21h-8.75a.72.72,0,0,1-.74-.74V127a.7.7,0,0,1,.21-.52A.72.72,0,0,1,333.65,126.21Z"/><path class="cls-3" d="M347.74,143.16a.71.71,0,0,1-.22.52.69.69,0,0,1-.52.22.75.75,0,0,1-.74-.74V127a.75.75,0,0,1,.74-.74.69.69,0,0,1,.52.22.71.71,0,0,1,.22.52Z"/><path class="cls-3" d="M352.11,143.84a.64.64,0,0,1-.39-.4.68.68,0,0,1,0-.56l1.72-4.15h0l5-12.07.06-.14.05-.05.05-.06.06-.05,0,0a1,1,0,0,1,.26-.11h.29a.81.81,0,0,1,.27.11l.05,0,.06.05.05.06.05.05.06.14,5,12.07h0l1.72,4.15a.74.74,0,0,1-.4,1,.71.71,0,0,1-.28.06.67.67,0,0,1-.68-.46l-1.54-3.68h-9l-1.53,3.68a.68.68,0,0,1-.68.46h-.15ZM363,138.28l-3.91-9.42-3.9,9.42Z"/><path class="cls-3" d="M382.74,143.9a8.84,8.84,0,1,1,6.27-2.59A8.55,8.55,0,0,1,382.74,143.9Zm0-16.25a7.41,7.41,0,1,0,5.22,2.17A7.08,7.08,0,0,0,382.74,127.65Z"/><path class="cls-3" d="M403.06,143.9a8.86,8.86,0,1,1,6.26-2.59A8.54,8.54,0,0,1,403.06,143.9Zm0-16.25a7.43,7.43,0,1,0,5.21,2.17A7.08,7.08,0,0,0,403.06,127.65Z"/><path class="cls-3" d="M428.28,143.64h0L417,129v14.12a.71.71,0,0,1-.22.52.69.69,0,0,1-.52.22.67.67,0,0,1-.52-.22.68.68,0,0,1-.23-.52V126.88a.68.68,0,0,1,.5-.7.67.67,0,0,1,.83.24L428.11,141V126.88a.72.72,0,0,1,.21-.52.7.7,0,0,1,.52-.22.73.73,0,0,1,.53.22.72.72,0,0,1,.21.52v16.33a.17.17,0,0,1,0,.07.14.14,0,0,1,0,.06.15.15,0,0,1,0,.08.14.14,0,0,0,0,.06.15.15,0,0,1,0,.06l0,.06-.05.07-.05.05,0,0,0,0,0,0-.07,0-.05,0-.09,0h-.38l-.1,0-.05,0-.08-.05-.05,0,0,0Z"/></g><g class="cls-2"><path class="cls-3" d="M259.1,168a.74.74,0,0,1,1-.4l4.14,1.72h0l12.07,5,.14.06.05,0,.06.05s0,0,0,.06,0,.06,0,0a.85.85,0,0,1,.11.26V175a.44.44,0,0,1,0,.09.32.32,0,0,1,0,.07v.06a.81.81,0,0,1-.11.27l0,.05,0,.06-.06.05-.05,0-.14.07-12.07,5h0l-4.14,1.72a.74.74,0,0,1-1-.4.72.72,0,0,1,.4-1l3.68-1.53v-9L259.5,169a.67.67,0,0,1-.46-.68v-.15ZM264.66,179l9.42-3.9-9.42-3.91Z"/><path class="cls-3" d="M259.78,187.31a.74.74,0,0,1-.53-.21.75.75,0,0,1-.21-.52.72.72,0,0,1,.21-.53.74.74,0,0,1,.53-.21H276a.73.73,0,0,1,.37,1.37l-12.17,7.36,12.17,7.37a.73.73,0,0,1-.37,1.37h-16.2a.71.71,0,0,1-.53-.22.7.7,0,0,1-.21-.52.72.72,0,0,1,.74-.73h13.56l-11-6.64h0l-.06-.05-.05,0-.05-.05-.05-.06v0s0,0,0,0a.25.25,0,0,1,0-.07l0-.07s0-.05,0-.07a.13.13,0,0,1,0-.06.22.22,0,0,1,0-.08.17.17,0,0,1,0-.07s0-.05,0-.06,0-.05,0-.08l0-.06a.25.25,0,0,1,0-.07v0h0s0,0,0,0l.05-.07.05,0,.05,0,.06,0h0l0,0,11-6.63Z"/><path class="cls-3" d="M259,209a.75.75,0,0,1,.74-.74h16.27a.67.67,0,0,1,.51.22.65.65,0,0,1,.23.52l0,9.81a.67.67,0,0,1-.22.52.74.74,0,0,1-1.26-.52l0-9.07h-6.65v6.78a.67.67,0,0,1-.22.52.68.68,0,0,1-.52.23.7.7,0,0,1-.52-.23.71.71,0,0,1-.22-.52v-6.78h-6.65v9.07a.74.74,0,0,1-1.48,0Z"/><path class="cls-3" d="M276.73,224a.71.71,0,0,1-.23.52.7.7,0,0,1-.52.21H260.51v8a.73.73,0,0,1-.73.74.71.71,0,0,1-.53-.22.7.7,0,0,1-.21-.52V224a.72.72,0,0,1,.74-.74H276a.7.7,0,0,1,.52.21A.72.72,0,0,1,276.73,224Z"/><path class="cls-3" d="M259.78,238.08a.67.67,0,0,1-.52-.22.69.69,0,0,1-.22-.52.75.75,0,0,1,.74-.74H276a.75.75,0,0,1,.74.74.69.69,0,0,1-.22.52.67.67,0,0,1-.52.22Z"/><path class="cls-3" d="M259.1,242.46a.66.66,0,0,1,.4-.4.68.68,0,0,1,.56,0l4.14,1.72h0l12.07,5,.14.07.05,0,.06.05,0,.07,0,.05a.76.76,0,0,1,.11.26v.06a.45.45,0,0,1,0,.08.32.32,0,0,1,0,.08v.06a.81.81,0,0,1-.11.27l0,0,0,.06-.06.05s-.06.05-.05.05l-.14.06-12.07,5h0l-4.14,1.72a.74.74,0,0,1-1-.4.72.72,0,0,1,.4-1l3.68-1.54v-9l-3.68-1.53a.67.67,0,0,1-.46-.68v-.15Zm5.56,10.91,9.42-3.91-9.42-3.9Z"/></g><line class="cls-1" x1="448.5" y1="125.41" x2="448.5" y2="304.15"/><g class="cls-2"><path class="cls-3" d="M430.49,168a.67.67,0,0,1,.39-.4.71.71,0,0,1,.57,0l4.14,1.72h0l12.07,5,.14.06.05,0,.06.05s0,0,.05.06l0,0a.68.68,0,0,1,.12.26V175a.55.55,0,0,0,0,.09.24.24,0,0,0,0,.07v.06a.66.66,0,0,1-.12.27l0,.05-.05.06-.06.05-.05,0-.14.07-12.07,5h0l-4.14,1.72a.71.71,0,0,1-.57,0,.74.74,0,0,1,0-1.36l3.69-1.53v-9L430.88,169a.67.67,0,0,1-.45-.68v-.15ZM436.05,179l9.42-3.9-9.42-3.91Z"/><path class="cls-3" d="M431.17,187.31a.74.74,0,0,1-.53-.21.75.75,0,0,1-.21-.52.72.72,0,0,1,.21-.53.74.74,0,0,1,.53-.21h16.2a.67.67,0,0,1,.71.54.69.69,0,0,1-.34.83l-12.17,7.36,12.17,7.37a.68.68,0,0,1,.34.83.67.67,0,0,1-.71.54h-16.2a.71.71,0,0,1-.53-.22.7.7,0,0,1-.21-.52.72.72,0,0,1,.74-.73h13.56l-11-6.64h0l-.06-.05-.05,0-.05-.05-.05-.06s0,0,0,0,0,0,0,0l0-.07,0-.07a.17.17,0,0,1,0-.07.13.13,0,0,1,0-.06.22.22,0,0,1,0-.08.17.17,0,0,1,0-.07s0-.05,0-.06a.22.22,0,0,1,0-.08l0-.06,0-.07v0h0s0,0,0,0l.05-.07.05,0,.05,0,.06,0h0v0l11-6.63Z"/><path class="cls-3" d="M430.43,209a.75.75,0,0,1,.74-.74h16.26a.77.77,0,0,1,.75.74l0,9.81a.67.67,0,0,1-.22.52.74.74,0,0,1-1.26-.52l0-9.07H440v6.78a.67.67,0,0,1-.22.52.68.68,0,0,1-.52.23.7.7,0,0,1-.52-.23.67.67,0,0,1-.22-.52v-6.78h-6.65v9.07a.67.67,0,0,1-.22.52.69.69,0,0,1-.52.22.75.75,0,0,1-.74-.74Z"/><path class="cls-3" d="M448.11,224a.73.73,0,0,1-.74.73H431.9v8a.73.73,0,0,1-.73.74.71.71,0,0,1-.53-.22.7.7,0,0,1-.21-.52V224a.72.72,0,0,1,.74-.74h16.2a.7.7,0,0,1,.52.21A.71.71,0,0,1,448.11,224Z"/><path class="cls-3" d="M431.17,238.08a.67.67,0,0,1-.52-.22.69.69,0,0,1-.22-.52.75.75,0,0,1,.74-.74h16.19a.75.75,0,0,1,.74.74.69.69,0,0,1-.22.52.67.67,0,0,1-.52.22Z"/><path class="cls-3" d="M430.49,242.46a.64.64,0,0,1,.39-.4.71.71,0,0,1,.57,0l4.14,1.72h0l12.07,5,.14.07.05,0,.06.05.05.07s0,.05,0,.05a.62.62,0,0,1,.12.26v.06a.28.28,0,0,0,0,.08.54.54,0,0,0,0,.08v.06a.66.66,0,0,1-.12.27l0,0s-.05.05-.05.06l-.06.05s-.06.05-.05.05l-.14.06-12.07,5h0l-4.14,1.72a.71.71,0,0,1-.57,0,.74.74,0,0,1,0-1.36l3.69-1.54v-9l-3.69-1.53a.67.67,0,0,1-.45-.68v-.15Zm5.56,10.91,9.42-3.91-9.42-3.9Z"/></g><path class="cls-3" d="M280.14,268.78a.51.51,0,0,1,0,.68.42.42,0,0,1-.33.14.44.44,0,0,1-.34-.14.47.47,0,0,1,.34-.81A.42.42,0,0,1,280.14,268.78Zm-.67,1.86h.67v5.29h-.67Z"/><path class="cls-3" d="M282.16,268.44h.68v7.49h-.68Z"/><path class="cls-3" d="M284.91,268.44h.68v7.49h-.68Z"/><path class="cls-3" d="M292.16,270.64v5.29h-.69v-1.26a2,2,0,0,1-.78.94,2.41,2.41,0,0,1-1.26.34,2,2,0,0,1-1.46-.55,2.06,2.06,0,0,1-.53-1.51v-3.25h.68v3.09a1.59,1.59,0,0,0,.41,1.16,1.49,1.49,0,0,0,1.12.42,1.68,1.68,0,0,0,1.34-.58,2.25,2.25,0,0,0,.48-1.5v-2.59Z"/><path class="cls-3" d="M296.18,271.28a2.69,2.69,0,0,0-.74-.1,1.52,1.52,0,0,0-.81.19.67.67,0,0,0-.31.59.63.63,0,0,0,.17.45,1.33,1.33,0,0,0,.41.27,5.86,5.86,0,0,0,.69.24,7.77,7.77,0,0,1,.89.32,1.63,1.63,0,0,1,.59.45,1.22,1.22,0,0,1,.24.79,1.24,1.24,0,0,1-.55,1.09,2.32,2.32,0,0,1-1.36.38,3.5,3.5,0,0,1-1.11-.19,2.44,2.44,0,0,1-.89-.55l.27-.48a2.54,2.54,0,0,0,.81.49,2.62,2.62,0,0,0,.95.18,1.57,1.57,0,0,0,.88-.22.73.73,0,0,0,.33-.64.64.64,0,0,0-.17-.48,1,1,0,0,0-.43-.3,7.1,7.1,0,0,0-.71-.24,6.14,6.14,0,0,1-.86-.32,1.51,1.51,0,0,1-.57-.43,1.23,1.23,0,0,1-.23-.76,1.16,1.16,0,0,1,.52-1,2.21,2.21,0,0,1,1.29-.36,3.17,3.17,0,0,1,.88.12,2.63,2.63,0,0,1,.76.34l-.26.51A2.6,2.6,0,0,0,296.18,271.28Z"/><path class="cls-3" d="M301.31,275.56a2.19,2.19,0,0,1-1.17.4,1.23,1.23,0,0,1-.95-.38,1.53,1.53,0,0,1-.36-1.11v-3.15h-.75v-.53h.76v-1.36h.68v1.36h1.71v.54h-1.71v3c0,.66.24,1,.72,1a1.7,1.7,0,0,0,.88-.28Z"/><path class="cls-3" d="M304,271a2.24,2.24,0,0,1,1.18-.33v.64a1.77,1.77,0,0,0-1.35.49,2.05,2.05,0,0,0-.58,1.35v2.83h-.68v-5.29h.68v1.23A2,2,0,0,1,304,271Z"/><path class="cls-3" d="M309.28,275.93V275a1.9,1.9,0,0,1-.82.69,2.79,2.79,0,0,1-1.16.23,2,2,0,0,1-.94-.21,1.58,1.58,0,0,1-.63-.57,1.5,1.5,0,0,1-.22-.82,1.27,1.27,0,0,1,.53-1.07,2.35,2.35,0,0,1,1.46-.4h1.77v-.4a1.24,1.24,0,0,0-.37-1,1.55,1.55,0,0,0-1.09-.34,2.9,2.9,0,0,0-1.71.63l-.3-.46a4.69,4.69,0,0,1,1-.55,3.15,3.15,0,0,1,1.11-.18,2.11,2.11,0,0,1,1.48.48,1.75,1.75,0,0,1,.54,1.33v3.5Zm-.67-.86a1.58,1.58,0,0,0,.66-.93v-.72h-1.7a1.92,1.92,0,0,0-1.06.23.77.77,0,0,0-.37.69,1,1,0,0,0,.35.77,1.41,1.41,0,0,0,.93.28A2.16,2.16,0,0,0,308.61,275.07Z"/><path class="cls-3" d="M314.42,275.56a2.25,2.25,0,0,1-1.17.4,1.24,1.24,0,0,1-1-.38,1.53,1.53,0,0,1-.36-1.11v-3.15h-.75v-.53h.76v-1.36h.68v1.36h1.71v.54h-1.71v3c0,.66.24,1,.73,1a1.7,1.7,0,0,0,.87-.28Z"/><path class="cls-3" d="M316.31,268.78a.51.51,0,0,1,0,.68.42.42,0,0,1-.33.14.42.42,0,0,1-.34-.14.48.48,0,0,1,0-.68.45.45,0,0,1,.34-.13A.44.44,0,0,1,316.31,268.78Zm-.67,1.86h.67v5.29h-.67Z"/><path class="cls-3" d="M321.77,271a2.52,2.52,0,0,1,1,.94,2.84,2.84,0,0,1,.34,1.37,2.89,2.89,0,0,1-.34,1.39,2.48,2.48,0,0,1-1,.95,3,3,0,0,1-2.75,0,2.39,2.39,0,0,1-.94-.95,2.79,2.79,0,0,1-.35-1.39,2.74,2.74,0,0,1,.35-1.37A2.43,2.43,0,0,1,319,271a3,3,0,0,1,2.75,0Zm-2.4.51a1.75,1.75,0,0,0-.71.74,2.46,2.46,0,0,0,0,2.16,1.75,1.75,0,0,0,.71.74,2.15,2.15,0,0,0,2.05,0,1.75,1.75,0,0,0,.71-.74,2.46,2.46,0,0,0,0-2.16,1.75,1.75,0,0,0-.71-.74,2.15,2.15,0,0,0-2.05,0Z"/><path class="cls-3" d="M328.74,271.17a2.07,2.07,0,0,1,.54,1.51v3.25h-.68v-3.09a1.58,1.58,0,0,0-.42-1.17,1.53,1.53,0,0,0-1.15-.42,1.74,1.74,0,0,0-1.3.5,2,2,0,0,0-.56,1.33v2.85h-.68v-5.29h.68v1.23a1.91,1.91,0,0,1,.8-.92,2.56,2.56,0,0,1,1.28-.33A2,2,0,0,1,328.74,271.17Z"/><path class="cls-3" d="M334.56,272.74a.69.69,0,0,1,.19.48.68.68,0,0,1-.68.69.63.63,0,0,1-.47-.2.66.66,0,0,1-.19-.49.65.65,0,0,1,.19-.48.6.6,0,0,1,.47-.2A.63.63,0,0,1,334.56,272.74Z"/><path class="cls-3" d="M342.36,275.93V275a1.93,1.93,0,0,1-.81.69,2.86,2.86,0,0,1-1.16.23,2.08,2.08,0,0,1-.95-.21,1.58,1.58,0,0,1-.63-.57,1.5,1.5,0,0,1-.22-.82,1.27,1.27,0,0,1,.53-1.07,2.35,2.35,0,0,1,1.46-.4h1.77v-.4a1.24,1.24,0,0,0-.37-1,1.55,1.55,0,0,0-1.09-.34,2.87,2.87,0,0,0-1.7.63l-.31-.46a4.69,4.69,0,0,1,1-.55,3.15,3.15,0,0,1,1.11-.18,2.11,2.11,0,0,1,1.48.48,1.75,1.75,0,0,1,.54,1.33v3.5Zm-.67-.86a1.58,1.58,0,0,0,.66-.93v-.72h-1.7a1.92,1.92,0,0,0-1.06.23.76.76,0,0,0-.36.69,1,1,0,0,0,.34.77,1.43,1.43,0,0,0,.93.28A2.13,2.13,0,0,0,341.69,275.07Z"/><path class="cls-3" d="M349.09,271.17a2.1,2.1,0,0,1,.53,1.51v3.25h-.68v-3.09a1.62,1.62,0,0,0-.41-1.17,1.55,1.55,0,0,0-1.15-.42,1.76,1.76,0,0,0-1.31.5,2.08,2.08,0,0,0-.56,1.33v2.85h-.68v-5.29h.68v1.23a1.91,1.91,0,0,1,.8-.92,2.57,2.57,0,0,1,1.29-.33A2,2,0,0,1,349.09,271.17Z"/><path class="cls-3" d="M352.11,268.78a.51.51,0,0,1,.13.34.48.48,0,0,1-.14.34.46.46,0,0,1-.66,0,.48.48,0,0,1,0-.68.44.44,0,0,1,.33-.13A.45.45,0,0,1,352.11,268.78Zm-.68,1.86h.68v5.29h-.68Z"/><path class="cls-3" d="M362.28,271.17a2.07,2.07,0,0,1,.53,1.51v3.25h-.69v-3.09a1.62,1.62,0,0,0-.41-1.17,1.48,1.48,0,0,0-1.12-.42,1.71,1.71,0,0,0-1.33.58,2.25,2.25,0,0,0-.48,1.5v2.6h-.68v-3.09a1.62,1.62,0,0,0-.41-1.17,1.5,1.5,0,0,0-1.13-.42,1.74,1.74,0,0,0-1.33.58,2.25,2.25,0,0,0-.48,1.5v2.6h-.68v-5.29h.68v1.24a1.85,1.85,0,0,1,.78-.93,2.52,2.52,0,0,1,1.27-.33,2,2,0,0,1,1.25.38,1.75,1.75,0,0,1,.66,1,1.93,1.93,0,0,1,.78-1.05,2.45,2.45,0,0,1,1.33-.37A1.9,1.9,0,0,1,362.28,271.17Z"/><path class="cls-3" d="M367.93,275.93V275a1.9,1.9,0,0,1-.82.69,2.79,2.79,0,0,1-1.16.23,2,2,0,0,1-.94-.21,1.58,1.58,0,0,1-.63-.57,1.5,1.5,0,0,1-.22-.82,1.24,1.24,0,0,1,.53-1.07,2.35,2.35,0,0,1,1.46-.4h1.77v-.4a1.24,1.24,0,0,0-.37-1,1.55,1.55,0,0,0-1.09-.34,2.87,2.87,0,0,0-1.71.63l-.3-.46a4.69,4.69,0,0,1,1-.55,3.15,3.15,0,0,1,1.11-.18,2.11,2.11,0,0,1,1.48.48,1.75,1.75,0,0,1,.54,1.33v3.5Zm-.67-.86a1.58,1.58,0,0,0,.66-.93v-.72h-1.7a1.92,1.92,0,0,0-1.06.23.75.75,0,0,0-.37.69,1,1,0,0,0,.35.77,1.4,1.4,0,0,0,.92.28A2.17,2.17,0,0,0,367.26,275.07Z"/><path class="cls-3" d="M373.06,275.56a2.19,2.19,0,0,1-1.17.4,1.23,1.23,0,0,1-.95-.38,1.53,1.53,0,0,1-.36-1.11v-3.15h-.75v-.53h.76v-1.36h.68v1.36H373v.54h-1.71v3c0,.66.24,1,.72,1a1.7,1.7,0,0,0,.88-.28Z"/><path class="cls-3" d="M375,268.78a.51.51,0,0,1,0,.68.43.43,0,0,1-.33.14.42.42,0,0,1-.34-.14.48.48,0,0,1,0-.68.45.45,0,0,1,.34-.13A.44.44,0,0,1,375,268.78Zm-.68,1.86H375v5.29h-.68Z"/><path class="cls-3" d="M380.42,271a2.43,2.43,0,0,1,.94.94,2.74,2.74,0,0,1,.35,1.37,2.79,2.79,0,0,1-.35,1.39,2.39,2.39,0,0,1-.94.95,3,3,0,0,1-2.75,0,2.39,2.39,0,0,1-.94-.95,2.79,2.79,0,0,1-.35-1.39,2.74,2.74,0,0,1,.35-1.37,2.43,2.43,0,0,1,.94-.94,3,3,0,0,1,2.75,0Zm-2.4.51a1.75,1.75,0,0,0-.71.74,2.46,2.46,0,0,0,0,2.16,1.75,1.75,0,0,0,.71.74,2.15,2.15,0,0,0,2.05,0,1.75,1.75,0,0,0,.71-.74,2.46,2.46,0,0,0,0-2.16,1.75,1.75,0,0,0-.71-.74,2.15,2.15,0,0,0-2.05,0Z"/><path class="cls-3" d="M387.39,271.17a2.07,2.07,0,0,1,.54,1.51v3.25h-.69v-3.09a1.58,1.58,0,0,0-.41-1.17,1.53,1.53,0,0,0-1.15-.42,1.74,1.74,0,0,0-1.3.5,2,2,0,0,0-.56,1.33v2.85h-.68v-5.29h.68v1.23a1.86,1.86,0,0,1,.8-.92,2.56,2.56,0,0,1,1.28-.33A2,2,0,0,1,387.39,271.17Z"/><path class="cls-3" d="M393.21,272.74a.69.69,0,0,1,.19.48.68.68,0,0,1-.68.69.62.62,0,0,1-.47-.2.66.66,0,0,1-.19-.49.65.65,0,0,1,.19-.48.59.59,0,0,1,.47-.2A.63.63,0,0,1,393.21,272.74Z"/><path class="cls-3" d="M402.5,268.44v7.49h-.67v-1.21a2.29,2.29,0,0,1-.85.92,2.4,2.4,0,0,1-1.27.33,2.56,2.56,0,0,1-1.33-.35,2.32,2.32,0,0,1-.91-.95,3,3,0,0,1-.32-1.4,2.87,2.87,0,0,1,.33-1.38,2.4,2.4,0,0,1,.9-.94,2.55,2.55,0,0,1,1.32-.35,2.46,2.46,0,0,1,1.28.33,2.38,2.38,0,0,1,.85.93v-3.42Zm-1.64,6.68a1.9,1.9,0,0,0,.71-.75,2.2,2.2,0,0,0,.26-1.07,2.28,2.28,0,0,0-.26-1.09,1.9,1.9,0,0,0-.71-.75,2,2,0,0,0-1-.27,2,2,0,0,0-1,.27,1.9,1.9,0,0,0-.71.75,2.18,2.18,0,0,0-.27,1.09,2.2,2.2,0,0,0,.26,1.07,1.86,1.86,0,0,0,.72.75,2.07,2.07,0,0,0,1,.26A2,2,0,0,0,400.86,275.12Z"/><path class="cls-3" d="M408.47,271.4a3.06,3.06,0,0,1,.59,2.11h-4.41a2,2,0,0,0,.63,1.36,1.92,1.92,0,0,0,1.37.52,2.42,2.42,0,0,0,.94-.18,2,2,0,0,0,.74-.51l.39.38a2.62,2.62,0,0,1-.93.64,3,3,0,0,1-1.18.23,2.64,2.64,0,0,1-1.36-.34,2.5,2.5,0,0,1-.94-.94,3.05,3.05,0,0,1,0-2.76,2.45,2.45,0,0,1,.94-1,2.69,2.69,0,0,1,1.34-.34A2.32,2.32,0,0,1,408.47,271.4Zm0,1.58a2,2,0,0,0-.55-1.31,1.79,1.79,0,0,0-1.31-.49,1.87,1.87,0,0,0-1.33.49,2,2,0,0,0-.62,1.31Z"/><path class="cls-3" d="M412.53,271.28a2.69,2.69,0,0,0-.74-.1,1.52,1.52,0,0,0-.81.19.67.67,0,0,0-.31.59.63.63,0,0,0,.17.45,1.33,1.33,0,0,0,.41.27,5.86,5.86,0,0,0,.69.24,7.77,7.77,0,0,1,.89.32,1.63,1.63,0,0,1,.59.45,1.22,1.22,0,0,1,.24.79,1.24,1.24,0,0,1-.55,1.09,2.32,2.32,0,0,1-1.36.38,3.5,3.5,0,0,1-1.11-.19,2.44,2.44,0,0,1-.89-.55l.27-.48a2.54,2.54,0,0,0,.81.49,2.62,2.62,0,0,0,.95.18,1.57,1.57,0,0,0,.88-.22.73.73,0,0,0,.33-.64.64.64,0,0,0-.17-.48,1,1,0,0,0-.43-.3,7.1,7.1,0,0,0-.71-.24,6.14,6.14,0,0,1-.86-.32,1.51,1.51,0,0,1-.57-.43A1.23,1.23,0,0,1,410,272a1.16,1.16,0,0,1,.52-1,2.21,2.21,0,0,1,1.29-.36,3.17,3.17,0,0,1,.88.12,2.63,2.63,0,0,1,.76.34l-.26.51A2.6,2.6,0,0,0,412.53,271.28Z"/><path class="cls-3" d="M415.68,268.78a.51.51,0,0,1,.13.34.48.48,0,0,1-.14.34.46.46,0,0,1-.66,0,.48.48,0,0,1,0-.68.44.44,0,0,1,.33-.13A.45.45,0,0,1,415.68,268.78Zm-.68,1.86h.68v5.29H415Z"/><path class="cls-3" d="M422.21,270.64v4.73a2.74,2.74,0,0,1-.32,1.34,2.19,2.19,0,0,1-.92.89,3.09,3.09,0,0,1-1.39.3,3.37,3.37,0,0,1-2.17-.8l.32-.49a3,3,0,0,0,.85.54,2.58,2.58,0,0,0,1,.18,2,2,0,0,0,1.45-.53,1.9,1.9,0,0,0,.54-1.42v-.85a2.1,2.1,0,0,1-.81.86,2.3,2.3,0,0,1-1.21.32,2.42,2.42,0,0,1-1.26-.33,2.26,2.26,0,0,1-.85-.91,2.74,2.74,0,0,1-.31-1.32,2.7,2.7,0,0,1,.31-1.31,2.17,2.17,0,0,1,.86-.89,2.42,2.42,0,0,1,1.26-.33,2.23,2.23,0,0,1,1.2.31,2.27,2.27,0,0,1,.81.87v-1.16Zm-1.59,4.26a1.7,1.7,0,0,0,.67-.71,2.21,2.21,0,0,0,0-2,1.79,1.79,0,0,0-.67-.72,2,2,0,0,0-2,0,1.89,1.89,0,0,0-.68.72,2.23,2.23,0,0,0,0,2.05,1.83,1.83,0,0,0,.68.7,1.77,1.77,0,0,0,1,.26A1.82,1.82,0,0,0,420.62,274.9Z"/><path class="cls-3" d="M428.3,271.17a2.07,2.07,0,0,1,.54,1.51v3.25h-.69v-3.09a1.62,1.62,0,0,0-.41-1.17,1.55,1.55,0,0,0-1.15-.42,1.76,1.76,0,0,0-1.31.5,2.13,2.13,0,0,0-.56,1.33v2.85h-.67v-5.29h.67v1.23a1.93,1.93,0,0,1,.81-.92,2.56,2.56,0,0,1,1.28-.33A2,2,0,0,1,428.3,271.17Z"/><path class="cls-4" d="M280.16,262.28a1.38,1.38,0,0,1-.75-.77,1.47,1.47,0,0,1,0-1.09l1.48-3.68h0L285.16,246l.06-.12,0-.06.05-.06a.15.15,0,0,1,0-.06.23.23,0,0,0,.05-.05l0,0s0-.05,0-.06l.05,0,.06-.05,0,0,.06,0,0,0,.07,0,.08,0s.05,0,0,0l.05,0,.08,0,.08,0h.13l.06,0h.27l.07,0h.05l.09,0h0a1,1,0,0,1,.26.11l0,0,.07,0,.05,0,.06.05s0,0,0,0l.06,0s0,0,0,0a.17.17,0,0,1,0,.06l0,.05s.05,0,.05.06l0,.06a.15.15,0,0,1,0,.06.34.34,0,0,1,.06.12L292,256.73h0l1.47,3.68a1.47,1.47,0,0,1,0,1.09,1.37,1.37,0,0,1-1.26.88,1.28,1.28,0,0,1-1.27-.88l-1.11-2.8h-6.73l-1.12,2.8a1.27,1.27,0,0,1-1.26.88h-.27Zm8.5-6.41-2.24-5.6-2.23,5.6Z"/><path class="cls-4" d="M312.36,245.08a1.43,1.43,0,0,1,.72.52,1.45,1.45,0,0,1,.28.86V261a1.39,1.39,0,0,1-.4,1,1.3,1.3,0,0,1-1,.42,1.32,1.32,0,0,1-1-.42,1.42,1.42,0,0,1-.39-1v-9.38L306.28,259h0v0h0l-.05.08,0,.05-.06.06a.23.23,0,0,0-.05.05l-.05.05-.06.06,0,0-.08.05h0v0h0a.19.19,0,0,1-.08,0l0,0-.07,0a1.22,1.22,0,0,1-.56.11H305a1.59,1.59,0,0,1-.3-.06h-.05l0,0-.09,0s0,0,0,0l-.09,0h0v0h0a.21.21,0,0,1-.08-.06l0,0-.07-.06-.05-.05a.23.23,0,0,0-.05-.05s0,0-.05-.06a.09.09,0,0,1,0-.05l-.05-.08h0s0,0,0,0h0l-4.32-7.43V261a1.4,1.4,0,0,1-.41,1,1.33,1.33,0,0,1-1.94,0,1.39,1.39,0,0,1-.4-1v-14.5a1.44,1.44,0,0,1,.27-.86,1.4,1.4,0,0,1,.74-.52,1.37,1.37,0,0,1,.87,0,1.42,1.42,0,0,1,.67.59l5.72,9.81,5.71-9.81a1.4,1.4,0,0,1,.66-.59l.44-.17Z"/><path class="cls-4" d="M328.17,259.53a1.26,1.26,0,0,1,1,.42,1.37,1.37,0,0,1,.41,1,1.36,1.36,0,0,1-.41,1,1.26,1.26,0,0,1-1,.42h-8.41a1.3,1.3,0,0,1-1-.42,1.39,1.39,0,0,1-.4-1V246.5a1.39,1.39,0,0,1,.4-1,1.3,1.3,0,0,1,1-.42h0l8.4,0a1.31,1.31,0,0,1,1,.43,1.44,1.44,0,0,1,.39,1,1.34,1.34,0,0,1-.41,1,1.26,1.26,0,0,1-1,.42h0l-7,0v4.38h5.07a1.32,1.32,0,0,1,1,.41,1.46,1.46,0,0,1,0,2,1.32,1.32,0,0,1-1,.41h-5.07v4.38Z"/><path class="cls-4" d="M334.56,245.08a1.23,1.23,0,0,1,1,.43,1.36,1.36,0,0,1,.41,1v13h6.14a1.32,1.32,0,0,1,1,.42,1.46,1.46,0,0,1,0,2,1.32,1.32,0,0,1-1,.42h-7.51a1.3,1.3,0,0,1-1-.42,1.39,1.39,0,0,1-.4-1V246.51a1.35,1.35,0,0,1,.4-1A1.27,1.27,0,0,1,334.56,245.08Z"/><path class="cls-4" d="M347.85,262.39a1.3,1.3,0,0,1-1-.42,1.39,1.39,0,0,1-.4-1V246.57a1.35,1.35,0,0,1,.4-1,1.3,1.3,0,0,1,1-.43,1.27,1.27,0,0,1,1,.43,1.36,1.36,0,0,1,.41,1V261a1.4,1.4,0,0,1-.41,1A1.26,1.26,0,0,1,347.85,262.39Z"/><path class="cls-4" d="M354,262.28a1.34,1.34,0,0,1-.74-.77,1.47,1.47,0,0,1,0-1.09l1.47-3.68h0L359,246a.61.61,0,0,1,0-.12l0-.06,0-.06s0,0,0-.06l.05-.05,0,0,.05-.06,0,0,.06-.05.05,0,.06,0,0,0,.07,0,.08,0,0,0,0,0,.09,0,.08,0H360l0,0h.27l.07,0h.06l.08,0h.05a1.12,1.12,0,0,1,.25.11l.05,0,.07,0,0,0,.06.05s0,0,.05,0,0,0,.06,0a.09.09,0,0,0,0,0l0,.06,0,.05s.05,0,.05.06l0,.06s0,0,0,.06l.06.12,4.27,10.72h0l1.48,3.68a1.47,1.47,0,0,1,0,1.09,1.38,1.38,0,0,1-.75.77,1.35,1.35,0,0,1-.52.11,1.27,1.27,0,0,1-1.26-.88l-1.12-2.8h-6.73l-1.11,2.8a1.28,1.28,0,0,1-1.27.88h-.27Zm8.5-6.41-2.24-5.6-2.23,5.6Z"/><path class="cls-4" d="M383.05,262.39a7.86,7.86,0,0,1-5.89-2.55,8.88,8.88,0,0,1,0-12.25,8.13,8.13,0,0,1,11.79,0,8.91,8.91,0,0,1,0,12.25A7.88,7.88,0,0,1,383.05,262.39Zm0-14.48a5.26,5.26,0,0,0-3.95,1.7,5.94,5.94,0,0,0,0,8.22,5.43,5.43,0,0,0,7.91,0,6,6,0,0,0,0-8.22A5.3,5.3,0,0,0,383.05,247.91Z"/><path class="cls-4" d="M402.87,262.39a7.86,7.86,0,0,1-5.89-2.55,8.88,8.88,0,0,1,0-12.25,8.13,8.13,0,0,1,11.79,0,8.91,8.91,0,0,1,0,12.25A7.88,7.88,0,0,1,402.87,262.39Zm0-14.48a5.26,5.26,0,0,0-3.95,1.7,5.94,5.94,0,0,0,0,8.22,5.43,5.43,0,0,0,7.91,0,6,6,0,0,0,0-8.22A5.3,5.3,0,0,0,402.87,247.91Z"/><path class="cls-4" d="M426.43,261.85h0v0l-8.36-11.16V261a1.39,1.39,0,0,1-.4,1,1.3,1.3,0,0,1-1,.42,1.26,1.26,0,0,1-1-.42,1.4,1.4,0,0,1-.41-1V246.51a1.38,1.38,0,0,1,.26-.82,1.37,1.37,0,0,1,1.51-.55,1.31,1.31,0,0,1,.68.5l8.36,11.17v-10.3a1.38,1.38,0,0,1,.39-1,1.29,1.29,0,0,1,1-.43,1.23,1.23,0,0,1,1,.43,1.36,1.36,0,0,1,.41,1V261a.56.56,0,0,0,0,.07v.06a.25.25,0,0,1,0,.07.17.17,0,0,1,0,.08v.06s0,.06,0,.07a.15.15,0,0,1,0,.06.14.14,0,0,1,0,.07l0,.06,0,.06,0,.07,0,0s0,0,0,.07l0,.05,0,.05-.05.05-.05,0,0,0,0,0h0l-.17.12h0l-.19.08s0,0,0,0a.65.65,0,0,1-.2,0l0,0h-.37l-.11,0s0,0,0,0l-.09,0-.05,0-.09,0s0,0-.05,0l-.08,0-.05,0-.08-.06,0,0-.11-.09v0h0l-.05-.05Z"/><path class="cls-5" d="M389.12,210.64a13,13,0,0,1-8-5.89c2.78,1.34,7.87,3.48,14.16,0,7.7-4.26,6.91-13.21,6.91-13.21a10.47,10.47,0,0,1-10,7.45,9.85,9.85,0,0,1-7.19-3.37c1.57-.1,6.25,0,9.6-5.73,2.59-4.45.18-9.62.18-9.62a12,12,0,0,1-7.41,8.12,7.15,7.15,0,0,1-3,.43,31.09,31.09,0,0,0,.82-7.07,30.76,30.76,0,1,0-61.09,5,7.74,7.74,0,0,1-2.4-.57,12,12,0,0,1-7-8.44s-2.47,8.12,4.47,13.33a14.49,14.49,0,0,0,5,2,8.47,8.47,0,0,1-8,4.55c-9.37-.14-10.44-9.24-10.44-9.24s-1.34,13.65,11,15.93c6.56,1.21,9.9-1.47,12.45-2.81-.34,2.58-4.32,6.25-9,7.36-8.68,2.07-12.78-4.3-12.78-4.3s4.88,14.33,18.4,13c8-.8,11.29-5,14.09-7.37a24.91,24.91,0,0,1-3.2,6c-3.86,5.51,3.09,16.2,3.09,16.2s-2.32-6.61,5.84-11.57c4.8-2.92,7-5.74,8-7.86,1,2.12,3.23,4.94,8,7.86,8.15,5,5.84,11.57,5.84,11.57s6.94-10.69,3.09-16.2a23.45,23.45,0,0,1-3.35-6.49l.09,0c1.43,1.76,5.56,9.21,16.8,9.62,13.78.49,18.56-13,18.56-13A13.76,13.76,0,0,1,389.12,210.64Zm-44.88-30a4,4,0,1,1,4-4A4,4,0,0,1,344.24,180.65ZM354.18,193c-3.1,0-5.66-1.57-6-3.59,0-.22.25-.41.59-.41h10.77c.33,0,.61.19.58.41C359.84,191.43,357.29,193,354.18,193Zm10.34-12.35a4,4,0,1,1,4-4A4,4,0,0,1,364.52,180.65Z"/><text class="cls-6" transform="translate(43.29 89.88)">Logo + Clear Space</text><text class="cls-6" transform="translate(41.51 564.88)">Brand Typography</text><text class="cls-6" transform="translate(41.51 618.35)">Moon * Headers</text><text class="cls-7" transform="translate(41.51 643.73)">Montser<tspan class="cls-8" x="57.76" y="0">r</tspan><tspan class="cls-9" x="63.14" y="0">at Medium * Subheaders</tspan></text><text class="cls-10" transform="translate(41.51 667.83)">Montser<tspan class="cls-11" x="43.96" y="0">r</tspan><tspan x="47.7" y="0">at Light * Body</tspan><tspan x="0" y="26.4">Lorem ipsum dolor iset this is a sample body pa</tspan><tspan class="cls-11" x="255.99" y="26.4">r</tspan><tspan class="cls-12" x="259.73" y="26.4">ag</tspan><tspan class="cls-13" x="273.03" y="26.4">r</tspan><tspan x="276.77" y="26.4">aph </tspan><tspan class="cls-14" x="0" y="39.6">f</tspan><tspan x="3.47" y="39.6">or r</tspan><tspan class="cls-15" x="21.32" y="39.6">e</tspan><tspan class="cls-14" x="27.76" y="39.6">f</tspan><tspan x="31.23" y="39.6">eren</tspan><tspan class="cls-11" x="55.41" y="39.6">c</tspan><tspan x="61.29" y="39.6">e. E</tspan><tspan class="cls-16" x="80.08" y="39.6">v</tspan><tspan x="85.29" y="39.6">er </tspan><tspan class="cls-16" x="98.82" y="39.6">w</tspan><tspan x="108.05" y="39.6">ondered what the </tspan><tspan class="cls-11" x="208.19" y="39.6">c</tspan><tspan x="214.08" y="39.6">o</tspan><tspan class="cls-16" x="220.86" y="39.6">p</tspan><tspan x="228.09" y="39.6">y </tspan><tspan class="cls-14" x="236.55" y="39.6">f</tspan><tspan x="240.02" y="39.6">or documents </tspan><tspan x="0" y="52.8">and pa</tspan><tspan class="cls-11" x="37.73" y="52.8">r</tspan><tspan x="41.47" y="52.8">ag</tspan><tspan class="cls-17" x="54.77" y="52.8">r</tspan><tspan x="58.51" y="52.8">aphs </tspan><tspan class="cls-18" x="87.47" y="52.8">o</tspan><tspan x="94.21" y="52.8">f </tspan><tspan class="cls-19" x="100.81" y="52.8">t</tspan><tspan class="cls-20" x="104.96" y="52.8">e</tspan><tspan x="111.11" y="52.8">xt should look li</tspan><tspan class="cls-21" x="195.37" y="52.8">k</tspan><tspan x="201.35" y="52.8">e? </tspan><tspan class="cls-22" x="215.46" y="52.8">W</tspan><tspan x="226.22" y="52.8">ell, this is it!</tspan></text><text class="cls-7" transform="translate(487.18 140.26)">Logo Mark</text><text class="cls-7" transform="translate(343.6 358.96)">Stac<tspan class="cls-23" x="30.76" y="0">k</tspan><tspan class="cls-24" x="38.86" y="0">ed Name-Only</tspan></text><path class="cls-4" d="M336.82,448.23a.82.82,0,0,1-.4-.42.86.86,0,0,1,0-.59l.8-2h0l2.3-5.78,0-.06v0l0,0,0,0,0,0,0,0,0,0s0,0,0,0l0,0,0,0,0,0,0,0a.06.06,0,0,1,0,0l0,0,0,0h.5a.42.42,0,0,1,.14.06h0l0,0,0,0,0,0,0,0,0,0,0,0,0,0v0l0,0s0,0,0,0l0,0,0,.06,2.3,5.78h0l.79,2a.79.79,0,0,1-.4,1,.87.87,0,0,1-.28,0,.67.67,0,0,1-.68-.47l-.6-1.51h-3.62l-.6,1.51a.69.69,0,0,1-.69.47H337Zm4.58-3.46-1.2-3-1.21,3Z"/><path class="cls-4" d="M354.17,439a.73.73,0,0,1,.39.28.77.77,0,0,1,.15.46v7.82a.73.73,0,0,1-.22.54.69.69,0,0,1-.52.22.71.71,0,0,1-.53-.22.76.76,0,0,1-.21-.54v-5.06l-2.33,4h0s0,0,0,.05l0,0,0,0,0,0,0,0,0,0v0l-.05,0h0l0,0,0,0h0a.73.73,0,0,1-.3.06h0l-.16,0h0l0,0v0l-.05,0h0s0,0-.05,0h0l0,0,0,0,0,0,0,0,0,0,0-.05h0a0,0,0,0,0,0,0l-2.32-4v5.06a.77.77,0,0,1-.22.54.71.71,0,0,1-.53.22.69.69,0,0,1-.52-.22.77.77,0,0,1-.22-.54V439.7a.77.77,0,0,1,.15-.46.72.72,0,0,1,.4-.28.76.76,0,0,1,.47,0,.74.74,0,0,1,.36.32l3.08,5.28,3.08-5.28a.68.68,0,0,1,.35-.32l.23-.09Z"/><path class="cls-4" d="M362.68,446.74a.68.68,0,0,1,.52.23.79.79,0,0,1,0,1.09.67.67,0,0,1-.52.22h-4.53a.67.67,0,0,1-.51-.22.73.73,0,0,1-.22-.54v-7.8a.73.73,0,0,1,.22-.54.68.68,0,0,1,.51-.23h4.53a.72.72,0,0,1,.53.23.77.77,0,0,1,.21.55.73.73,0,0,1-.22.54.67.67,0,0,1-.52.22H358.9v2.36h2.73a.69.69,0,0,1,.52.22.79.79,0,0,1,0,1.09.69.69,0,0,1-.52.22H358.9v2.36Z"/><path class="cls-4" d="M366.13,439a.71.71,0,0,1,.52.23.76.76,0,0,1,.21.54v7h3.32a.7.7,0,0,1,.52.23.73.73,0,0,1,.21.54.76.76,0,0,1-.21.54.69.69,0,0,1-.52.22h-4.05a.67.67,0,0,1-.52-.22.73.73,0,0,1-.22-.54v-7.79a.73.73,0,0,1,.22-.54A.68.68,0,0,1,366.13,439Z"/><path class="cls-4" d="M373.28,448.28a.67.67,0,0,1-.51-.22.73.73,0,0,1-.22-.54v-7.76a.73.73,0,0,1,.22-.54.71.71,0,0,1,1,0,.73.73,0,0,1,.22.54v7.76a.73.73,0,0,1-.22.54A.67.67,0,0,1,373.28,448.28Z"/><path class="cls-4" d="M376.58,448.23a.78.78,0,0,1-.4-.42.76.76,0,0,1,0-.59l.79-2h0l2.3-5.78,0-.06,0,0,0,0,0,0,0,0a0,0,0,0,1,0,0l0,0s0,0,0,0l0,0s0,0,0,0l0,0,0,0,0,0,0,0,0,0h.49a.35.35,0,0,1,.14.06h0s0,0,0,0l0,0,0,0,0,0s0,0,0,0l0,0,0,0,0,0,0,0,0,0,0,0,0,.06,2.3,5.78h0l.8,2a.86.86,0,0,1,0,.59.78.78,0,0,1-.4.42.92.92,0,0,1-.28,0,.69.69,0,0,1-.69-.47l-.6-1.51h-3.62l-.6,1.51a.67.67,0,0,1-.68.47h-.15Zm4.58-3.46-1.21-3-1.2,3Z"/><path class="cls-4" d="M392.24,448.28a4.23,4.23,0,0,1-3.17-1.37,4.57,4.57,0,0,1-1.32-3.29,4.61,4.61,0,0,1,1.32-3.31,4.39,4.39,0,0,1,6.35,0,4.61,4.61,0,0,1,1.32,3.31,4.57,4.57,0,0,1-1.32,3.29A4.23,4.23,0,0,1,392.24,448.28Zm0-7.8a2.84,2.84,0,0,0-2.12.92,3.2,3.2,0,0,0,0,4.43,2.84,2.84,0,0,0,2.12.92,2.88,2.88,0,0,0,2.14-.92,3.23,3.23,0,0,0,0-4.43A2.88,2.88,0,0,0,392.24,440.48Z"/><path class="cls-4" d="M402.92,448.28a4.2,4.2,0,0,1-3.17-1.37,4.57,4.57,0,0,1-1.32-3.29,4.61,4.61,0,0,1,1.32-3.31,4.39,4.39,0,0,1,6.35,0,4.65,4.65,0,0,1,1.31,3.31,4.6,4.6,0,0,1-1.31,3.29A4.23,4.23,0,0,1,402.92,448.28Zm0-7.8a2.86,2.86,0,0,0-2.13.92,3.2,3.2,0,0,0,0,4.43,2.93,2.93,0,0,0,4.26,0,3.2,3.2,0,0,0,0-4.43A2.86,2.86,0,0,0,402.92,440.48Z"/><path class="cls-4" d="M415.61,448h0l-4.5-6v5.55a.76.76,0,0,1-.21.54.7.7,0,0,1-.52.22.67.67,0,0,1-.52-.22.73.73,0,0,1-.22-.54v-7.79a.7.7,0,0,1,.14-.44.66.66,0,0,1,.36-.28.63.63,0,0,1,.45,0,.68.68,0,0,1,.37.26l4.5,6v-5.55a.76.76,0,0,1,.21-.54.72.72,0,0,1,.53-.23.68.68,0,0,1,.51.23.73.73,0,0,1,.22.54v7.87a.08.08,0,0,1,0,0s0,0,0,0v0a.1.1,0,0,0,0,0l0,0s0,0,0,0v0l0,0,0,0,0,0,0,0,0,0,0,0,0,0,0,0,0,0s0,0,0,0h0l-.09.06h0l-.1.05h0a.23.23,0,0,1-.11,0h-.22l-.06,0h0l-.05,0h0l-.05,0h0l0,0,0,0,0,0,0,0-.06-.05h0l0,0Z"/><path d="M397,417.41a7.44,7.44,0,0,1-4.61-3.39,8.31,8.31,0,0,0,8.17,0c4.44-2.46,4-7.63,4-7.63a6,6,0,0,1-5.76,4.3,5.68,5.68,0,0,1-4.15-1.94,6.07,6.07,0,0,0,5.54-3.31c1.49-2.56.1-5.55.1-5.55a6.89,6.89,0,0,1-4.27,4.68,4.11,4.11,0,0,1-1.74.26,17.75,17.75,0,1,0-35-4.09,18.4,18.4,0,0,0,.24,2.9,4.38,4.38,0,0,1-1.38-.32,7,7,0,0,1-4.07-4.87,7.3,7.3,0,0,0,2.59,7.69,8.33,8.33,0,0,0,2.85,1.16,4.87,4.87,0,0,1-4.63,2.62c-5.4-.07-6-5.33-6-5.33s-.77,7.88,6.33,9.19c3.78.7,5.71-.85,7.18-1.62-.19,1.49-2.49,3.61-5.17,4.25a6.8,6.8,0,0,1-7.38-2.48s2.82,8.27,10.62,7.5c4.63-.46,6.52-2.88,8.13-4.25a13.89,13.89,0,0,1-1.85,3.47c-2.22,3.18,1.79,9.35,1.79,9.35s-1.34-3.82,3.37-6.68a11.32,11.32,0,0,0,4.63-4.53,11.32,11.32,0,0,0,4.63,4.53c4.71,2.86,3.37,6.68,3.37,6.68s4-6.17,1.79-9.35a14,14,0,0,1-1.94-3.74l.05,0a11.59,11.59,0,0,0,9.7,5.55c8,.29,10.71-7.49,10.71-7.49A7.92,7.92,0,0,1,397,417.41Zm-25.9-17.3a2.32,2.32,0,1,1,2.33-2.32A2.32,2.32,0,0,1,371.06,400.11Zm5.74,7.13c-1.79,0-3.27-.91-3.44-2.08,0-.12.14-.23.33-.23h6.22c.19,0,.36.11.34.23C380.07,406.33,378.59,407.24,376.8,407.24Zm6-7.13a2.32,2.32,0,1,1,2.32-2.32A2.32,2.32,0,0,1,382.77,400.11Z"/><path class="cls-4" d="M459.82,449.23a.82.82,0,0,1-.4-.42.86.86,0,0,1,0-.59l.8-2h0l2.3-5.78,0-.06v0l0,0,0,0,0,0,0,0,0,0s0,0,0,0l0,0,0,0,0,0,0,0a.06.06,0,0,1,0,0l0,0,0,0h.5a.42.42,0,0,1,.14.06h0l0,0,0,0,0,0,0,0,0,0,0,0,0,0v0l0,0s0,0,0,0l0,0,0,.06,2.3,5.78h0l.79,2a.79.79,0,0,1-.4,1,.87.87,0,0,1-.28,0,.67.67,0,0,1-.68-.47l-.6-1.51h-3.62l-.6,1.51a.69.69,0,0,1-.69.47H460Zm4.58-3.46-1.2-3-1.21,3Z"/><path class="cls-4" d="M477.17,440a.73.73,0,0,1,.39.28.77.77,0,0,1,.15.46v7.82a.73.73,0,0,1-.22.54.69.69,0,0,1-.52.22.71.71,0,0,1-.53-.22.76.76,0,0,1-.21-.54v-5.06l-2.33,4h0s0,0,0,.05l0,0,0,0,0,0,0,0,0,0v0l-.05,0h0l0,0,0,0h0a.73.73,0,0,1-.3.06h0l-.16,0h0l0,0v0l-.05,0h0s0,0-.05,0h0l0,0,0,0,0,0,0,0,0,0,0-.05h0a0,0,0,0,0,0,0l-2.32-4v5.06a.77.77,0,0,1-.22.54.71.71,0,0,1-.53.22.69.69,0,0,1-.52-.22.77.77,0,0,1-.22-.54V440.7a.77.77,0,0,1,.15-.46.72.72,0,0,1,.4-.28.76.76,0,0,1,.47,0,.74.74,0,0,1,.36.32l3.08,5.28,3.08-5.28a.68.68,0,0,1,.35-.32l.23-.09Z"/><path class="cls-4" d="M485.68,447.74a.68.68,0,0,1,.52.23.79.79,0,0,1,0,1.09.67.67,0,0,1-.52.22h-4.53a.67.67,0,0,1-.51-.22.73.73,0,0,1-.22-.54v-7.8a.73.73,0,0,1,.22-.54.68.68,0,0,1,.51-.23h4.53a.72.72,0,0,1,.53.23.77.77,0,0,1,.21.55.73.73,0,0,1-.22.54.67.67,0,0,1-.52.22H481.9v2.36h2.73a.69.69,0,0,1,.52.22.79.79,0,0,1,0,1.09.69.69,0,0,1-.52.22H481.9v2.36Z"/><path class="cls-4" d="M489.13,440a.71.71,0,0,1,.52.23.76.76,0,0,1,.21.54v7h3.32a.7.7,0,0,1,.52.23.73.73,0,0,1,.21.54.76.76,0,0,1-.21.54.69.69,0,0,1-.52.22h-4.05a.67.67,0,0,1-.52-.22.73.73,0,0,1-.22-.54v-7.79a.73.73,0,0,1,.22-.54A.68.68,0,0,1,489.13,440Z"/><path class="cls-4" d="M496.28,449.28a.67.67,0,0,1-.51-.22.73.73,0,0,1-.22-.54v-7.76a.73.73,0,0,1,.22-.54.71.71,0,0,1,1,0,.73.73,0,0,1,.22.54v7.76a.73.73,0,0,1-.22.54A.67.67,0,0,1,496.28,449.28Z"/><path class="cls-4" d="M499.58,449.23a.78.78,0,0,1-.4-.42.76.76,0,0,1,0-.59l.79-2h0l2.3-5.78,0-.06,0,0,0,0,0,0,0,0a0,0,0,0,1,0,0l0,0s0,0,0,0l0,0s0,0,0,0l0,0,0,0,0,0,0,0,0,0h.49a.35.35,0,0,1,.14.06h0s0,0,0,0l0,0,0,0,0,0s0,0,0,0l0,0,0,0,0,0,0,0,0,0,0,0,0,.06,2.3,5.78h0l.8,2a.86.86,0,0,1,0,.59.78.78,0,0,1-.4.42.92.92,0,0,1-.28,0,.69.69,0,0,1-.69-.47l-.6-1.51h-3.62l-.6,1.51a.67.67,0,0,1-.68.47h-.15Zm4.58-3.46-1.21-3-1.2,3Z"/><path class="cls-4" d="M515.24,449.28a4.23,4.23,0,0,1-3.17-1.37,4.57,4.57,0,0,1-1.32-3.29,4.61,4.61,0,0,1,1.32-3.31,4.39,4.39,0,0,1,6.35,0,4.61,4.61,0,0,1,1.32,3.31,4.57,4.57,0,0,1-1.32,3.29A4.23,4.23,0,0,1,515.24,449.28Zm0-7.8a2.84,2.84,0,0,0-2.12.92,3.2,3.2,0,0,0,0,4.43,2.84,2.84,0,0,0,2.12.92,2.88,2.88,0,0,0,2.14-.92,3.23,3.23,0,0,0,0-4.43A2.88,2.88,0,0,0,515.24,441.48Z"/><path class="cls-4" d="M525.92,449.28a4.2,4.2,0,0,1-3.17-1.37,4.57,4.57,0,0,1-1.32-3.29,4.61,4.61,0,0,1,1.32-3.31,4.39,4.39,0,0,1,6.35,0,4.65,4.65,0,0,1,1.31,3.31,4.6,4.6,0,0,1-1.31,3.29A4.23,4.23,0,0,1,525.92,449.28Zm0-7.8a2.86,2.86,0,0,0-2.13.92,3.2,3.2,0,0,0,0,4.43,2.93,2.93,0,0,0,4.26,0,3.2,3.2,0,0,0,0-4.43A2.86,2.86,0,0,0,525.92,441.48Z"/><path class="cls-4" d="M538.61,449h0l-4.5-6v5.55a.76.76,0,0,1-.21.54.7.7,0,0,1-.52.22.67.67,0,0,1-.52-.22.73.73,0,0,1-.22-.54v-7.79a.7.7,0,0,1,.14-.44.66.66,0,0,1,.36-.28.63.63,0,0,1,.45,0,.68.68,0,0,1,.37.26l4.5,6v-5.55a.76.76,0,0,1,.21-.54.72.72,0,0,1,.53-.23.68.68,0,0,1,.51.23.73.73,0,0,1,.22.54v7.87a.08.08,0,0,1,0,0s0,0,0,0v0a.1.1,0,0,0,0,0l0,0s0,0,0,0v0l0,0,0,0,0,0,0,0,0,0,0,0,0,0s0,0,0,0l0,0s0,0,0,0h0l-.09.06h0l-.1.05h0a.23.23,0,0,1-.11,0h-.22l-.06,0h0l0,0h0l0,0h0l0,0,0,0,0,0,0,0-.06-.05h0l0,0Z"/><path class="cls-25" d="M520,418.41a7.44,7.44,0,0,1-4.61-3.39,8.31,8.31,0,0,0,8.17,0c4.44-2.46,4-7.63,4-7.63a6,6,0,0,1-5.76,4.3,5.68,5.68,0,0,1-4.15-1.94,6.07,6.07,0,0,0,5.54-3.31c1.49-2.56.1-5.55.1-5.55a6.89,6.89,0,0,1-4.27,4.68,4.11,4.11,0,0,1-1.74.26,17.75,17.75,0,1,0-35-4.09,18.4,18.4,0,0,0,.24,2.9,4.38,4.38,0,0,1-1.38-.32,7,7,0,0,1-4.07-4.87,7.3,7.3,0,0,0,2.59,7.69,8.33,8.33,0,0,0,2.85,1.16,4.87,4.87,0,0,1-4.63,2.62c-5.4-.07-6-5.33-6-5.33s-.77,7.88,6.33,9.19c3.78.7,5.71-.85,7.18-1.62-.19,1.49-2.49,3.61-5.17,4.25a6.8,6.8,0,0,1-7.38-2.48s2.82,8.27,10.62,7.5c4.63-.46,6.52-2.88,8.13-4.25a13.89,13.89,0,0,1-1.85,3.47c-2.22,3.18,1.79,9.35,1.79,9.35s-1.34-3.82,3.37-6.68a11.32,11.32,0,0,0,4.63-4.53,11.32,11.32,0,0,0,4.63,4.53c4.71,2.86,3.37,6.68,3.37,6.68s4-6.17,1.79-9.35a14,14,0,0,1-1.94-3.74l.05,0a11.59,11.59,0,0,0,9.7,5.55c8,.29,10.71-7.49,10.71-7.49A7.92,7.92,0,0,1,520,418.41Zm-25.9-17.3a2.32,2.32,0,1,1,2.33-2.32A2.32,2.32,0,0,1,494.06,401.11Zm5.74,7.13c-1.79,0-3.27-.91-3.44-2.08,0-.12.14-.23.33-.23h6.22c.19,0,.36.11.34.23C503.07,407.33,501.59,408.24,499.8,408.24Zm6-7.13a2.32,2.32,0,1,1,2.32-2.32A2.32,2.32,0,0,1,505.77,401.11Z"/><text class="cls-7" transform="translate(58.1 358.96)">Hori<tspan class="cls-26" x="29.57" y="0">z</tspan><tspan x="37.07" y="0">ontal</tspan></text><path class="cls-4" d="M123,411.13a1.22,1.22,0,0,1-.66-.68,1.3,1.3,0,0,1,0-.95l1.3-3.23h0l3.75-9.39a.37.37,0,0,1,0-.11l0-.05,0-.06,0,0,0,0,0,0s0,0,0-.06l0,0,0,0,0,0,.05,0,0,0,.07,0,.07,0,0,0,0,0,.07,0,.07,0h.51l.07,0s.05,0,0,0a.92.92,0,0,1,.23.09l0,0,.06.05,0,0,.05,0,0,0,.05,0s0,0,0,.05,0,0,0,.05l0,0,0,0a.15.15,0,0,0,0,.06.09.09,0,0,1,0,.05.37.37,0,0,1,.05.11l3.75,9.39h0l1.3,3.23a1.3,1.3,0,0,1,0,.95,1.22,1.22,0,0,1-.66.68,1.17,1.17,0,0,1-.45.09,1.11,1.11,0,0,1-1.11-.77l-1-2.46h-5.9l-1,2.46a1.11,1.11,0,0,1-1.11.77h-.23Zm7.45-5.62-2-4.91-2,4.91Z"/><path class="cls-4" d="M151.2,396.05a1.16,1.16,0,0,1,.63.46,1.2,1.2,0,0,1,.24.75V410a1.21,1.21,0,0,1-.34.88,1.14,1.14,0,0,1-.86.37,1.11,1.11,0,0,1-.85-.37,1.22,1.22,0,0,1-.35-.88v-8.23l-3.8,6.52h0l0,.07,0,.05s-.05,0-.05.05l0,0,0,0-.06.06,0,0-.08,0h0s0,0-.07,0l0,0-.06,0a1,1,0,0,1-.49.09h-.06a1.09,1.09,0,0,1-.26-.05h-.09l-.07,0s0,0,0,0a.2.2,0,0,1-.08,0h0a.18.18,0,0,1-.07-.05l0,0-.06-.06s0,0,0,0l0,0-.05-.05a.06.06,0,0,1,0-.05.14.14,0,0,1-.06-.07h0s0,0,0,0h0L140,401.74V410a1.18,1.18,0,0,1-.35.88,1.14,1.14,0,0,1-.86.37,1.09,1.09,0,0,1-.84-.37,1.19,1.19,0,0,1-.36-.88V397.26a1.28,1.28,0,0,1,.89-1.21,1.17,1.17,0,0,1,.76,0,1.24,1.24,0,0,1,.59.52l5,8.6,5-8.6a1.22,1.22,0,0,1,.58-.52l.38-.15Z"/><path class="cls-4" d="M165.06,408.71a1.13,1.13,0,0,1,.84.37,1.25,1.25,0,0,1,.36.89,1.19,1.19,0,0,1-.36.88,1.09,1.09,0,0,1-.84.37h-7.37a1.1,1.1,0,0,1-.85-.37,1.19,1.19,0,0,1-.36-.88V397.29a1.21,1.21,0,0,1,.36-.89,1.1,1.1,0,0,1,.85-.37h0l7.36,0a1.11,1.11,0,0,1,.85.37,1.22,1.22,0,0,1,.35.89,1.19,1.19,0,0,1-.36.88,1.13,1.13,0,0,1-.84.37h0l-6.15,0v3.84h4.44a1.14,1.14,0,0,1,.85.36,1.27,1.27,0,0,1,0,1.77,1.14,1.14,0,0,1-.85.36H158.9v3.84Z"/><path class="cls-4" d="M170.66,396.05a1.11,1.11,0,0,1,.85.37,1.22,1.22,0,0,1,.35.88v11.42h5.39a1.19,1.19,0,0,1,.86.37,1.23,1.23,0,0,1,.34.88,1.21,1.21,0,0,1-.34.88,1.15,1.15,0,0,1-.86.37h-6.59a1.13,1.13,0,0,1-.85-.37,1.22,1.22,0,0,1-.35-.88V397.3a1.22,1.22,0,0,1,.35-.88A1.13,1.13,0,0,1,170.66,396.05Z"/><path class="cls-4" d="M182.31,411.22a1.09,1.09,0,0,1-.84-.37,1.19,1.19,0,0,1-.36-.88V397.35a1.21,1.21,0,0,1,.36-.88,1.15,1.15,0,0,1,1.69,0,1.2,1.2,0,0,1,.35.88V410a1.18,1.18,0,0,1-.35.88A1.1,1.1,0,0,1,182.31,411.22Z"/><path class="cls-4" d="M187.67,411.13a1.21,1.21,0,0,1-.65-.68,1.3,1.3,0,0,1,0-.95l1.29-3.23h0l3.75-9.39a.37.37,0,0,1,.05-.11l0-.05,0-.06,0,0,0,0,0,0s0,0,0-.06l0,0,.05,0,0,0,.05,0,0,0,.06,0,.07,0,0,0,0,0,.07,0,.07,0h.51l.07,0s.06,0,0,0a.79.79,0,0,1,.23.09l0,0,.06.05,0,0,0,0,0,0,0,0s0,0,0,.05,0,0,0,.05l0,0,0,0a.15.15,0,0,0,0,.06.09.09,0,0,1,0,.05,1.17,1.17,0,0,1,.05.11l3.75,9.39h0l1.29,3.23a1.3,1.3,0,0,1,0,.95,1.24,1.24,0,0,1-.65.68,1.22,1.22,0,0,1-.46.09,1.11,1.11,0,0,1-1.11-.77l-1-2.46h-5.89l-1,2.46a1.12,1.12,0,0,1-1.11.77h-.24Zm7.45-5.62-2-4.91-2,4.91Z"/><path class="cls-4" d="M213.17,411.22A6.88,6.88,0,0,1,208,409a7.78,7.78,0,0,1,0-10.74,7.12,7.12,0,0,1,10.33,0,7.81,7.81,0,0,1,0,10.74A6.9,6.9,0,0,1,213.17,411.22Zm0-12.69a4.61,4.61,0,0,0-3.46,1.49,5.19,5.19,0,0,0,0,7.2,4.75,4.75,0,0,0,6.93,0,5.22,5.22,0,0,0,0-7.2A4.63,4.63,0,0,0,213.17,398.53Z"/><path class="cls-4" d="M230.55,411.22a6.9,6.9,0,0,1-5.17-2.23,7.78,7.78,0,0,1,0-10.74,7.13,7.13,0,0,1,10.34,0,7.81,7.81,0,0,1,0,10.74A6.91,6.91,0,0,1,230.55,411.22Zm0-12.69a4.62,4.62,0,0,0-3.47,1.49,5.22,5.22,0,0,0,0,7.2,4.76,4.76,0,0,0,6.94,0,5.22,5.22,0,0,0,0-7.2A4.63,4.63,0,0,0,230.55,398.53Z"/><path class="cls-4" d="M251.2,410.74h0L243.87,401v9a1.19,1.19,0,0,1-.36.88,1.15,1.15,0,0,1-1.69,0,1.19,1.19,0,0,1-.36-.88V397.3a1.21,1.21,0,0,1,.23-.72,1.17,1.17,0,0,1,.59-.46,1.14,1.14,0,0,1,.73,0,1.16,1.16,0,0,1,.6.44l7.33,9.79v-9a1.21,1.21,0,0,1,.34-.88,1.14,1.14,0,0,1,.86-.37,1.09,1.09,0,0,1,.84.37,1.19,1.19,0,0,1,.36.88V410a.2.2,0,0,1,0,.07v.05a2.83,2.83,0,0,0,0,.13v.05l0,.06,0,.06a.21.21,0,0,0,0,.06l0,0,0,.06,0,.06,0,0,0,.06,0,0,0,0s0,0,0,0l0,0s0,0-.05.05,0,0,0,0h0l-.15.1h0l-.17.08s0,0,0,0l-.18,0H252s0,0,0,0l-.1,0h0l-.08,0,0,0-.08,0a0,0,0,0,1,0,0l-.07,0,0,0-.07,0,0,0-.09-.09h0l0,0Z"/><path d="M103.72,412.23a6.82,6.82,0,0,1-4.19-3.08,7.52,7.52,0,0,0,7.41,0c4-2.23,3.62-6.91,3.62-6.91a5.49,5.49,0,0,1-5.23,3.9,5.15,5.15,0,0,1-3.76-1.77,5.48,5.48,0,0,0,5-3,6,6,0,0,0,.1-5,6.31,6.31,0,0,1-3.89,4.25,3.56,3.56,0,0,1-1.57.22,16.1,16.1,0,1,0-31.78-3.7,16.18,16.18,0,0,0,.22,2.63,4,4,0,0,1-1.25-.29A6.28,6.28,0,0,1,64.73,395a6.61,6.61,0,0,0,2.34,7,7.49,7.49,0,0,0,2.59,1.05,4.42,4.42,0,0,1-4.2,2.38A5.52,5.52,0,0,1,60,400.59s-.7,7.15,5.75,8.34c3.43.64,5.18-.77,6.52-1.47-.18,1.35-2.26,3.27-4.7,3.86a6.17,6.17,0,0,1-6.69-2.26s2.56,7.51,9.63,6.81c4.21-.42,5.92-2.61,7.38-3.86a12.7,12.7,0,0,1-1.67,3.15c-2,2.89,1.61,8.49,1.61,8.49s-1.21-3.46,3.06-6.06a10.25,10.25,0,0,0,4.21-4.12,10.21,10.21,0,0,0,4.2,4.12c4.27,2.6,3.06,6.06,3.06,6.06s3.63-5.6,1.61-8.49a12.58,12.58,0,0,1-1.75-3.39l.05,0a10.5,10.5,0,0,0,8.8,5c7.21.26,9.71-6.8,9.71-6.8A7.18,7.18,0,0,1,103.72,412.23Zm-23.5-15.71a2.11,2.11,0,1,1,2.1-2.1A2.1,2.1,0,0,1,80.22,396.52Zm5.2,6.47c-1.62,0-3-.82-3.12-1.88,0-.11.13-.21.3-.21h5.64c.18,0,.33.1.31.21C88.39,402.17,87.05,403,85.42,403Zm5.42-6.47a2.11,2.11,0,1,1,2.1-2.1A2.1,2.1,0,0,1,90.84,396.52Z"/><path class="cls-4" d="M123,468.13a1.22,1.22,0,0,1-.66-.68,1.3,1.3,0,0,1,0-.95l1.3-3.23h0l3.75-9.39a.37.37,0,0,1,0-.11l0-.05,0-.06,0,0,0,0,0,0s0,0,0-.06l0,0,0,0,0,0,.05,0,0,0,.07,0,.07,0,0,0,0,0,.07,0,.07,0h.51l.07,0s.05,0,0,0a.92.92,0,0,1,.23.09l0,0,.06.05,0,0,.05,0,0,0,.05,0s0,0,0,.05,0,0,0,.05l0,0,0,0a.15.15,0,0,0,0,.06.09.09,0,0,1,0,.05.37.37,0,0,1,.05.11l3.75,9.39h0l1.3,3.23a1.3,1.3,0,0,1,0,.95,1.22,1.22,0,0,1-.66.68,1.17,1.17,0,0,1-.45.09,1.11,1.11,0,0,1-1.11-.77l-1-2.46h-5.9l-1,2.46a1.11,1.11,0,0,1-1.11.77h-.23Zm7.45-5.62-2-4.91-2,4.91Z"/><path class="cls-4" d="M151.2,453.05a1.16,1.16,0,0,1,.63.46,1.2,1.2,0,0,1,.24.75V467a1.21,1.21,0,0,1-.34.88,1.14,1.14,0,0,1-.86.37,1.11,1.11,0,0,1-.85-.37,1.22,1.22,0,0,1-.35-.88v-8.23l-3.8,6.52h0l0,.07,0,.05s-.05,0-.05.05l0,0,0,0-.06.06,0,0-.08,0h0s0,0-.07,0l0,0-.06,0a1,1,0,0,1-.49.09h-.06a1.09,1.09,0,0,1-.26-.05h-.09l-.07,0s0,0,0,0a.2.2,0,0,1-.08,0h0a.18.18,0,0,1-.07-.05l0,0-.06-.06s0,0,0,0l0,0-.05-.05a.06.06,0,0,1,0-.05.14.14,0,0,1-.06-.07h0s0,0,0,0h0L140,458.74V467a1.18,1.18,0,0,1-.35.88,1.14,1.14,0,0,1-.86.37,1.09,1.09,0,0,1-.84-.37,1.19,1.19,0,0,1-.36-.88V454.26a1.28,1.28,0,0,1,.89-1.21,1.17,1.17,0,0,1,.76,0,1.24,1.24,0,0,1,.59.52l5,8.6,5-8.6a1.22,1.22,0,0,1,.58-.52l.38-.15Z"/><path class="cls-4" d="M165.06,465.71a1.13,1.13,0,0,1,.84.37,1.25,1.25,0,0,1,.36.89,1.19,1.19,0,0,1-.36.88,1.09,1.09,0,0,1-.84.37h-7.37a1.1,1.1,0,0,1-.85-.37,1.19,1.19,0,0,1-.36-.88V454.29a1.21,1.21,0,0,1,.36-.89,1.1,1.1,0,0,1,.85-.37h0l7.36,0a1.11,1.11,0,0,1,.85.37,1.22,1.22,0,0,1,.35.89,1.19,1.19,0,0,1-.36.88,1.13,1.13,0,0,1-.84.37h0l-6.15,0v3.84h4.44a1.14,1.14,0,0,1,.85.36,1.27,1.27,0,0,1,0,1.77,1.14,1.14,0,0,1-.85.36H158.9v3.84Z"/><path class="cls-4" d="M170.66,453.05a1.11,1.11,0,0,1,.85.37,1.22,1.22,0,0,1,.35.88v11.42h5.39a1.19,1.19,0,0,1,.86.37,1.23,1.23,0,0,1,.34.88,1.21,1.21,0,0,1-.34.88,1.15,1.15,0,0,1-.86.37h-6.59a1.13,1.13,0,0,1-.85-.37,1.22,1.22,0,0,1-.35-.88V454.3a1.22,1.22,0,0,1,.35-.88A1.13,1.13,0,0,1,170.66,453.05Z"/><path class="cls-4" d="M182.31,468.22a1.09,1.09,0,0,1-.84-.37,1.19,1.19,0,0,1-.36-.88V454.35a1.21,1.21,0,0,1,.36-.88,1.15,1.15,0,0,1,1.69,0,1.2,1.2,0,0,1,.35.88V467a1.18,1.18,0,0,1-.35.88A1.1,1.1,0,0,1,182.31,468.22Z"/><path class="cls-4" d="M187.67,468.13a1.21,1.21,0,0,1-.65-.68,1.3,1.3,0,0,1,0-.95l1.29-3.23h0l3.75-9.39a.37.37,0,0,1,.05-.11l0-.05,0-.06,0,0,0,0,0,0s0,0,0-.06l0,0,.05,0,0,0,.05,0,0,0,.06,0,.07,0,0,0,0,0,.07,0,.07,0h.51l.07,0s.06,0,0,0a.79.79,0,0,1,.23.09l0,0,.06.05,0,0,0,0,0,0,0,0s0,0,0,.05,0,0,0,.05l0,0,0,0a.15.15,0,0,0,0,.06.09.09,0,0,1,0,.05,1.17,1.17,0,0,1,.05.11l3.75,9.39h0l1.29,3.23a1.3,1.3,0,0,1,0,.95,1.24,1.24,0,0,1-.65.68,1.22,1.22,0,0,1-.46.09,1.11,1.11,0,0,1-1.11-.77l-1-2.46h-5.89l-1,2.46a1.12,1.12,0,0,1-1.11.77h-.24Zm7.45-5.62-2-4.91-2,4.91Z"/><path class="cls-4" d="M213.17,468.22A6.88,6.88,0,0,1,208,466a7.78,7.78,0,0,1,0-10.74,7.12,7.12,0,0,1,10.33,0,7.81,7.81,0,0,1,0,10.74A6.9,6.9,0,0,1,213.17,468.22Zm0-12.69a4.61,4.61,0,0,0-3.46,1.49,5.19,5.19,0,0,0,0,7.2,4.75,4.75,0,0,0,6.93,0,5.22,5.22,0,0,0,0-7.2A4.63,4.63,0,0,0,213.17,455.53Z"/><path class="cls-4" d="M230.55,468.22a6.9,6.9,0,0,1-5.17-2.23,7.78,7.78,0,0,1,0-10.74,7.13,7.13,0,0,1,10.34,0,7.81,7.81,0,0,1,0,10.74A6.91,6.91,0,0,1,230.55,468.22Zm0-12.69a4.62,4.62,0,0,0-3.47,1.49,5.22,5.22,0,0,0,0,7.2,4.76,4.76,0,0,0,6.94,0,5.22,5.22,0,0,0,0-7.2A4.63,4.63,0,0,0,230.55,455.53Z"/><path class="cls-4" d="M251.2,467.74h0L243.87,458v9a1.19,1.19,0,0,1-.36.88,1.15,1.15,0,0,1-1.69,0,1.19,1.19,0,0,1-.36-.88V454.3a1.21,1.21,0,0,1,.23-.72,1.17,1.17,0,0,1,.59-.46,1.14,1.14,0,0,1,.73,0,1.16,1.16,0,0,1,.6.44l7.33,9.79v-9a1.21,1.21,0,0,1,.34-.88,1.14,1.14,0,0,1,.86-.37,1.09,1.09,0,0,1,.84.37,1.19,1.19,0,0,1,.36.88V467a.2.2,0,0,1,0,.07v.05a2.83,2.83,0,0,0,0,.13v.05l0,.06,0,.06a.21.21,0,0,0,0,.06l0,0,0,.06,0,.06,0,0,0,.06,0,0,0,0s0,0,0,0l0,0s0,0-.05.05,0,0,0,0h0l-.15.1h0l-.17.08s0,0,0,0l-.18,0H252s0,0,0,0l-.1,0h0l-.08,0,0,0-.08,0a0,0,0,0,1,0,0l-.07,0,0,0-.07,0,0,0-.09-.09h0l0,0Z"/><path class="cls-27" d="M103.72,469.23a6.82,6.82,0,0,1-4.19-3.08,7.52,7.52,0,0,0,7.41,0c4-2.23,3.62-6.91,3.62-6.91a5.49,5.49,0,0,1-5.23,3.9,5.15,5.15,0,0,1-3.76-1.77,5.48,5.48,0,0,0,5-3,6,6,0,0,0,.1-5,6.31,6.31,0,0,1-3.89,4.25,3.56,3.56,0,0,1-1.57.22,16.1,16.1,0,1,0-31.78-3.7,16.18,16.18,0,0,0,.22,2.63,4,4,0,0,1-1.25-.29A6.28,6.28,0,0,1,64.73,452a6.61,6.61,0,0,0,2.34,7,7.49,7.49,0,0,0,2.59,1.05,4.42,4.42,0,0,1-4.2,2.38A5.52,5.52,0,0,1,60,457.59s-.7,7.15,5.75,8.34c3.43.64,5.18-.77,6.52-1.47-.18,1.35-2.26,3.27-4.7,3.86a6.17,6.17,0,0,1-6.69-2.26s2.56,7.51,9.63,6.81c4.21-.42,5.92-2.61,7.38-3.86a12.7,12.7,0,0,1-1.67,3.15c-2,2.89,1.61,8.49,1.61,8.49s-1.21-3.46,3.06-6.06a10.25,10.25,0,0,0,4.21-4.12,10.21,10.21,0,0,0,4.2,4.12c4.27,2.6,3.06,6.06,3.06,6.06s3.63-5.6,1.61-8.49a12.58,12.58,0,0,1-1.75-3.39l.05,0a10.5,10.5,0,0,0,8.8,5c7.21.26,9.71-6.8,9.71-6.8A7.18,7.18,0,0,1,103.72,469.23Zm-23.5-15.71a2.11,2.11,0,1,1,2.1-2.1A2.1,2.1,0,0,1,80.22,453.52Zm5.2,6.47c-1.62,0-3-.82-3.12-1.88,0-.11.13-.21.3-.21h5.64c.18,0,.33.1.31.21C88.39,459.17,87.05,460,85.42,460Zm5.42-6.47a2.11,2.11,0,1,1,2.1-2.1A2.1,2.1,0,0,1,90.84,453.52Z"/><path d="M545.89,191.81a8.5,8.5,0,0,1-5.21-3.83,9.33,9.33,0,0,0,9.21,0c5-2.77,4.5-8.59,4.5-8.59a6.81,6.81,0,0,1-6.5,4.85,6.39,6.39,0,0,1-4.68-2.2,6.83,6.83,0,0,0,6.25-3.72c1.68-2.9.11-6.26.11-6.26a7.83,7.83,0,0,1-4.82,5.28,4.68,4.68,0,0,1-2,.28A20,20,0,1,0,503.3,173a20.71,20.71,0,0,0,.27,3.27,5,5,0,0,1-1.55-.37,7.84,7.84,0,0,1-4.59-5.49,8.22,8.22,0,0,0,2.91,8.67,9.28,9.28,0,0,0,3.22,1.31,5.48,5.48,0,0,1-5.22,3c-6.1-.09-6.79-6-6.79-6s-.87,8.88,7.14,10.36c4.26.79,6.44-1,8.1-1.83-.22,1.68-2.81,4.07-5.84,4.79a7.67,7.67,0,0,1-8.32-2.79s3.18,9.33,12,8.45c5.22-.51,7.35-3.24,9.17-4.79a16.5,16.5,0,0,1-2.08,3.92c-2.51,3.58,2,10.54,2,10.54s-1.5-4.3,3.8-7.53c3.13-1.9,4.57-3.73,5.23-5.11.66,1.38,2.1,3.21,5.23,5.11,5.3,3.23,3.8,7.53,3.8,7.53s4.51-7,2-10.54a15.9,15.9,0,0,1-2.18-4.23l.06,0c.94,1.14,3.62,6,10.94,6.26,9,.32,12.07-8.45,12.07-8.45A8.93,8.93,0,0,1,545.89,191.81Zm-29.21-19.52a2.62,2.62,0,1,1,2.62-2.62A2.62,2.62,0,0,1,516.68,172.29Zm6.47,8c-2,0-3.69-1-3.89-2.34,0-.14.17-.26.38-.26h7c.22,0,.41.12.38.26C526.83,179.31,525.17,180.33,523.15,180.33Zm6.73-8a2.62,2.62,0,1,1,2.61-2.62A2.62,2.62,0,0,1,529.88,172.29Z"/><path class="cls-28" d="M545.89,265.08a8.43,8.43,0,0,1-5.21-3.83,9.35,9.35,0,0,0,9.21,0c5-2.77,4.5-8.6,4.5-8.6a6.81,6.81,0,0,1-6.5,4.85,6.39,6.39,0,0,1-4.68-2.19,6.84,6.84,0,0,0,6.25-3.73c1.68-2.89.11-6.26.11-6.26a7.81,7.81,0,0,1-4.82,5.28,4.71,4.71,0,0,1-2,.29,20,20,0,1,0-39.49-4.61,20.61,20.61,0,0,0,.27,3.27,5,5,0,0,1-1.55-.36,7.84,7.84,0,0,1-4.59-5.49,8.22,8.22,0,0,0,2.91,8.67,9.26,9.26,0,0,0,3.22,1.3,5.48,5.48,0,0,1-5.22,3c-6.1-.08-6.79-6-6.79-6s-.87,8.89,7.14,10.37c4.26.79,6.44-1,8.1-1.83-.22,1.68-2.81,4.06-5.84,4.79a7.66,7.66,0,0,1-8.32-2.8s3.18,9.33,12,8.46c5.22-.52,7.35-3.25,9.17-4.8a16.5,16.5,0,0,1-2.08,3.92c-2.51,3.59,2,10.54,2,10.54s-1.5-4.3,3.8-7.53c3.13-1.9,4.57-3.73,5.23-5.11.66,1.38,2.1,3.21,5.23,5.11,5.3,3.23,3.8,7.53,3.8,7.53s4.51-6.95,2-10.54a15.73,15.73,0,0,1-2.18-4.22l.06,0c.94,1.15,3.62,6,10.94,6.26,9,.32,12.07-8.45,12.07-8.45A8.91,8.91,0,0,1,545.89,265.08Zm-29.21-19.51A2.62,2.62,0,1,1,519.3,243,2.62,2.62,0,0,1,516.68,245.57Zm6.47,8c-2,0-3.69-1-3.89-2.33,0-.15.17-.27.38-.27h7c.22,0,.41.12.38.27C526.83,252.58,525.17,253.6,523.15,253.6Zm6.73-8a2.62,2.62,0,1,1,2.61-2.62A2.62,2.62,0,0,1,529.88,245.57Z"/><line class="cls-29" x1="297.68" y1="512.85" x2="41.09" y2="512.85"/></svg>