<?xml version="1.0" encoding="utf-8"?>
<!-- Generator: Adobe Illustrator 21.1.0, SVG Export Plug-In . SVG Version: 6.00 Build 0)  -->
<svg version="1.1" id="Layer_1" xmlns="http://www.w3.org/2000/svg" xmlns:xlink="http://www.w3.org/1999/xlink" x="0px" y="0px"
	 viewBox="0 0 111.7 111.7" style="enable-background:new 0 0 111.7 111.7;" xml:space="preserve">
<style type="text/css">
	.st0{fill:#FF2C27;}
	.st1{display:none;}
</style>
<g id="color_combos">
</g>
<g id="type_hierarchies">
</g>
<g id="logos">
</g>
<g id="Iconography">
	<g>
		<path class="st0" d="M79,12.3H34c-6.8,0-12.3,5.5-12.3,12.3V86c0,6.8,5.5,12.3,12.3,12.3h45c6.8,0,12.3-5.5,12.3-12.3V24.6
			C91.2,17.9,85.7,12.3,79,12.3z M85.6,81.8c0,5.8-3.8,9.6-9.6,9.6H37c-5.8,0-9.6-3.8-9.6-9.6v-30h58.3L85.6,81.8L85.6,81.8z
			 M85.6,43.6H27.4v-15c0-5.8,3.8-9.6,9.6-9.6h39c5.8,0,9.6,3.8,9.6,9.6V43.6z"/>
		<path class="st0" d="M78.3,26.1h-2.7c-0.6,0-1.2,0.6-1.2,1.4V39h5.1V27.5C79.5,26.8,79,26.1,78.3,26.1z"/>
		<path class="st0" d="M75.6,84.5h2.7c0.6,0,1.2-0.6,1.2-1.4V57.5h-5.1v25.6C74.4,83.9,74.9,84.5,75.6,84.5z"/>
	</g>
</g>
<g id="logo_x5F_sketch" class="st1">
</g>
<g id="logo">
</g>
<g id="logo_x5F_gridding">
</g>
<g id="Layer_9">
</g>
<g id="text_x2F_labels">
</g>
</svg>
