<?xml version="1.0" encoding="utf-8"?>
<!-- Generator: Adobe Illustrator 21.1.0, SVG Export Plug-In . SVG Version: 6.00 Build 0)  -->
<svg version="1.1" id="Layer_1" xmlns="http://www.w3.org/2000/svg" xmlns:xlink="http://www.w3.org/1999/xlink" x="0px" y="0px"
	 viewBox="0 0 111.7 111.7" style="enable-background:new 0 0 111.7 111.7;" xml:space="preserve">
<style type="text/css">
	.st0{fill:none;stroke:#FFFFFF;stroke-width:6;stroke-miterlimit:10;}
	.st1{display:none;}
</style>
<g id="color_combos">
</g>
<g id="type_hierarchies">
</g>
<g id="logos">
</g>
<g id="Iconography">
	<path class="st0" d="M70.5,39l25.1,3.6c2.2,0.3,3.1,3.1,1.5,4.6L79,65c-0.6,0.6-0.9,1.5-0.8,2.4l4.4,25c0.4,2.2-1.9,3.9-3.9,2.9
		L56.2,83.6c-0.8-0.4-1.7-0.4-2.5,0L31.2,95.5c-2,1.1-4.3-0.6-4-2.9l4.2-25c0.1-0.9-0.1-1.8-0.8-2.4L12.4,47.5
		c-1.6-1.6-0.7-4.3,1.5-4.7L39,39.1c0.9-0.1,1.7-0.7,2-1.5l11.2-22.8c1-2,3.9-2,4.9,0l11.3,22.7C68.9,38.3,69.6,38.9,70.5,39z"/>
</g>
<g id="logo_x5F_sketch" class="st1">
</g>
<g id="logo">
</g>
<g id="logo_x5F_gridding">
</g>
<g id="Layer_9">
</g>
<g id="text_x2F_labels">
</g>
</svg>
