<?xml version="1.0" standalone="no"?>
<!DOCTYPE svg PUBLIC "-//W3C//DTD SVG 20010904//EN"
 "http://www.w3.org/TR/2001/REC-SVG-20010904/DTD/svg10.dtd">
<svg version="1.0" xmlns="http://www.w3.org/2000/svg"
 width="401.000000pt" height="401.000000pt" viewBox="0 0 401.000000 401.000000"
 preserveAspectRatio="xMidYMid meet">
<metadata>
Created by potrace 1.11, written by Peter Selinger 2001-2013
</metadata>
<g transform="translate(0.000000,401.000000) scale(0.100000,-0.100000)"
fill="#000000" stroke="none">
<path d="M1910 3663 c-304 -46 -520 -151 -721 -352 -192 -192 -305 -416 -344
-681 -12 -81 -13 -298 -1 -349 5 -22 3 -23 -27 -17 -53 11 -149 61 -194 102
-54 50 -106 129 -129 196 l-18 53 -7 -35 c-5 -19 -7 -75 -5 -125 5 -137 47
-234 143 -329 40 -41 155 -102 210 -112 l33 -6 -27 -37 c-34 -48 -98 -96 -154
-117 -59 -22 -190 -25 -254 -6 -133 39 -230 137 -276 280 -10 31 -19 50 -20
42 -5 -46 12 -176 30 -235 51 -164 125 -256 256 -319 82 -39 143 -55 240 -61
121 -7 201 16 387 113 12 6 -5 -43 -26 -73 -64 -92 -231 -193 -351 -213 -161
-27 -311 17 -414 119 -28 28 -51 47 -51 42 0 -4 20 -45 45 -91 106 -198 238
-319 412 -379 122 -42 301 -39 443 8 106 34 215 101 305 186 65 61 68 61 41 0
-13 -31 -44 -87 -68 -124 -24 -37 -50 -84 -58 -103 -22 -53 -18 -181 9 -270
23 -78 119 -290 131 -290 3 0 5 26 4 57 -4 101 41 204 123 287 20 20 82 66
137 103 112 73 233 186 269 251 l24 43 27 -45 c37 -64 146 -167 246 -233 120
-79 157 -110 200 -165 65 -82 101 -213 79 -291 -14 -50 8 -19 59 85 119 244
135 407 54 534 -58 91 -131 234 -118 234 2 0 21 -24 43 -52 158 -209 373 -312
648 -311 284 1 523 160 665 443 30 59 27 68 -10 30 -3 -3 -23 -19 -45 -36
-204 -158 -500 -140 -681 42 -35 35 -64 68 -64 73 0 5 37 -4 83 -20 45 -15
110 -30 145 -32 266 -17 503 153 567 408 14 59 28 175 20 175 -3 0 -17 -25
-32 -56 -70 -143 -229 -234 -388 -222 -72 6 -170 48 -222 94 l-32 29 70 12
c39 6 95 24 125 39 92 47 188 161 215 259 17 57 14 171 -6 238 -18 61 -29 66
-40 17 -9 -43 -79 -143 -131 -189 -58 -51 -145 -92 -211 -98 l-52 -6 9 34 c31
105 31 339 0 488 -97 477 -464 844 -947 947 -72 15 -312 26 -373 17z m-190
-870 c100 -64 105 -195 10 -263 -98 -70 -239 2 -242 122 -2 123 132 204 232
141z m798 -1 c42 -22 71 -68 77 -123 10 -106 -98 -193 -200 -159 -114 38 -148
176 -63 257 56 53 117 61 186 25z m-256 -647 c-19 -122 -276 -173 -399 -79
-36 27 -67 79 -58 94 4 7 91 9 233 8 221 -3 227 -4 224 -23z"/>
</g>
</svg>
