<?xml version="1.0" encoding="utf-8"?>
<!-- Generator: Adobe Illustrator 18.1.1, SVG Export Plug-In . SVG Version: 6.00 Build 0)  -->
<svg version="1.1" xmlns="http://www.w3.org/2000/svg" xmlns:xlink="http://www.w3.org/1999/xlink" x="0px" y="0px"
	 viewBox="0 0 583.1 295.5" enable-background="new 0 0 583.1 295.5" xml:space="preserve">
<g id="Layer_2" display="none">
	<ellipse display="inline" fill="#B51845" stroke="#231F20" stroke-miterlimit="10" cx="292.4" cy="148.2" rx="377.5" ry="214.6"/>
</g>
<g id="Layer_1" display="none">
	<g display="inline">
		<path fill="none" d="M126.2,95c0-8.3-1.9-14.7-5.6-18.9c-0.1-0.1-0.1-0.2-0.2-0.2c-4.5,24.7-8.6,47-12.3,66.9
			c0.6-0.2,1.3-0.4,1.9-0.6c1.7-2.1,3.3-4.4,5-6.9C122.5,123.3,126.2,109.9,126.2,95z"/>
		<path fill="none" d="M538.8,75.4c1.1-5.4,1.6-9.6,1.6-12.7c0-3.1-1-5.7-3.1-7.8c-1.6-1.6-3.8-2.6-6.8-3
			c-1.2,5.6-2.4,11.5-3.8,17.6c-3.6,16.3-6.4,30.6-8.4,42.8c4.8-3.1,9.3-8.5,13.6-16.3c0.1-0.3,0.2-0.5,0.3-0.8
			C535.5,87.3,537.7,80.7,538.8,75.4z"/>
		<path fill="#FFFFFF" stroke="#231F20" stroke-miterlimit="10" d="M76.9,35.4c-4.8,1.3-9.8,2.7-15.2,4.3
			c-8.6,56.4-24.4,135.9-47.4,238.5l58.3-11.5c0.6-3.9,1.2-7.8,1.7-11.5l-43,8.5C53.1,166.2,68.3,90.2,76.9,35.4z"/>
		<path fill="#FFFFFF" stroke="#231F20" stroke-miterlimit="10" d="M123.2,60.1c-1,5.4-1.9,10.6-2.8,15.7c0.1,0.1,0.1,0.1,0.2,0.2
			c3.7,4.3,5.6,10.6,5.6,18.9c0,14.9-3.7,28.3-11.2,40.2c-1.6,2.6-3.3,4.9-5,6.9c7-2.4,13.5-8.4,19.6-18.1
			c7.3-11.6,10.9-24.7,10.9-39.2c0-8.1-1.8-14.3-5.5-18.5C131.5,62.2,127.5,60.1,123.2,60.1z"/>
		<path fill="#FFFFFF" stroke="#231F20" stroke-miterlimit="10" d="M104.9,177.6h-3.5c-0.8,3-1.7,7.5-2.5,11.7
			c7.5-1.1,14.9-3.6,22.1-7.4c8.3-4.4,15.7-10.1,22.4-17c-2.5,1.7-5.2,3.4-7.9,4.8C125.6,174.9,115.4,177.6,104.9,177.6z"/>
		<path fill="#FFFFFF" stroke="#231F20" stroke-miterlimit="10" d="M239.1,160c1.8-2.1,3.2-4.6,4.3-7.5c1.1-2.9,2-5.9,2.6-8.9
			c0.6-3,1.3-6.1,1.9-9.3c0.7-3.1,1.6-7.5,2.7-13c1.1-5.6,2.3-11.4,3.4-17.4c1.1-6,2.3-12.2,3.5-18.4c2.8-14.2,6.1-31.9,9.8-52.9
			l-9.8,0.6c-4.4,25.1-8.2,45.9-11.5,62.3c-1.2,6.4-2.5,12.7-3.6,18.9c-1.2,6.2-2.3,12.1-3.5,17.8c-1.2,5.7-2.1,10.1-2.8,13.3
			c-0.7,3.2-1.4,6.4-2,9.5c-0.6,2.8-1.3,5.5-2.3,8.1c0.4,0.1,0.8,0.1,1.2,0.1C235.4,163.2,237.3,162.2,239.1,160z"/>
		<path fill="#FFFFFF" stroke="#231F20" stroke-miterlimit="10" d="M221.6,196.1c-8.2,0-15.5-2.3-21.4-6.9
			c-6.7-5.5-10.2-12.7-10.2-21.7c0-0.6,0-1.2,0-1.8c0-0.6,0.3-2.7,0.7-6.2c0.4-3.5,1.3-9.8,2.7-18.9c1.4-9.1,2.9-18.5,4.5-28.3
			c1.6-9.8,3.3-19.7,5.2-29.6c1.8-9.9,3.5-18.9,5-27c1.9-10,3.4-17.5,4.4-22.7c-4.2,0.4-7.9,0.8-11,1.1c-0.6,2.8-2.7,13.1-6.1,30.9
			c-1.6,8.3-3.3,17.5-5.2,27.6c-1.9,10.1-3.6,20.3-5.3,30.3c-1.6,10.1-3.2,19.8-4.6,29c-1.4,9.3-2.4,15.7-2.8,19.3
			c-0.4,3.6-0.7,5.7-0.7,6.3c0,0.6,0,1.3,0,1.9c0,9.2,3.5,16.6,10.4,22.2c6.1,4.7,13.4,7,21.8,7c13.7,0,25.9-3.9,36.3-11.7
			c4.7-3.6,9-8.1,12.7-13.4c-0.4,0.3-0.8,0.6-1.2,1C246.8,192.3,235,196.1,221.6,196.1z"/>
		<path fill="#FFFFFF" stroke="#231F20" stroke-miterlimit="10" d="M295.9,170c3.2-24.4,7.3-50,12.6-76.9
			c4.5-23.3,8.5-43.4,11.8-60.3l-8.6,1.1c-3.8,18.8-8.3,41.9-13.7,69.5c-5.3,27.5-9.6,53.8-12.9,78.8c3.8-1.2,8-2.3,12.6-3.2
			c14-2.6,28.2-3.8,42.3-3.8l6.3,0.2c-0.1-0.5-0.3-1.6-0.5-3.1c-0.2-1.6-0.6-4-1.1-7.3c-0.1-0.6-0.2-1.2-0.3-1.8
			c-12.1,0.3-24.2,1.5-36.3,3.7C303.7,167.7,299.6,168.8,295.9,170z"/>
		<path fill="#FFFFFF" stroke="#231F20" stroke-miterlimit="10" d="M364.4,151.5c2.8-21.4,6.4-43.9,11-67.4
			c3.9-19.9,7.2-37.1,10.1-51.7l-7,0.9c-3.3,16.5-7.3,36.8-12,60.9c-4.6,23.9-8.3,46.6-11.2,68.3c0,0.3,0.1,0.5,0.1,0.7l-0.2,0
			c0,0,0,0.1,0,0.1c3.3-1.1,7-2,11-2.8c12.3-2.2,24.7-3.4,37.1-3.4l5.5,0.2c-0.1-0.5-0.3-1.4-0.4-2.8c-0.2-1.4-0.5-3.5-1-6.4
			c-0.1-0.8-0.3-1.7-0.4-2.6c-10.7,0.2-21.4,1.3-32,3.2C371.2,149.6,367.7,150.5,364.4,151.5z"/>
		<polygon fill="#FFFFFF" stroke="#231F20" stroke-miterlimit="10" points="445.8,32.9 440.3,33.4 418.8,150 471.8,141.8 
			472.7,131.4 426.4,138.5 		"/>
		<path fill="#FFFFFF" stroke="#231F20" stroke-miterlimit="10" d="M470.6,86.2c-2.6,0.1-5.5,0.2-8.8,0.3l-1.9,10
			c1.4-0.1,2.8-0.1,4.1-0.2c2.7-0.1,5.2-0.2,7.7-0.2c2.5-0.1,4.3-0.1,5.4-0.2c0.5-3.1,1-6.1,1.4-9c0-0.3,0.1-0.6,0.1-0.9
			c-0.2,0-0.4,0-0.6,0C475.7,86,473.2,86.1,470.6,86.2z"/>
		<path fill="#FFFFFF" stroke="#231F20" stroke-miterlimit="10" d="M469.7,40.6l-1.8,9h6.3c5.6,0,9.9-0.3,13.1-0.7
			c0.3-1.7,0.7-3.8,1.3-6c0.2-0.9,0.4-1.7,0.7-2.7c-2.5,0.1-5.4,0.4-8.8,0.4H469.7z"/>
		<path fill="#FFFFFF" stroke="#231F20" stroke-miterlimit="10" d="M535.8,118.1c-11,8.6-22.7,13-35.3,13c-2.1,0-4.9-0.2-8.3-0.7
			c9.2-46.1,15.2-78.7,18.2-97.7c-1.4,0.3-2.9,0.5-4.3,0.8c-2.4,17.5-9,53.6-19.8,108.2c3.5,0.5,6.3,0.7,8.5,0.7
			c12.8,0,24.9-4.4,36.1-13.3c9.8-8,17.8-18.3,23.9-30.9c1.5-3.2,2.9-6.4,4-9.6C552.9,100.6,545.2,110.5,535.8,118.1z"/>
		<path fill="#FFFFFF" stroke="#231F20" stroke-miterlimit="10" d="M532.4,42.5c-0.6,3-1.2,6.1-1.9,9.3c2.9,0.4,5.2,1.4,6.8,3
			c2.1,2.1,3.1,4.8,3.1,7.8c0,3.1-0.5,7.3-1.6,12.7c-1.1,5.4-3.3,12-6.6,19.8c-0.1,0.3-0.2,0.5-0.3,0.8c1.8-3.2,3.5-6.9,5.2-10.9
			c3.2-7.7,5.3-14.1,6.4-19.4c1.1-5.2,1.6-9.4,1.6-12.4c0-3-1-5.6-3.1-7.6C540,43.5,536.8,42.5,532.4,42.5z"/>
		<path fill="#231F20" d="M120.4,75.8c-3.7-4.1-7.7-6.2-12-6.2c-5.7,31.8-10.9,60.1-15.5,84.7c6-1.5,11.7-5.6,17.1-12.2
			c-0.6,0.2-1.3,0.4-1.9,0.6C111.8,122.9,115.9,100.5,120.4,75.8z"/>
		<path fill="#231F20" d="M186.2,82.3c0-19.1-3.8-33.7-11.3-43.7c-4.3-5.6-9.8-10-16.6-13.3c-6.8-3.3-16-5-27.8-5
			s-29.5,3.5-53.1,10.6c-0.2,1.5-0.5,3-0.7,4.6c16.7-4.4,29.7-6.6,39.1-6.6c12.1,0,21.6,1.7,28.5,5.1c6.9,3.4,12.6,8,17,13.7
			c7.7,10.3,11.5,25.3,11.5,44.8c0,12.5-2.3,24.7-6.9,36.4c-4.6,11.7-10.8,22.2-18.4,31.3c-1.4,1.7-2.8,3.2-4.3,4.7
			c6.7-4.5,12.7-10,18.2-16.5c7.5-8.9,13.5-19.1,18-30.5C184,106.3,186.2,94.5,186.2,82.3z"/>
		<path fill="#231F20" d="M86,190.1c-3.7,16-7.6,37.9-11.8,65.1l13.9-2.8c3.8-25.5,7.3-46.5,10.7-63.1c-3,0.4-6.1,0.8-9.2,0.8H86z"
			/>
		<path fill="#231F20" d="M166.1,128.8c4.6-11.7,6.9-23.9,6.9-36.4c0-19.5-3.8-34.5-11.5-44.8c-4.4-5.7-10-10.3-17-13.7
			c-6.9-3.4-16.4-5.1-28.5-5.1c-9.4,0-22.4,2.2-39.1,6.6c-8.5,54.8-23.7,130.9-45.6,228.3l43-8.4c4.2-27.3,8.1-49.1,11.8-65.1h3.6
			c3.1,0,6.2-0.5,9.2-1c0.8-4.2,1.7-8,2.5-12h3.5c10.5,0,20.7-2.5,30.5-7.7c2.7-1.4,5.3-3,7.9-4.7c1.5-1.5,2.9-3.1,4.3-4.7
			C155.3,150.9,161.4,140.5,166.1,128.8z M129.6,124.1c-6.1,9.6-12.6,15.6-19.6,18.1c-5.4,6.6-11.1,10.7-17.1,12.2
			c4.6-24.6,9.8-52.8,15.5-84.7c4.3,0,8.3,2.1,12,6.2c0.9-5.1,1.9-10.4,2.8-15.7c4.3,0,8.3,2.1,11.9,6.3c3.6,4.2,5.5,10.3,5.5,18.5
			C140.6,99.4,136.9,112.5,129.6,124.1z"/>
		<path fill="#231F20" d="M297.2,61.6c2.2-12.6,4.2-23.7,6.1-33.3l1.1-5.9l-35.4,2.3c-0.5,2.7-0.9,5.3-1.4,7.9l26.5-1.7l-1.2,6.1
			c-1.9,9.8-3.9,21.2-6.2,34.1c-2.3,12.9-4.3,24-6.2,33.4c-4.8,24.4-8.4,41.6-10.8,51.9c-2.3,10.2-5.6,18.5-9.7,24.9
			c-0.6,0.9-1.1,1.7-1.7,2.5c4.8-4,9.1-8.8,12.9-14.6c4-6.2,7.2-14.4,9.5-24.3c2.3-10,5.8-26.9,10.5-50.6
			C292.9,85,294.9,74.2,297.2,61.6z"/>
		<path fill="#231F20" d="M227.1,31.7c4.4-0.4,9.1-0.8,13.9-1.3c-4.1,19.2-7.3,34.4-9.6,45.7c-2.3,11.2-4.2,20.2-5.6,26.9
			c-1.4,6.7-2.7,12.9-3.7,18.5c-2.5,11.9-4.1,19.6-4.9,23.2c-2.3,10.8-3.5,17.7-3.5,20.8c0,3.1,0.7,5.5,2,7.1s3.1,2.5,5.4,2.5
			s4.3-1.1,6.1-3.3c1.8-2.2,3.3-4.8,4.4-7.7c0.1-0.3,0.2-0.7,0.4-1c-1.7-0.2-3-1-4.1-2.3c-1.3-1.6-1.9-3.9-1.9-7
			c0-3,1.1-9.8,3.4-20.3c0.8-3.5,2.4-11,4.8-22.6c1.1-5.5,2.3-11.5,3.7-18.1c1.4-6.6,3.2-15.3,5.5-26.3c2.3-11,5.4-25.8,9.4-44.6
			c-4.7,0.5-9.3,0.9-13.6,1.3c-4.3,0.4-8.8,0.8-13.3,1.3c-4.5,0.5-8.4,0.8-11.8,1.1c-0.3,1.2-0.8,3.7-1.5,7.5c0.3,0,0.7-0.1,1-0.1
			C218.2,32.5,222.7,32.1,227.1,31.7z"/>
		<path fill="#231F20" d="M269.6,156.3c2.3-10.2,5.9-27.5,10.8-51.9c1.9-9.4,3.9-20.5,6.2-33.4c2.3-12.9,4.3-24.2,6.2-34.1l1.2-6.1
			l-26.5,1.7c-3.7,21-7,38.6-9.8,52.9c-1.2,6.3-2.4,12.4-3.5,18.4c-1.1,6-2.3,11.8-3.4,17.4c-1.1,5.6-2.1,9.9-2.7,13
			c-0.7,3.1-1.3,6.2-1.9,9.3c-0.6,3.1-1.5,6-2.6,8.9c-1.1,2.9-2.6,5.4-4.3,7.5c-1.8,2.1-3.7,3.2-5.9,3.2c-0.4,0-0.8,0-1.2-0.1
			c-0.1,0.3-0.2,0.7-0.4,1c-1.2,3-2.7,5.5-4.4,7.7c-1.8,2.2-3.8,3.3-6.1,3.3s-4.1-0.8-5.4-2.5s-2-4-2-7.1c0-3.1,1.2-10.1,3.5-20.8
			c0.8-3.6,2.4-11.3,4.9-23.2c1.1-5.6,2.3-11.8,3.7-18.5c1.4-6.7,3.3-15.7,5.6-26.9c2.3-11.2,5.5-26.5,9.6-45.7
			c-4.8,0.5-9.5,0.9-13.9,1.3c-4.4,0.4-9,0.8-13.6,1.3c-0.4,0-0.7,0.1-1,0.1c-1,5.2-2.5,12.7-4.4,22.7c-1.5,8.1-3.2,17.1-5,27
			c-1.8,9.9-3.5,19.8-5.1,29.6c-1.6,9.8-3.1,19.3-4.5,28.3c-1.4,9.1-2.1,15.4-2.5,18.9c-0.4,3.5-0.5,5.6-0.5,6.2c0,0.6,0,1.2,0,1.8
			c0,9,3.2,16.2,9.9,21.7c5.9,4.6,13,6.9,21.2,6.9c13.4,0,25.2-3.8,35.4-11.4c0.4-0.3,0.8-0.6,1.2-1c0.6-0.8,1.1-1.7,1.7-2.5
			C264.1,174.8,267.3,166.5,269.6,156.3z"/>
		<path fill="#231F20" d="M355.1,160.2c-0.2-1.5-0.6-3.9-1.1-7.1c-0.5-3.2-0.9-7.4-1.2-12.6c-9,0-15.9,0.2-21,0.6
			c0.7-4.7,2-13,4.1-24.9c2-11.9,9.2-43.8,21.5-95.7l-35.6,4.7c-0.5,2.4-1,5-1.5,7.6l27.9-3.7c-12.6,53.2-19.9,85.9-22,98
			c-2.1,12.2-3.5,20.7-4.2,25.5c5.1-0.4,12.3-0.6,21.5-0.6c0.2,4.4,0.5,8.1,1,11.1c1.7,0,3.4-0.1,5-0.1l5.9,0.2
			c0-0.2,0.1-0.4,0.1-0.7C355.4,162,355.2,161.2,355.1,160.2z"/>
		<path fill="#231F20" d="M322,152.6c0.7-4.9,2.1-13.4,4.2-25.5c2.1-12.2,9.4-44.8,22-98l-27.9,3.7c-3.4,16.9-7.3,36.9-11.8,60.3
			c-5.2,26.9-9.4,52.5-12.6,76.9c3.7-1.2,7.8-2.2,12.3-3.2c12-2.2,24.1-3.4,36.3-3.7c-0.4-3-0.7-6.7-1-11.1
			C334.3,152,327.1,152.2,322,152.6z"/>
		<path fill="#231F20" d="M355.5,162.6c0,0.2-0.1,0.4-0.1,0.7l0.2,0C355.6,163.1,355.5,162.8,355.5,162.6z"/>
		<path fill="#231F20" d="M418.3,20.5l-31.2,4.2c-0.5,2.5-1,5.1-1.6,7.8l25-3.3c-11,46.6-17.4,75.3-19.3,85.9s-3,18.1-3.6,22.4
			c4.5-0.4,10.8-0.5,18.8-0.5c0.2,3.3,0.4,6.2,0.7,8.7c1.4,0,2.8,0,4.2,0l5.4,0.2c-0.1-0.5-0.3-1.4-0.4-2.7c-0.2-1.3-0.5-3.4-1-6.2
			c-0.5-2.8-0.8-6.5-1-11c-7.9,0-14,0.2-18.4,0.5c0.6-4.2,1.8-11.4,3.6-21.8C401.3,94,407.6,66,418.3,20.5z"/>
		<path fill="#231F20" d="M387.7,137.4c0.6-4.3,1.8-11.7,3.6-22.4s8.3-39.3,19.3-85.9l-25,3.3c-2.9,14.6-6.3,31.8-10.1,51.7
			c-4.6,23.6-8.2,46.1-11,67.4c3.2-1,6.8-2,10.7-2.8c10.6-1.9,21.3-3,32-3.2c-0.3-2.4-0.5-5.3-0.7-8.7
			C398.4,136.9,392.2,137.1,387.7,137.4z"/>
		<path fill="#231F20" d="M490.2,36.1c-0.3,1.3-0.6,2.6-0.9,4c1.5-0.1,2.8-0.2,4-0.3c0.3-1.7,0.7-3.6,1.3-5.8c0.5-2.2,1-4.4,1.6-6.6
			c0.5-2.2,1.1-4.6,1.9-7l-50.6,4.4l-1.5,8.2l46.3-4C491.4,31.4,490.8,33.8,490.2,36.1z"/>
		<path fill="#231F20" d="M464.1,68.9l3.9-19.8h-4.7l-5.8,29.5c5.9-0.3,10.8-0.5,14.7-0.6c3.9-0.1,6.5-0.2,7.7-0.3
			c-0.4,2.8-0.7,5.5-1.1,8.1c2.1-0.1,3.7-0.1,4.7-0.2c0.5-3,1-6,1.3-8.8c0.4-2.9,0.8-5.8,1.2-8.8c-1.1,0.1-3.6,0.2-7.5,0.3
			C474.6,68.4,469.8,68.6,464.1,68.9z"/>
		<path fill="#231F20" d="M449.6,126.9l23.9-3.8l-0.7,8.3l5.4-0.8l1.6-18.3l-23.3,3.8l3.6-19.5c-1.5,0.1-3.1,0.1-4.8,0.2
			L449.6,126.9z"/>
		<path fill="#231F20" d="M472.2,78.1c-3.9,0.1-8.9,0.2-14.7,0.6l5.8-29.5h4.7l1.8-9h10.8c3.4,0,6.3,0,8.8-0.2
			c0.3-1.3,0.6-2.6,0.9-3.9c0.5-2.3,1.2-4.7,1.9-7.1l-46.3,4l-19.4,105.6l46.3-7.1l0.7-8.3l-23.9,3.8l5.6-30.3
			c1.7-0.1,3.3-0.1,4.8-0.2l1.9-10c3.2-0.1,6.1-0.2,8.8-0.3c2.6-0.1,5.1-0.2,7.5-0.2c0.2,0,0.4,0,0.6,0c0.3-2.6,0.7-5.4,1.1-8.1
			C478.7,77.9,476.1,78,472.2,78.1z"/>
		<path fill="#231F20" d="M567.5,54.1c0-9.7-2.2-17.4-6.7-23.2c-2.3-3-5.4-5.4-9.1-7.1c-3.7-1.7-8.1-2.5-13.1-2.5s-9.7,0.4-14.1,1.1
			s-8.7,1.5-13,2.3c-0.3,2.3-0.7,5-1.2,7.9c3-0.5,6-1,9-1.5c4.5-0.7,9.3-1.1,14.4-1.1c5.1,0,9.6,0.9,13.4,2.6
			c3.8,1.7,6.9,4.2,9.3,7.2c4.6,5.9,6.9,13.8,6.9,23.7c0,8-1.6,16.4-4.7,25.1c0.1-0.2,0.2-0.4,0.3-0.7
			C564.7,76.1,567.5,64.8,567.5,54.1z"/>
		<path fill="#231F20" d="M518.3,112.3c2-12.2,4.9-26.5,8.4-42.8c1.4-6.1,2.6-12,3.8-17.6c-1-0.1-2-0.2-3.1-0.2
			c-1.7,8.6-3.6,17.8-5.8,27.6c-3.7,16.7-6.6,31.3-8.7,43.9c6.8-4.4,13.1-13.4,18.9-27.1C527.6,103.7,523.1,109.2,518.3,112.3z"/>
		<path fill="#231F20" d="M556.5,39.8c-2.4-3.1-5.5-5.5-9.3-7.2c-3.8-1.7-8.3-2.6-13.4-2.6c-5.1,0-9.9,0.4-14.4,1.1
			c-3,0.5-6,1-9,1.5c-3,19-9,51.6-18.2,97.7c3.4,0.5,6.2,0.7,8.3,0.7c12.5,0,24.3-4.3,35.3-13c9.4-7.6,17.1-17.5,23-29.5
			c3.1-8.7,4.7-17,4.7-25.1C563.4,53.6,561.1,45.7,556.5,39.8z M543.5,65.7c-1.1,5.2-3.2,11.7-6.4,19.4c-1.7,4.1-3.4,7.7-5.2,10.9
			c-5.8,13.7-12.1,22.7-18.9,27.1c2.1-12.5,5-27.2,8.7-43.9c2.2-9.8,4.1-19,5.8-27.6c1.1,0,2.1,0.1,3.1,0.2c0.7-3.2,1.3-6.3,1.9-9.3
			c4.4,0,7.6,1,9.6,3.1c2,2.1,3.1,4.6,3.1,7.6C545.1,56.3,544.6,60.4,543.5,65.7z"/>
	</g>
</g>
<g id="Layer_3">
	<path fill="#231F20" stroke="#FFFFFF" stroke-miterlimit="10" d="M12.7,277.1C35.8,174.6,51.6,95.1,60.2,38.6
		c24.2-7.2,42.3-10.9,54.4-10.9s21.6,1.7,28.5,5.1c6.9,3.4,12.6,8,17,13.7c7.7,10.3,11.5,25.3,11.5,44.8c0,12.5-2.3,24.7-6.9,36.4
		c-4.6,11.7-10.8,22.2-18.4,31.3c-7.7,9.1-16.6,16.4-26.7,21.7c-10.1,5.4-20.5,8.1-31.3,8.1h-3.6c-4.2,18.4-8.7,44-13.5,76.8
		L12.7,277.1z M106.9,68.6c-5.7,31.8-10.9,60.1-15.5,84.7c7.9-2,15.3-8.3,22.1-19.1c7.5-11.9,11.2-25.3,11.2-40.2
		c0-8.3-1.9-14.7-5.6-18.9S111.3,68.6,106.9,68.6z"/>
	<path fill="#231F20" stroke="#FFFFFF" stroke-miterlimit="10" d="M200,33.1c3.4-0.3,7.5-0.7,12.1-1.2c4.6-0.5,9.1-0.9,13.6-1.3
		c4.4-0.4,9.1-0.8,13.9-1.3c-4.1,19.2-7.3,34.4-9.6,45.7s-4.2,20.2-5.6,26.9c-1.4,6.7-2.7,12.9-3.7,18.5
		c-2.5,11.9-4.1,19.6-4.9,23.2c-2.3,10.8-3.5,17.7-3.5,20.8c0,3.1,0.7,5.5,2,7.1c1.3,1.6,3.1,2.5,5.4,2.5c2.3,0,4.3-1.1,6.1-3.3
		c1.8-2.2,3.3-4.8,4.4-7.7c1.2-3,2.1-6,2.7-9.1c0.6-3.1,1.3-6.3,2-9.5c0.7-3.2,1.6-7.6,2.8-13.3c1.2-5.7,2.3-11.6,3.5-17.8
		c1.2-6.2,2.4-12.4,3.6-18.9c3.3-16.4,7.1-37.2,11.5-62.3l36.3-2.3l-1.2,6.1c-1.9,9.8-3.9,21.2-6.2,34.1c-2.3,12.9-4.3,24-6.2,33.4
		c-4.8,24.4-8.4,41.6-10.8,51.9c-2.3,10.2-5.6,18.5-9.7,24.9c-4.1,6.4-8.9,11.7-14.4,15.9c-10.5,7.8-22.6,11.7-36.3,11.7
		c-8.4,0-15.7-2.3-21.8-7c-6.9-5.6-10.3-13-10.3-22.2c0-0.6,0-1.2,0-1.9c0-0.6,0.2-2.7,0.6-6.3c0.4-3.6,1.3-10,2.7-19.3
		c1.4-9.3,2.9-19,4.6-29s3.4-20.2,5.3-30.3c1.9-10.1,3.6-19.4,5.2-27.6C197.4,46.3,199.4,36,200,33.1z"/>
	<path fill="#231F20" stroke="#FFFFFF" stroke-miterlimit="10" d="M320.5,151.6c5.1-0.4,12.3-0.6,21.5-0.6c0.3,5.3,0.7,9.6,1.2,12.9
		c0.5,3.3,0.9,5.7,1.1,7.3c0.2,1.6,0.4,2.6,0.5,3.1l-6.3-0.2c-14.2,0-28.3,1.3-42.3,3.8c-4.6,0.9-8.8,2-12.6,3.2
		c3.2-25,7.5-51.2,12.9-78.8c5.3-27.5,9.9-50.7,13.7-69.5l36.5-4.9c-12.6,53.2-19.9,85.9-22,98C322.6,138.2,321.2,146.7,320.5,151.6
		z"/>
	<path fill="#231F20" stroke="#FFFFFF" stroke-miterlimit="10" d="M386.2,136.4c4.5-0.4,10.8-0.5,18.8-0.5c0.2,4.6,0.6,8.4,1.1,11.3
		c0.5,2.9,0.8,5,1,6.4c0.2,1.4,0.3,2.3,0.4,2.8l-5.5-0.2c-12.4,0-24.8,1.1-37.1,3.4c-4,0.8-7.7,1.8-11,2.8
		c2.8-21.9,6.6-44.9,11.3-69.1c4.7-24.2,8.7-44.5,12-60.9l32-4.3c-11,46.6-17.4,75.3-19.3,85.9S386.8,132.1,386.2,136.4z"/>
	<path fill="#231F20" stroke="#FFFFFF" stroke-miterlimit="10" d="M417.4,149l21.5-116.6l51.9-4.5c-0.7,2.5-1.4,4.8-1.9,7.1
		c-0.5,2.3-1.1,4.6-1.6,6.8c-0.5,2.2-1,4.2-1.3,5.9c-3.2,0.3-7.6,0.5-13.1,0.5h-11L456,77.7c5.9-0.3,10.8-0.5,14.7-0.6
		c3.9-0.1,6.5-0.2,7.7-0.3c-0.4,3.1-0.8,6.1-1.2,9c-0.4,2.9-0.8,6-1.4,9c-1.2,0.1-3,0.2-5.4,0.2c-2.5,0.1-5,0.1-7.7,0.2
		c-2.7,0.1-5.7,0.2-9,0.3l-5.6,30.3l23.9-3.8l-1.6,18.7L417.4,149z"/>
	<path fill="#231F20" stroke="#FFFFFF" stroke-miterlimit="10" d="M484.8,140.6c10.8-54.6,17.5-90.7,19.8-108.2
		c4.4-0.8,8.8-1.6,13.3-2.3s9.3-1.1,14.4-1.1c5.1,0,9.6,0.9,13.4,2.6c3.8,1.7,6.9,4.2,9.3,7.2c4.6,5.9,6.9,13.8,6.9,23.7
		c0,10.9-2.9,22.5-8.7,34.6c-6.1,12.6-14,22.9-23.9,30.9c-11.2,8.9-23.3,13.3-36.1,13.3C491.1,141.3,488.3,141.1,484.8,140.6z
		 M511.5,122.1c7-4.5,13.4-13.8,19.3-27.9c3.3-7.9,5.5-14.5,6.6-19.8c1.1-5.4,1.6-9.6,1.6-12.7c0-3.1-1-5.7-3.1-7.8
		c-2.1-2.1-5.4-3.2-9.8-3.2c-1.7,8.6-3.6,17.8-5.8,27.6C516.5,94.9,513.6,109.5,511.5,122.1z"/>
	<path fill="#FFFFFF" stroke="#231F20" stroke-miterlimit="10" d="M29.8,262.6C52.3,162.5,67.7,84.9,76.1,29.8
		c23.6-7.1,41.3-10.6,53.1-10.6s21.1,1.7,27.8,5c6.8,3.3,12.3,7.8,16.6,13.3c7.5,10.1,11.3,24.7,11.3,43.7c0,12.2-2.3,24.1-6.8,35.5
		c-4.5,11.5-10.5,21.7-18,30.5c-7.5,8.9-16.2,16-26,21.2c-9.9,5.3-20,7.9-30.5,7.9h-3.5c-4.1,18-8.5,43-13.2,74.9L29.8,262.6z
		 M121.7,59c-5.6,31.1-10.6,58.6-15.1,82.6c7.7-1.9,14.9-8.1,21.5-18.7c7.3-11.6,10.9-24.7,10.9-39.2c0-8.1-1.8-14.3-5.5-18.5
		C130,61.1,126,59,121.7,59z"/>
	<path fill="#FFFFFF" stroke="#231F20" stroke-miterlimit="10" d="M212.6,24.6c3.4-0.3,7.3-0.7,11.8-1.1s8.9-0.9,13.3-1.3
		c4.3-0.4,8.9-0.8,13.6-1.3c-4,18.7-7.1,33.6-9.4,44.6c-2.3,11-4.1,19.7-5.5,26.3c-1.4,6.6-2.6,12.6-3.7,18.1
		c-2.4,11.6-4,19.1-4.8,22.6c-2.3,10.5-3.4,17.3-3.4,20.3c0,3.1,0.6,5.4,1.9,7s3,2.4,5.3,2.4c2.2,0,4.2-1.1,5.9-3.2
		c1.8-2.1,3.2-4.6,4.3-7.5c1.1-2.9,2-5.9,2.6-8.9c0.6-3,1.3-6.1,1.9-9.3c0.7-3.1,1.6-7.5,2.7-13c1.1-5.6,2.3-11.4,3.4-17.4
		c1.1-6,2.3-12.2,3.5-18.4c3.2-16,6.9-36.3,11.2-60.8l35.4-2.3l-1.1,5.9c-1.8,9.6-3.8,20.7-6.1,33.3s-4.2,23.4-6.1,32.6
		c-4.7,23.8-8.2,40.7-10.5,50.6c-2.3,10-5.4,18.1-9.5,24.3c-4,6.3-8.7,11.4-14.1,15.5c-10.2,7.6-22,11.4-35.4,11.4
		c-8.2,0-15.3-2.3-21.3-6.9c-6.7-5.5-10.1-12.7-10.1-21.7c0-0.6,0-1.2,0-1.8c0-0.6,0.2-2.7,0.6-6.2c0.4-3.5,1.3-9.8,2.6-18.9
		c1.4-9.1,2.9-18.5,4.5-28.3c1.6-9.8,3.3-19.7,5.1-29.6c1.8-9.9,3.5-18.9,5-27C210,37.4,212,27.3,212.6,24.6z"/>
	<path fill="#FFFFFF" stroke="#231F20" stroke-miterlimit="10" d="M330.4,140.1c5-0.4,12-0.6,21-0.6c0.3,5.1,0.7,9.3,1.2,12.6
		c0.5,3.2,0.9,5.6,1.1,7.1c0.2,1.5,0.4,2.5,0.5,3.1L348,162c-13.8,0-27.6,1.3-41.3,3.8c-4.5,0.9-8.6,2-12.3,3.2
		c3.2-24.4,7.3-50,12.6-76.9s9.7-49.5,13.3-67.8l35.6-4.7c-12.3,51.9-19.4,83.8-21.5,95.7C332.4,127,331.1,135.3,330.4,140.1z"/>
	<path fill="#FFFFFF" stroke="#231F20" stroke-miterlimit="10" d="M394.5,125.2c4.4-0.3,10.5-0.5,18.4-0.5c0.2,4.5,0.6,8.2,1,11
		c0.5,2.8,0.8,4.9,1,6.2c0.2,1.3,0.3,2.2,0.4,2.7l-5.4-0.2c-12.1,0-24.2,1.1-36.2,3.3c-3.9,0.8-7.5,1.7-10.7,2.8
		c2.8-21.4,6.4-43.9,11-67.4c4.6-23.6,8.5-43.4,11.7-59.5l31.2-4.2c-10.7,45.5-17,73.5-18.8,83.9C396.3,113.8,395.1,121,394.5,125.2
		z"/>
	<path fill="#FFFFFF" stroke="#231F20" stroke-miterlimit="10" d="M424.9,137.5l20.9-113.8l50.6-4.4c-0.7,2.4-1.4,4.7-1.9,7
		c-0.5,2.2-1,4.5-1.6,6.6s-0.9,4.1-1.3,5.8c-3.1,0.3-7.4,0.5-12.8,0.5h-10.8l-5.6,28.8c5.7-0.3,10.5-0.5,14.4-0.6
		c3.9-0.1,6.4-0.2,7.5-0.3c-0.4,3-0.8,6-1.2,8.8c-0.4,2.9-0.8,5.8-1.3,8.8c-1.1,0.1-2.9,0.2-5.3,0.2c-2.4,0.1-4.9,0.1-7.5,0.2
		c-2.6,0.1-5.5,0.2-8.8,0.3L455,115l23.3-3.8l-1.6,18.3L424.9,137.5z"/>
	<path fill="#FFFFFF" stroke="#231F20" stroke-miterlimit="10" d="M490.8,129.3c10.6-53.3,17-88.5,19.4-105.6
		c4.3-0.8,8.6-1.5,13-2.3s9.1-1.1,14.1-1.1s9.4,0.9,13.1,2.5c3.7,1.7,6.8,4.1,9.1,7.1c4.5,5.7,6.7,13.5,6.7,23.2
		c0,10.7-2.8,21.9-8.4,33.8c-5.9,12.3-13.7,22.4-23.3,30.2c-11,8.6-22.7,13-35.3,13C496.9,130,494.2,129.8,490.8,129.3z
		 M516.8,111.2c6.8-4.4,13.1-13.5,18.8-27.2c3.2-7.7,5.3-14.1,6.4-19.4s1.6-9.4,1.6-12.4c0-3-1-5.6-3.1-7.6c-2-2.1-5.2-3.1-9.6-3.1
		c-1.7,8.4-3.5,17.3-5.7,27C521.7,84.7,518.9,99,516.8,111.2z"/>
</g>
</svg>
