<?xml version="1.0" encoding="utf-8"?>
<!-- Generator: Adobe Illustrator 21.1.0, SVG Export Plug-In . SVG Version: 6.00 Build 0)  -->
<svg version="1.1" id="Layer_1" xmlns="http://www.w3.org/2000/svg" xmlns:xlink="http://www.w3.org/1999/xlink" x="0px" y="0px"
	 viewBox="0 0 1206.7 823.3" style="enable-background:new 0 0 1206.7 823.3;" xml:space="preserve">
<style type="text/css">
	.st0{fill:#FF2C27;}
</style>
<title>Capstone_Branding_jan18</title>
<g id="logo_text">
	<path class="st0" d="M448.5,331.1c5.8,0,10.1-11.7,10.1-18.5c0-4.5-7.9-7.6-12.4-7.6c-5.9,0-10.1,11.7-10.1,18.5
		C436,328,444,331.1,448.5,331.1z"/>
	<path class="st0" d="M827,378.1c-2.3,0-4,3.2-4,3.2c-8.8,16.2-18.5,30.1-23.9,30.1c-1.6,0-4.7-2.7-4.7-5c0-9.5,11.2-44.6,11.2-53.1
		c0-6.7-9.7-14-15.1-14c-9.4,0-27,10.6-27,10.6s-8.5-10.6-11.5-10.6c-2.6-0.1-5.1,1.4-6.1,3.8c-2,6.4-6.7,24.5-10.7,40.9
		c-11.4,21-24.9,27.1-34.3,27.1c-7.7,0-15.5-6.7-15.5-11c0-5.8,1.4-8.8,1.4-8.8c5.5,1.5,11.2,2.4,16.9,2.5
		c11.7,0,23.2-28.8,23.2-37.8c0-7.7-16.6-16.7-25.7-16.7c-13.2,0-28.7,24-34.6,44.1c-8.5,15.3-17.8,28-22.8,28c-1.6,0-4.7-2.7-4.7-5
		c0-9.5,11.2-44.6,11.2-53.1c0-6.7-9.9-14-15.1-14c-10.8,0-25.7,12.1-25.7,12.1s5-17.1,9.4-32.2c0.5-1.5,0.8-3,0.9-4.5
		c0-3.1-12.1-9.5-15.5-9.5c-1.4,0-3.1,1.1-3.8,3.8c-3.3,10.1-13.1,46.5-19.9,73.8c-11.9,18.4-27.1,28.4-36.4,28.4
		c-5.9,0-13.7-5.9-13.7-12.4c0-19.8,11.3-47.2,20.9-47.2c2,0,4.1,1.4,4.1,2.7c0,3.4-5.4,10.1-5.4,13.9c0,3.1,6.8,7.6,11.3,7.6
		c3.6,0,9.4-15.1,9.4-20.2c0-7.2-13-16.2-24.8-16.2c-16.2,0-30.8,22.3-35.9,44.2c-8.5,15.3-17.8,28-22.8,28
		c-5.5-0.1-10-4.6-10.1-10.1c0-4.1,6.7-28.8,12.6-49.1H504c2.9,0,6.3-7.2,6.3-9.5c0-1.1-1.1-1.6-2.2-1.6h-15.4l5-16.6
		c0.4-1.4,0.6-2.9,0.7-4.3c0-3.2-11.9-10.1-15.5-10.1c-1.4,0-3.1,1.4-3.8,4c-1.3,4-4.1,14.4-7.6,27h-5c-2.9,0-6.1,7.2-6.1,9.4
		c0.1,1,1,1.8,2,1.8h6.1c-2.8,10.7-5.7,21.9-8,31.5c-8.8,15.2-17.8,27.8-22.8,27.8c-1.8,0-4.7-2.7-4.7-5c0-12.6,14.6-53.1,14.6-57.2
		c0-3.4-12.2-9.9-14.4-9.9c-2.7,0-5.2,1.3-5.9,3.8c-1.8,6.4-6.7,24-10.6,39.5c-8.8,15.5-15.5,24.9-20.7,24.9
		c-4.3,0-16.2-17.5-17.5-21.4c0,0,27.7-19.1,27.7-31.1c0-5.8-9.9-15.7-16.4-15.7c-9.4,0-24.7,12.1-24.7,12.1s4.9-17.5,9.2-32
		c0.5-1.5,0.8-3,0.9-4.5c0-3.1-11.9-9.7-15.3-9.7c-1.8,0-3.1,1.1-4,3.8c-5.2,16-26.8,99-26.8,105.5c0,4.9,10.3,9.5,14.6,9.5
		c2.9,0,3.2-1.8,3.8-4.1c1.4-5.6,8.6-35.1,13.3-50.4c2.3-7.9,14-14.4,18.4-14.4c2.5,0,5.4,3.1,5.4,6.1c0,4.3-7.2,12.8-21.4,24.1
		c-2.3,1.7-3.7,4.4-3.6,7.2c0,4.7,18.7,31.5,30.2,31.5c8.4,0,15.5-5.5,21.9-13.7c2.3,7.3,16.5,13.7,24,13.7
		c7.7,0,14.5-5.7,20.9-14.1c3.4,7.6,17.7,14.1,28.4,14.1c9.1,0,17-7.8,24.2-18.6c4.4,10.2,18.8,18.6,31.2,18.6
		c11.3,0,23.3-6.2,34-16.4c-0.6,2.3-1,4.6-1.2,6.9c0,4.9,10.6,9.5,14.9,9.5c2.5,0,3.1-1.8,3.8-4.1c1.1-5.6,8.3-35.1,13.1-50.4
		c2.3-7.7,12.8-14.4,17.1-14.4c2.3,0,5.4,3.1,5.4,6.1c0,6.8-9,35.6-9,47.2c0,8.1,15.1,15.7,23.2,15.7c9.1,0,16.8-7.8,24.1-18.5
		c5.6,10.6,22.7,18.5,35.7,18.5c9,0,18.4-4.3,27.2-13c-0.3,1.2-0.4,2.4-0.5,3.6c0,4.9,10.6,9.4,14.8,9.4c2.7,0,3.2-1.8,4-4.1
		c1.1-5.2,9.4-41.6,14-53.5c2.7-6.8,12.8-11.3,16.6-11.3c2.3,0,5.4,3.1,5.4,6.1c0,6.8-10.1,35.6-10.1,47.2
		c0,8.1,16.2,15.7,24.3,15.7c13,0,23.6-16.4,33.5-34.4c0,0,2.3-4.1,2.3-6.3S829.3,378.1,827,378.1z M707.3,353.2
		c2.5,0,5.4,2,5.4,4.5c0,4.9-7.4,25.4-24.7,25.4C689.7,374.7,700.3,353.2,707.3,353.2L707.3,353.2z"/>
	<path class="st0" d="M481.6,613.4c0-3.1-3.5-5.5-6.6-5.5c-8.6,0-21.6,26.2-23.5,36.5C472.6,644.5,481.6,619.4,481.6,613.4z"/>
	<path class="st0" d="M726.2,613.4c0-3.1-3.5-5.5-6.6-5.5c-8.6,0-21.6,26.2-23.5,36.5C717.2,644.5,726.2,619.4,726.2,613.4z"/>
	<path class="st0" d="M1078.3,307.7l-94.8-0.2c-1.5,0-3,0.2-4.4,0.5c-19.7-24.4-60-54.5-142.3-79.3c-84.7-25.5-174.2-31-221.6-32
		c0.3-12.2,4.1-24.1,11.1-34.2c30.2-5.2,50.7-15.1,50.7-26.5c0-16.7-43.8-30.3-97.9-30.3s-97.9,13.5-97.9,30.3
		c0,11.5,20.9,21.6,51.6,26.7c7,10.2,10.9,22.3,11,34.7c-47.3,1.7-132.5,7.9-213.3,29.4c-86.6,23-128.2,55.2-148.1,81.2
		c-0.9-0.1-1.8-0.2-2.7-0.2H84.7c-16.9,0-30.7,20.2-30.7,45l0,0c0,24.8,13.8,45,30.7,45h79.2v230c0,0-7.4,73.2,161,124
		c122.8,37,255.9,32,255.9,32s130.2,2,250.4-30c169.2-45,166.5-125,166.5-125V397.6l80.5,0.2c16.9,0,30.7-20.2,30.8-44.9l0,0
		C1109,328,1095.2,307.8,1078.3,307.7z M848.8,652.2c-12.1,22-25.1,42-40.9,42c-9.9,0-27.5-8.4-27.5-16.9
		c0-17.2,11.7-48.6,11.7-58.7c0-2.4-8.8-4.2-8.8-4.2s-7.7,18-18.4,37.7l-0.1,0.1c-15,28.4-34.1,42-51.9,42
		c-17.4,0-40.8-11.6-45.2-26.5c-7.9,6.7-17.9,10.4-28.2,10.4c-2.6,0-8.1-0.2-8.1-0.2c-6.6,8.6-15.4,16.3-24.4,16.3
		c-10.3-0.1-20.3-3.7-28.4-10.1c0,0-10.8,46.2-12.3,56.8c-0.7,2.9-2,4.8-5.5,4.8c-5.5,0-17.4-5.5-17.4-11.2c0-3.4,5.1-25.2,11.5-51
		c-6.2,6.6-12.9,10.7-20.1,10.7c-9.3,0-29.4-8.2-31.7-17.4c-11.2,11.7-23.2,17.4-34.8,17.4c-15.9,0-36.8-9.7-43.6-22.7
		c-8.8,13.1-18.3,22.7-29.4,22.7c-9.9,0-28.4-9.2-28.4-19.1c0-14.1,11-49.3,11-57.6c0-3.7-3.7-7.5-6.6-7.5c-5.3,0-18,8.1-20.9,17.6
		c-5.9,18.7-14.7,54.8-16.1,61.6c-0.9,2.9-1.5,5.1-4.6,5.1c-5.3,0-18.3-5.7-18.3-11.7c0-7.9,26.6-109.3,33-128.9
		c0.9-3.3,2.9-4.6,4.6-4.6c4.2,0,18.9,7.9,18.9,11.7c-0.2,1.9-0.5,3.7-1.1,5.5c-5.3,18.5-11.4,39.4-11.4,39.4s18.3-14.7,31.5-14.7
		c6.4,0,18.5,9,18.5,17.2c0,10.3-13.6,53.2-13.6,64.9c0,2.9,3.7,6.2,5.7,6.2c6.1,0,17.5-15.5,27.9-34.2c7.2-24.6,26.1-54,42.3-54
		c11.2,0,31.5,11,31.5,20.5c0,11-14.1,46.2-28.4,46.2c-9.9,0-20.7-3.1-20.7-3.1s-1.8,3.7-1.8,10.8c0,5.3,9.5,13.4,18.9,13.4
		c11.4,0,27.8-7.5,41.7-32.9c7.9-31.3,21.2-77.3,26-92.1c1.1-3.3,2.9-4.6,4.6-4.6c4.2,0,18.9,8.1,18.9,11.9
		c-0.1,1.9-0.4,3.7-0.9,5.5c-2.2,7-28.8,96.1-28.8,106.5c0,2.9,6.2,6.2,8.1,6.2c6.3,0,17.3-15.2,27.6-33.7
		c5.4-20.9,10.5-40,13.3-49.9c0.7-3.1,4-4.6,7-4.6c3.7,0,15.4,13,15.4,13s13-13,25.7-13c9.7,0,26,12.3,26,23.5
		c0,12.8-4,31.5-12.3,48.6c1.9,0.5,3.8,0.8,5.7,0.9c12.2,0,21.2-13.2,24.6-18.9c7.2-24.6,26.1-54.1,42.3-54.1
		c11.2,0,31.5,11,31.5,20.5c0,11-14.1,46.2-28.4,46.2c-9.9,0-20.7-3.1-20.7-3.1s-1.8,3.7-1.8,10.8c0,5.3,9.5,13.4,18.9,13.4
		c11.5,0,28.1-7.6,42.2-33.6c0.7-1.5,1.4-2.7,1.4-2.7l0,0c0.2-0.3,0.3-0.7,0.5-1c7.5-13.8,15.3-33.3,15.3-33.3s-9.2-5.7-9.2-13.2
		s9.2-24.6,14.7-24.6c6.4,0,17.6,7,17.6,12.1c0,4.6-3.3,10.1-3.3,15.8c0,5.5,27.9,7.7,27.9,16.9c0,7.3-12.8,47.5-12.8,60.1
		c0,2.2,1.7,4,3.9,4c0,0,0.1,0,0.1,0c6.6,0,18.5-16.9,29.3-36.7c0,0,2-4,4.8-4s7.5,3.5,7.5,6.2S848.8,652.2,848.8,652.2z
		 M580.8,476.7c-207.3,0-375.3-55.2-375.3-123.3c0-63,143.5-114.9,328.8-122.4c-8.8,14.3-23.1,24.5-39.5,28.2v0.1
		c1.1-0.3,2.2-0.5,3.3-0.5h163.4v-0.2c-15.5-4.2-28.8-14.1-37.2-27.8c186.8,7.1,331.8,59.2,331.8,122.5
		C956.1,421.4,788.1,476.7,580.8,476.7z"/>
	<path class="st0" d="M617.5,608.2c-5.5,0-19.1,10.3-22.4,20c-4.4,12.3-9.9,30.6-9.9,37.8c0,5.9,7.9,12.1,15.2,12.1
		c2.2,0,5.1-2,7-4.4c-4-1.8-6.6-3.7-6.6-6.2c0-4.6,9.2-13.6,14.1-13.6c0.9,0,1.8,0.2,2.6,0.2c4.8-13.4,8.4-28.8,8.4-37.2
		C625.9,612.6,621.1,608.2,617.5,608.2z"/>
</g>
</svg>
