<svg xmlns="http://www.w3.org/2000/svg" viewBox="0 0 1920 1920"><defs><style>.cls-1,.cls-5{fill:#ff5317;}.cls-2,.cls-3,.cls-4{fill:none;stroke:#05f;stroke-miterlimit:10;}.cls-2{stroke-width:2.67px;}.cls-3{stroke-width:2.3px;}.cls-4{stroke-width:2.16px;}.cls-5{font-size:160px;font-family:Kust, Kust;}.cls-6{font-size:200px;fill:#fff;font-family:Voltage, Voltage;}</style></defs><title>Capstone_Branding_draft</title><g id="logo"><path class="cls-1" d="M1600.51,761.07l-109.78-.2a28.13,28.13,0,0,0-5.11.47C1462.8,737,1416.14,706.79,1320.88,682c-142.16-37-296.17-32-296.17-32S874,648,734.86,680c-100.25,23-148.36,55.23-171.44,81.18a28.11,28.11,0,0,0-3.1-.18H450.54C431,761,415,781.25,415,806h0c0,24.75,16,45,35.54,45h91.61v230s-8.6,73.25,186.39,124c142.16,37,296.17,32,296.17,32s150.7,2,289.85-30c195.87-45,192.71-125,192.71-125V850.89l93.14.17c19.55,0,35.56-20.18,35.59-44.93h0C1636,781.38,1620.06,761.1,1600.51,761.07ZM1024.71,930c-239.9,0-434.38-55.23-434.38-123.35S784.81,683.3,1024.71,683.3s434.38,55.23,434.38,123.35S1264.61,930,1024.71,930Z"/><path class="cls-1" d="M987.64,651.42a62.59,62.59,0,0,1-48.76,61v.13a10.85,10.85,0,0,1,3.27-.5h163.36v-.19a62.57,62.57,0,0,1-35.3-96.11c30.2-5.15,50.66-15.09,50.66-26.51,0-16.72-43.83-30.27-97.91-30.27s-97.91,13.55-97.91,30.27c0,11.53,20.86,21.56,51.56,26.67A62.29,62.29,0,0,1,987.64,651.42Z"/></g><g id="logo_gridding"><ellipse class="cls-2" cx="1025.11" cy="805.5" rx="482.95" ry="155.5"/><ellipse class="cls-2" cx="451.33" cy="806" rx="34.75" ry="44"/><ellipse class="cls-2" cx="1599.67" cy="806" rx="34.75" ry="44"/><ellipse class="cls-2" cx="1025.11" cy="1081.5" rx="482.95" ry="155.5"/><ellipse class="cls-3" cx="1022.97" cy="589.27" rx="97.91" ry="30.27"/><circle class="cls-4" cx="925.06" cy="651.42" r="62.58"/><circle class="cls-4" cx="925.06" cy="651.42" r="62.58"/><circle class="cls-4" cx="1121.64" cy="651.42" r="62.58"/></g><g id="Layer_9" data-name="Layer 9"><text class="cls-5" transform="translate(776.94 882.31)">Kitchen<tspan class="cls-6"><tspan x="5.6" y="250">helper</tspan></tspan></text></g></svg>