<?xml version="1.0" encoding="utf-8"?>
<!-- Generator: Adobe Illustrator 21.1.0, SVG Export Plug-In . SVG Version: 6.00 Build 0)  -->
<svg version="1.1" xmlns="http://www.w3.org/2000/svg" xmlns:xlink="http://www.w3.org/1999/xlink" x="0px" y="0px"
	 viewBox="0 0 1262.1 827.6" style="enable-background:new 0 0 1262.1 827.6;" xml:space="preserve">
<style type="text/css">
	.st0{fill:#FF2C27;}
	.st1{font-family:'Voltage';}
	.st2{font-size:180px;}
	.st3{fill:#FFFFFF;}
	.st4{font-size:220px;}
	.st5{display:none;}
	.st6{display:inline;fill:none;stroke:#0055FF;stroke-width:2.67;stroke-miterlimit:10;}
	.st7{display:inline;fill:none;stroke:#0055FF;stroke-width:2.3;stroke-miterlimit:10;}
	.st8{display:inline;fill:none;stroke:#0055FF;stroke-width:2.16;stroke-miterlimit:10;}
</style>
<g id="Layer_1">
	<title>Capstone_Branding_draft</title>
	<g id="logo">
		<path class="st0" d="M1205.4,297.9l-109.8-0.2c-1.7,0-3.4,0.2-5.1,0.5c-22.8-24.3-69.5-54.5-164.7-79.3
			c-142.2-37-296.2-32-296.2-32s-150.7-2-289.8,30c-100.2,23-148.4,55.2-171.4,81.2c-1-0.1-2.1-0.2-3.1-0.2H55.5
			c-19.5,0-35.5,20.2-35.5,45l0,0c0,24.8,16,45,35.5,45h91.6v230c0,0-8.6,73.2,186.4,124c142.2,37,296.2,32,296.2,32
			s150.7,2,289.8-30c195.9-45,192.7-125,192.7-125V387.7l93.1,0.2c19.6,0,35.6-20.2,35.6-44.9l0,0
			C1240.9,318.2,1225,297.9,1205.4,297.9z M629.6,466.8c-239.9,0-434.4-55.2-434.4-123.3s194.5-123.4,434.4-123.4
			S1064,275.4,1064,343.5S869.5,466.8,629.6,466.8z"/>
		<path class="st0" d="M592.6,188.2c0,29.2-20.3,54.5-48.8,61v0.1c1.1-0.3,2.2-0.5,3.3-0.5h163.4v-0.2
			c-33.4-8.9-53.2-43.2-44.3-76.6c1.9-7,4.9-13.6,9-19.5c30.2-5.2,50.7-15.1,50.7-26.5c0-16.7-43.8-30.3-97.9-30.3
			S530,109.3,530,126.1c0,11.5,20.9,21.6,51.6,26.7C588.7,163.2,592.6,175.6,592.6,188.2z"/>
	</g>
	<g id="Layer_9">
		<text transform="matrix(1 0 0 1 389.951 412.1376)" class="st0 st1 st2">kitchen</text>
		<text transform="matrix(1 0 0 1 370.4011 682.1376)" class="st3 st1 st4">helper</text>
	</g>
</g>
<g id="Layer_2" class="st5">
	<ellipse class="st6" cx="632" cy="342.3" rx="483" ry="155.5"/>
	<ellipse class="st6" cx="58.3" cy="342.8" rx="34.8" ry="44"/>
	<ellipse class="st6" cx="1206.6" cy="342.8" rx="34.8" ry="44"/>
	<ellipse class="st6" cx="632" cy="618.3" rx="483" ry="155.5"/>
	<ellipse class="st7" cx="629.9" cy="126.1" rx="97.9" ry="30.3"/>
	<circle class="st8" cx="532" cy="188.2" r="62.6"/>
	<circle class="st8" cx="728.6" cy="188.2" r="62.6"/>
</g>
</svg>
