<?xml version="1.0" encoding="utf-8"?>
<!-- Generator: Adobe Illustrator 21.1.0, SVG Export Plug-In . SVG Version: 6.00 Build 0)  -->
<svg version="1.1" id="Layer_1" xmlns="http://www.w3.org/2000/svg" xmlns:xlink="http://www.w3.org/1999/xlink" x="0px" y="0px"
	 viewBox="0 0 1262.1 827.6" style="enable-background:new 0 0 1262.1 827.6;" xml:space="preserve">
<style type="text/css">
	.st0{display:none;}
	.st1{display:inline;}
	.st2{fill:#FF2C27;}
	.st3{font-family:'Voltage';}
	.st4{font-size:180px;}
	.st5{fill:#FFFFFF;}
	.st6{font-size:220px;}
	.st7{display:inline;fill:none;stroke:#0055FF;stroke-width:2.67;stroke-miterlimit:10;}
	.st8{display:inline;fill:none;stroke:#0055FF;stroke-width:2.3;stroke-miterlimit:10;}
	.st9{display:inline;fill:none;stroke:#0055FF;stroke-width:2.16;stroke-miterlimit:10;}
</style>
<g id="Layer_1_1_" class="st0">
	<title>Capstone_Branding_draft</title>
	<g id="logo" class="st1">
		<path class="st2" d="M1205.4,297.9l-109.8-0.2c-1.7,0-3.4,0.2-5.1,0.5c-22.8-24.3-69.5-54.5-164.7-79.3
			c-142.2-37-296.2-32-296.2-32s-150.7-2-289.8,30c-100.2,23-148.4,55.2-171.4,81.2c-1-0.1-2.1-0.2-3.1-0.2H55.5
			c-19.5,0-35.5,20.2-35.5,45l0,0c0,24.8,16,45,35.5,45h91.6v230c0,0-8.6,73.2,186.4,124c142.2,37,296.2,32,296.2,32
			s150.7,2,289.8-30c195.9-45,192.7-125,192.7-125V387.7l93.1,0.2c19.6,0,35.6-20.2,35.6-44.9l0,0
			C1240.9,318.2,1225,297.9,1205.4,297.9z M629.6,466.8c-239.9,0-434.4-55.2-434.4-123.3s194.5-123.4,434.4-123.4
			S1064,275.4,1064,343.5S869.5,466.8,629.6,466.8z"/>
		<path class="st2" d="M592.6,188.2c0,29.2-20.3,54.5-48.8,61v0.1c1.1-0.3,2.2-0.5,3.3-0.5h163.4v-0.2
			c-33.4-8.9-53.2-43.2-44.3-76.6c1.9-7,4.9-13.6,9-19.5c30.2-5.2,50.7-15.1,50.7-26.5c0-16.7-43.8-30.3-97.9-30.3s-98,13.6-98,30.4
			c0,11.5,20.9,21.6,51.6,26.7C588.7,163.2,592.6,175.6,592.6,188.2z"/>
	</g>
	<g id="Layer_9" class="st1">
		<text transform="matrix(1 0 0 1 389.951 412.1376)" class="st2 st3 st4">kitchen</text>
		<text transform="matrix(1 0 0 1 370.4011 682.1376)" class="st5 st3 st6">helper</text>
	</g>
</g>
<g>
	<path class="st2" d="M500,312.3c5.8,0,10.1-11.7,10.1-18.5c0-4.5-7.9-7.6-12.4-7.6c-5.9,0-10.1,11.7-10.1,18.5
		C487.6,309.2,495.5,312.3,500,312.3z"/>
	<path class="st2" d="M878.5,359.3c-2.3,0-4,3.2-4,3.2c-8.8,16.2-18.5,30.1-23.9,30.1c-1.6,0-4.7-2.7-4.7-5
		c0-9.5,11.2-44.6,11.2-53.1c0-6.7-9.7-14-15.1-14c-9.4,0-27,10.6-27,10.6s-8.5-10.6-11.5-10.6c-2.7,0-5,1.3-6.1,3.8
		c-2,6.4-6.7,24.5-10.7,40.9c-11.4,20.9-24.9,27.1-34.3,27.1c-7.7,0-15.5-6.7-15.5-11c0-5.8,1.4-8.8,1.4-8.8s8.8,2.5,16.9,2.5
		c11.7,0,23.2-28.8,23.2-37.8c0-7.7-16.6-16.7-25.7-16.7c-13.2,0-28.7,24-34.6,44.1c-8.5,15.3-17.8,28-22.8,28c-1.6,0-4.7-2.7-4.7-5
		c0-9.5,11.2-44.6,11.2-53.1c0-6.7-9.9-14-15.1-14c-10.8,0-25.7,12.1-25.7,12.1s5-17.1,9.4-32.2c0.4-1.4,0.9-3.2,0.9-4.5
		c0-3.1-12.1-9.5-15.5-9.5c-1.4,0-3.1,1.1-3.8,3.8c-3.3,10.1-13.1,46.5-19.9,73.9c-11.9,18.4-27.1,28.4-36.4,28.4
		c-5.9,0-13.7-5.9-13.7-12.4c0-19.8,11.3-47.2,20.9-47.2c2,0,4.1,1.4,4.1,2.7c0,3.4-5.4,10.1-5.4,13.9c0,3.1,6.8,7.6,11.3,7.6
		c3.6,0,9.4-15.1,9.4-20.2c0-7.2-13-16.2-24.8-16.2c-16.2,0-30.8,22.3-35.9,44.2c-8.5,15.3-17.8,28-22.8,28c-5,0-10.1-4.3-10.1-10.1
		c0-4.1,6.7-28.8,12.6-49.1h14.4c2.9,0,6.3-7.2,6.3-9.5c0-1.1-1.1-1.6-2.2-1.6h-15.5l5-16.6c0.4-1.3,0.7-3.2,0.7-4.3
		c0-3.2-11.9-10.1-15.5-10.1c-1.4,0-3.1,1.4-3.8,4c-1.3,4-4.1,14.4-7.6,27h-5c-2.9,0-6.1,7.2-6.1,9.4c0,1.1,1.1,1.8,2,1.8h6.1
		c-2.8,10.7-5.7,21.9-8,31.4c-8.8,15.2-17.8,27.8-22.8,27.8c-1.8,0-4.7-2.7-4.7-5c0-12.6,14.6-53.1,14.6-57.2
		c0-3.4-12.2-9.9-14.4-9.9c-2.7,0-5.2,1.3-5.9,3.8c-1.8,6.4-6.7,24-10.6,39.5c-8.8,15.5-15.5,24.9-20.7,24.9
		c-4.3,0-16.2-17.5-17.5-21.4c0,0,27.7-19.1,27.7-31.1c0-5.8-9.9-15.7-16.4-15.7c-9.4,0-24.7,12.1-24.7,12.1s4.9-17.5,9.2-32
		c0.4-1.6,0.9-3.1,0.9-4.5c0-3.1-11.9-9.7-15.3-9.7c-1.8,0-3.1,1.1-4,3.8c-5.2,16-26.8,99-26.8,105.5c0,4.9,10.3,9.5,14.6,9.5
		c2.9,0,3.2-1.8,3.8-4.1c1.4-5.6,8.6-35.1,13.3-50.4c2.3-7.9,14-14.4,18.4-14.4c2.5,0,5.4,3.1,5.4,6.1c0,4.3-7.2,12.8-21.4,24.1
		c-2.3,1.8-3.6,4.1-3.6,7.2c0,4.7,18.7,31.5,30.2,31.5c8.4,0,15.5-5.5,21.9-13.7c2.3,7.3,16.5,13.7,24,13.7
		c7.7,0,14.6-5.7,20.9-14.1c3.4,7.6,17.7,14.1,28.4,14.1c9.1,0,17-7.8,24.2-18.6c4.4,10.2,18.7,18.6,31.2,18.6
		c11.3,0,23.3-6.2,34-16.4c-0.8,3.6-1.2,6-1.2,6.9c0,4.9,10.6,9.5,14.9,9.5c2.5,0,3.1-1.8,3.8-4.1c1.1-5.6,8.3-35.1,13.1-50.4
		c2.3-7.7,12.8-14.4,17.1-14.4c2.3,0,5.4,3.1,5.4,6.1c0,6.8-9,35.6-9,47.2c0,8.1,15.1,15.7,23.2,15.7c9.1,0,16.8-7.8,24.1-18.5
		c5.6,10.6,22.7,18.5,35.7,18.5c9,0,18.4-4.3,27.2-13c-0.3,1.8-0.5,3.1-0.5,3.6c0,4.9,10.6,9.4,14.8,9.4c2.7,0,3.2-1.8,4-4.1
		c1.1-5.2,9.4-41.6,14-53.5c2.7-6.8,12.8-11.3,16.6-11.3c2.3,0,5.4,3.1,5.4,6.1c0,6.8-10.1,35.6-10.1,47.2
		c0,8.1,16.2,15.7,24.3,15.7c13,0,23.6-16.4,33.5-34.4c0,0,2.3-4.1,2.3-6.3C884.6,362.1,880.9,359.3,878.5,359.3z M758.8,334.4
		c2.5,0,5.4,2,5.4,4.5c0,4.9-7.4,25.4-24.7,25.4C741.2,355.8,751.8,334.4,758.8,334.4z"/>
	<path class="st2" d="M777.8,594.6c0-3.1-3.5-5.5-6.6-5.5c-8.6,0-21.6,26.2-23.5,36.5C768.8,625.7,777.8,600.6,777.8,594.6z"/>
	<path class="st2" d="M533.1,594.6c0-3.1-3.5-5.5-6.6-5.5c-8.6,0-21.6,26.2-23.5,36.5C524.1,625.7,533.1,600.6,533.1,594.6z"/>
	<path class="st2" d="M669.1,589.4c-5.5,0-19.1,10.3-22.4,20c-4.4,12.3-9.9,30.6-9.9,37.8c0,5.9,7.9,12.1,15.2,12.1
		c2.2,0,5.1-2,7-4.4c-4-1.8-6.6-3.7-6.6-6.2c0-4.6,9.2-13.6,14.1-13.6c0.9,0,1.8,0.2,2.6,0.2c4.8-13.4,8.4-28.8,8.4-37.2
		C677.5,593.8,672.6,589.4,669.1,589.4z"/>
	<path class="st2" d="M1129.9,288.9l-94.9-0.2c-1.5,0-3,0.2-4.4,0.5c-19.7-24.4-60-54.5-142.3-79.3c-84.7-25.5-174.3-31.1-221.8-32
		c0.3-12.7,4.3-24.5,11.2-34.3c30.2-5.2,50.7-15.1,50.7-26.5c0-16.7-43.8-30.3-97.9-30.3s-97.9,13.6-97.9,30.3
		c0,11.5,20.9,21.6,51.6,26.7c6.8,9.9,10.8,21.8,11,34.7c-47.3,1.7-132.5,7.9-213.2,29.4c-86.6,23-128.2,55.2-148.1,81.2
		c-0.9-0.1-1.8-0.2-2.7-0.2h-94.9c-16.9,0-30.7,20.2-30.7,45s13.8,45,30.7,45h79.2v230c0,0-7.4,73.3,161,124
		c122.8,37,255.9,32,255.9,32s130.2,2,250.4-30c169.2-45,166.5-125,166.5-125V378.8l80.5,0.2c16.9,0,30.7-20.2,30.8-44.9
		C1160.5,309.2,1146.7,289,1129.9,288.9z M900.3,633.4c-12.1,22-25.1,42-40.9,42c-9.9,0-27.5-8.4-27.5-16.9
		c0-17.2,11.7-48.6,11.7-58.7c0-2.4-8.8-4.2-8.8-4.2s-7.7,18-18.4,37.7c0,0.1-0.1,0.1-0.1,0.1c-15,28.4-34.1,42-51.9,42
		c-17.5,0-40.8-11.6-45.2-26.5c-6.7,5.5-16.1,10.4-28.3,10.4c-2.6,0-8.1-0.2-8.1-0.2c-6.6,8.6-15.4,16.3-24.4,16.3
		c-16.9,0-28.4-10.1-28.4-10.1s-10.8,46.2-12.3,56.8c-0.7,2.9-2,4.8-5.5,4.8c-5.5,0-17.4-5.5-17.4-11.2c0-3.4,5.1-25.2,11.5-51
		c-6.2,6.6-12.9,10.7-20.1,10.7c-9.3,0-29.4-8.2-31.7-17.4c-11.1,11.7-23.2,17.4-34.8,17.4c-15.9,0-36.8-9.7-43.6-22.7
		c-8.8,13.1-18.3,22.7-29.4,22.7c-9.9,0-28.4-9.2-28.4-19.1c0-14.1,11-49.3,11-57.6c0-3.7-3.7-7.5-6.6-7.5c-5.3,0-18,8.1-20.9,17.6
		c-5.9,18.7-14.7,54.8-16.1,61.6c-0.9,2.9-1.5,5.1-4.6,5.1c-5.3,0-18.3-5.7-18.3-11.7c0-7.9,26.6-109.3,33-128.9
		c0.9-3.3,2.9-4.6,4.6-4.6c4.2,0,18.9,7.9,18.9,11.7c0,1.5-0.7,3.7-1.1,5.5c-5.3,18.5-11.4,39.4-11.4,39.4s18.3-14.7,31.5-14.7
		c6.4,0,18.5,9,18.5,17.2c0,10.3-13.6,53.2-13.6,64.9c0,2.9,3.7,6.2,5.7,6.2c6.1,0,17.5-15.5,27.9-34.2c7.2-24.6,26.1-54,42.3-54
		c11.2,0,31.5,11,31.5,20.5c0,11-14.1,46.2-28.4,46.2c-9.9,0-20.7-3.1-20.7-3.1s-1.8,3.7-1.8,10.8c0,5.3,9.5,13.4,18.9,13.4
		c11.4,0,27.8-7.5,41.7-32.9c7.9-31.3,21.2-77.3,26-92.1c1.1-3.3,2.9-4.6,4.6-4.6c4.2,0,18.9,8.1,18.9,11.9c0,1.8-0.4,3.7-0.9,5.5
		c-2.2,7-28.8,96.1-28.8,106.5c0,2.9,6.2,6.2,8.1,6.2c6.3,0,17.3-15.2,27.6-33.7c5.4-20.9,10.5-40,13.3-49.9c0.7-3.1,4-4.6,7-4.6
		c3.7,0,15.4,13,15.4,13s13-13,25.7-13c9.7,0,26,12.3,26,23.5c0,12.8-4,31.5-12.3,48.6c0,0,3.5,0.9,5.7,0.9
		c12.2,0,21.2-13.2,24.5-18.9c7.2-24.6,26.1-54.1,42.3-54.1c11.2,0,31.5,11,31.5,20.5c0,11-14.1,46.2-28.4,46.2
		c-9.9,0-20.7-3.1-20.7-3.1s-1.8,3.7-1.8,10.8c0,5.3,9.5,13.4,18.9,13.4c11.5,0,28.1-7.6,42.2-33.6c0.7-1.5,1.4-2.7,1.4-2.7
		c0,0,0,0,0,0c0-0.1,0.2-0.5,0.5-0.9c7.5-13.8,15.3-33.3,15.3-33.3s-9.2-5.7-9.2-13.2c0-7.5,9.2-24.6,14.7-24.6
		c6.4,0,17.6,7,17.6,12.1c0,4.6-3.3,10.1-3.3,15.8c0,5.5,27.9,7.7,27.9,16.9c0,7.3-12.8,47.5-12.8,60.1c0,2.4,2,4,4,4
		c6.6,0,18.5-16.9,29.3-36.7c0,0,2-4,4.8-4s7.5,3.5,7.5,6.2C903.2,628.3,900.3,633.4,900.3,633.4z M632.3,457.9
		C425,457.9,257,402.6,257,334.5c0-62.9,143.5-114.9,328.9-122.4c-8.7,14.1-22.8,24.4-39.5,28.2v0.1c1-0.3,2.1-0.5,3.3-0.5H713v-0.2
		c-15.6-4.2-28.9-14.2-37.2-27.7c186.8,7.1,331.8,59.2,331.8,122.5C1007.6,402.6,839.6,457.9,632.3,457.9z"/>
</g>
<g id="Layer_2" class="st0">
	<ellipse class="st7" cx="632" cy="342.3" rx="483" ry="155.5"/>
	<ellipse class="st7" cx="58.3" cy="342.8" rx="34.8" ry="44"/>
	<ellipse class="st7" cx="1206.6" cy="342.8" rx="34.8" ry="44"/>
	<ellipse class="st7" cx="632" cy="618.3" rx="483" ry="155.5"/>
	<ellipse class="st8" cx="629.9" cy="126.1" rx="97.9" ry="30.3"/>
	<circle class="st9" cx="532" cy="188.2" r="62.6"/>
	<circle class="st9" cx="728.6" cy="188.2" r="62.6"/>
</g>
</svg>
