<svg xmlns="http://www.w3.org/2000/svg" xmlns:xlink="http://www.w3.org/1999/xlink" viewBox="0 0 1920 1920"><defs><style>.cls-1{fill:url(#linear-gradient);}.cls-11,.cls-13,.cls-15,.cls-17,.cls-19,.cls-2,.cls-21,.cls-23,.cls-27,.cls-9{font-size:44.65px;}.cls-2{fill:#ff6464;}.cls-11,.cls-13,.cls-15,.cls-17,.cls-19,.cls-2,.cls-21,.cls-23,.cls-27,.cls-29,.cls-35,.cls-53,.cls-9{font-family:Lobster1.3, Lobster 1.3;}.cls-3{letter-spacing:0.01em;}.cls-4{letter-spacing:0em;}.cls-5{letter-spacing:0em;}.cls-6{letter-spacing:0.01em;}.cls-7{letter-spacing:0em;}.cls-8{fill:url(#linear-gradient-2);}.cls-9{fill:#ff2c27;}.cls-10{fill:url(#linear-gradient-3);}.cls-11{fill:#c04;}.cls-12{fill:url(#linear-gradient-4);}.cls-13{fill:#ff8864;}.cls-14{fill:url(#linear-gradient-5);}.cls-15{fill:#fff1ee;}.cls-16{fill:url(#linear-gradient-6);}.cls-17{fill:#87003d;}.cls-18{fill:url(#linear-gradient-7);}.cls-19{fill:#ffcab0;}.cls-20{fill:url(#linear-gradient-8);}.cls-21{fill:#f45314;}.cls-22{fill:url(#linear-gradient-9);}.cls-23{fill:#ff3e03;}.cls-24{fill:url(#linear-gradient-10);}.cls-25{fill:url(#linear-gradient-11);}.cls-26{fill:url(#linear-gradient-12);}.cls-27{fill:#ff2c50;}.cls-28,.cls-29,.cls-35,.cls-41,.cls-47,.cls-51,.cls-52,.cls-54,.cls-55,.cls-56,.cls-57,.cls-58,.cls-59,.cls-60,.cls-61,.cls-62,.cls-63,.cls-64,.cls-65,.cls-66,.cls-68{fill:#ff5317;}.cls-29{font-size:50.9px;}.cls-30{letter-spacing:0.01em;}.cls-31{letter-spacing:0em;}.cls-32{letter-spacing:0em;}.cls-33{letter-spacing:0.01em;}.cls-34{letter-spacing:0em;}.cls-35{font-size:57.19px;}.cls-36{letter-spacing:0.01em;}.cls-37{letter-spacing:0em;}.cls-38{letter-spacing:0em;}.cls-39{letter-spacing:0.01em;}.cls-40{letter-spacing:0em;}.cls-41{font-size:41.14px;font-family:Bebas, Bebas;}.cls-42{letter-spacing:0.02em;}.cls-43{letter-spacing:0.02em;}.cls-44{letter-spacing:0.02em;}.cls-45{letter-spacing:0.03em;}.cls-46{letter-spacing:0.01em;}.cls-47{font-size:72.79px;}.cls-47,.cls-49{font-family:Blanch-Caps, Blanch;}.cls-48{letter-spacing:-0.03em;}.cls-49{font-size:59.14px;}.cls-49,.cls-53{fill:#fff;}.cls-50{letter-spacing:-0.05em;}.cls-51{letter-spacing:-0.03em;}.cls-52{letter-spacing:0em;}.cls-53{font-size:45.6px;}.cls-54{letter-spacing:0.01em;}.cls-55{letter-spacing:0em;}.cls-56{letter-spacing:0em;}.cls-57{letter-spacing:0em;}.cls-58{letter-spacing:0.01em;}.cls-59{letter-spacing:0em;}.cls-60{font-size:70px;font-family:Leafy, Leafy;}.cls-61,.cls-65{font-size:56px;}.cls-61{font-family:Playlist-Caps, Playlist;}.cls-62{font-size:80px;font-family:Reckless, Reckless;}.cls-63,.cls-64{font-size:40px;}.cls-63{font-family:BRUX-Regular, BRUX;}.cls-64{font-family:LeSuperSerif-SemiBold, Le Super Serif;}.cls-64,.cls-71,.cls-84{font-weight:700;}.cls-65{font-family:Playlist-Script, Playlist;}.cls-66,.cls-68,.cls-70,.cls-84{font-size:48px;}.cls-66{font-family:Voltage, Voltage;}.cls-67{letter-spacing:-0.02em;}.cls-68{font-family:PraterScriptPro, Prater Script Pro;}.cls-69{letter-spacing:-0.03em;}.cls-70,.cls-84{font-family:Lato-Semibold, Lato;}.cls-72{letter-spacing:-0.01em;}.cls-73{letter-spacing:0em;}.cls-74{letter-spacing:0em;}.cls-75{letter-spacing:-0.01em;}.cls-76{font-size:36px;font-family:Lato-Light, Lato;}.cls-77{letter-spacing:-0.02em;}.cls-78{letter-spacing:-0.01em;}.cls-79{letter-spacing:-0.02em;}.cls-80{letter-spacing:-0.05em;}.cls-81{letter-spacing:0em;}.cls-82{letter-spacing:-0.03em;}.cls-83{letter-spacing:-0.04em;}.cls-85{letter-spacing:-0.03em;}.cls-86{letter-spacing:-0.01em;}.cls-87{letter-spacing:-0.02em;}.cls-88{letter-spacing:0em;}.cls-89{letter-spacing:-0.03em;}.cls-90{letter-spacing:0em;}.cls-91{letter-spacing:-0.01em;}</style><linearGradient id="linear-gradient" x1="958.5" y1="156.65" x2="958.5" y2="530.46" gradientUnits="userSpaceOnUse"><stop offset="0" stop-color="#7c436a"/><stop offset="1" stop-color="#1b1464"/></linearGradient><linearGradient id="linear-gradient-2" x1="1315.5" y1="156.66" x2="1315.5" y2="530.47" gradientUnits="userSpaceOnUse"><stop offset="0" stop-color="#ffb894"/><stop offset="1" stop-color="#00d2e9"/></linearGradient><linearGradient id="linear-gradient-3" x1="1672.5" y1="156.66" x2="1672.5" y2="530.47" gradientUnits="userSpaceOnUse"><stop offset="0" stop-color="#ffd1bf"/><stop offset="1" stop-color="#beaaff"/></linearGradient><linearGradient id="linear-gradient-4" x1="958.5" y1="586.66" x2="958.5" y2="960.47" gradientUnits="userSpaceOnUse"><stop offset="0" stop-color="#8658c3"/><stop offset="1" stop-color="#2042d9"/></linearGradient><linearGradient id="linear-gradient-5" x1="1318.5" y1="586.66" x2="1318.5" y2="960.47" gradientUnits="userSpaceOnUse"><stop offset="0" stop-color="#ffb96a"/><stop offset="1" stop-color="#175be5"/></linearGradient><linearGradient id="linear-gradient-6" x1="1678.5" y1="586.66" x2="1678.5" y2="960.47" gradientUnits="userSpaceOnUse"><stop offset="0" stop-color="#d3afff"/><stop offset="1" stop-color="#94cbff"/></linearGradient><linearGradient id="linear-gradient-7" x1="961.5" y1="1016.66" x2="961.5" y2="1390.47" gradientUnits="userSpaceOnUse"><stop offset="0" stop-color="#009362"/><stop offset="1" stop-color="#002d65"/></linearGradient><linearGradient id="linear-gradient-8" x1="1321.5" y1="1016.66" x2="1321.5" y2="1390.47" gradientUnits="userSpaceOnUse"><stop offset="0" stop-color="#f4ffb7"/><stop offset="1" stop-color="#5cb07a"/></linearGradient><linearGradient id="linear-gradient-9" x1="1681.5" y1="1016.5" x2="1681.5" y2="1390.32" gradientUnits="userSpaceOnUse"><stop offset="0" stop-color="#adffde"/><stop offset="1" stop-color="#3db0cb"/></linearGradient><linearGradient id="linear-gradient-10" x1="951.5" y1="1446.59" x2="951.5" y2="1820.4" gradientUnits="userSpaceOnUse"><stop offset="0" stop-color="#c6ffeb"/><stop offset="1" stop-color="#4cc5e3"/></linearGradient><linearGradient id="linear-gradient-11" x1="1315.5" y1="1447.59" x2="1315.5" y2="1821.41" gradientUnits="userSpaceOnUse"><stop offset="0" stop-color="#ffe1d6"/><stop offset="1" stop-color="#a6ffff"/></linearGradient><linearGradient id="linear-gradient-12" x1="1679.5" y1="1447.59" x2="1679.5" y2="1821.41" gradientUnits="userSpaceOnUse"><stop offset="0" stop-color="#edd8ff"/><stop offset="1" stop-color="#8defff"/></linearGradient></defs><title>Capstone_Branding_draft</title><g id="color_combos" data-name="color combos"><rect class="cls-1" x="818" y="156.65" width="281" height="373.82" rx="19.92" ry="19.92"/><text class="cls-2" transform="translate(897.52 310.31)">Kit<tspan class="cls-3" x="51.88" y="0">c</tspan><tspan class="cls-4" x="68.31" y="0">h</tspan><tspan x="91.08" y="0">en</tspan><tspan x="8.73" y="53.58">H</tspan><tspan class="cls-5" x="36.9" y="53.58">e</tspan><tspan x="52.71" y="53.58">l</tspan><tspan class="cls-6" x="65.47" y="53.58">p</tspan><tspan class="cls-7" x="86.37" y="53.58">e</tspan><tspan x="102.26" y="53.58">r</tspan></text><rect class="cls-8" x="1175" y="156.66" width="281" height="373.82" rx="19.92" ry="19.92"/><text class="cls-9" transform="translate(1254.52 310.32)">Kit<tspan class="cls-3" x="51.88" y="0">c</tspan><tspan class="cls-4" x="68.31" y="0">h</tspan><tspan x="91.08" y="0">en</tspan><tspan x="8.73" y="53.58">H</tspan><tspan class="cls-5" x="36.9" y="53.58">e</tspan><tspan x="52.71" y="53.58">l</tspan><tspan class="cls-6" x="65.47" y="53.58">p</tspan><tspan class="cls-7" x="86.37" y="53.58">e</tspan><tspan x="102.26" y="53.58">r</tspan></text><rect class="cls-10" x="1532" y="156.66" width="281" height="373.82" rx="19.92" ry="19.92"/><text class="cls-11" transform="translate(1611.52 310.32)">Kit<tspan class="cls-3" x="51.88" y="0">c</tspan><tspan class="cls-4" x="68.31" y="0">h</tspan><tspan x="91.08" y="0">en</tspan><tspan x="8.73" y="53.58">H</tspan><tspan class="cls-5" x="36.9" y="53.58">e</tspan><tspan x="52.71" y="53.58">l</tspan><tspan class="cls-6" x="65.47" y="53.58">p</tspan><tspan class="cls-7" x="86.37" y="53.58">e</tspan><tspan x="102.26" y="53.58">r</tspan></text><rect class="cls-12" x="818" y="586.66" width="281" height="373.82" rx="19.92" ry="19.92"/><text class="cls-13" transform="translate(897.52 740.32)">Kit<tspan class="cls-3" x="51.88" y="0">c</tspan><tspan class="cls-4" x="68.31" y="0">h</tspan><tspan x="91.08" y="0">en</tspan><tspan x="8.73" y="53.58">H</tspan><tspan class="cls-5" x="36.9" y="53.58">e</tspan><tspan x="52.71" y="53.58">l</tspan><tspan class="cls-6" x="65.47" y="53.58">p</tspan><tspan class="cls-7" x="86.37" y="53.58">e</tspan><tspan x="102.26" y="53.58">r</tspan></text><rect class="cls-14" x="1178" y="586.66" width="281" height="373.82" rx="19.92" ry="19.92"/><text class="cls-15" transform="translate(1257.52 740.32)">Kit<tspan class="cls-3" x="51.88" y="0">c</tspan><tspan class="cls-4" x="68.31" y="0">h</tspan><tspan x="91.08" y="0">en</tspan><tspan x="8.73" y="53.58">H</tspan><tspan class="cls-5" x="36.9" y="53.58">e</tspan><tspan x="52.71" y="53.58">l</tspan><tspan class="cls-6" x="65.47" y="53.58">p</tspan><tspan class="cls-7" x="86.37" y="53.58">e</tspan><tspan x="102.26" y="53.58">r</tspan></text><rect class="cls-16" x="1538" y="586.66" width="281" height="373.82" rx="19.92" ry="19.92"/><text class="cls-17" transform="translate(1617.52 740.32)">Kit<tspan class="cls-3" x="51.88" y="0">c</tspan><tspan class="cls-4" x="68.31" y="0">h</tspan><tspan x="91.08" y="0">en</tspan><tspan x="8.73" y="53.58">H</tspan><tspan class="cls-5" x="36.9" y="53.58">e</tspan><tspan x="52.71" y="53.58">l</tspan><tspan class="cls-6" x="65.47" y="53.58">p</tspan><tspan class="cls-7" x="86.37" y="53.58">e</tspan><tspan x="102.26" y="53.58">r</tspan></text><rect class="cls-18" x="821" y="1016.66" width="281" height="373.82" rx="19.92" ry="19.92"/><text class="cls-19" transform="translate(900.52 1170.32)">Kit<tspan class="cls-3" x="51.88" y="0">c</tspan><tspan class="cls-4" x="68.31" y="0">h</tspan><tspan x="91.08" y="0">en</tspan><tspan x="8.73" y="53.58">H</tspan><tspan class="cls-5" x="36.9" y="53.58">e</tspan><tspan x="52.71" y="53.58">l</tspan><tspan class="cls-6" x="65.47" y="53.58">p</tspan><tspan class="cls-7" x="86.37" y="53.58">e</tspan><tspan x="102.26" y="53.58">r</tspan></text><rect class="cls-20" x="1181" y="1016.66" width="281" height="373.82" rx="19.92" ry="19.92"/><text class="cls-21" transform="translate(1260.52 1170.32)">Kit<tspan class="cls-3" x="51.88" y="0">c</tspan><tspan class="cls-4" x="68.31" y="0">h</tspan><tspan x="91.08" y="0">en</tspan><tspan x="8.73" y="53.58">H</tspan><tspan class="cls-5" x="36.9" y="53.58">e</tspan><tspan x="52.71" y="53.58">l</tspan><tspan class="cls-6" x="65.47" y="53.58">p</tspan><tspan class="cls-7" x="86.37" y="53.58">e</tspan><tspan x="102.26" y="53.58">r</tspan></text><rect class="cls-22" x="1541" y="1016.5" width="281" height="373.82" rx="19.92" ry="19.92"/><text class="cls-23" transform="translate(1620.52 1170.16)">Kit<tspan class="cls-3" x="51.88" y="0">c</tspan><tspan class="cls-4" x="68.31" y="0">h</tspan><tspan x="91.08" y="0">en</tspan><tspan x="8.73" y="53.58">H</tspan><tspan class="cls-5" x="36.9" y="53.58">e</tspan><tspan x="52.71" y="53.58">l</tspan><tspan class="cls-6" x="65.47" y="53.58">p</tspan><tspan class="cls-7" x="86.37" y="53.58">e</tspan><tspan x="102.26" y="53.58">r</tspan></text><rect class="cls-24" x="811" y="1446.59" width="281" height="373.82" rx="19.92" ry="19.92"/><text class="cls-23" transform="translate(890.52 1600.25)">Kit<tspan class="cls-3" x="51.88" y="0">c</tspan><tspan class="cls-4" x="68.31" y="0">h</tspan><tspan x="91.08" y="0">en</tspan><tspan x="8.73" y="53.58">H</tspan><tspan class="cls-5" x="36.9" y="53.58">e</tspan><tspan x="52.71" y="53.58">l</tspan><tspan class="cls-6" x="65.47" y="53.58">p</tspan><tspan class="cls-7" x="86.37" y="53.58">e</tspan><tspan x="102.26" y="53.58">r</tspan></text><rect class="cls-25" x="1175" y="1447.59" width="281" height="373.82" rx="19.92" ry="19.92"/><text class="cls-9" transform="translate(1254.52 1601.25)">Kit<tspan class="cls-3" x="51.88" y="0">c</tspan><tspan class="cls-4" x="68.31" y="0">h</tspan><tspan x="91.08" y="0">en</tspan><tspan x="8.73" y="53.58">H</tspan><tspan class="cls-5" x="36.9" y="53.58">e</tspan><tspan x="52.71" y="53.58">l</tspan><tspan class="cls-6" x="65.47" y="53.58">p</tspan><tspan class="cls-7" x="86.37" y="53.58">e</tspan><tspan x="102.26" y="53.58">r</tspan></text><rect class="cls-26" x="1539" y="1447.59" width="281" height="373.82" rx="19.92" ry="19.92"/><text class="cls-27" transform="translate(1618.52 1601.25)">Kit<tspan class="cls-3" x="51.88" y="0">c</tspan><tspan class="cls-4" x="68.31" y="0">h</tspan><tspan x="91.08" y="0">en</tspan><tspan x="8.73" y="53.58">H</tspan><tspan class="cls-5" x="36.9" y="53.58">e</tspan><tspan x="52.71" y="53.58">l</tspan><tspan class="cls-6" x="65.47" y="53.58">p</tspan><tspan class="cls-7" x="86.37" y="53.58">e</tspan><tspan x="102.26" y="53.58">r</tspan></text></g><g id="logos"><path class="cls-28" d="M769.57,671.17H761a1.43,1.43,0,0,0-1.43,1.43v37.83a1.43,1.43,0,0,1-1.43,1.43h0a1.43,1.43,0,0,1-1.43-1.43V666.87a1.43,1.43,0,0,0-1.43-1.43H744.92a1.43,1.43,0,0,0-1.43,1.43v43.57a1.43,1.43,0,0,1-1.43,1.43h0a1.43,1.43,0,0,1-1.43-1.43v-47a1.43,1.43,0,0,0-1.43-1.43h-9.75a1.43,1.43,0,0,0-1.43,1.43v47a1.43,1.43,0,0,1-1.43,1.43h0a1.43,1.43,0,0,1-1.43-1.43V666.87a1.43,1.43,0,0,0-1.43-1.43H714a1.43,1.43,0,0,0-1.43,1.43v43.57a1.43,1.43,0,0,1-1.43,1.43h0a1.43,1.43,0,0,1-1.43-1.43v-17.2a1.43,1.43,0,0,0-1.43-1.43H696.76a1.43,1.43,0,0,0-1.43,1.43v39a1.43,1.43,0,0,0,1.43,1.43h27.53a1.43,1.43,0,0,1,1.43,1.42l.55,105.5a1.43,1.43,0,0,0,1.43,1.42h13.76a1.43,1.43,0,0,0,1.43-1.44l-.55-105.46a1.43,1.43,0,0,1,1.43-1.44h25.79a1.43,1.43,0,0,0,1.43-1.43V672.61A1.43,1.43,0,0,0,769.57,671.17Z"/><text class="cls-29" transform="translate(436.11 1518.83)">Kit<tspan class="cls-30" x="59.15" y="0">c</tspan><tspan class="cls-31" x="77.88" y="0">h</tspan><tspan x="103.84" y="0">en</tspan><tspan x="0" y="81.44">H</tspan><tspan class="cls-32" x="32.12" y="81.44">e</tspan><tspan x="50.14" y="81.44">l</tspan><tspan class="cls-33" x="64.7" y="81.44">p</tspan><tspan class="cls-34" x="88.52" y="81.44">e</tspan><tspan x="106.64" y="81.44">r</tspan></text><path class="cls-28" d="M593.57,1575l75.25,2.92a2.49,2.49,0,0,0,2.58-2.49V1506a2.49,2.49,0,0,0-2.58-2.49l-75.25,2.92a2.49,2.49,0,0,0-2.39,2.49V1532a2.49,2.49,0,0,1-2.49,2.49H501.58a2.49,2.49,0,0,1-2.49-2.49v-.62a2.49,2.49,0,0,0-2.49-2.49H432a2.49,2.49,0,0,0-2.49,2.49v18a2.49,2.49,0,0,0,2.49,2.49H496.6a2.49,2.49,0,0,0,2.49-2.49h0a2.49,2.49,0,0,1,2.49-2.49H588.7a2.49,2.49,0,0,1,2.49,2.49v23.1A2.49,2.49,0,0,0,593.57,1575Zm69.13-11.29v.62a2.49,2.49,0,0,1-2.49,2.49h-54.1a2.49,2.49,0,0,1-2.49-2.49v-.62a2.49,2.49,0,0,1,2.49-2.49h54.1A2.49,2.49,0,0,1,662.7,1563.69Zm0-14.93v.62a2.49,2.49,0,0,1-2.49,2.49h-54.1a2.49,2.49,0,0,1-2.49-2.49v-.62a2.49,2.49,0,0,1,2.49-2.49h54.1A2.49,2.49,0,0,1,662.7,1548.76Zm-59.08-30.47v-.62a2.49,2.49,0,0,1,2.49-2.49h54.1a2.49,2.49,0,0,1,2.49,2.49v.62a2.49,2.49,0,0,1-2.49,2.49h-54.1A2.49,2.49,0,0,1,603.62,1518.29Zm2.49,11.82h54.1a2.49,2.49,0,0,1,2.49,2.49v.62a2.49,2.49,0,0,1-2.49,2.49h-54.1a2.49,2.49,0,0,1-2.49-2.49v-.62A2.49,2.49,0,0,1,606.11,1530.11Z"/><path class="cls-28" d="M605.8,532.16l1.88-48.55a1.61,1.61,0,0,0-1.6-1.67H561.26a1.61,1.61,0,0,0-1.6,1.67l1.88,48.55a1.61,1.61,0,0,0,1.6,1.54h14.91a1.61,1.61,0,0,1,1.61,1.61v56.21a1.61,1.61,0,0,1-1.61,1.61h-.4a1.61,1.61,0,0,0-1.61,1.61v41.67a1.61,1.61,0,0,0,1.61,1.61h11.64a1.61,1.61,0,0,0,1.61-1.61V594.73a1.61,1.61,0,0,0-1.61-1.61h0a1.61,1.61,0,0,1-1.61-1.61V535.31a1.61,1.61,0,0,1,1.61-1.61H604.2A1.61,1.61,0,0,0,605.8,532.16Zm-7.28-44.6h.4a1.61,1.61,0,0,1,1.61,1.61v34.91a1.61,1.61,0,0,1-1.61,1.61h-.4a1.61,1.61,0,0,1-1.61-1.61V489.16A1.61,1.61,0,0,1,598.52,487.56Zm-9.63,0h.4a1.61,1.61,0,0,1,1.61,1.61v34.91a1.61,1.61,0,0,1-1.61,1.61h-.4a1.61,1.61,0,0,1-1.61-1.61V489.16A1.61,1.61,0,0,1,588.89,487.56Zm-19.66,38.12h-.4a1.61,1.61,0,0,1-1.61-1.61V489.16a1.61,1.61,0,0,1,1.61-1.61h.4a1.61,1.61,0,0,1,1.61,1.61v34.91A1.61,1.61,0,0,1,569.22,525.68Zm7.62-1.61V489.16a1.61,1.61,0,0,1,1.61-1.61h.4a1.61,1.61,0,0,1,1.61,1.61v34.91a1.61,1.61,0,0,1-1.61,1.61h-.4A1.61,1.61,0,0,1,576.85,524.07Z"/><text class="cls-35" transform="translate(400.87 582.53)">Kit<tspan class="cls-36" x="66.45" y="0">c</tspan><tspan class="cls-37" x="87.49" y="0">h</tspan><tspan x="116.66" y="0" xml:space="preserve">en   H</tspan><tspan class="cls-38" x="237.95" y="0">e</tspan><tspan x="258.19" y="0">l</tspan><tspan class="cls-39" x="274.55" y="0">p</tspan><tspan class="cls-40" x="301.31" y="0">e</tspan><tspan x="321.67" y="0">r</tspan></text><text class="cls-41" transform="translate(81 536.63)"><tspan class="cls-42">K</tspan><tspan class="cls-43" x="23.93" y="0">i</tspan><tspan x="33.9" y="0">t</tspan><tspan class="cls-44" x="54.93" y="0">c</tspan><tspan class="cls-45" x="76.97" y="0">h</tspan><tspan x="99.61" y="0">en </tspan><tspan class="cls-45" x="10.58" y="79.23">H</tspan><tspan x="33.22" y="79.23">el</tspan><tspan class="cls-46" x="71.59" y="79.23">p</tspan><tspan x="93.36" y="79.23">er</tspan></text><path class="cls-28" d="M237.49,593.35l77,3a2.55,2.55,0,0,0,2.65-2.55V522.67a2.55,2.55,0,0,0-2.65-2.55l-77,3a2.55,2.55,0,0,0-2.45,2.55v23.66a2.55,2.55,0,0,1-2.55,2.55H143.3a2.55,2.55,0,0,1-2.55-2.55v-.64a2.55,2.55,0,0,0-2.55-2.55H72.09a2.55,2.55,0,0,0-2.55,2.55v18.47a2.55,2.55,0,0,0,2.55,2.55h66.12a2.55,2.55,0,0,0,2.55-2.55h0a2.55,2.55,0,0,1,2.55-2.55h89.2a2.55,2.55,0,0,1,2.55,2.55V590.8A2.55,2.55,0,0,0,237.49,593.35Zm70.78-11.56v.64a2.55,2.55,0,0,1-2.55,2.55h-55.4a2.55,2.55,0,0,1-2.55-2.55v-.64a2.55,2.55,0,0,1,2.55-2.55h55.4A2.55,2.55,0,0,1,308.27,581.79Zm0-15.28v.64a2.55,2.55,0,0,1-2.55,2.55h-55.4a2.55,2.55,0,0,1-2.55-2.55v-.64a2.55,2.55,0,0,1,2.55-2.55h55.4A2.55,2.55,0,0,1,308.27,566.51Zm-60.49-31.2v-.64a2.55,2.55,0,0,1,2.55-2.55h55.4a2.55,2.55,0,0,1,2.55,2.55v.64a2.55,2.55,0,0,1-2.55,2.55h-55.4A2.55,2.55,0,0,1,247.78,535.31Zm2.55,12.1h55.4a2.55,2.55,0,0,1,2.55,2.55v.64a2.55,2.55,0,0,1-2.55,2.55h-55.4a2.55,2.55,0,0,1-2.55-2.55V550A2.55,2.55,0,0,1,250.33,547.41Z"/><path class="cls-28" d="M633.53,455.41l97.25,3.77a3.21,3.21,0,0,0,3.34-3.21V366.21a3.21,3.21,0,0,0-3.34-3.21l-97.25,3.77a3.21,3.21,0,0,0-3.09,3.21v29.86a3.21,3.21,0,0,1-3.21,3.21H514.64a3.21,3.21,0,0,1-3.21-3.21V399a3.21,3.21,0,0,0-3.21-3.21H424.76a3.21,3.21,0,0,0-3.21,3.21v23.31a3.21,3.21,0,0,0,3.21,3.21h83.45a3.21,3.21,0,0,0,3.21-3.21h0a3.21,3.21,0,0,1,3.21-3.21H627.22a3.21,3.21,0,0,1,3.21,3.21V452.2A3.21,3.21,0,0,0,633.53,455.41Zm89.33-14.59v.8a3.21,3.21,0,0,1-3.21,3.21H649.72a3.21,3.21,0,0,1-3.21-3.21v-.8a3.21,3.21,0,0,1,3.21-3.21h69.92A3.21,3.21,0,0,1,722.86,440.82Zm0-19.29v.8a3.21,3.21,0,0,1-3.21,3.21H649.72a3.21,3.21,0,0,1-3.21-3.21v-.8a3.21,3.21,0,0,1,3.21-3.21h69.92A3.21,3.21,0,0,1,722.86,421.53Zm-76.35-39.38v-.8a3.21,3.21,0,0,1,3.21-3.21h69.92a3.21,3.21,0,0,1,3.21,3.21v.8a3.21,3.21,0,0,1-3.21,3.21H649.72A3.21,3.21,0,0,1,646.51,382.15Zm3.21,15.27h69.92a3.21,3.21,0,0,1,3.21,3.21v.8a3.21,3.21,0,0,1-3.21,3.21H649.72a3.21,3.21,0,0,1-3.21-3.21v-.8A3.21,3.21,0,0,1,649.72,397.42Z"/><text class="cls-47" transform="translate(73.89 742.89)">Ki<tspan class="cls-48" x="33.55" y="0">t</tspan><tspan x="49.49" y="0">chen</tspan><tspan x="7.53" y="77.45">Helper</tspan></text><path class="cls-28" d="M225.27,797l75.15,2.91a2.48,2.48,0,0,0,2.58-2.48V728.05a2.48,2.48,0,0,0-2.58-2.48l-75.15,2.91a2.48,2.48,0,0,0-2.39,2.48V754a2.48,2.48,0,0,1-2.48,2.48h-87a2.48,2.48,0,0,1-2.48-2.48v-.62a2.48,2.48,0,0,0-2.48-2.48H63.94a2.48,2.48,0,0,0-2.48,2.48v18a2.48,2.48,0,0,0,2.48,2.48h64.49a2.48,2.48,0,0,0,2.48-2.48h0a2.48,2.48,0,0,1,2.48-2.48h87a2.48,2.48,0,0,1,2.48,2.48V794.5A2.48,2.48,0,0,0,225.27,797Zm69-11.27v.62a2.48,2.48,0,0,1-2.48,2.48h-54a2.48,2.48,0,0,1-2.48-2.48v-.62a2.48,2.48,0,0,1,2.48-2.48h54A2.48,2.48,0,0,1,294.3,785.72Zm0-14.91v.62a2.48,2.48,0,0,1-2.48,2.48h-54a2.48,2.48,0,0,1-2.48-2.48v-.62a2.48,2.48,0,0,1,2.48-2.48h54A2.48,2.48,0,0,1,294.3,770.81Zm-59-30.43v-.62a2.48,2.48,0,0,1,2.48-2.48h54a2.48,2.48,0,0,1,2.48,2.48v.62a2.48,2.48,0,0,1-2.48,2.48h-54A2.48,2.48,0,0,1,235.3,740.38Zm2.48,11.8h54a2.48,2.48,0,0,1,2.48,2.48v.62a2.48,2.48,0,0,1-2.48,2.48h-54a2.48,2.48,0,0,1-2.48-2.48v-.62A2.48,2.48,0,0,1,237.79,752.18Z"/><path class="cls-28" d="M438,717.76c1.85-4.18,12-28,5.5-34.53-5.79-5.79-11.13-1.78-11.13-1.78s0-4.45-9.35-4.45-8.9,4.45-8.9,4.45-6.23-3.56-11.13,1.78c-7,7.65,3.53,30.49,5.48,34.54a2.62,2.62,0,0,0-1.48,2.36v8.1a2.63,2.63,0,0,0,2.63,2.63h27.24a2.63,2.63,0,0,0,2.63-2.63v-8.1A2.62,2.62,0,0,0,438,717.76Z"/><text class="cls-49" transform="translate(414.7 721.56)">K<tspan class="cls-50" x="18.57" y="0"> </tspan><tspan x="24.13" y="0"> </tspan><tspan class="cls-28" x="32.65" y="0">i</tspan><tspan class="cls-51" x="41.34" y="0">t</tspan><tspan class="cls-52" x="54.29" y="0">chenHelper</tspan></text><path class="cls-28" d="M438,815.81c1.85-4.18,12-28,5.5-34.53-5.79-5.79-11.13-1.78-11.13-1.78s0-4.45-9.35-4.45-8.9,4.45-8.9,4.45-6.23-3.56-11.13,1.78c-7,7.65,3.53,30.49,5.48,34.54a2.62,2.62,0,0,0-1.48,2.36v8.1a2.63,2.63,0,0,0,2.63,2.63h27.24a2.63,2.63,0,0,0,2.63-2.63v-8.1A2.62,2.62,0,0,0,438,815.81Z"/><text class="cls-53" transform="translate(408.18 821.13)">K <tspan class="cls-28" x="37.3" y="0">it</tspan><tspan class="cls-54" x="62.89" y="0">c</tspan><tspan class="cls-55" x="79.67" y="0">h</tspan><tspan class="cls-28" x="102.92" y="0">enH</tspan><tspan class="cls-56" x="169.96" y="0">e</tspan><tspan class="cls-57" x="186.1" y="0">l</tspan><tspan class="cls-58" x="199.15" y="0">p</tspan><tspan class="cls-59" x="220.49" y="0">e</tspan><tspan class="cls-28" x="236.72" y="0">r</tspan></text><text class="cls-60" transform="translate(61.94 927.83)">Kitchen<tspan x="11.16" y="86">Helper</tspan></text><path class="cls-28" d="M225.57,980l75.25,2.92a2.49,2.49,0,0,0,2.58-2.49V911a2.49,2.49,0,0,0-2.58-2.49l-75.25,2.92a2.49,2.49,0,0,0-2.39,2.49V937a2.49,2.49,0,0,1-2.49,2.49H133.58a2.49,2.49,0,0,1-2.49-2.49v-.62a2.49,2.49,0,0,0-2.49-2.49H64a2.49,2.49,0,0,0-2.49,2.49v18A2.49,2.49,0,0,0,64,956.87H128.6a2.49,2.49,0,0,0,2.49-2.49h0a2.49,2.49,0,0,1,2.49-2.49H220.7a2.49,2.49,0,0,1,2.49,2.49v23.1A2.49,2.49,0,0,0,225.57,980Zm69.13-11.29v.62a2.49,2.49,0,0,1-2.49,2.49h-54.1a2.49,2.49,0,0,1-2.49-2.49v-.62a2.49,2.49,0,0,1,2.49-2.49h54.1A2.49,2.49,0,0,1,294.7,968.69Zm0-14.93v.62a2.49,2.49,0,0,1-2.49,2.49h-54.1a2.49,2.49,0,0,1-2.49-2.49v-.62a2.49,2.49,0,0,1,2.49-2.49h54.1A2.49,2.49,0,0,1,294.7,953.76Zm-59.08-30.47v-.62a2.49,2.49,0,0,1,2.49-2.49h54.1a2.49,2.49,0,0,1,2.49,2.49v.62a2.49,2.49,0,0,1-2.49,2.49h-54.1A2.49,2.49,0,0,1,235.62,923.29Zm2.49,11.82h54.1a2.49,2.49,0,0,1,2.49,2.49v.62a2.49,2.49,0,0,1-2.49,2.49h-54.1a2.49,2.49,0,0,1-2.49-2.49v-.62A2.49,2.49,0,0,1,238.11,935.11Z"/><text class="cls-61" transform="translate(96.56 1521.83)">Kitchen<tspan x="13.97" y="84">Helper</tspan></text><path class="cls-28" d="M256.57,1575l75.25,2.92a2.49,2.49,0,0,0,2.58-2.49V1506a2.49,2.49,0,0,0-2.58-2.49l-75.25,2.92a2.49,2.49,0,0,0-2.39,2.49V1532a2.49,2.49,0,0,1-2.49,2.49H164.58a2.49,2.49,0,0,1-2.49-2.49v-.62a2.49,2.49,0,0,0-2.49-2.49H95a2.49,2.49,0,0,0-2.49,2.49v18a2.49,2.49,0,0,0,2.49,2.49H159.6a2.49,2.49,0,0,0,2.49-2.49h0a2.49,2.49,0,0,1,2.49-2.49H251.7a2.49,2.49,0,0,1,2.49,2.49v23.1A2.49,2.49,0,0,0,256.57,1575Zm69.13-11.29v.62a2.49,2.49,0,0,1-2.49,2.49h-54.1a2.49,2.49,0,0,1-2.49-2.49v-.62a2.49,2.49,0,0,1,2.49-2.49h54.1A2.49,2.49,0,0,1,325.7,1563.69Zm0-14.93v.62a2.49,2.49,0,0,1-2.49,2.49h-54.1a2.49,2.49,0,0,1-2.49-2.49v-.62a2.49,2.49,0,0,1,2.49-2.49h54.1A2.49,2.49,0,0,1,325.7,1548.76Zm-59.08-30.47v-.62a2.49,2.49,0,0,1,2.49-2.49h54.1a2.49,2.49,0,0,1,2.49,2.49v.62a2.49,2.49,0,0,1-2.49,2.49h-54.1A2.49,2.49,0,0,1,266.62,1518.29Zm2.49,11.82h54.1a2.49,2.49,0,0,1,2.49,2.49v.62a2.49,2.49,0,0,1-2.49,2.49h-54.1a2.49,2.49,0,0,1-2.49-2.49v-.62A2.49,2.49,0,0,1,269.11,1530.11Z"/><text class="cls-62" transform="translate(429.47 964.83)">Kitchen<tspan x="8.56" y="96">Helper</tspan></text><path class="cls-28" d="M587.57,1017l75.25,2.92a2.49,2.49,0,0,0,2.58-2.49V948a2.49,2.49,0,0,0-2.58-2.49l-75.25,2.92a2.49,2.49,0,0,0-2.39,2.49V974a2.49,2.49,0,0,1-2.49,2.49H495.58a2.49,2.49,0,0,1-2.49-2.49v-.62a2.49,2.49,0,0,0-2.49-2.49H426a2.49,2.49,0,0,0-2.49,2.49v18a2.49,2.49,0,0,0,2.49,2.49H490.6a2.49,2.49,0,0,0,2.49-2.49h0a2.49,2.49,0,0,1,2.49-2.49H582.7a2.49,2.49,0,0,1,2.49,2.49v23.1A2.49,2.49,0,0,0,587.57,1017Zm69.13-11.29v.62a2.49,2.49,0,0,1-2.49,2.49h-54.1a2.49,2.49,0,0,1-2.49-2.49v-.62a2.49,2.49,0,0,1,2.49-2.49h54.1A2.49,2.49,0,0,1,656.7,1005.69Zm0-14.93v.62a2.49,2.49,0,0,1-2.49,2.49h-54.1a2.49,2.49,0,0,1-2.49-2.49v-.62a2.49,2.49,0,0,1,2.49-2.49h54.1A2.49,2.49,0,0,1,656.7,990.76Zm-59.08-30.47v-.62a2.49,2.49,0,0,1,2.49-2.49h54.1a2.49,2.49,0,0,1,2.49,2.49v.62a2.49,2.49,0,0,1-2.49,2.49h-54.1A2.49,2.49,0,0,1,597.62,960.29Zm2.49,11.82h54.1a2.49,2.49,0,0,1,2.49,2.49v.62a2.49,2.49,0,0,1-2.49,2.49h-54.1a2.49,2.49,0,0,1-2.49-2.49v-.62A2.49,2.49,0,0,1,600.11,972.11Z"/><text class="cls-63" transform="translate(428.71 1134.83)">Kitchen<tspan x="7.08" y="72">Helper</tspan></text><path class="cls-28" d="M586.57,1195l75.25,2.92a2.49,2.49,0,0,0,2.58-2.49V1126a2.49,2.49,0,0,0-2.58-2.49l-75.25,2.92a2.49,2.49,0,0,0-2.39,2.49V1152a2.49,2.49,0,0,1-2.49,2.49H494.58a2.49,2.49,0,0,1-2.49-2.49v-.62a2.49,2.49,0,0,0-2.49-2.49H425a2.49,2.49,0,0,0-2.49,2.49v18a2.49,2.49,0,0,0,2.49,2.49H489.6a2.49,2.49,0,0,0,2.49-2.49h0a2.49,2.49,0,0,1,2.49-2.49H581.7a2.49,2.49,0,0,1,2.49,2.49v23.1A2.49,2.49,0,0,0,586.57,1195Zm69.13-11.29v.62a2.49,2.49,0,0,1-2.49,2.49h-54.1a2.49,2.49,0,0,1-2.49-2.49v-.62a2.49,2.49,0,0,1,2.49-2.49h54.1A2.49,2.49,0,0,1,655.7,1183.69Zm0-14.93v.62a2.49,2.49,0,0,1-2.49,2.49h-54.1a2.49,2.49,0,0,1-2.49-2.49v-.62a2.49,2.49,0,0,1,2.49-2.49h54.1A2.49,2.49,0,0,1,655.7,1168.76Zm-59.08-30.47v-.62a2.49,2.49,0,0,1,2.49-2.49h54.1a2.49,2.49,0,0,1,2.49,2.49v.62a2.49,2.49,0,0,1-2.49,2.49h-54.1A2.49,2.49,0,0,1,596.62,1138.29Zm2.49,11.82h54.1a2.49,2.49,0,0,1,2.49,2.49v.62a2.49,2.49,0,0,1-2.49,2.49h-54.1a2.49,2.49,0,0,1-2.49-2.49v-.62A2.49,2.49,0,0,1,599.11,1150.11Z"/><text class="cls-64" transform="translate(65.17 1128.83)">Kitchen<tspan x="6.74" y="72">Helper</tspan></text><path class="cls-28" d="M225.57,1182l75.25,2.92a2.49,2.49,0,0,0,2.58-2.49V1113a2.49,2.49,0,0,0-2.58-2.49l-75.25,2.92a2.49,2.49,0,0,0-2.39,2.49V1139a2.49,2.49,0,0,1-2.49,2.49H133.58a2.49,2.49,0,0,1-2.49-2.49v-.62a2.49,2.49,0,0,0-2.49-2.49H64a2.49,2.49,0,0,0-2.49,2.49v18a2.49,2.49,0,0,0,2.49,2.49H128.6a2.49,2.49,0,0,0,2.49-2.49h0a2.49,2.49,0,0,1,2.49-2.49H220.7a2.49,2.49,0,0,1,2.49,2.49v23.1A2.49,2.49,0,0,0,225.57,1182Zm69.13-11.29v.62a2.49,2.49,0,0,1-2.49,2.49h-54.1a2.49,2.49,0,0,1-2.49-2.49v-.62a2.49,2.49,0,0,1,2.49-2.49h54.1A2.49,2.49,0,0,1,294.7,1170.69Zm0-14.93v.62a2.49,2.49,0,0,1-2.49,2.49h-54.1a2.49,2.49,0,0,1-2.49-2.49v-.62a2.49,2.49,0,0,1,2.49-2.49h54.1A2.49,2.49,0,0,1,294.7,1155.76Zm-59.08-30.47v-.62a2.49,2.49,0,0,1,2.49-2.49h54.1a2.49,2.49,0,0,1,2.49,2.49v.62a2.49,2.49,0,0,1-2.49,2.49h-54.1A2.49,2.49,0,0,1,235.62,1125.29Zm2.49,11.82h54.1a2.49,2.49,0,0,1,2.49,2.49v.62a2.49,2.49,0,0,1-2.49,2.49h-54.1a2.49,2.49,0,0,1-2.49-2.49v-.62A2.49,2.49,0,0,1,238.11,1137.11Z"/><text class="cls-65" transform="translate(111.84 1725.83)">Kitchen<tspan x="3.61" y="88">Helper</tspan></text><path class="cls-28" d="M265.57,1788l75.25,2.92a2.49,2.49,0,0,0,2.58-2.49V1719a2.49,2.49,0,0,0-2.58-2.49l-75.25,2.92a2.49,2.49,0,0,0-2.39,2.49V1745a2.49,2.49,0,0,1-2.49,2.49H173.58a2.49,2.49,0,0,1-2.49-2.49v-.62a2.49,2.49,0,0,0-2.49-2.49H104a2.49,2.49,0,0,0-2.49,2.49v18a2.49,2.49,0,0,0,2.49,2.49H168.6a2.49,2.49,0,0,0,2.49-2.49h0a2.49,2.49,0,0,1,2.49-2.49H260.7a2.49,2.49,0,0,1,2.49,2.49v23.1A2.49,2.49,0,0,0,265.57,1788Zm69.13-11.29v.62a2.49,2.49,0,0,1-2.49,2.49h-54.1a2.49,2.49,0,0,1-2.49-2.49v-.62a2.49,2.49,0,0,1,2.49-2.49h54.1A2.49,2.49,0,0,1,334.7,1776.69Zm0-14.93v.62a2.49,2.49,0,0,1-2.49,2.49h-54.1a2.49,2.49,0,0,1-2.49-2.49v-.62a2.49,2.49,0,0,1,2.49-2.49h54.1A2.49,2.49,0,0,1,334.7,1761.76Zm-59.08-30.47v-.62a2.49,2.49,0,0,1,2.49-2.49h54.1a2.49,2.49,0,0,1,2.49,2.49v.62a2.49,2.49,0,0,1-2.49,2.49h-54.1A2.49,2.49,0,0,1,275.62,1731.29Zm2.49,11.82h54.1a2.49,2.49,0,0,1,2.49,2.49v.62a2.49,2.49,0,0,1-2.49,2.49h-54.1a2.49,2.49,0,0,1-2.49-2.49v-.62A2.49,2.49,0,0,1,278.11,1743.11Z"/><text class="cls-66" transform="translate(444.37 1690.83)">Kitchen<tspan class="cls-67" x="8.45" y="70">H</tspan><tspan x="46.99" y="70">elper</tspan></text><path class="cls-28" d="M602.57,1743l75.25,2.92a2.49,2.49,0,0,0,2.58-2.49V1674a2.49,2.49,0,0,0-2.58-2.49l-75.25,2.92a2.49,2.49,0,0,0-2.39,2.49V1700a2.49,2.49,0,0,1-2.49,2.49H510.58a2.49,2.49,0,0,1-2.49-2.49v-.62a2.49,2.49,0,0,0-2.49-2.49H441a2.49,2.49,0,0,0-2.49,2.49v18a2.49,2.49,0,0,0,2.49,2.49H505.6a2.49,2.49,0,0,0,2.49-2.49h0a2.49,2.49,0,0,1,2.49-2.49H597.7a2.49,2.49,0,0,1,2.49,2.49v23.1A2.49,2.49,0,0,0,602.57,1743Zm69.13-11.29v.62a2.49,2.49,0,0,1-2.49,2.49h-54.1a2.49,2.49,0,0,1-2.49-2.49v-.62a2.49,2.49,0,0,1,2.49-2.49h54.1A2.49,2.49,0,0,1,671.7,1731.69Zm0-14.93v.62a2.49,2.49,0,0,1-2.49,2.49h-54.1a2.49,2.49,0,0,1-2.49-2.49v-.62a2.49,2.49,0,0,1,2.49-2.49h54.1A2.49,2.49,0,0,1,671.7,1716.76Zm-59.08-30.47v-.62a2.49,2.49,0,0,1,2.49-2.49h54.1a2.49,2.49,0,0,1,2.49,2.49v.62a2.49,2.49,0,0,1-2.49,2.49h-54.1A2.49,2.49,0,0,1,612.62,1686.29Zm2.49,11.82h54.1a2.49,2.49,0,0,1,2.49,2.49v.62a2.49,2.49,0,0,1-2.49,2.49h-54.1a2.49,2.49,0,0,1-2.49-2.49v-.62A2.49,2.49,0,0,1,615.11,1698.11Z"/><text class="cls-68" transform="translate(71.16 1294.83)">Kitchen<tspan x="10.06" y="84">He</tspan><tspan class="cls-69" x="58.63" y="84">l</tspan><tspan x="73.32" y="84">per</tspan></text><path class="cls-28" d="M225.57,1349l75.25,2.92a2.49,2.49,0,0,0,2.58-2.49V1280a2.49,2.49,0,0,0-2.58-2.49l-75.25,2.92a2.49,2.49,0,0,0-2.39,2.49V1306a2.49,2.49,0,0,1-2.49,2.49H133.58a2.49,2.49,0,0,1-2.49-2.49v-.62a2.49,2.49,0,0,0-2.49-2.49H64a2.49,2.49,0,0,0-2.49,2.49v18a2.49,2.49,0,0,0,2.49,2.49H128.6a2.49,2.49,0,0,0,2.49-2.49h0a2.49,2.49,0,0,1,2.49-2.49H220.7a2.49,2.49,0,0,1,2.49,2.49v23.1A2.49,2.49,0,0,0,225.57,1349Zm69.13-11.29v.62a2.49,2.49,0,0,1-2.49,2.49h-54.1a2.49,2.49,0,0,1-2.49-2.49v-.62a2.49,2.49,0,0,1,2.49-2.49h54.1A2.49,2.49,0,0,1,294.7,1337.69Zm0-14.93v.62a2.49,2.49,0,0,1-2.49,2.49h-54.1a2.49,2.49,0,0,1-2.49-2.49v-.62a2.49,2.49,0,0,1,2.49-2.49h54.1A2.49,2.49,0,0,1,294.7,1322.76Zm-59.08-30.47v-.62a2.49,2.49,0,0,1,2.49-2.49h54.1a2.49,2.49,0,0,1,2.49,2.49v.62a2.49,2.49,0,0,1-2.49,2.49h-54.1A2.49,2.49,0,0,1,235.62,1292.29Zm2.49,11.82h54.1a2.49,2.49,0,0,1,2.49,2.49v.62a2.49,2.49,0,0,1-2.49,2.49h-54.1a2.49,2.49,0,0,1-2.49-2.49v-.62A2.49,2.49,0,0,1,238.11,1304.11Z"/></g><g id="text_labels" data-name="text/labels"><text class="cls-70" transform="translate(70.52 110.32)"><tspan class="cls-71"><tspan class="cls-72">A</tspan><tspan class="cls-73" x="32.3" y="0">esth</tspan><tspan class="cls-74" x="123.21" y="0">e</tspan><tspan x="148.49" y="0">tic </tspan><tspan class="cls-75" x="213.74" y="0">G</tspan><tspan x="248.4" y="0">oals</tspan></tspan><tspan class="cls-76"><tspan x="0" y="43.2">-modern</tspan><tspan class="cls-77" x="131.9" y="43.2">/</tspan><tspan x="144.1" y="43.2">tec</tspan><tspan class="cls-78" x="191.71" y="43.2">h</tspan><tspan x="210.74" y="43.2">y</tspan><tspan x="0" y="86.4">-c</tspan><tspan class="cls-79" x="28.35" y="86.4">r</tspan><tspan x="41.74" y="86.4">afted</tspan><tspan class="cls-80" x="121.73" y="86.4">/</tspan><tspan class="cls-81" x="132.62" y="86.4">artisan</tspan><tspan x="0" y="129.6">-something between clean apple</tspan><tspan x="0" y="172.8">and hand-c</tspan><tspan class="cls-82" x="168.06" y="172.8">r</tspan><tspan x="181.45" y="172.8">afted</tspan><tspan class="cls-83" x="261.44" y="172.8">/</tspan><tspan x="272.96" y="172.8">rustic</tspan><tspan x="0" y="216">aesthetics</tspan></tspan></text><text class="cls-84" transform="translate(819.65 100.52)"><tspan class="cls-85">P</tspan><tspan x="28.1" y="0">ossible </tspan><tspan class="cls-86" x="185.45" y="0">C</tspan><tspan x="216.84" y="0">olo</tspan><tspan class="cls-87" x="283.29" y="0">r</tspan><tspan class="cls-73" x="300" y="0"> </tspan><tspan class="cls-88" x="311.95" y="0">S</tspan><tspan x="338.04" y="0">chemes</tspan></text><text class="cls-84" transform="translate(67.99 433.52)"><tspan class="cls-85">P</tspan><tspan x="28.1" y="0">ossible </tspan><tspan class="cls-89" x="185.45" y="0">L</tspan><tspan class="cls-90" x="208.75" y="0">o</tspan><tspan class="cls-91" x="235.99" y="0">g</tspan><tspan x="260.76" y="0">os</tspan></text></g></svg>