<svg xmlns="http://www.w3.org/2000/svg" viewBox="0 0 1920 1920"><defs><style>.cls-1,.cls-21,.cls-22,.cls-24{font-size:80px;}.cls-1{font-family:Lobster1.3, Lobster 1.3;}.cls-2{letter-spacing:0.01em;}.cls-3{letter-spacing:-0.01em;}.cls-4{letter-spacing:-0.02em;}.cls-5{letter-spacing:0em;}.cls-14,.cls-28,.cls-6{font-size:36px;}.cls-6,.cls-7{font-family:Montserrat-Light, Montserrat;}.cls-15,.cls-29,.cls-7{font-size:24px;}.cls-8{letter-spacing:-0.03em;}.cls-9{letter-spacing:-0.01em;}.cls-10{letter-spacing:-0.02em;}.cls-11{letter-spacing:-0.03em;}.cls-12{letter-spacing:-0.02em;}.cls-13{letter-spacing:0.01em;}.cls-14,.cls-15{font-family:Roboto-Light, Roboto;}.cls-16{letter-spacing:-0.01em;}.cls-17{letter-spacing:-0.01em;}.cls-18{letter-spacing:-0.01em;}.cls-19{letter-spacing:-0.01em;}.cls-20{letter-spacing:-0.06em;}.cls-21{font-family:Playlist-Script, Playlist;}.cls-22{font-family:Playlist-Caps, Playlist;}.cls-23,.cls-27,.cls-35,.cls-36{font-size:48px;}.cls-23{font-family:Montserrat-Regular, Montserrat;}.cls-24{font-family:Voltage, Voltage;}.cls-25{letter-spacing:-0.02em;}.cls-26{letter-spacing:0em;}.cls-27{font-family:Roboto-Regular, Roboto;}.cls-28,.cls-29{font-family:Lato-Light, Lato;}.cls-30{letter-spacing:-0.02em;}.cls-31{letter-spacing:-0.01em;}.cls-32{letter-spacing:-0.03em;}.cls-33{letter-spacing:-0.01em;}.cls-34{letter-spacing:-0.06em;}.cls-35{font-family:Lato-Regular, Lato;}.cls-36{font-family:Lato-Semibold, Lato;font-weight:700;}.cls-37{letter-spacing:-0.09em;}.cls-38{letter-spacing:0em;}.cls-39{letter-spacing:-0.01em;}.cls-40{letter-spacing:-0.01em;}.cls-41{letter-spacing:-0.02em;}</style></defs><title>Capstone_Branding_draft</title><g id="type_hierarchies" data-name="type hierarchies"><text class="cls-1" transform="translate(129 223)">H<tspan class="cls-2" x="50.48" y="0">e</tspan><tspan class="cls-3" x="79.68" y="0">a</tspan><tspan class="cls-4" x="119.04" y="0">d</tspan><tspan class="cls-5" x="158.08" y="0">e</tspan><tspan x="186.56" y="0">r</tspan><tspan class="cls-6"><tspan x="0" y="60">SUBHEADER</tspan></tspan><tspan class="cls-7"><tspan x="0" y="96">Body! Lorem ipsum dolor sit amet,</tspan><tspan class="cls-8" x="0" y="124.8">c</tspan><tspan x="12.84" y="124.8">onsec</tspan><tspan class="cls-9" x="81.7" y="124.8">t</tspan><tspan x="90.74" y="124.8">etur adipiscing elit, sed do</tspan><tspan x="0" y="153.6">eiusmod </tspan><tspan class="cls-9" x="109.42" y="153.6">t</tspan><tspan x="118.46" y="153.6">empor incididunt ut labore</tspan><tspan x="0" y="182.4">et dolore magna aliqua. Ut enim ad</tspan><tspan x="0" y="211.2">minim </tspan><tspan class="cls-10" x="85.03" y="211.2">v</tspan><tspan x="96.41" y="211.2">eniam, quis nostrud </tspan><tspan class="cls-11" x="335.64" y="211.2">e</tspan><tspan class="cls-12" x="349.05" y="211.2">x</tspan><tspan x="361.03" y="211.2">ercitation</tspan><tspan x="0" y="240">ullam</tspan><tspan class="cls-8" x="67.44" y="240">c</tspan><tspan x="80.28" y="240">o laboris nisi ut aliquip </tspan><tspan class="cls-11" x="349.84" y="240">e</tspan><tspan x="363.26" y="240">x ea</tspan><tspan class="cls-8" x="0" y="268.8">c</tspan><tspan x="12.84" y="268.8">ommodo </tspan><tspan class="cls-8" x="130.22" y="268.8">c</tspan><tspan x="143.06" y="268.8">onsequat. Duis au</tspan><tspan class="cls-9" x="351.91" y="268.8">t</tspan><tspan x="360.96" y="268.8">e irure</tspan><tspan x="0" y="297.6">dolor in reprehenderit in </tspan><tspan class="cls-10" x="293.97" y="297.6">v</tspan><tspan x="305.35" y="297.6">olupta</tspan><tspan class="cls-9" x="381.38" y="297.6">t</tspan><tspan x="390.43" y="297.6">e </tspan><tspan class="cls-10" x="411.16" y="297.6">v</tspan><tspan x="422.54" y="297.6">elit</tspan><tspan x="0" y="326.4">esse cillum dolore eu </tspan><tspan class="cls-13" x="254.56" y="326.4">f</tspan><tspan x="262.48" y="326.4">ugiat nulla pariatur. </tspan></tspan></text><text class="cls-1" transform="translate(696 223)">H<tspan class="cls-2" x="50.48" y="0">e</tspan><tspan class="cls-3" x="79.68" y="0">a</tspan><tspan class="cls-4" x="119.04" y="0">d</tspan><tspan class="cls-5" x="158.08" y="0">e</tspan><tspan x="186.56" y="0">r</tspan><tspan class="cls-14"><tspan x="0" y="60">SUBHEADER</tspan></tspan><tspan class="cls-15"><tspan x="0" y="96">Body! Lo</tspan><tspan class="cls-16" x="90.22" y="96">r</tspan><tspan x="98.07" y="96">em ipsum dolor sit amet,</tspan><tspan x="0" y="124.8">consectetur adipiscing elit, sed do</tspan><tspan x="0" y="153.6">eiusmod tempor incididunt ut labo</tspan><tspan class="cls-16" x="359" y="153.6">r</tspan><tspan x="366.86" y="153.6">e</tspan><tspan x="0" y="182.4">et dolo</tspan><tspan class="cls-16" x="71.54" y="182.4">r</tspan><tspan x="79.39" y="182.4">e magna aliqua. Ut enim ad</tspan><tspan x="0" y="211.2">minim </tspan><tspan class="cls-17" x="72.32" y="211.2">v</tspan><tspan x="83.71" y="211.2">eniam, quis nostrud e</tspan><tspan class="cls-18" x="308.47" y="211.2">x</tspan><tspan x="319.91" y="211.2">e</tspan><tspan class="cls-16" x="332.31" y="211.2">r</tspan><tspan x="340.16" y="211.2">citation</tspan><tspan x="0" y="240">ullamco laboris nisi ut aliquip ex ea</tspan><tspan x="0" y="268.8">commodo consequat. Duis aute iru</tspan><tspan class="cls-16" x="367.52" y="268.8">r</tspan><tspan x="375.38" y="268.8">e</tspan><tspan x="0" y="297.6">dolor in </tspan><tspan class="cls-16" x="83.91" y="297.6">r</tspan><tspan x="91.76" y="297.6">ep</tspan><tspan class="cls-16" x="117.46" y="297.6">r</tspan><tspan x="125.31" y="297.6">ehenderit in </tspan><tspan class="cls-19" x="253.59" y="297.6">v</tspan><tspan x="264.96" y="297.6">oluptate </tspan><tspan class="cls-17" x="356.78" y="297.6">v</tspan><tspan x="368.17" y="297.6">elit</tspan><tspan x="0" y="326.4">esse cillum dolo</tspan><tspan class="cls-16" x="169.32" y="326.4">r</tspan><tspan x="177.18" y="326.4">e eu fugiat nulla pariatu</tspan><tspan class="cls-20" x="422.23" y="326.4">r</tspan><tspan x="428.86" y="326.4">. </tspan></tspan></text><text class="cls-21" transform="translate(129 645)">Header<tspan class="cls-6"><tspan x="0" y="60">SUBHEADER</tspan></tspan><tspan class="cls-7"><tspan x="0" y="96">Body! Lorem ipsum dolor sit amet,</tspan><tspan class="cls-8" x="0" y="124.8">c</tspan><tspan x="12.84" y="124.8">onsec</tspan><tspan class="cls-9" x="81.7" y="124.8">t</tspan><tspan x="90.74" y="124.8">etur adipiscing elit, sed do</tspan><tspan x="0" y="153.6">eiusmod </tspan><tspan class="cls-9" x="109.42" y="153.6">t</tspan><tspan x="118.46" y="153.6">empor incididunt ut labore</tspan><tspan x="0" y="182.4">et dolore magna aliqua. Ut enim ad</tspan><tspan x="0" y="211.2">minim </tspan><tspan class="cls-10" x="85.03" y="211.2">v</tspan><tspan x="96.41" y="211.2">eniam, quis nostrud </tspan><tspan class="cls-11" x="335.64" y="211.2">e</tspan><tspan class="cls-12" x="349.05" y="211.2">x</tspan><tspan x="361.03" y="211.2">ercitation</tspan><tspan x="0" y="240">ullam</tspan><tspan class="cls-8" x="67.44" y="240">c</tspan><tspan x="80.28" y="240">o laboris nisi ut aliquip </tspan><tspan class="cls-11" x="349.84" y="240">e</tspan><tspan x="363.26" y="240">x ea</tspan><tspan class="cls-8" x="0" y="268.8">c</tspan><tspan x="12.84" y="268.8">ommodo </tspan><tspan class="cls-8" x="130.22" y="268.8">c</tspan><tspan x="143.06" y="268.8">onsequat. Duis au</tspan><tspan class="cls-9" x="351.91" y="268.8">t</tspan><tspan x="360.96" y="268.8">e irure</tspan><tspan x="0" y="297.6">dolor in reprehenderit in </tspan><tspan class="cls-10" x="293.97" y="297.6">v</tspan><tspan x="305.35" y="297.6">olupta</tspan><tspan class="cls-9" x="381.38" y="297.6">t</tspan><tspan x="390.43" y="297.6">e </tspan><tspan class="cls-10" x="411.16" y="297.6">v</tspan><tspan x="422.54" y="297.6">elit</tspan><tspan x="0" y="326.4">esse cillum dolore eu </tspan><tspan class="cls-13" x="254.56" y="326.4">f</tspan><tspan x="262.48" y="326.4">ugiat nulla pariatur. </tspan></tspan></text><text class="cls-22" transform="translate(129 1078)">Header<tspan class="cls-23"><tspan x="0" y="60">subheader</tspan></tspan><tspan class="cls-7"><tspan x="0" y="96">Body! Lorem ipsum dolor sit amet,</tspan><tspan class="cls-8" x="0" y="124.8">c</tspan><tspan x="12.84" y="124.8">onsec</tspan><tspan class="cls-9" x="81.7" y="124.8">t</tspan><tspan x="90.74" y="124.8">etur adipiscing elit, sed do</tspan><tspan x="0" y="153.6">eiusmod </tspan><tspan class="cls-9" x="109.42" y="153.6">t</tspan><tspan x="118.46" y="153.6">empor incididunt ut labore</tspan><tspan x="0" y="182.4">et dolore magna aliqua. Ut enim ad</tspan><tspan x="0" y="211.2">minim </tspan><tspan class="cls-10" x="85.03" y="211.2">v</tspan><tspan x="96.41" y="211.2">eniam, quis nostrud </tspan><tspan class="cls-11" x="335.64" y="211.2">e</tspan><tspan class="cls-12" x="349.05" y="211.2">x</tspan><tspan x="361.03" y="211.2">ercitation</tspan><tspan x="0" y="240">ullam</tspan><tspan class="cls-8" x="67.44" y="240">c</tspan><tspan x="80.28" y="240">o laboris nisi ut aliquip </tspan><tspan class="cls-11" x="349.84" y="240">e</tspan><tspan x="363.26" y="240">x ea</tspan><tspan class="cls-8" x="0" y="268.8">c</tspan><tspan x="12.84" y="268.8">ommodo </tspan><tspan class="cls-8" x="130.22" y="268.8">c</tspan><tspan x="143.06" y="268.8">onsequat. Duis au</tspan><tspan class="cls-9" x="351.91" y="268.8">t</tspan><tspan x="360.96" y="268.8">e irure</tspan><tspan x="0" y="297.6">dolor in reprehenderit in </tspan><tspan class="cls-10" x="293.97" y="297.6">v</tspan><tspan x="305.35" y="297.6">olupta</tspan><tspan class="cls-9" x="381.38" y="297.6">t</tspan><tspan x="390.43" y="297.6">e </tspan><tspan class="cls-10" x="411.16" y="297.6">v</tspan><tspan x="422.54" y="297.6">elit</tspan><tspan x="0" y="326.4">esse cillum dolore eu </tspan><tspan class="cls-13" x="254.56" y="326.4">f</tspan><tspan x="262.48" y="326.4">ugiat nulla pariatur. </tspan></tspan></text><text class="cls-24" transform="translate(129 1529)"><tspan class="cls-25">H<tspan class="cls-26" x="64.24" y="0">eader</tspan></tspan><tspan class="cls-6"><tspan x="0" y="60">SUBHEADER</tspan></tspan><tspan class="cls-7"><tspan x="0" y="96">Body! Lorem ipsum dolor sit amet,</tspan><tspan class="cls-8" x="0" y="124.8">c</tspan><tspan x="12.84" y="124.8">onsec</tspan><tspan class="cls-9" x="81.7" y="124.8">t</tspan><tspan x="90.74" y="124.8">etur adipiscing elit, sed do</tspan><tspan x="0" y="153.6">eiusmod </tspan><tspan class="cls-9" x="109.42" y="153.6">t</tspan><tspan x="118.46" y="153.6">empor incididunt ut labore</tspan><tspan x="0" y="182.4">et dolore magna aliqua. Ut enim ad</tspan><tspan x="0" y="211.2">minim </tspan><tspan class="cls-10" x="85.03" y="211.2">v</tspan><tspan x="96.41" y="211.2">eniam, quis nostrud </tspan><tspan class="cls-11" x="335.64" y="211.2">e</tspan><tspan class="cls-12" x="349.05" y="211.2">x</tspan><tspan x="361.03" y="211.2">ercitation</tspan><tspan x="0" y="240">ullam</tspan><tspan class="cls-8" x="67.44" y="240">c</tspan><tspan x="80.28" y="240">o laboris nisi ut aliquip </tspan><tspan class="cls-11" x="349.84" y="240">e</tspan><tspan x="363.26" y="240">x ea</tspan><tspan class="cls-8" x="0" y="268.8">c</tspan><tspan x="12.84" y="268.8">ommodo </tspan><tspan class="cls-8" x="130.22" y="268.8">c</tspan><tspan x="143.06" y="268.8">onsequat. Duis au</tspan><tspan class="cls-9" x="351.91" y="268.8">t</tspan><tspan x="360.96" y="268.8">e irure</tspan><tspan x="0" y="297.6">dolor in reprehenderit in </tspan><tspan class="cls-10" x="293.97" y="297.6">v</tspan><tspan x="305.35" y="297.6">olupta</tspan><tspan class="cls-9" x="381.38" y="297.6">t</tspan><tspan x="390.43" y="297.6">e </tspan><tspan class="cls-10" x="411.16" y="297.6">v</tspan><tspan x="422.54" y="297.6">elit</tspan><tspan x="0" y="326.4">esse cillum dolore eu </tspan><tspan class="cls-13" x="254.56" y="326.4">f</tspan><tspan x="262.48" y="326.4">ugiat nulla pariatur. </tspan></tspan></text><text class="cls-21" transform="translate(696 644)">Header<tspan class="cls-14"><tspan x="0" y="60">SUBHEADER</tspan></tspan><tspan class="cls-15"><tspan x="0" y="96">Body! Lo</tspan><tspan class="cls-16" x="90.22" y="96">r</tspan><tspan x="98.07" y="96">em ipsum dolor sit amet,</tspan><tspan x="0" y="124.8">consectetur adipiscing elit, sed do</tspan><tspan x="0" y="153.6">eiusmod tempor incididunt ut labo</tspan><tspan class="cls-16" x="359" y="153.6">r</tspan><tspan x="366.86" y="153.6">e</tspan><tspan x="0" y="182.4">et dolo</tspan><tspan class="cls-16" x="71.54" y="182.4">r</tspan><tspan x="79.39" y="182.4">e magna aliqua. Ut enim ad</tspan><tspan x="0" y="211.2">minim </tspan><tspan class="cls-17" x="72.32" y="211.2">v</tspan><tspan x="83.71" y="211.2">eniam, quis nostrud e</tspan><tspan class="cls-18" x="308.47" y="211.2">x</tspan><tspan x="319.91" y="211.2">e</tspan><tspan class="cls-16" x="332.31" y="211.2">r</tspan><tspan x="340.16" y="211.2">citation</tspan><tspan x="0" y="240">ullamco laboris nisi ut aliquip ex ea</tspan><tspan x="0" y="268.8">commodo consequat. Duis aute iru</tspan><tspan class="cls-16" x="367.52" y="268.8">r</tspan><tspan x="375.38" y="268.8">e</tspan><tspan x="0" y="297.6">dolor in </tspan><tspan class="cls-16" x="83.91" y="297.6">r</tspan><tspan x="91.76" y="297.6">ep</tspan><tspan class="cls-16" x="117.46" y="297.6">r</tspan><tspan x="125.31" y="297.6">ehenderit in </tspan><tspan class="cls-19" x="253.59" y="297.6">v</tspan><tspan x="264.96" y="297.6">oluptate </tspan><tspan class="cls-17" x="356.78" y="297.6">v</tspan><tspan x="368.17" y="297.6">elit</tspan><tspan x="0" y="326.4">esse cillum dolo</tspan><tspan class="cls-16" x="169.32" y="326.4">r</tspan><tspan x="177.18" y="326.4">e eu fugiat nulla pariatu</tspan><tspan class="cls-20" x="422.23" y="326.4">r</tspan><tspan x="428.86" y="326.4">. </tspan></tspan></text><text class="cls-22" transform="translate(696 1077)">Header<tspan class="cls-27"><tspan x="0" y="60">subheader</tspan></tspan><tspan class="cls-15"><tspan x="0" y="96">Body! Lo</tspan><tspan class="cls-16" x="90.22" y="96">r</tspan><tspan x="98.07" y="96">em ipsum dolor sit amet,</tspan><tspan x="0" y="124.8">consectetur adipiscing elit, sed do</tspan><tspan x="0" y="153.6">eiusmod tempor incididunt ut labo</tspan><tspan class="cls-16" x="359" y="153.6">r</tspan><tspan x="366.86" y="153.6">e</tspan><tspan x="0" y="182.4">et dolo</tspan><tspan class="cls-16" x="71.54" y="182.4">r</tspan><tspan x="79.39" y="182.4">e magna aliqua. Ut enim ad</tspan><tspan x="0" y="211.2">minim </tspan><tspan class="cls-17" x="72.32" y="211.2">v</tspan><tspan x="83.71" y="211.2">eniam, quis nostrud e</tspan><tspan class="cls-18" x="308.47" y="211.2">x</tspan><tspan x="319.91" y="211.2">e</tspan><tspan class="cls-16" x="332.31" y="211.2">r</tspan><tspan x="340.16" y="211.2">citation</tspan><tspan x="0" y="240">ullamco laboris nisi ut aliquip ex ea</tspan><tspan x="0" y="268.8">commodo consequat. Duis aute iru</tspan><tspan class="cls-16" x="367.52" y="268.8">r</tspan><tspan x="375.38" y="268.8">e</tspan><tspan x="0" y="297.6">dolor in </tspan><tspan class="cls-16" x="83.91" y="297.6">r</tspan><tspan x="91.76" y="297.6">ep</tspan><tspan class="cls-16" x="117.46" y="297.6">r</tspan><tspan x="125.31" y="297.6">ehenderit in </tspan><tspan class="cls-19" x="253.59" y="297.6">v</tspan><tspan x="264.96" y="297.6">oluptate </tspan><tspan class="cls-17" x="356.78" y="297.6">v</tspan><tspan x="368.17" y="297.6">elit</tspan><tspan x="0" y="326.4">esse cillum dolo</tspan><tspan class="cls-16" x="169.32" y="326.4">r</tspan><tspan x="177.18" y="326.4">e eu fugiat nulla pariatu</tspan><tspan class="cls-20" x="422.23" y="326.4">r</tspan><tspan x="428.86" y="326.4">. </tspan></tspan></text><text class="cls-24" transform="translate(696 1528)"><tspan class="cls-25">H<tspan class="cls-26" x="64.24" y="0">eader</tspan></tspan><tspan class="cls-14"><tspan x="0" y="60">SUBHEADER</tspan></tspan><tspan class="cls-15"><tspan x="0" y="96">Body! Lo</tspan><tspan class="cls-16" x="90.22" y="96">r</tspan><tspan x="98.07" y="96">em ipsum dolor sit amet,</tspan><tspan x="0" y="124.8">consectetur adipiscing elit, sed do</tspan><tspan x="0" y="153.6">eiusmod tempor incididunt ut labo</tspan><tspan class="cls-16" x="359" y="153.6">r</tspan><tspan x="366.86" y="153.6">e</tspan><tspan x="0" y="182.4">et dolo</tspan><tspan class="cls-16" x="71.54" y="182.4">r</tspan><tspan x="79.39" y="182.4">e magna aliqua. Ut enim ad</tspan><tspan x="0" y="211.2">minim </tspan><tspan class="cls-17" x="72.32" y="211.2">v</tspan><tspan x="83.71" y="211.2">eniam, quis nostrud e</tspan><tspan class="cls-18" x="308.47" y="211.2">x</tspan><tspan x="319.91" y="211.2">e</tspan><tspan class="cls-16" x="332.31" y="211.2">r</tspan><tspan x="340.16" y="211.2">citation</tspan><tspan x="0" y="240">ullamco laboris nisi ut aliquip ex ea</tspan><tspan x="0" y="268.8">commodo consequat. Duis aute iru</tspan><tspan class="cls-16" x="367.52" y="268.8">r</tspan><tspan x="375.38" y="268.8">e</tspan><tspan x="0" y="297.6">dolor in </tspan><tspan class="cls-16" x="83.91" y="297.6">r</tspan><tspan x="91.76" y="297.6">ep</tspan><tspan class="cls-16" x="117.46" y="297.6">r</tspan><tspan x="125.31" y="297.6">ehenderit in </tspan><tspan class="cls-19" x="253.59" y="297.6">v</tspan><tspan x="264.96" y="297.6">oluptate </tspan><tspan class="cls-17" x="356.78" y="297.6">v</tspan><tspan x="368.17" y="297.6">elit</tspan><tspan x="0" y="326.4">esse cillum dolo</tspan><tspan class="cls-16" x="169.32" y="326.4">r</tspan><tspan x="177.18" y="326.4">e eu fugiat nulla pariatu</tspan><tspan class="cls-20" x="422.23" y="326.4">r</tspan><tspan x="428.86" y="326.4">. </tspan></tspan></text><text class="cls-1" transform="translate(1225 221)">H<tspan class="cls-2" x="50.48" y="0">e</tspan><tspan class="cls-3" x="79.68" y="0">a</tspan><tspan class="cls-4" x="119.04" y="0">d</tspan><tspan class="cls-5" x="158.08" y="0">e</tspan><tspan x="186.56" y="0">r</tspan><tspan class="cls-28"><tspan x="0" y="60">SUBHEADER</tspan></tspan><tspan class="cls-29"><tspan x="0" y="96">Body! </tspan><tspan class="cls-30" x="65.53" y="96">L</tspan><tspan x="77.41" y="96">orem ipsum dolor sit amet,</tspan><tspan x="0" y="124.8">consectetur adipiscing elit, sed do</tspan><tspan x="0" y="153.6">eiusmod tempor incididunt ut labore</tspan><tspan x="0" y="182.4">et dolore magna aliqua. Ut enim ad</tspan><tspan x="0" y="211.2">minim </tspan><tspan class="cls-31" x="67.2" y="211.2">v</tspan><tspan x="78.67" y="211.2">eniam, quis nostrud </tspan><tspan class="cls-32" x="281.59" y="211.2">ex</tspan><tspan x="303.46" y="211.2">ercitation</tspan><tspan x="0" y="240">ullamco laboris nisi ut aliquip </tspan><tspan class="cls-11" x="295.17" y="240">e</tspan><tspan x="306.71" y="240">x ea</tspan><tspan x="0" y="268.8">commodo consequat. Duis aute irure</tspan><tspan x="0" y="297.6">dolor in reprehenderit in </tspan><tspan class="cls-33" x="254" y="297.6">v</tspan><tspan x="265.47" y="297.6">oluptate </tspan><tspan class="cls-33" x="355.66" y="297.6">v</tspan><tspan x="367.13" y="297.6">elit</tspan><tspan x="0" y="326.4">esse cillum dolore eu fugiat nulla pariatu</tspan><tspan class="cls-34" x="405.61" y="326.4">r</tspan><tspan x="413.64" y="326.4">. </tspan></tspan></text><text class="cls-21" transform="translate(1225 642)">Header<tspan class="cls-28"><tspan x="0" y="60">SUBHEADER</tspan></tspan><tspan class="cls-29"><tspan x="0" y="96">Body! </tspan><tspan class="cls-30" x="65.53" y="96">L</tspan><tspan x="77.41" y="96">orem ipsum dolor sit amet,</tspan><tspan x="0" y="124.8">consectetur adipiscing elit, sed do</tspan><tspan x="0" y="153.6">eiusmod tempor incididunt ut labore</tspan><tspan x="0" y="182.4">et dolore magna aliqua. Ut enim ad</tspan><tspan x="0" y="211.2">minim </tspan><tspan class="cls-31" x="67.2" y="211.2">v</tspan><tspan x="78.67" y="211.2">eniam, quis nostrud </tspan><tspan class="cls-32" x="281.59" y="211.2">ex</tspan><tspan x="303.46" y="211.2">ercitation</tspan><tspan x="0" y="240">ullamco laboris nisi ut aliquip </tspan><tspan class="cls-11" x="295.17" y="240">e</tspan><tspan x="306.71" y="240">x ea</tspan><tspan x="0" y="268.8">commodo consequat. Duis aute irure</tspan><tspan x="0" y="297.6">dolor in reprehenderit in </tspan><tspan class="cls-33" x="254" y="297.6">v</tspan><tspan x="265.47" y="297.6">oluptate </tspan><tspan class="cls-33" x="355.66" y="297.6">v</tspan><tspan x="367.13" y="297.6">elit</tspan><tspan x="0" y="326.4">esse cillum dolore eu fugiat nulla pariatu</tspan><tspan class="cls-34" x="405.61" y="326.4">r</tspan><tspan x="413.64" y="326.4">. </tspan></tspan></text><text class="cls-22" transform="translate(1225 1075)">Header<tspan class="cls-35"><tspan x="0" y="60">subheader</tspan></tspan><tspan class="cls-29"><tspan x="0" y="96">Body! </tspan><tspan class="cls-30" x="65.53" y="96">L</tspan><tspan x="77.41" y="96">orem ipsum dolor sit amet,</tspan><tspan x="0" y="124.8">consectetur adipiscing elit, sed do</tspan><tspan x="0" y="153.6">eiusmod tempor incididunt ut labore</tspan><tspan x="0" y="182.4">et dolore magna aliqua. Ut enim ad</tspan><tspan x="0" y="211.2">minim </tspan><tspan class="cls-31" x="67.2" y="211.2">v</tspan><tspan x="78.67" y="211.2">eniam, quis nostrud </tspan><tspan class="cls-32" x="281.59" y="211.2">ex</tspan><tspan x="303.46" y="211.2">ercitation</tspan><tspan x="0" y="240">ullamco laboris nisi ut aliquip </tspan><tspan class="cls-11" x="295.17" y="240">e</tspan><tspan x="306.71" y="240">x ea</tspan><tspan x="0" y="268.8">commodo consequat. Duis aute irure</tspan><tspan x="0" y="297.6">dolor in reprehenderit in </tspan><tspan class="cls-33" x="254" y="297.6">v</tspan><tspan x="265.47" y="297.6">oluptate </tspan><tspan class="cls-33" x="355.66" y="297.6">v</tspan><tspan x="367.13" y="297.6">elit</tspan><tspan x="0" y="326.4">esse cillum dolore eu fugiat nulla pariatu</tspan><tspan class="cls-34" x="405.61" y="326.4">r</tspan><tspan x="413.64" y="326.4">. </tspan></tspan></text><text class="cls-24" transform="translate(1225 1526)"><tspan class="cls-25">H<tspan class="cls-26" x="64.24" y="0">eader</tspan></tspan><tspan class="cls-28"><tspan x="0" y="60">SUBHEADER</tspan></tspan><tspan class="cls-29"><tspan x="0" y="96">Body! </tspan><tspan class="cls-30" x="65.53" y="96">L</tspan><tspan x="77.41" y="96">orem ipsum dolor sit amet,</tspan><tspan x="0" y="124.8">consectetur adipiscing elit, sed do</tspan><tspan x="0" y="153.6">eiusm-od tempor incididunt ut labore</tspan><tspan x="0" y="182.4">et dolore magna aliqua. Ut enim ad</tspan><tspan x="0" y="211.2">minim </tspan><tspan class="cls-31" x="67.2" y="211.2">v</tspan><tspan x="78.67" y="211.2">eniam, quis nostrud </tspan><tspan class="cls-32" x="281.59" y="211.2">ex</tspan><tspan x="303.46" y="211.2">ercitation</tspan><tspan x="0" y="240">ullamco laboris nisi ut aliquip </tspan><tspan class="cls-11" x="295.17" y="240">e</tspan><tspan x="306.71" y="240">x ea</tspan><tspan x="0" y="268.8">commodo consequat. Duis aute irure</tspan><tspan x="0" y="297.6">dolor in reprehenderit in </tspan><tspan class="cls-33" x="254" y="297.6">v</tspan><tspan x="265.47" y="297.6">oluptate </tspan><tspan class="cls-33" x="355.66" y="297.6">v</tspan><tspan x="367.13" y="297.6">elit</tspan><tspan x="0" y="326.4">esse cillum dolore eu fugiat nulla pariatu</tspan><tspan class="cls-34" x="405.61" y="326.4">r</tspan><tspan x="413.64" y="326.4">. </tspan></tspan></text></g><g id="text_labels" data-name="text/labels"><text class="cls-36" transform="translate(131.28 110.52)"><tspan class="cls-37">T</tspan><tspan class="cls-38" x="24.48" y="0">ype </tspan><tspan class="cls-39" x="114.07" y="0">H</tspan><tspan x="150.55" y="0">ie</tspan><tspan class="cls-40" x="187.92" y="0">r</tspan><tspan x="205.27" y="0">a</tspan><tspan class="cls-41" x="229.39" y="0">r</tspan><tspan x="246.26" y="0">chies</tspan></text></g></svg>