<?xml version="1.0" encoding="utf-8"?>
<!-- Generator: Adobe Illustrator 21.1.0, SVG Export Plug-In . SVG Version: 6.00 Build 0)  -->
<svg version="1.1" id="Layer_1" xmlns="http://www.w3.org/2000/svg" xmlns:xlink="http://www.w3.org/1999/xlink" x="0px" y="0px"
	 viewBox="0 0 111.7 111.7" style="enable-background:new 0 0 111.7 111.7;" xml:space="preserve">
<style type="text/css">
	.st0{fill:#FF2C27;}
	.st1{display:none;}
</style>
<g id="color_combos">
</g>
<g id="type_hierarchies">
</g>
<g id="logos">
</g>
<g id="Iconography">
	<path class="st0" d="M97.1,40L58,13.7c-1.3-0.9-2.9-0.9-4.2,0L14.8,40c-3.1,2.1-1.6,6.9,2.1,6.9h4.5v42.6c0,5.4,4.4,9.8,9.8,9.8
		h49.5c5.4,0,9.8-4.4,9.8-9.8V46.9H95C98.7,46.9,100.2,42.1,97.1,40z M64.3,93.1H47V67.4c0-2.3,1.8-4.1,4.1-4.1h9.2
		c2.3,0,4.1,1.8,4.1,4.1L64.3,93.1L64.3,93.1z M88.4,43h-3.5c-0.5,0-0.9,0.5-0.9,1v42.8c0,4.1-3.3,6.4-7.4,6.4h-6.9V63.5
		c0-2.8-2.3-5.2-5.2-5.2H47.4c-2.8,0-5.2,2.3-5.2,5.2v29.7h-8.1c-3.1,0-5.6-2.5-5.6-5.6V44c0-0.5-0.4-0.9-0.9-0.9h-4.3
		c-0.9,0-1.3-1.2-0.5-1.7l33.1-19.9c0.3-0.2,0.7-0.2,1.1,0l32.1,19.9C89.7,41.8,89.3,43,88.4,43z"/>
</g>
<g id="logo_x5F_sketch" class="st1">
</g>
<g id="logo">
</g>
<g id="logo_x5F_gridding">
</g>
<g id="Layer_9">
</g>
<g id="text_x2F_labels">
</g>
</svg>
