<?xml version="1.0" encoding="utf-8"?>
<!-- Generator: Adobe Illustrator 21.1.0, SVG Export Plug-In . SVG Version: 6.00 Build 0)  -->
<svg version="1.1" id="Layer_1" xmlns="http://www.w3.org/2000/svg" xmlns:xlink="http://www.w3.org/1999/xlink" x="0px" y="0px"
	 viewBox="0 0 111.7 107" style="enable-background:new 0 0 111.7 107;" xml:space="preserve">
<style type="text/css">
	.st0{fill:#FF2C27;}
	.st1{display:none;}
</style>
<g id="color_combos">
</g>
<g id="type_hierarchies">
</g>
<g id="logos">
</g>
<g id="Iconography">
	<path class="st0" d="M96.5,97.5L72.2,73.1c5.7-5.9,9.2-14,9.2-22.8c0-18.2-14.8-33-33-33s-33,14.8-33,33s14.8,33,33,33
		c6.4,0,12.3-1.8,17.4-5l24.9,24.9c1.5,1.5,3.9,1.5,5.4,0l0.5-0.5C98,101.4,98,99,96.5,97.5z M22.3,50.3c0-14.4,11.6-26,26-26
		s26,11.6,26,26s-11.6,26-26,26S22.3,64.7,22.3,50.3z"/>
</g>
<g id="logo_x5F_sketch" class="st1">
</g>
<g id="logo">
</g>
<g id="logo_x5F_gridding">
</g>
<g id="Layer_9">
</g>
<g id="text_x2F_labels">
</g>
</svg>
