<?xml version="1.0" encoding="utf-8"?>
<!-- Generator: Adobe Illustrator 21.1.0, SVG Export Plug-In . SVG Version: 6.00 Build 0)  -->
<svg version="1.1" id="Layer_1" xmlns="http://www.w3.org/2000/svg" xmlns:xlink="http://www.w3.org/1999/xlink" x="0px" y="0px"
	 viewBox="0 0 111.7 111.7" style="enable-background:new 0 0 111.7 111.7;" xml:space="preserve">
<style type="text/css">
	.st0{fill:#FF2C27;}
	.st1{display:none;}
</style>
<g id="color_combos">
</g>
<g id="type_hierarchies">
</g>
<g id="logos">
</g>
<g id="Iconography">
	<path class="st0" d="M95.6,50.1h-3.2c-1.3,0-2.5-0.9-2.8-2.2c-1-4.1-2.7-7.9-5.1-11.2c-0.8-1.1-0.7-2.7,0.3-3.7l1.8-1.8
		c1.6-1.6,1.5-4.2-0.1-5.8l-2-2c-1.6-1.6-4.2-1.5-5.8,0.1l-2.2,2.3c-0.9,0.9-2.3,1.1-3.4,0.5c-2.8-1.6-5.9-2.8-9.2-3.5
		c-1.3-0.3-2.3-1.4-2.3-2.8v-3.9c0-2.2-1.8-4.1-4.1-4.1h-2.9c-2.2,0-4.1,1.8-4.1,4.1v4.2c0,1.3-0.9,2.5-2.2,2.8
		c-3.4,0.8-6.7,2.2-9.6,4c-1.2,0.7-2.6,0.5-3.6-0.5L32,23.1c-1.5-1.6-4.1-1.7-5.8-0.2l-2.1,2c-1.6,1.5-1.7,4.1-0.2,5.8l3.5,3.7
		c0.9,0.9,1,2.4,0.3,3.5c-1.9,3-3.3,6.3-4.2,9.9C23.2,49.1,22,50,20.7,50h-4.2c-2.2,0-4.1,1.8-4.1,4.1V57c0,2.2,1.8,4.1,4.1,4.1h3.9
		c1.3,0,2.5,0.9,2.8,2.3c0.8,3.5,2.1,6.9,3.9,9.9c0.6,1.1,0.5,2.5-0.4,3.4L23.5,80c-1.6,1.6-1.5,4.2,0.1,5.8l2,2
		c1.6,1.6,4.2,1.5,5.8-0.1l2.7-2.8c1-1,2.5-1.1,3.7-0.4c3.2,2.1,6.7,3.7,10.5,4.6c1.3,0.3,2.2,1.5,2.2,2.8v3.2
		c0,2.2,1.8,4.1,4.1,4.1h2.9c2.2,0,4.1-1.8,4.1-4.1V92c0-1.3,0.9-2.5,2.3-2.8c3.3-0.7,6.4-1.9,9.3-3.5c1.1-0.6,2.6-0.4,3.5,0.5
		l1.6,1.7c1.5,1.6,4.1,1.7,5.8,0.2l2.1-2c1.6-1.5,1.7-4.1,0.2-5.8L85,78.9c-0.9-1-1-2.5-0.3-3.6c2.5-3.6,4.3-7.6,5.2-12
		c0.3-1.3,1.4-2.3,2.8-2.3h2.9c2.2,0,4.1-1.8,4.1-4.1V54C99.7,51.9,97.8,50.1,95.6,50.1z M56.2,84c-15.7,0-28.5-12.8-28.5-28.5
		S40.4,27,56.2,27s28.5,12.8,28.5,28.5S71.9,84,56.2,84z"/>
</g>
<g id="logo_x5F_sketch" class="st1">
</g>
<g id="logo">
</g>
<g id="logo_x5F_gridding">
</g>
<g id="Layer_9">
</g>
<g id="text_x2F_labels">
</g>
</svg>
