<?xml version="1.0" encoding="utf-8"?>
<!-- Generator: Adobe Illustrator 21.1.0, SVG Export Plug-In . SVG Version: 6.00 Build 0)  -->
<svg version="1.1" id="Layer_1" xmlns="http://www.w3.org/2000/svg" xmlns:xlink="http://www.w3.org/1999/xlink" x="0px" y="0px"
	 viewBox="0 0 111.7 111.7" style="enable-background:new 0 0 111.7 111.7;" xml:space="preserve">
<style type="text/css">
	.st0{fill:#FF2C27;}
	.st1{display:none;}
</style>
<g id="color_combos">
</g>
<g id="type_hierarchies">
</g>
<g id="logos">
</g>
<g id="Iconography">
	<path class="st0" d="M71.3,39.9l25.8,3.7c2.3,0.3,3.2,3.1,1.6,4.8L80,66.6c-0.7,0.6-1,1.6-0.8,2.5l4.5,25.7c0.4,2.3-2,4-4.1,3
		L56.5,85.7c-0.8-0.4-1.8-0.4-2.6,0l-23,12.2c-2,1.1-4.5-0.7-4.1-2.9l4.3-25.7c0.2-0.9-0.2-1.8-0.8-2.5L11.6,48.6
		c-1.7-1.6-0.8-4.4,1.5-4.8L39,40c0.9-0.1,1.7-0.7,2.1-1.5l11.5-23.4c1-2.1,4-2.1,5,0l11.6,23.3C69.6,39.2,70.4,39.8,71.3,39.9z"/>
</g>
<g id="logo_x5F_sketch" class="st1">
</g>
<g id="logo">
</g>
<g id="logo_x5F_gridding">
</g>
<g id="Layer_9">
</g>
<g id="text_x2F_labels">
</g>
</svg>
