<?xml version="1.0" encoding="utf-8"?>
<!-- Generator: Adobe Illustrator 22.1.0, SVG Export Plug-In . SVG Version: 6.00 Build 0)  -->
<svg version="1.1" id="Layer_1" xmlns="http://www.w3.org/2000/svg" xmlns:xlink="http://www.w3.org/1999/xlink" x="0px" y="0px"
	 viewBox="0 0 500 300" style="enable-background:new 0 0 500 300;" xml:space="preserve">
<style type="text/css">
	.st0{fill:#00B0AA;}
	.st1{fill:#F05323;}
	.st2{fill:#535349;}
	.st3{fill:#FFFFFF;}
</style>
<g>
	<path class="st0" d="M-275-413.5l3,0.8c-0.6,2.5-1.8,4.4-3.4,5.7c-1.7,1.3-3.7,2-6.1,2c-2.5,0-4.5-0.5-6-1.5
		c-1.5-1-2.7-2.5-3.5-4.4c-0.8-1.9-1.2-4-1.2-6.1c0-2.4,0.5-4.5,1.4-6.2c0.9-1.8,2.2-3.1,3.9-4c1.7-0.9,3.5-1.4,5.6-1.4
		c2.3,0,4.2,0.6,5.8,1.8c1.6,1.2,2.7,2.8,3.3,4.9l-3,0.7c-0.5-1.7-1.3-2.9-2.3-3.6c-1-0.8-2.3-1.1-3.8-1.1c-1.8,0-3.2,0.4-4.4,1.3
		c-1.2,0.8-2,2-2.5,3.4c-0.5,1.4-0.7,2.9-0.7,4.4c0,1.9,0.3,3.6,0.9,5.1c0.6,1.5,1.5,2.5,2.6,3.3c1.2,0.7,2.5,1.1,3.9,1.1
		c1.7,0,3.1-0.5,4.3-1.5C-276.2-410.2-275.4-411.6-275-413.5z"/>
	<path class="st0" d="M-269.6-413.8c0-3.1,0.9-5.3,2.6-6.8c1.4-1.2,3.2-1.8,5.2-1.8c2.3,0,4.1,0.7,5.6,2.2c1.4,1.5,2.2,3.6,2.2,6.2
		c0,2.1-0.3,3.8-1,5c-0.6,1.2-1.6,2.2-2.8,2.9c-1.2,0.7-2.6,1-4,1c-2.3,0-4.2-0.7-5.6-2.2C-268.9-408.9-269.6-411-269.6-413.8z
		 M-266.8-413.8c0,2.1,0.5,3.7,1.4,4.8c0.9,1.1,2.1,1.6,3.5,1.6c1.4,0,2.6-0.5,3.5-1.6c0.9-1.1,1.4-2.7,1.4-4.9
		c0-2.1-0.5-3.6-1.4-4.7c-0.9-1.1-2.1-1.6-3.5-1.6c-1.4,0-2.6,0.5-3.5,1.6C-266.3-417.5-266.8-415.9-266.8-413.8z"/>
	<path class="st0" d="M-250.9-405.5v-22.9h2.8v22.9H-250.9z"/>
	<path class="st0" d="M-244.7-413.8c0-3.1,0.9-5.3,2.6-6.8c1.4-1.2,3.2-1.8,5.2-1.8c2.3,0,4.1,0.7,5.6,2.2c1.4,1.5,2.2,3.6,2.2,6.2
		c0,2.1-0.3,3.8-1,5c-0.6,1.2-1.6,2.2-2.8,2.9c-1.2,0.7-2.6,1-4,1c-2.3,0-4.2-0.7-5.6-2.2C-244-408.9-244.7-411-244.7-413.8z
		 M-241.9-413.8c0,2.1,0.5,3.7,1.4,4.8c0.9,1.1,2.1,1.6,3.5,1.6c1.4,0,2.6-0.5,3.5-1.6c0.9-1.1,1.4-2.7,1.4-4.9
		c0-2.1-0.5-3.6-1.4-4.7c-0.9-1.1-2.1-1.6-3.5-1.6c-1.4,0-2.6,0.5-3.5,1.6C-241.4-417.5-241.9-415.9-241.9-413.8z"/>
	<path class="st0" d="M-225.9-405.5v-16.6h2.5v2.5c0.6-1.2,1.2-2,1.8-2.3s1.1-0.6,1.8-0.6c0.9,0,1.9,0.3,2.9,0.9l-1,2.6
		c-0.7-0.4-1.4-0.6-2.1-0.6c-0.6,0-1.2,0.2-1.7,0.6c-0.5,0.4-0.8,0.9-1,1.5c-0.3,1-0.5,2.1-0.5,3.3v8.7H-225.9z"/>
</g>
<g>
	<path class="st0" d="M213.7-411.2l-6.1-22.9h3.1l3.5,15c0.4,1.6,0.7,3.1,1,4.7c0.6-2.4,0.9-3.9,1-4.2l4.4-15.5h3.7l3.3,11.6
		c0.8,2.9,1.4,5.6,1.8,8.1c0.3-1.4,0.7-3.1,1.1-5l3.6-14.7h3l-6.3,22.9h-2.9l-4.8-17.5c-0.4-1.5-0.6-2.4-0.7-2.7
		c-0.2,1.1-0.5,1.9-0.7,2.7l-4.9,17.5H213.7z"/>
	<path class="st0" d="M239.6-411.2v-22.9h2.8v8.2c1.3-1.5,3-2.3,5-2.3c1.2,0,2.3,0.2,3.2,0.7s1.6,1.2,1.9,2c0.4,0.9,0.6,2.1,0.6,3.7
		v10.5h-2.8v-10.5c0-1.4-0.3-2.4-0.9-3.1s-1.5-1-2.6-1c-0.8,0-1.6,0.2-2.4,0.6c-0.7,0.4-1.3,1-1.6,1.8c-0.3,0.7-0.5,1.8-0.5,3.1v9.1
		H239.6z"/>
	<path class="st0" d="M257.4-430.9v-3.2h2.8v3.2H257.4z M257.4-411.2v-16.6h2.8v16.6H257.4z"/>
	<path class="st0" d="M270.6-413.7l0.4,2.5c-0.8,0.2-1.5,0.2-2.1,0.2c-1,0-1.8-0.2-2.4-0.5s-1-0.7-1.2-1.3c-0.2-0.5-0.3-1.6-0.3-3.3
		v-9.5h-2.1v-2.2h2.1v-4.1l2.8-1.7v5.8h2.8v2.2h-2.8v9.7c0,0.8,0,1.3,0.1,1.5c0.1,0.2,0.3,0.4,0.5,0.5c0.2,0.1,0.5,0.2,1,0.2
		C269.7-413.6,270.1-413.6,270.6-413.7z"/>
	<path class="st0" d="M284.7-416.6l2.9,0.4c-0.5,1.7-1.3,3-2.5,4s-2.8,1.4-4.8,1.4c-2.4,0-4.4-0.7-5.8-2.2c-1.4-1.5-2.1-3.6-2.1-6.3
		c0-2.8,0.7-5,2.2-6.5c1.4-1.5,3.3-2.3,5.6-2.3c2.2,0,4,0.8,5.4,2.3c1.4,1.5,2.1,3.6,2.1,6.4c0,0.2,0,0.4,0,0.8h-12.4
		c0.1,1.8,0.6,3.2,1.5,4.2s2.1,1.5,3.5,1.5c1,0,1.9-0.3,2.6-0.8C283.7-414.5,284.3-415.4,284.7-416.6z M275.5-421.1h9.3
		c-0.1-1.4-0.5-2.4-1.1-3.1c-0.9-1.1-2.1-1.6-3.5-1.6c-1.3,0-2.4,0.4-3.3,1.3C276.1-423.7,275.6-422.5,275.5-421.1z"/>
</g>
<g>
	<path class="st1" d="M-410.5-178.5C-410.5-178.5-410.5-178.5-410.5-178.5c-0.1,0-0.2-0.1-0.2-0.2c0.9-19.1,4.9-38.1,9.1-56.5
		c0.1-4.5,0.3-9.1,0.5-13.5c-0.5,1.3-1,2.6-1.4,3.9c0,0.1-0.1,0.1-0.1,0.1c-0.1,0-0.1,0-0.2,0c-3.5-2-12,5.8-18.3,11.5
		c-2.8,2.5-5.1,4.7-6.8,5.8c-0.1,0.1-0.2,0-0.3,0c-0.1-0.1,0-0.2,0-0.3c1.6-1.1,4-3.3,6.8-5.8c6.6-6,14.8-13.4,18.6-11.6
		c0.6-1.6,1.2-3.2,1.8-4.9c1.5-31.1,5.4-59.5,11-80.3c0-0.1,0.1-0.1,0.2-0.1c0.1,0,0.2,0,0.2,0.1c3.1,8.6-0.9,31.7-3.1,44.2
		c-0.5,2.8-0.9,5-1,6.4c-0.7,5.3-1.5,10.7-2.3,16.2c0.7-2,1.4-4,2.1-5.9c2.8-14.2,4.9-28.5,5.2-42.8c0-0.1,0.1-0.2,0.2-0.2
		c0.1,0,0.2,0.1,0.2,0.2c0.7,4.5,1.3,9.2,1.8,14c0.8-4.9,1.8-9.6,3.2-14.2c0-0.1,0.1-0.2,0.2-0.1c0.1,0,0.2,0.1,0.2,0.2l-0.1,1.3
		c-0.6,5.7-1.3,11.8-2,17.9c0.5,3,0.9,6.5,1.3,10.5c1.4-19.6,3.1-39.6,8-57.2c0-0.1,0.1-0.1,0.2-0.1c0.1,0,0.2,0.1,0.2,0.2
		c1.6,9.5,2,19.4,1.8,29.5c0.6-4.2,1.3-8.3,2.2-12.2c0-0.1,0.1-0.1,0.2-0.1c0.1,0,0.2,0.1,0.2,0.2c0.2,2,0.5,4.1,0.7,6.2
		c0.7-1.2,1.4-2.3,2.1-3.3c0.1-0.6,0.2-1.2,0.3-1.9c0-0.1,0.1-0.2,0.2-0.2c0.1,0,0.2,0.1,0.2,0.2c0,0.3,0.1,0.5,0.1,0.8
		c0.1-0.1,0.1-0.2,0.2-0.3c-0.2-4.7-0.3-9.4-0.3-14.2c0-0.1,0.1-0.2,0.2-0.2c0.1,0,0.2,0.1,0.2,0.2c0.6,6.3,1.2,12.6,1.7,18.9
		c0.9,5.5,1.5,11,1.8,16.5c0.1-0.1,0.2-0.1,0.3-0.2c0-1.3-0.1-3.2-0.1-5.3c-0.3-8.2-0.7-21.4,1.2-28.3c0-6.2,0.1-12.4,0.1-18.6
		c0-0.1,0.1-0.2,0.2-0.2c0.1,0,0.2,0,0.2,0.1c3,9.6,3.6,22.5,3.6,35.4c0.4,3,0.7,6,1,9c1.5-12.8,3.5-25.1,6.1-37.7
		c0-0.1,0.1-0.1,0.2-0.1c0.1,0,0.2,0,0.2,0.1c3.6,9.3-1.2,32.9-5.2,50.7c0,0.1,0.1,0.1,0,0.2c0,0.1-0.1,0.2-0.1,0.2
		c-0.1,0.4-0.2,0.7-0.2,1.1c0.1,1.4,0.1,2.8,0.1,4.2c1.1-1.2,2.3-2.3,3.4-3.2c0.1-0.1,0.2,0,0.3,0c0.1,0.1,0,0.2,0,0.3
		c-1.2,0.9-2.4,2.1-3.6,3.4c0.3,13.1-0.4,26.2-2,38.5c0,7.3,0,14.6,0,22.6c0,5,0,10.2,0,15.9c0,0.1-0.1,0.2-0.2,0.2
		c-0.1,0-0.2-0.1-0.2-0.2c-1.4-13-1.7-15.9-2.2-24.8c0,0-0.1-0.1-0.1-0.1c0-0.4,0-0.7,0-1.1c-0.1-1.9-0.2-4-0.3-6.5l-0.1-2.5
		c-0.2-3.1-0.3-6.2-0.5-9.3c0,20.7-0.1,41.5-0.7,62.1c0,0.1-0.1,0.2-0.2,0.2c-0.1,0-0.2-0.1-0.2-0.2l0-1c0-19.8,0.1-39.8-0.3-59.9
		c-1.2,7.6-2.6,15.1-4.2,22.3c-0.4,6-1.2,12.3-2.5,19.6c0,0.1-0.1,0.2-0.2,0.2c-0.1,0-0.2-0.1-0.2-0.2c-0.9-10.5,0.3-17,1.7-24.6
		c0.4-2.2,0.8-4.4,1.2-6.8c0-0.4,0.1-0.8,0.1-1.2c0-3.1,0-6.3,0-9.6c0-2.8,0-5.7,0-8.7c-0.7,0.8-1.5,1.5-2.2,2.3
		c-1.2,21.3-4.1,43-8.4,62.8c0,0.1-0.1,0.2-0.2,0.1c-0.1,0-0.2-0.1-0.2-0.2c-0.1-11.5,1.8-23.4,3.6-35c1-6.5,2.1-13.3,2.8-19.7
		c0.2-2.1,0.4-4.1,0.5-6.2c-0.1,0.1-0.2,0.2-0.2,0.2c-1.1,1.1-2.2,2.2-3.3,3.4c-0.2,9.1-0.8,18.5-3.3,25.1c0,0.1-0.1,0.1-0.2,0.1
		c-0.1,0-0.2-0.1-0.2-0.2l0.1-4.3c0.1-5.2,0.3-10.5,0.5-15.9c-1.3,2.3-2.7,4.5-4.1,6.5c-0.4,12.1-1.8,26.4-6.4,34.7
		c-0.3,2.3-0.6,4.6-1,6.9c0,0.1-0.1,0.2-0.2,0.2c-0.1,0-0.2-0.1-0.2-0.2c-0.1-1.5-0.1-3.1-0.1-4.6c-1,1.3-2.1,2.4-3.3,3.2
		c-0.1,0-0.1,0-0.2,0c-0.1,0-0.1-0.1-0.1-0.1c-2.7-10.7-1.3-24.2,0.4-36.7c-0.9,0.8-1.9,1.5-2.8,2.2c-1.5,4.5-3.3,8.7-5.2,12.7
		c0,0.1-0.1,0.1-0.2,0.1c-0.1,0-0.1-0.1-0.1-0.2c0-0.3,0-0.5,0-0.8c-2.6,15.5-5.4,31.7-8.6,48.8
		C-410.3-178.6-410.4-178.5-410.5-178.5z M-401.7-233.4c-3.8,16.9-7.3,34.2-8.5,51.7c3.1-16.9,5.9-33,8.4-48.3
		C-401.7-231.1-401.7-232.3-401.7-233.4z M-371.2-260.3c-0.2,2.2-0.4,4.5-0.6,6.7c-0.7,6.4-1.7,13.2-2.8,19.7
		c-1.7,10.9-3.5,22.2-3.6,33.2c4.1-19.1,6.8-40,8-60.5C-370.6-261-370.9-260.7-371.2-260.3z M-392.9-241.9
		c-1.7,12.5-3.2,25.9-0.5,36.7c1.2-0.9,2.3-2,3.2-3.4c0-9.9,0.9-19.6,2-29.4c-0.4,0.3-0.8,0.7-1.1,1c-0.1,0.1-0.2,0.1-0.2,0
		c-0.1-0.1-0.1-0.1-0.1-0.2c0.5-1.2,1.1-2.5,1.8-3.7c0.2-1.5,0.4-3,0.5-4.6c0-0.4,0.1-0.8,0.1-1.2C-389.1-245-391-243.4-392.9-241.9
		z M-389.8-208.5c0,1,0,2,0,2.9c0.2-1.3,0.4-2.5,0.5-3.8C-389.4-209.1-389.6-208.8-389.8-208.5z M-387.8-238.4
		c-1.1,9.8-2,19.4-2.1,29.2c0.2-0.4,0.5-0.7,0.7-1.1c1.3-9.9,2.2-19.8,2.8-29.6C-386.8-239.4-387.3-238.9-387.8-238.4z
		 M-363.2-257.1c0.3,15.6,0.3,31.2,0.3,46.6c0.3-17,0.4-34,0.3-50.9C-362.7-260-362.9-258.6-363.2-257.1z M-385.9-240.4
		c-0.6,9.6-1.5,19.4-2.7,29.1c4.1-8.2,5.5-21.6,5.9-33.1C-383.8-242.9-384.8-241.6-385.9-240.4z M-368.2-239.2
		c-0.1,0.5-0.2,1-0.3,1.5c-1.3,7.2-2.5,13.5-1.8,23.1c1-5.7,1.7-10.9,2.1-15.7c-0.2,0.8-0.4,1.5-0.6,2.3c0,0.1-0.1,0.2-0.2,0.1
		c-0.1,0-0.2-0.1-0.2-0.2C-368.9-231.8-368.6-235.5-368.2-239.2z M-360.7-237c0.5,8.2,0.7,11.4,1.9,21.7c0-4.4,0-8.5,0-12.4
		c0-7,0-13.5,0-19.9C-359.4-244-360-240.5-360.7-237z M-401.3-230c0,0.8,0,1.6,0,2.4c1.7-3.6,3.3-7.4,4.7-11.4
		c-1.2,0.9-2.4,1.8-3.6,2.7C-400.7-234.2-401-232.1-401.3-230z M-367.7-241.3c-0.4,3.7-0.7,7.3-1,11c0.2-0.8,0.4-1.7,0.6-2.5
		C-367.8-235.7-367.7-238.5-367.7-241.3z M-377.9-252.2c-0.2,5.6-0.3,11.2-0.5,16.6l-0.1,3.1c2.1-6.4,2.7-15,2.9-23.4
		c-0.2,0.2-0.4,0.4-0.5,0.6C-376.7-254.3-377.3-253.2-377.9-252.2z M-401.2-235.2c0,0.9,0,1.7-0.1,2.6c0.2-1.2,0.4-2.3,0.6-3.4
		c0,0,0,0-0.1,0c-0.1-0.1-0.1-0.2,0-0.2c0.1-0.1,0.1-0.2,0.2-0.3c0.2-1.3,0.4-2.6,0.6-3.9C-400.4-238.7-400.8-237-401.2-235.2z
		 M-367.2-245.3c0,3.4-0.1,6.7-0.3,10.1c1.5-7.1,2.8-14.6,4-22c-0.1-6.9-0.3-13.8-0.5-20.7c-0.1,0.1-0.1,0.2-0.2,0.3
		c-0.4,6.9-1.1,13.7-1.8,20.5c-0.1,1.2-0.2,2.4-0.3,3.6C-366.5-250.4-366.8-247.8-367.2-245.3z M-395.1-243.6
		c-1.7,2.2-3.3,4.4-4.8,6.7c1.2-0.8,2.3-1.7,3.5-2.6C-396-240.9-395.6-242.3-395.1-243.6z M-400.7-250c-0.2,4.2-0.4,8.5-0.5,12.8
		c0.5-2.1,0.9-4.1,1.4-6.2c0.2-0.8,0.4-1.6,0.6-2.5c0.8-4.8,1.5-9.6,2.2-14.3c-0.8,2.1-1.5,4.1-2.2,6.2
		C-399.8-252.6-400.2-251.3-400.7-250z M-398.8-245.7c-0.4,2.8-0.9,5.5-1.3,8.3c1.7-2.5,3.5-4.9,5.3-7.3c1.6-5.1,2.9-10.5,4-16
		c0-0.4,0.1-0.8,0.1-1.1c-1.5,0.6-3.1,1-4.7,1.2c0,0-0.1,0-0.1,0C-396.6-255.6-397.7-250.6-398.8-245.7z M-388-239.9
		c-0.4,0.7-0.7,1.4-1,2.1c0.3-0.2,0.6-0.5,0.8-0.8C-388.1-239-388-239.5-388-239.9z M-359.6-279.3c-0.7,12.6-1.1,25.9-1.1,40.7
		c0.7-3.8,1.4-7.7,1.9-11.7c0-9.7-0.1-19.6-0.3-31.4C-359.3-280.9-359.5-280.1-359.6-279.3z M-387.5-240.8c-0.1,0.6-0.1,1.2-0.2,1.8
		c0.5-0.5,1-1,1.4-1.5c0.1-0.9,0.1-1.7,0.1-2.6C-386.6-242.3-387.1-241.6-387.5-240.8z M-394.5-244.5c-0.5,1.5-0.9,3-1.4,4.5
		c0.9-0.7,1.8-1.4,2.7-2.1c0.2-1.6,0.5-3.3,0.7-4.9C-393.2-246.1-393.9-245.3-394.5-244.5z M-385.7-243.7c0,0.9-0.1,1.8-0.2,2.7
		c1-1.2,2.1-2.6,3.1-4.1c0-0.3,0-0.7,0-1c0-0.6,0-1.2,0-1.8C-383.8-246.5-384.8-245.2-385.7-243.7z M-386.7-247
		c-0.1,0.5-0.1,1.1-0.2,1.6c-0.1,1.2-0.3,2.5-0.4,3.7c0.4-0.7,0.8-1.4,1.3-2.1c0.1-1.3,0.1-2.6,0.2-3.9
		C-386.2-247.5-386.5-247.3-386.7-247z M-392.1-247.5c0,0.1,0,0.3-0.1,0.4c-0.2,1.6-0.4,3.1-0.7,4.7c1.9-1.6,3.8-3.2,5.7-4.8
		c0.1-1.3,0.3-2.5,0.4-3.8c0.1-1.2,0.3-2.4,0.4-3.6C-388.2-252.3-390.2-249.9-392.1-247.5z M-385.5-248.1c-0.1,1.2-0.1,2.4-0.2,3.6
		c0.9-1.4,1.9-2.7,3-4c0-0.7,0-1.4,0-2.1C-383.6-249.7-384.5-248.9-385.5-248.1z M-362.1-263.2c0.1,1.9,0.2,3.8,0.3,5.7
		c0.2,3.5,0.4,7.1,0.6,10.5l0.1,2.4c0.1-11.3,0.4-21.7,0.9-31.7c-0.5,3.2-1,6.6-1.5,9.8c-0.1,0.9-0.3,1.7-0.4,2.6
		C-362.1-263.6-362.1-263.4-362.1-263.2z M-391.2-257.2c-0.9,4-1.9,7.9-3,11.7c0.6-0.7,1.2-1.5,1.7-2.2
		C-392-251-391.5-254.2-391.2-257.2z M-382.3-248.4c0,0.8,0,1.6,0,2.3c0,0.1,0,0.3,0,0.4c1.4-2,2.8-4.3,4.1-6.6c0-0.3,0-0.5,0-0.8
		C-379.7-251.5-381-250-382.3-248.4z M-385.8-255.1c-0.1,1.4-0.3,2.8-0.5,4.1c-0.1,1.1-0.3,2.3-0.4,3.4c0.3-0.2,0.5-0.5,0.8-0.7
		c0.1-2.3,0.2-4.6,0.2-6.9c0,0-0.1,0-0.1,0C-385.8-255.2-385.8-255.1-385.8-255.1z M-390.4-260.6c0,0.4-0.1,0.8-0.1,1.2
		c-0.4,3.4-0.9,7.2-1.5,11.2c1.9-2.4,3.9-4.7,5.8-7c0.3-2.4,0.5-4.9,0.7-7.4c0-0.7,0-1.4,0-2.1c-1.5,1.1-3,2-4.6,2.7
		C-390.2-261.6-390.3-261.1-390.4-260.6z M-385.2-255.3c-0.1,2.2-0.1,4.4-0.2,6.7c0.9-0.8,1.9-1.6,2.8-2.5c0-1.7,0-3.4,0-5.2
		C-383.7-255.7-384.6-255.4-385.2-255.3z M-382.3-250.9c0,0.7,0,1.3,0,1.9c1.3-1.6,2.7-3.2,4.1-4.7c0-0.3,0-0.6,0-1
		C-379.6-253.4-380.9-252.1-382.3-250.9z M-367.2-264.4c0,3.2,0,6.2,0,9.1c0,2,0,4,0,5.9c0.1-0.9,0.2-1.8,0.3-2.7
		c0.2-1.7,0.4-3.3,0.5-5c0.4-5.9,0.5-11.8,0.5-17.6c-0.4,0.8-0.9,1.6-1.3,2.4c0,0.2,0,0.5,0,0.7c0,2.3-0.1,4.4-0.1,6.5
		c0.2-0.2,0.4-0.3,0.6-0.5c0.1-0.1,0.2-0.1,0.3,0c0.1,0.1,0.1,0.2,0,0.3C-366.7-265-367-264.7-367.2-264.4z M-396.4-261.8
		c-0.5,3.6-1.1,7.3-1.6,11c1.2-5.4,2.4-10.8,3.5-16.2C-395.1-265.3-395.8-263.5-396.4-261.8z M-389.9-329.6
		c-5.4,20.5-9.2,48.2-10.7,78.4c0.3-0.9,0.7-1.8,1-2.7c1-2.6,1.9-5.3,2.9-7.9c0.9-6.1,1.7-12.1,2.5-18c0.2-1.4,0.6-3.6,1-6.4
		C-391.1-298.4-387.2-320.7-389.9-329.6z M-382.3-256.5c0,1.7,0,3.4,0,5.1c1.4-1.2,2.8-2.5,4.1-3.7c0.1-1.7,0.1-3.5,0.2-5.2
		C-379.7-258.5-381.1-257.3-382.3-256.5z M-377.9-253.5c0,0.2,0,0.4,0,0.5c0.2-0.4,0.5-0.9,0.7-1.3
		C-377.4-254-377.6-253.8-377.9-253.5z M-358.8-283.3c0.2,11.3,0.3,20.9,0.3,30.1c1.4-11.3,1.9-23.2,1.7-35.2
		c-0.4,0.5-0.8,1-1.3,1.5C-358.3-285.6-358.6-284.4-358.8-283.3z M-377.8-255c0,0.3,0,0.6,0,0.9c0.5-0.5,0.9-1,1.4-1.5
		c0.2-0.4,0.5-0.9,0.7-1.3C-376.4-256.2-377.1-255.6-377.8-255z M-377.6-260.8c-0.1,1.8-0.1,3.6-0.2,5.3c0.7-0.7,1.5-1.4,2.2-2
		c0-2,0-4,0-5.9C-376.2-262.4-376.9-261.6-377.6-260.8z M-385.2-255.8c0,0,0,0.1,0,0.1c0.8-0.1,1.7-0.5,2.5-1c0-0.7,0-1.3,0-2
		C-383.6-257.7-384.4-256.8-385.2-255.8z M-385.1-260.3c0,1.3,0,2.6-0.1,3.9c0.8-0.9,1.6-1.9,2.4-2.8c-0.1-2.5-0.2-5-0.3-7.4
		c-0.5,0.4-1,0.8-1.5,1.2C-384.8-263.7-385-262-385.1-260.3z M-375.2-257.1c0,0.1,0,0.1,0,0.2c1-1,2-2.1,3-3.1
		c0.2-0.2,0.4-0.4,0.5-0.5c0,0,0-0.1,0-0.1c-0.6,0.6-1.3,1.2-1.9,1.7c-0.5,0.4-0.9,0.8-1.4,1.3C-375-257.4-375.1-257.3-375.2-257.1z
		 M-382.4-259.1c0,0.7,0,1.5,0.1,2.2c1.4-0.9,2.9-2.3,4.4-4c0-1.2,0.1-2.3,0.1-3.5c-1.2,1.4-2.5,2.9-3.7,4.3
		C-381.8-259.8-382.1-259.4-382.4-259.1z M-375.1-263.9c0,2,0,4,0,6c1.2-2.2,2.3-4.4,3.5-6.6c0.1-0.2,0.3-0.5,0.4-0.7
		c0.1-1.7,0.2-3.4,0.2-5C-372.5-267.8-373.9-265.7-375.1-263.9z M-371.4-264.3c-1,1.9-2,3.8-3,5.7c0.2-0.2,0.4-0.4,0.6-0.5
		c0.7-0.7,1.5-1.3,2.2-2C-371.5-262.2-371.4-263.3-371.4-264.3z M-363.7-278.4c0.2,6.4,0.4,12.8,0.5,19.1c0.2-1.5,0.5-2.9,0.7-4.4
		c-0.3-5.1-0.5-10.3-0.8-15.5C-363.4-278.9-363.6-278.7-363.7-278.4z M-382.7-266.9c0.1,2.4,0.2,4.8,0.3,7.3
		c0.2-0.2,0.4-0.5,0.6-0.7c1.3-1.5,2.7-3.1,4-4.7c0.1-2.4,0.2-4.7,0.4-7.1C-379.1-270.3-380.9-268.5-382.7-266.9z M-371.2-261
		C-371.2-261-371.2-260.9-371.2-261c0.3-0.2,0.5-0.5,0.8-0.7C-370.7-261.5-370.9-261.2-371.2-261z M-389.5-274.2
		c-2.6,4.3-4.6,8.8-5.6,13.2c1.6-0.2,3.1-0.6,4.5-1.2c0.3-2.8,0.5-5.7,0.8-8.5C-389.7-271.9-389.6-273.1-389.5-274.2z M-377.4-264.9
		c-0.1,1.2-0.1,2.3-0.2,3.5c0.7-0.8,1.4-1.7,2-2.6c0-0.7,0-1.4,0-2.1c0-0.3,0-0.7,0-1C-376.2-266.4-376.8-265.6-377.4-264.9z
		 M-370.9-265.1c-0.1,1.2-0.1,2.4-0.2,3.6c0.3-0.3,0.6-0.6,1-0.9c0.1-1.5,0.2-3.1,0.2-4.6C-370.3-266.4-370.6-265.8-370.9-265.1z
		 M-387.4-277.6c-0.8,5-1.6,10.1-2.6,15c1.6-0.7,3.1-1.6,4.5-2.7c0-5-0.1-9.8-0.3-14.6C-386.3-279.1-386.9-278.3-387.4-277.6z
		 M-369.6-267.8c-0.1,1.7-0.2,3.3-0.2,5c0.7-0.7,1.5-1.3,2.2-2c0-2.2,0-4.4,0.1-6.8C-368.2-270.3-368.9-269.1-369.6-267.8z
		 M-393.6-269.5c-0.4,2-0.8,4-1.2,6c1.2-3.9,3.1-7.8,5.4-11.6c0.3-3,0.6-5.9,0.9-8.9C-390.2-279.1-391.9-274.3-393.6-269.5z
		 M-389.1-275c-0.1,1.4-0.3,2.8-0.4,4.2c-0.2,2.1-0.4,4.3-0.6,6.5c0.8-4.2,1.5-8.4,2.2-12.6C-388.3-276.2-388.7-275.6-389.1-275z
		 M-365.5-275.3c0,3.6,0,7.3-0.2,10.9c0.4-4.1,0.7-8.3,1-12.4C-364.9-276.3-365.2-275.8-365.5-275.3z M-375.2-267.6c0,0.5,0,1,0,1.5
		c0,0.5,0,1,0,1.5c1.4-2,2.8-4.2,4.1-6.5c0-0.5,0-1,0.1-1.5C-372.3-270.9-373.7-269.2-375.2-267.6z M-377-272.6
		c-0.1,2.4-0.2,4.7-0.4,7.1c0.6-0.7,1.2-1.5,1.9-2.2c0-2.4,0-4.6,0-6.6C-376-273.7-376.5-273.1-377-272.6z M-383.5-273
		c-0.4,2.4-0.7,4.7-1,7.1c0.5-0.4,0.9-0.7,1.4-1.1C-383.2-269.1-383.3-271.1-383.5-273z M-370.7-271c-0.1,1.7-0.1,3.3-0.2,4.9
		c0.3-0.6,0.6-1.2,1-1.9c0.1-1.6,0.1-3.2,0.2-4.7C-370.1-272.1-370.4-271.5-370.7-271z M-362.2-280.9c0,4.9,0,9.8,0.1,14.7
		c0-0.1,0-0.2,0-0.2c0.5-3.5,1.1-7.2,1.7-10.7c0.1-0.7,0.2-1.4,0.4-2.2c0.1-1.8,0.2-3.5,0.3-5.3
		C-360.5-283.5-361.3-282.2-362.2-280.9z M-383.9-278.4c-0.3,3.9-0.6,7.9-0.9,11.8c0.3-2.6,0.7-5.3,1.2-8.1
		C-383.7-275.9-383.8-277.2-383.9-278.4z M-385.4-280.3c0.2,4.3,0.3,8.6,0.3,13.1c0.3-4.1,0.6-8.3,0.9-12.3c0-0.4,0.1-0.7,0.1-1.1
		c0-0.4-0.1-0.8-0.1-1.1C-384.6-281.3-385-280.8-385.4-280.3z M-383.2-274.6c0.2,2.3,0.3,4.8,0.5,7.2c1.8-1.6,3.6-3.4,5.4-5.3
		c0.3-5.9,0.7-11.9,1.3-17.7c-1.7,1.6-3.4,3.3-5,5C-381.9-281.8-382.6-278.2-383.2-274.6z M-375.1-274.8c-0.1,2-0.1,4.2-0.1,6.6
		c1.4-1.7,2.8-3.4,4.2-5.1c0.1-2.2,0.1-4.5,0.2-6.7c0,0-0.1,0.1-0.1,0.1C-372.2-278.1-373.7-276.4-375.1-274.8z M-369.3-273.4
		c0,1.6-0.1,3.1-0.2,4.7c0.7-1.2,1.3-2.5,2-3.7c0-1.6,0.1-3.1,0.1-4.8c-0.4,0.9-0.9,1.8-1.3,2.6
		C-368.9-274.1-369.1-273.7-369.3-273.4z M-362.9-279.7c0.1,3,0.3,6,0.4,9c0-3.2,0-6.4,0-9.6C-362.7-280.1-362.8-279.9-362.9-279.7z
		 M-370.6-273.1c0,0.4,0,0.9,0,1.3c0.3-0.5,0.6-1.1,0.9-1.7c0-0.3,0-0.5,0-0.8C-370-273.9-370.3-273.5-370.6-273.1z M-388.5-310.3
		c-0.4,12.8-2.2,25.6-4.7,38.3c1.6-4.6,3.2-9.1,4.8-13.7c0.4-3.8,0.9-7.6,1.5-11.3C-387.3-301.6-387.9-306-388.5-310.3z M-367-277.8
		c-0.1,1.6-0.1,3.1-0.1,4.7c0.4-0.8,0.9-1.6,1.3-2.3c0-1.3,0-2.6,0-3.9C-366.3-278.8-366.6-278.3-367-277.8z M-375.7-290.8
		c-0.5,5.8-0.9,11.7-1.3,17.7c0.5-0.6,1-1.1,1.5-1.7c0.1-4.7,0.4-9.5,0.6-14.6c0-0.7,0.1-1.4,0.1-2.2
		C-375.1-291.4-375.4-291.1-375.7-290.8z M-370.4-280.4c-0.1,2.2-0.1,4.4-0.2,6.7c0.3-0.4,0.6-0.7,0.9-1.1c0.1-2.2,0.1-4.3,0.1-6.5
		C-369.8-281.1-370.1-280.7-370.4-280.4z M-369.3-274.8c0,0.2,0,0.4,0,0.5c0.3-0.5,0.5-1,0.8-1.5
		C-368.8-275.4-369-275.1-369.3-274.8z M-374.4-292c0,0.8-0.1,1.7-0.1,2.5c-0.2,4.9-0.4,9.6-0.6,14.1c1.3-1.6,2.6-3.1,4-4.7
		c0.1-0.2,0.3-0.3,0.4-0.5c0-1.2,0.1-2.4,0.1-3.6c0.1-3.7,0.2-7.4,0.3-11.2C-371.7-294.3-373-293.2-374.4-292z M-369.2-281.8
		c0,2.1-0.1,4.3-0.1,6.5c0.6-0.7,1.1-1.5,1.7-2.2c0.1-0.2,0.2-0.4,0.3-0.5c0.1-1.7,0.1-3.4,0.2-5.2c0-0.3,0-0.7,0-1
		C-367.8-283.5-368.5-282.7-369.2-281.8z M-388-285.6c-0.4,3.3-0.7,6.6-1,9.8c0.4-0.6,0.8-1.3,1.3-1.9c0.6-3.7,1.1-7.3,1.5-11
		c0-0.7-0.1-1.3-0.1-2C-386.9-288.9-387.5-287.3-388-285.6z M-365.5-279.8c0,1.2,0,2.5,0,3.7c0.3-0.5,0.6-1,0.9-1.5
		c0.1-1.2,0.1-2.5,0.2-3.7C-364.8-280.8-365.1-280.3-365.5-279.8z M-383.7-280.7c0.1,1.5,0.3,3,0.4,4.5c0.5-2.9,1.1-5.8,1.7-8.7
		c-0.7,0.7-1.3,1.5-2,2.3C-383.6-281.9-383.7-281.3-383.7-280.7z M-364.1-279.5c0,0.4,0,0.8-0.1,1.2c0-0.1,0.1-0.1,0.1-0.2
		C-364.1-278.9-364.1-279.2-364.1-279.5z M-386.1-286.7c-0.4,2.8-0.8,5.5-1.2,8.3c0.5-0.7,1-1.4,1.5-2
		C-385.9-282.5-386-284.6-386.1-286.7z M-366.7-284.7c0,0.5,0,1-0.1,1.5c-0.1,1.5-0.1,2.9-0.2,4.3c0.4-0.7,0.7-1.5,1-2.2
		c0-1.5-0.1-2.9-0.1-4.4C-366.3-285.3-366.5-285-366.7-284.7z M-363.8-282.2c0,1,0.1,2,0.1,3.1c0.1-0.2,0.3-0.5,0.4-0.7
		c0-1-0.1-2-0.1-3C-363.5-282.6-363.7-282.4-363.8-282.2z M-365.9-280.3c-0.2,0.3-0.3,0.7-0.5,1c0.2-0.2,0.3-0.4,0.5-0.7
		C-365.9-280-365.9-280.1-365.9-280.3z M-363-283.3c0,1,0.1,1.9,0.1,2.9c0.1-0.2,0.3-0.4,0.4-0.6c0-1,0-2,0-3
		C-362.7-283.8-362.9-283.6-363-283.3z M-365.5-281.1c0,0.2,0,0.4,0,0.6c0.4-0.5,0.8-1.1,1.2-1.6c0-0.6,0.1-1.2,0.1-1.8
		C-364.7-282.9-365.1-282-365.5-281.1z M-385.8-288.6c0.2,2.6,0.3,5.2,0.4,7.8c0.4-0.5,0.8-1,1.2-1.5c-0.4-3.6-0.8-6.8-1.2-9.6
		C-385.6-290.8-385.7-289.7-385.8-288.6z M-369.9-295.6c-0.1,3.8-0.2,7.7-0.3,11.5c0,1-0.1,2.1-0.1,3.1c0.3-0.3,0.5-0.6,0.8-0.9
		c0-4.7,0-9.3-0.1-13.8C-369.8-295.7-369.8-295.7-369.9-295.6z M-362.2-284.6c0,1,0,2,0,3c0.8-1.3,1.7-2.6,2.6-3.8
		c0.1-1.3,0.2-2.5,0.3-3.7C-360.3-287.6-361.2-286.1-362.2-284.6z M-365.6-286c0,1.3,0.1,2.7,0.1,4c0.4-1,0.8-1.9,1.2-2.9
		c0-0.8-0.1-1.7-0.1-2.5C-364.8-286.9-365.2-286.5-365.6-286z M-359.3-285.2c-0.1,1.1-0.1,2.1-0.2,3.2c0.1-0.4,0.2-0.9,0.3-1.3
		c0-0.5,0-1.1,0-1.6C-359.2-285.1-359.2-285.2-359.3-285.2C-359.2-285.3-359.2-285.3-359.3-285.2z M-369.3-296
		c0.1,4.5,0.2,9,0.1,13.6c0.7-0.8,1.4-1.6,2.1-2.5c0.2-4.2,0.3-8.6,0.4-13C-367.6-297.3-368.5-296.7-369.3-296z M-363.9-284.1
		c0,0.4,0,0.9,0.1,1.3c0.1-0.2,0.3-0.4,0.4-0.6c0-0.8-0.1-1.6-0.1-2.3c-0.1,0.3-0.3,0.6-0.4,0.9
		C-363.9-284.6-363.9-284.3-363.9-284.1z M-375.8-339.1c-4.7,17.2-6.3,36.8-7.7,55.9c0.7-0.8,1.4-1.6,2.1-2.4
		c1.9-8.5,4.3-16.8,7.3-23.8C-374-319.5-374.3-329.6-375.8-339.1z M-363.1-286.6c0,0.9,0.1,1.8,0.1,2.7c0.2-0.2,0.3-0.5,0.5-0.8
		c0-0.8,0-1.6,0-2.5c0-0.3,0-0.6,0-0.9C-362.8-287.6-363-287.1-363.1-286.6z M-358.9-285.8c0,0.3,0,0.5,0,0.8c0,0,0,0,0,0
		c0.1-0.4,0.2-0.8,0.3-1.2C-358.7-286-358.8-285.9-358.9-285.8z M-362.2-289c0,0.6,0,1.2,0,1.9c0,0.6,0,1.3,0,1.9
		c1-1.5,2-3.1,2.9-4.7c0-0.1,0-0.3,0-0.4c0-0.7,0-1.4,0-2.1c-0.9,0.7-1.7,1.5-2.6,2.4C-361.9-289.7-362.1-289.4-362.2-289z
		 M-366.4-296.1c-0.1,3.6-0.2,7.3-0.3,10.8c0.2-0.3,0.5-0.5,0.7-0.8C-366.1-289.5-366.2-292.8-366.4-296.1z M-363.8-288
		c0,0.7,0,1.4,0,2.1c0.1-0.3,0.2-0.5,0.3-0.8c0-0.5,0-1,0-1.5C-363.6-288.2-363.7-288.1-363.8-288z M-374.2-308.4
		c-2.8,6.6-5,14.3-6.8,22.3c1.6-1.7,3.2-3.3,4.9-4.9c0.5-5.6,1.1-11.2,1.9-16.6C-374.2-307.9-374.2-308.1-374.2-308.4z
		 M-358.9-289.9c0,1.2,0,2.4,0,3.5c0.2-0.2,0.3-0.4,0.5-0.6c0.2-1,0.5-2.1,0.7-3.2c0.2-1,0.5-2,0.7-3.1
		C-357.6-292.2-358.2-291-358.9-289.9z M-366.1-298.3c0.2,3.9,0.3,7.8,0.4,11.7c0.4-0.5,0.8-0.9,1.2-1.4c-0.2-3.7-0.3-7.4-0.5-11.1
		C-365.3-298.7-365.7-298.5-366.1-298.3z M-386.7-295.4c-0.4,2.7-0.8,5.3-1.1,8c0.5-1.4,0.9-2.8,1.4-4.2
		C-386.5-292.9-386.6-294.2-386.7-295.4z M-363.2-288.7c0,0.3,0,0.7,0,1c0.2-0.5,0.4-1,0.6-1.5c0,0,0-0.1,0-0.1
		C-362.8-289.1-363-288.9-363.2-288.7z M-356.9-292.1c-0.1,0.7-0.3,1.3-0.4,1.9c-0.2,0.8-0.4,1.7-0.5,2.5c0.4-0.4,0.7-0.9,1.1-1.3
		C-356.8-290-356.8-291-356.9-292.1z M-363.9-299.6c0.2,3.7,0.2,7.3,0.2,11c0.1-0.1,0.1-0.2,0.2-0.2c-0.1-3.6-0.1-7.2-0.1-10.8
		c0,0,0-0.1,0-0.1C-363.8-299.7-363.9-299.6-363.9-299.6z M-363.3-299.9c0,0.1,0,0.2,0,0.4c0,3.4,0,6.9,0.1,10.4
		c0.2-0.2,0.4-0.4,0.6-0.6c0-3.5,0-7,0-10.5C-362.9-300.2-363.1-300-363.3-299.9z M-364.6-299.2c0.2,3.1,0.3,6.2,0.5,9.3
		c0-3.1,0-6.3-0.2-9.4C-364.4-299.3-364.5-299.2-364.6-299.2z M-362.3-300.5c0,3.4,0,6.9,0,10.3c0,0,0,0,0,0
		c1.4-3.9,2.5-7.4,3.1-10.1c0-0.3,0-0.6,0-0.9c0-0.2,0-0.5,0-0.7C-360.1-301.6-361.2-301.1-362.3-300.5z M-386.1-291.5
		c0,0.3,0,0.6,0.1,1c0.1-0.6,0.2-1.3,0.2-1.9C-385.8-292.2-385.9-291.9-386.1-291.5z M-358.7-292.9c-0.1,0.7-0.1,1.5-0.2,2.2
		c0.7-1.1,1.3-2.3,1.9-3.4c0,0,0-0.1,0-0.1C-357.5-293.8-358.1-293.4-358.7-292.9z M-359.1-298.5c-0.6,2.3-1.4,4.9-2.4,7.6
		c0.8-0.7,1.5-1.4,2.3-2.1C-359.2-294.8-359.2-296.6-359.1-298.5z M-374.3-304.1c-0.5,4.2-1,8.4-1.4,12.7c0.3-0.3,0.6-0.5,0.9-0.8
		C-374.6-296.1-374.4-300.1-374.3-304.1z M-386.5-297c0.1,1.5,0.3,2.9,0.4,4.4c0.1-0.4,0.3-0.9,0.4-1.3c0-0.1,0.1-0.1,0.1-0.1
		c0.7-5.6,1.3-11.1,1.8-16.3C-384.9-306-385.8-301.5-386.5-297z M-373.8-307.6c-0.1,5-0.3,10.1-0.6,15.1c1.3-1.2,2.7-2.3,4.1-3.3
		c0.1-2.3,0.2-4.6,0.3-6.9c-0.2-4.3-0.5-8.5-0.9-12.6c-0.9,1.7-1.8,3.4-2.6,5.3C-373.6-309.2-373.7-308.4-373.8-307.6z
		 M-357.6-304.3c-0.4,3.6-0.7,7.2-1.1,10.8c0.5-0.4,1.1-0.9,1.6-1.2C-357.1-297.9-357.3-301.1-357.6-304.3z M-357.3-306.2
		c0.3,3.7,0.6,7.5,0.7,11.2c3.8-17.4,8.5-40.4,5.4-50C-353.8-332-355.8-319.4-357.3-306.2z M-358.7-300.3c0,1.6-0.1,3.2-0.1,4.8
		c0.3-3.6,0.7-7.2,1.1-10.7c-0.2-2.6-0.5-5.2-0.8-7.8c0,3.9-0.1,7.7-0.2,11.4c0,0,0,0,0.1,0c0.1,0,0.1,0,0.2,0
		c0.1,0,0.1,0.1,0.1,0.2C-358.4-301.8-358.6-301.1-358.7-300.3z M-369.8-298.6c0,0.8-0.1,1.7-0.1,2.5c0.1,0,0.1-0.1,0.2-0.1
		C-369.7-297-369.8-297.8-369.8-298.6z M-369.6-302.7c0.1,2.1,0.2,4.1,0.2,6.2c0.9-0.6,1.7-1.2,2.6-1.8c0-1.9,0-3.9,0-5.8
		c0-0.4,0-0.9-0.1-1.3c-0.1-2.6-0.2-5.2-0.4-7.9c-0.2-2.3-0.4-4.5-0.8-6.7c-0.1,0.1-0.1,0.2-0.2,0.2
		C-368.8-314.2-369.3-308.5-369.6-302.7z M-366.4-304.1c0.1,1.8,0.2,3.6,0.2,5.4c0.4-0.2,0.7-0.5,1.1-0.7
		c-0.3-5.7-0.7-11.4-1.1-17.1c-0.3-1.6-0.6-3.2-0.9-4.8c0,0-0.1,0.1-0.1,0.1c0.1,2.6,0.2,5.2,0.3,7.7
		C-366.5-310.3-366.4-307.2-366.4-304.1z M-365.4-311.7c0.3,4,0.5,8.1,0.7,12.1c0.1-0.1,0.2-0.1,0.3-0.2
		C-364.5-303.7-364.8-307.7-365.4-311.7z M-362.7-332.1c-1.5,7.1-1.1,19-0.8,26.6c0.1,2,0.1,3.8,0.1,5.1c0.2-0.1,0.4-0.2,0.7-0.4
		C-362.7-311.1-362.7-321.6-362.7-332.1z M-362.3-333.7c0,11,0,21.9,0,32.8c1.1-0.6,2.2-1.1,3.2-1.5c0.1-4.8,0.2-9.7,0.2-14.6
		c-0.8-6.1-1.8-12.1-3-17.9C-362-334.6-362.2-334.1-362.3-333.7z M-370.5-315.9c0.3,3.2,0.5,6.5,0.7,9.9c0.3-4.4,0.7-8.8,1.2-13
		C-369.2-318.1-369.9-317-370.5-315.9z M-371.5-321.6c-0.7,3.3-1.3,6.7-1.8,10.2c0.8-1.6,1.5-3.2,2.4-4.6
		C-371.1-317.9-371.3-319.7-371.5-321.6z M-367.6-320.4c0.1,0.5,0.1,1,0.2,1.4c0-0.5,0-1.1-0.1-1.6
		C-367.5-320.6-367.5-320.5-367.6-320.4z M-361.8-335.8C-361.8-335.8-361.8-335.8-361.8-335.8c0.1,0,0.2,0.1,0.2,0.1
		c1.1,5.1,2,10.4,2.7,15.7c-0.1-11.4-0.8-22.5-3.3-31.2c-0.1,5.4-0.1,10.7-0.1,16.1c0.1-0.3,0.2-0.5,0.3-0.7
		C-362-335.7-361.9-335.8-361.8-335.8z M-366.9-321.8C-366.9-321.8-366.9-321.8-366.9-321.8c0.1,0,0.2,0.1,0.2,0.1
		c0.1,0.6,0.2,1.1,0.4,1.7c-0.3-3.8-0.6-7.5-1-11.2c0,3.2,0.1,6.3,0.2,9.5c0,0,0,0,0.1-0.1C-367-321.8-367-321.8-366.9-321.8z"/>
</g>
<g>
	<g>
		<path class="st2" d="M-311.6-227.4V-239c-0.1,0.8-0.1,0.9-0.6,2.2l-3.6,9.3h-2.7l-3.3-9.2c-0.3-0.9-0.4-1.2-0.6-2.5v11.7h-2.7
			v-15.8h3.6l4.2,11.3c0.2,0.5,0.2,0.6,0.3,1.2c0.1-0.7,0.1-0.8,0.3-1.2l4.4-11.3h3.6v15.8H-311.6z"/>
	</g>
	<g>
		<path class="st2" d="M-293.9-227.4l-1.2-3.9h-5.3l-1.3,3.9h-3.2l5.7-15.8h2.7l5.7,15.8H-293.9z M-297.8-239.6l-1.8,5.7h3.7
			L-297.8-239.6z"/>
	</g>
	<g>
		<path class="st2" d="M-278.9-227.4l-3.6-6.3h-1.5v6.3h-3v-15.8h5.3c2.3,0,3.3,0.3,4.3,1.2c0.9,0.8,1.3,1.9,1.3,3.4
			c0,1.2-0.3,2.2-0.9,3c-0.6,0.8-1.1,1.1-2.5,1.5l3.9,6.8H-278.9z M-282.1-240.6h-2v4.3h2c1.9,0,2.7-0.7,2.7-2.2
			C-279.3-240-280.1-240.6-282.1-240.6z"/>
	</g>
	<g>
		<path class="st2" d="M-263.5-227.4l-5.3-7.5v7.5h-3v-15.8h3v7.4l4.9-7.4h3.5l-5.4,7.7l5.7,8.1H-263.5z"/>
	</g>
	<g>
		<path class="st2" d="M-256.5-227.4v-15.8h9.6v2.6h-6.6v3.9h5.4v2.6h-5.4v4.2h6.9v2.6H-256.5z"/>
	</g>
	<g>
		<path class="st2" d="M-236.3-240.6v13.2h-3v-13.2h-4.7v-2.6h12.5v2.6H-236.3z"/>
	</g>
	<g>
		<path class="st2" d="M-227.8-227.4v-15.8h3v15.8H-227.8z"/>
	</g>
	<g>
		<path class="st2" d="M-208.5-227.3l-6.8-10.2c0-0.1-0.2-0.3-0.3-0.6c-0.1-0.2-0.2-0.3-0.2-0.3c-0.1-0.2-0.1-0.3-0.2-0.5v11.6h-2.9
			v-15.8h3.5l6.6,10.4c0,0,0.1,0.2,0.2,0.3c0.1,0.2,0.1,0.3,0.1,0.3l0.1,0.4l0.1,0.3v-11.7h2.8v15.9H-208.5z"/>
	</g>
	<g>
		<path class="st2" d="M-187.9-227.6c-1.7,0.4-2.7,0.5-4,0.5c-5.2,0-8.9-3.3-8.9-8.2c0-2.4,0.9-4.5,2.6-6c1.6-1.5,3.4-2.1,6.2-2.1
			c1.2,0,2.3,0.1,3.3,0.4c0.8,0.2,1.2,0.4,2.3,0.8l-0.7,2.5c-0.6-0.2-1-0.4-1.3-0.5c-1.1-0.4-2.2-0.6-3.3-0.6c-3.5,0-6,2.2-6,5.3
			c0,3.2,2.7,5.7,6.2,5.7c0.7,0,1.1-0.1,2.1-0.3v-4.4h3v6.5C-187.1-227.9-187.6-227.7-187.9-227.6z"/>
	</g>
	<g>
		<path class="st2" d="M-168.9-233.7v6.2h-2.6v-6.2h-6.2v-2.6h6.2v-6.2h2.6v6.2h6.2v2.6H-168.9z"/>
	</g>
	<g>
		<path class="st2" d="M-140.4-227.4V-239c-0.1,0.8-0.1,0.9-0.6,2.2l-3.6,9.3h-2.7l-3.3-9.2c-0.3-0.9-0.4-1.2-0.6-2.5v11.7h-2.7
			v-15.8h3.6l4.2,11.3c0.2,0.5,0.2,0.6,0.3,1.2c0.1-0.7,0.1-0.8,0.3-1.2l4.4-11.3h3.6v15.8H-140.4z"/>
	</g>
	<g>
		<path class="st2" d="M-131.6-227.4v-15.8h9.6v2.6h-6.6v3.9h5.4v2.6h-5.4v4.2h6.9v2.6H-131.6z"/>
	</g>
	<g>
		<path class="st2" d="M-105.1-229.7c-1.5,1.6-3.5,2.3-6.4,2.3h-5.8v-15.8h5.9c3,0,4.9,0.7,6.4,2.3c1.4,1.5,2.1,3.5,2.1,5.5
			C-103-233.3-103.8-231.2-105.1-229.7z M-108-239.6c-0.8-0.6-2.1-0.9-3.8-0.9h-2.4v10.5h2.4c3.6,0,5.6-1.9,5.6-5.3
			C-106.2-237.1-106.9-238.8-108-239.6z"/>
	</g>
	<g>
		<path class="st2" d="M-98.8-227.4v-15.8h3v15.8H-98.8z"/>
	</g>
	<g>
		<path class="st2" d="M-81.2-227.4l-1.2-3.9h-5.3l-1.3,3.9h-3.2l5.7-15.8h2.7l5.7,15.8H-81.2z M-85.1-239.6l-1.8,5.7h3.7
			L-85.1-239.6z"/>
	</g>
</g>
<g>
	<g>
		<path class="st2" d="M-299.5-300.1c-2.3-1.4-3.3-1.9-4.8-2.3c-1.7-0.6-4.5-1-6.3-1c-5.2,0-8.7,2.6-8.7,6.4c0,3.4,2,5.1,11.3,10
			c3.1,1.7,5.5,3.2,7.2,4.6c2.2,1.9,3.5,5,3.5,8.3c0,7.8-5.8,12.7-15,12.7c-3.1,0-6-0.6-8.4-1.5c-1.7-0.7-2.9-1.4-5.9-3.4l2.9-4.5
			c2.6,1.7,3.7,2.3,5.2,3c2,0.8,4.2,1.2,6.6,1.2c5.4,0,8.6-2.6,8.6-6.9c0-1.3-0.2-2.4-0.7-3.2c-0.8-1.4-2.1-2.7-3.9-3.7
			c-0.8-0.4-3.3-1.7-7.6-4.1c-6.8-3.7-9.7-7.3-9.7-11.9c0-7.3,6-12.1,15-12.1c2.6,0,5.3,0.3,7.7,1.1c1.9,0.6,3,1.2,5.5,2.7
			L-299.5-300.1z"/>
	</g>
	<g>
		<path class="st2" d="M-265.5-263.5c-2.6,1.4-5.6,2.1-8.7,2.1c-9.5,0-16-6.6-16-16.2c0-9.9,6.8-16.8,16.4-16.8
			c1.6,0,3.1,0.2,4.6,0.6c2.1,0.6,3,1,5.2,2.6l-3,4.2c-2.4-2-4.2-2.7-7-2.7c-6.3,0-10.5,4.8-10.5,11.9c0,7.2,4.2,11.7,10.9,11.7
			c3,0,5-0.7,7.5-2.6l2.7,4.1C-264.3-264.1-265-263.7-265.5-263.5z"/>
	</g>
	<g>
		<path class="st2" d="M-241.8-287.9c-1-0.9-1.6-1.2-2.2-1.2c-1.9,0-4.4,2.8-7.4,8.2v18.6h-5.2v-31.3h5.2v5.7c3.9-5,5.8-6.5,8.1-6.5
			c1.2,0,2.6,0.8,4,2.1L-241.8-287.9z"/>
	</g>
	<g>
		<path class="st2" d="M-211.2-261.3c-4.3-0.3-5.8-1.4-6.1-4.3c-1.6,1.4-2.3,1.9-3.3,2.5c-1.9,1.1-4.4,1.8-6.6,1.8
			c-5,0-8.4-3.2-8.4-8.2c0-4.6,2.4-7.6,7-8.7l10.8-2.6v-5.7c0-2.6-1.9-3.9-5.9-3.9c-3.2,0-4.8,0.9-4.8,2.7c0,0.3,0.1,0.6,0.3,1.2
			l-5.2,1.1c-0.5-0.8-0.6-1.2-0.6-1.9c0-4.1,4.6-7,11.3-7c6.3,0,10.2,3,10.2,7.8v16.9v2.3c0.1,0.8,1,1.4,2.6,1.7L-211.2-261.3z
			 M-217.7-276.5l-11.7,3c-0.8,1.4-0.9,2.1-0.9,3.4c0,2.5,1.7,4.1,4.2,4.1c2.3,0,3.9-0.8,8.4-4V-276.5z"/>
	</g>
	<g>
		<path class="st2" d="M-194.1-261.3c-3.6,0-6-2.8-6-7v-20.8h-5.2v-3l5.2-1.3v-9.1h5.2v9.1h8.3v4.3h-8.3v17.8l0.1,1.4
			c0.1,1,0.1,1.6,0.1,1.9c0.1,1,0.7,1.5,1.8,1.5c1.3,0,2.3-0.6,4.6-2.2l2.1,3.5C-189.9-262.2-191.6-261.3-194.1-261.3z"/>
	</g>
	<g>
		<path class="st2" d="M-157.4-263.5c-2.6,1.4-5.6,2.1-8.7,2.1c-9.5,0-16-6.6-16-16.2c0-9.9,6.8-16.8,16.4-16.8
			c1.6,0,3.1,0.2,4.6,0.6c2.1,0.6,3,1,5.2,2.6l-3,4.2c-2.4-2-4.2-2.7-7-2.7c-6.3,0-10.5,4.8-10.5,11.9c0,7.2,4.2,11.7,10.9,11.7
			c3,0,5-0.7,7.5-2.6l2.7,4.1C-156.2-264.1-156.9-263.7-157.4-263.5z"/>
	</g>
	<g>
		<path class="st2" d="M-128.2-262.2v-22.2c0-2.1-0.1-2.8-0.5-3.7c-0.5-1-1.7-1.7-3.1-1.7c-3.2,0-6.6,2.3-12,8.4v19.1h-5.2v-50.3
			h5.2v25.6c2.1-2.4,2.7-3,4.2-4.3c2.4-2,5.5-3.1,8.4-3.1c5.5,0,8.2,2.8,8.2,8.7v23.4H-128.2z"/>
	</g>
	<g>
		<path class="st2" d="M-102.7-295.4V-307c-0.1,0.8-0.1,0.9-0.6,2.2l-3.6,9.3h-2.7l-3.3-9.2c-0.3-0.9-0.4-1.2-0.6-2.5v11.7h-2.7
			v-15.8h3.6l4.2,11.3c0.2,0.5,0.2,0.6,0.3,1.2c0.1-0.7,0.1-0.8,0.3-1.2l4.4-11.3h3.6v15.8H-102.7z"/>
	</g>
	<g>
		<path class="st2" d="M-80.2-295.4V-307c-0.1,0.8-0.1,0.9-0.6,2.2l-3.6,9.3h-2.7l-3.3-9.2c-0.3-0.9-0.4-1.2-0.6-2.5v11.7h-2.7
			v-15.8h3.6l4.2,11.3c0.2,0.5,0.2,0.6,0.3,1.2c0.1-0.7,0.1-0.8,0.3-1.2l4.4-11.3h3.6v15.8H-80.2z"/>
	</g>
</g>
<g>
	<path class="st3" d="M88.6-178.5C88.6-178.5,88.6-178.5,88.6-178.5c-0.1,0-0.2-0.1-0.2-0.2c0.9-19.1,4.9-38.1,9.1-56.5
		c0.1-4.5,0.3-9.1,0.5-13.5c-0.5,1.3-1,2.6-1.4,3.9c0,0.1-0.1,0.1-0.1,0.1c-0.1,0-0.1,0-0.2,0c-3.5-2-12,5.8-18.3,11.5
		c-2.8,2.5-5.1,4.7-6.8,5.8c-0.1,0.1-0.2,0-0.3,0c-0.1-0.1,0-0.2,0-0.3c1.6-1.1,4-3.3,6.8-5.8c6.6-6,14.8-13.4,18.6-11.6
		c0.6-1.6,1.2-3.2,1.8-4.9c1.5-31.1,5.4-59.5,11-80.3c0-0.1,0.1-0.1,0.2-0.1c0.1,0,0.2,0,0.2,0.1c3.1,8.6-0.9,31.7-3.1,44.2
		c-0.5,2.8-0.9,5-1,6.4c-0.7,5.3-1.5,10.7-2.3,16.2c0.7-2,1.4-4,2.1-5.9c2.8-14.2,4.9-28.5,5.2-42.8c0-0.1,0.1-0.2,0.2-0.2
		c0.1,0,0.2,0.1,0.2,0.2c0.7,4.5,1.3,9.2,1.8,14c0.8-4.9,1.8-9.6,3.2-14.2c0-0.1,0.1-0.2,0.2-0.1c0.1,0,0.2,0.1,0.2,0.2l-0.1,1.3
		c-0.6,5.7-1.3,11.8-2,17.9c0.5,3,0.9,6.5,1.3,10.5c1.4-19.6,3.1-39.6,8-57.2c0-0.1,0.1-0.1,0.2-0.1c0.1,0,0.2,0.1,0.2,0.2
		c1.6,9.5,2,19.4,1.8,29.5c0.6-4.2,1.3-8.3,2.2-12.2c0-0.1,0.1-0.1,0.2-0.1c0.1,0,0.2,0.1,0.2,0.2c0.2,2,0.5,4.1,0.7,6.2
		c0.7-1.2,1.4-2.3,2.1-3.3c0.1-0.6,0.2-1.2,0.3-1.9c0-0.1,0.1-0.2,0.2-0.2c0.1,0,0.2,0.1,0.2,0.2c0,0.3,0.1,0.5,0.1,0.8
		c0.1-0.1,0.1-0.2,0.2-0.3c-0.2-4.7-0.3-9.4-0.3-14.2c0-0.1,0.1-0.2,0.2-0.2c0.1,0,0.2,0.1,0.2,0.2c0.6,6.3,1.2,12.6,1.7,18.9
		c0.9,5.5,1.5,11,1.8,16.5c0.1-0.1,0.2-0.1,0.3-0.2c0-1.3-0.1-3.2-0.1-5.3c-0.3-8.2-0.7-21.4,1.2-28.3c0-6.2,0.1-12.4,0.1-18.6
		c0-0.1,0.1-0.2,0.2-0.2c0.1,0,0.2,0,0.2,0.1c3,9.6,3.6,22.5,3.6,35.4c0.4,3,0.7,6,1,9c1.5-12.8,3.5-25.1,6.1-37.7
		c0-0.1,0.1-0.1,0.2-0.1c0.1,0,0.2,0,0.2,0.1c3.6,9.3-1.2,32.9-5.2,50.7c0,0.1,0.1,0.1,0,0.2c0,0.1-0.1,0.2-0.1,0.2
		c-0.1,0.4-0.2,0.7-0.2,1.1c0.1,1.4,0.1,2.8,0.1,4.2c1.1-1.2,2.3-2.3,3.4-3.2c0.1-0.1,0.2,0,0.3,0c0.1,0.1,0,0.2,0,0.3
		c-1.2,0.9-2.4,2.1-3.6,3.4c0.3,13.1-0.4,26.2-2,38.5c0,7.3,0,14.6,0,22.6c0,5,0,10.2,0,15.9c0,0.1-0.1,0.2-0.2,0.2
		c-0.1,0-0.2-0.1-0.2-0.2c-1.4-13-1.7-15.9-2.2-24.8c0,0-0.1-0.1-0.1-0.1c0-0.4,0-0.7,0-1.1c-0.1-1.9-0.2-4-0.3-6.5l-0.1-2.5
		c-0.2-3.1-0.3-6.2-0.5-9.3c0,20.7-0.1,41.5-0.7,62.1c0,0.1-0.1,0.2-0.2,0.2c-0.1,0-0.2-0.1-0.2-0.2l0-1c0-19.8,0.1-39.8-0.3-59.9
		c-1.2,7.6-2.6,15.1-4.2,22.3c-0.4,6-1.2,12.3-2.5,19.6c0,0.1-0.1,0.2-0.2,0.2c-0.1,0-0.2-0.1-0.2-0.2c-0.9-10.5,0.3-17,1.7-24.6
		c0.4-2.2,0.8-4.4,1.2-6.8c0-0.4,0.1-0.8,0.1-1.2c0-3.1,0-6.3,0-9.6c0-2.8,0-5.7,0-8.7c-0.7,0.8-1.5,1.5-2.2,2.3
		c-1.2,21.3-4.1,43-8.4,62.8c0,0.1-0.1,0.2-0.2,0.1c-0.1,0-0.2-0.1-0.2-0.2c-0.1-11.5,1.8-23.4,3.6-35c1-6.5,2.1-13.3,2.8-19.7
		c0.2-2.1,0.4-4.1,0.5-6.2c-0.1,0.1-0.2,0.2-0.2,0.2c-1.1,1.1-2.2,2.2-3.3,3.4c-0.2,9.1-0.8,18.5-3.3,25.1c0,0.1-0.1,0.1-0.2,0.1
		c-0.1,0-0.2-0.1-0.2-0.2l0.1-4.3c0.1-5.2,0.3-10.5,0.5-15.9c-1.3,2.3-2.7,4.5-4.1,6.5c-0.4,12.1-1.8,26.4-6.4,34.7
		c-0.3,2.3-0.6,4.6-1,6.9c0,0.1-0.1,0.2-0.2,0.2c-0.1,0-0.2-0.1-0.2-0.2c-0.1-1.5-0.1-3.1-0.1-4.6c-1,1.3-2.1,2.4-3.3,3.2
		c-0.1,0-0.1,0-0.2,0c-0.1,0-0.1-0.1-0.1-0.1c-2.7-10.7-1.3-24.2,0.4-36.7c-0.9,0.8-1.9,1.5-2.8,2.2c-1.5,4.5-3.3,8.7-5.2,12.7
		c0,0.1-0.1,0.1-0.2,0.1c-0.1,0-0.1-0.1-0.1-0.2c0-0.3,0-0.5,0-0.8c-2.6,15.5-5.4,31.7-8.6,48.8C88.8-178.6,88.7-178.5,88.6-178.5z
		 M97.5-233.4c-3.8,16.9-7.3,34.2-8.5,51.7c3.1-16.9,5.9-33,8.4-48.3C97.4-231.1,97.4-232.3,97.5-233.4z M127.9-260.3
		c-0.2,2.2-0.4,4.5-0.6,6.7c-0.7,6.4-1.7,13.2-2.8,19.7c-1.7,10.9-3.5,22.2-3.6,33.2c4.1-19.1,6.8-40,8-60.5
		C128.5-261,128.2-260.7,127.9-260.3z M106.2-241.9c-1.7,12.5-3.2,25.9-0.5,36.7c1.2-0.9,2.3-2,3.2-3.4c0-9.9,0.9-19.6,2-29.4
		c-0.4,0.3-0.8,0.7-1.1,1c-0.1,0.1-0.2,0.1-0.2,0c-0.1-0.1-0.1-0.1-0.1-0.2c0.5-1.2,1.1-2.5,1.8-3.7c0.2-1.5,0.4-3,0.5-4.6
		c0-0.4,0.1-0.8,0.1-1.2C110.1-245,108.1-243.4,106.2-241.9z M109.3-208.5c0,1,0,2,0,2.9c0.2-1.3,0.4-2.5,0.5-3.8
		C109.7-209.1,109.5-208.8,109.3-208.5z M111.4-238.4c-1.1,9.8-2,19.4-2.1,29.2c0.2-0.4,0.5-0.7,0.7-1.1c1.3-9.9,2.2-19.8,2.8-29.6
		C112.3-239.4,111.9-238.9,111.4-238.4z M136-257.1c0.3,15.6,0.3,31.2,0.3,46.6c0.3-17,0.4-34,0.3-50.9
		C136.4-260,136.2-258.6,136-257.1z M113.2-240.4c-0.6,9.6-1.5,19.4-2.7,29.1c4.1-8.2,5.5-21.6,5.9-33.1
		C115.3-242.9,114.3-241.6,113.2-240.4z M130.9-239.2c-0.1,0.5-0.2,1-0.3,1.5c-1.3,7.2-2.5,13.5-1.8,23.1c1-5.7,1.7-10.9,2.1-15.7
		c-0.2,0.8-0.4,1.5-0.6,2.3c0,0.1-0.1,0.2-0.2,0.1c-0.1,0-0.2-0.1-0.2-0.2C130.2-231.8,130.5-235.5,130.9-239.2z M138.4-237
		c0.5,8.2,0.7,11.4,1.9,21.7c0-4.4,0-8.5,0-12.4c0-7,0-13.5,0-19.9C139.8-244,139.1-240.5,138.4-237z M97.8-230c0,0.8,0,1.6,0,2.4
		c1.7-3.6,3.3-7.4,4.7-11.4c-1.2,0.9-2.4,1.8-3.6,2.7C98.5-234.2,98.1-232.1,97.8-230z M131.5-241.3c-0.4,3.7-0.7,7.3-1,11
		c0.2-0.8,0.4-1.7,0.6-2.5C131.3-235.7,131.4-238.5,131.5-241.3z M121.2-252.2c-0.2,5.6-0.3,11.2-0.5,16.6l-0.1,3.1
		c2.1-6.4,2.7-15,2.9-23.4c-0.2,0.2-0.4,0.4-0.5,0.6C122.4-254.3,121.8-253.2,121.2-252.2z M97.9-235.2c0,0.9,0,1.7-0.1,2.6
		c0.2-1.2,0.4-2.3,0.6-3.4c0,0,0,0-0.1,0c-0.1-0.1-0.1-0.2,0-0.2c0.1-0.1,0.1-0.2,0.2-0.3c0.2-1.3,0.4-2.6,0.6-3.9
		C98.7-238.7,98.3-237,97.9-235.2z M131.9-245.3c0,3.4-0.1,6.7-0.3,10.1c1.5-7.1,2.8-14.6,4-22c-0.1-6.9-0.3-13.8-0.5-20.7
		c-0.1,0.1-0.1,0.2-0.2,0.3c-0.4,6.9-1.1,13.7-1.8,20.5c-0.1,1.2-0.2,2.4-0.3,3.6C132.6-250.4,132.3-247.8,131.9-245.3z M104-243.6
		c-1.7,2.2-3.3,4.4-4.8,6.7c1.2-0.8,2.3-1.7,3.5-2.6C103.1-240.9,103.5-242.3,104-243.6z M98.4-250c-0.2,4.2-0.4,8.5-0.5,12.8
		c0.5-2.1,0.9-4.1,1.4-6.2c0.2-0.8,0.4-1.6,0.6-2.5c0.8-4.8,1.5-9.6,2.2-14.3c-0.8,2.1-1.5,4.1-2.2,6.2
		C99.4-252.6,98.9-251.3,98.4-250z M100.3-245.7c-0.4,2.8-0.9,5.5-1.3,8.3c1.7-2.5,3.5-4.9,5.3-7.3c1.6-5.1,2.9-10.5,4-16
		c0-0.4,0.1-0.8,0.1-1.1c-1.5,0.6-3.1,1-4.7,1.2c0,0-0.1,0-0.1,0C102.6-255.6,101.4-250.6,100.3-245.7z M111.2-239.9
		c-0.4,0.7-0.7,1.4-1,2.1c0.3-0.2,0.6-0.5,0.8-0.8C111.1-239,111.1-239.5,111.2-239.9z M139.5-279.3c-0.7,12.6-1.1,25.9-1.1,40.7
		c0.7-3.8,1.4-7.7,1.9-11.7c0-9.7-0.1-19.6-0.3-31.4C139.8-280.9,139.6-280.1,139.5-279.3z M111.6-240.8c-0.1,0.6-0.1,1.2-0.2,1.8
		c0.5-0.5,1-1,1.4-1.5c0.1-0.9,0.1-1.7,0.1-2.6C112.5-242.3,112.1-241.6,111.6-240.8z M104.6-244.5c-0.5,1.5-0.9,3-1.4,4.5
		c0.9-0.7,1.8-1.4,2.7-2.1c0.2-1.6,0.5-3.3,0.7-4.9C105.9-246.1,105.3-245.3,104.6-244.5z M113.4-243.7c0,0.9-0.1,1.8-0.2,2.7
		c1-1.2,2.1-2.6,3.1-4.1c0-0.3,0-0.7,0-1c0-0.6,0-1.2,0-1.8C115.4-246.5,114.4-245.2,113.4-243.7z M112.4-247
		c-0.1,0.5-0.1,1.1-0.2,1.6c-0.1,1.2-0.3,2.5-0.4,3.7c0.4-0.7,0.8-1.4,1.3-2.1c0.1-1.3,0.1-2.6,0.2-3.9
		C113-247.5,112.7-247.3,112.4-247z M107-247.5c0,0.1,0,0.3-0.1,0.4c-0.2,1.6-0.4,3.1-0.7,4.7c1.9-1.6,3.8-3.2,5.7-4.8
		c0.1-1.3,0.3-2.5,0.4-3.8c0.1-1.2,0.3-2.4,0.4-3.6C110.9-252.3,108.9-249.9,107-247.5z M113.6-248.1c-0.1,1.2-0.1,2.4-0.2,3.6
		c0.9-1.4,1.9-2.7,3-4c0-0.7,0-1.4,0-2.1C115.5-249.7,114.6-248.9,113.6-248.1z M137-263.2c0.1,1.9,0.2,3.8,0.3,5.7
		c0.2,3.5,0.4,7.1,0.6,10.5l0.1,2.4c0.1-11.3,0.4-21.7,0.9-31.7c-0.5,3.2-1,6.6-1.5,9.8c-0.1,0.9-0.3,1.7-0.4,2.6
		C137-263.6,137-263.4,137-263.2z M108-257.2c-0.9,4-1.9,7.9-3,11.7c0.6-0.7,1.2-1.5,1.7-2.2C107.1-251,107.6-254.2,108-257.2z
		 M116.8-248.4c0,0.8,0,1.6,0,2.3c0,0.1,0,0.3,0,0.4c1.4-2,2.8-4.3,4.1-6.6c0-0.3,0-0.5,0-0.8C119.5-251.5,118.1-250,116.8-248.4z
		 M113.3-255.1c-0.1,1.4-0.3,2.8-0.5,4.1c-0.1,1.1-0.3,2.3-0.4,3.4c0.3-0.2,0.5-0.5,0.8-0.7c0.1-2.3,0.2-4.6,0.2-6.9
		c0,0-0.1,0-0.1,0C113.4-255.2,113.3-255.1,113.3-255.1z M108.7-260.6c0,0.4-0.1,0.8-0.1,1.2c-0.4,3.4-0.9,7.2-1.5,11.2
		c1.9-2.4,3.9-4.7,5.8-7c0.3-2.4,0.5-4.9,0.7-7.4c0-0.7,0-1.4,0-2.1c-1.5,1.1-3,2-4.6,2.7C108.9-261.6,108.8-261.1,108.7-260.6z
		 M113.9-255.3c-0.1,2.2-0.1,4.4-0.2,6.7c0.9-0.8,1.9-1.6,2.8-2.5c0-1.7,0-3.4,0-5.2C115.4-255.7,114.6-255.4,113.9-255.3z
		 M116.8-250.9c0,0.7,0,1.3,0,1.9c1.3-1.6,2.7-3.2,4.1-4.7c0-0.3,0-0.6,0-1C119.6-253.4,118.2-252.1,116.8-250.9z M131.9-264.4
		c0,3.2,0,6.2,0,9.1c0,2,0,4,0,5.9c0.1-0.9,0.2-1.8,0.3-2.7c0.2-1.7,0.4-3.3,0.5-5c0.4-5.9,0.5-11.8,0.5-17.6
		c-0.4,0.8-0.9,1.6-1.3,2.4c0,0.2,0,0.5,0,0.7c0,2.3-0.1,4.4-0.1,6.5c0.2-0.2,0.4-0.3,0.6-0.5c0.1-0.1,0.2-0.1,0.3,0
		c0.1,0.1,0.1,0.2,0,0.3C132.4-265,132.2-264.7,131.9-264.4z M102.7-261.8c-0.5,3.6-1.1,7.3-1.6,11c1.2-5.4,2.4-10.8,3.5-16.2
		C104-265.3,103.4-263.5,102.7-261.8z M109.2-329.6c-5.4,20.5-9.2,48.2-10.7,78.4c0.3-0.9,0.7-1.8,1-2.7c1-2.6,1.9-5.3,2.9-7.9
		c0.9-6.1,1.7-12.1,2.5-18c0.2-1.4,0.6-3.6,1-6.4C108-298.4,111.9-320.7,109.2-329.6z M116.8-256.5c0,1.7,0,3.4,0,5.1
		c1.4-1.2,2.8-2.5,4.1-3.7c0.1-1.7,0.1-3.5,0.2-5.2C119.5-258.5,118-257.3,116.8-256.5z M121.3-253.5c0,0.2,0,0.4,0,0.5
		c0.2-0.4,0.5-0.9,0.7-1.3C121.7-254,121.5-253.8,121.3-253.5z M140.3-283.3c0.2,11.3,0.3,20.9,0.3,30.1c1.4-11.3,1.9-23.2,1.7-35.2
		c-0.4,0.5-0.8,1-1.3,1.5C140.8-285.6,140.6-284.4,140.3-283.3z M121.3-255c0,0.3,0,0.6,0,0.9c0.5-0.5,0.9-1,1.4-1.5
		c0.2-0.4,0.5-0.9,0.7-1.3C122.7-256.2,122-255.6,121.3-255z M121.5-260.8c-0.1,1.8-0.1,3.6-0.2,5.3c0.7-0.7,1.5-1.4,2.2-2
		c0-2,0-4,0-5.9C122.9-262.4,122.2-261.6,121.5-260.8z M113.9-255.8c0,0,0,0.1,0,0.1c0.8-0.1,1.7-0.5,2.5-1c0-0.7,0-1.3,0-2
		C115.5-257.7,114.7-256.8,113.9-255.8z M114-260.3c0,1.3,0,2.6-0.1,3.9c0.8-0.9,1.6-1.9,2.4-2.8c-0.1-2.5-0.2-5-0.3-7.4
		c-0.5,0.4-1,0.8-1.5,1.2C114.3-263.7,114.2-262,114-260.3z M123.9-257.1c0,0.1,0,0.1,0,0.2c1-1,2-2.1,3-3.1
		c0.2-0.2,0.4-0.4,0.5-0.5c0,0,0-0.1,0-0.1c-0.6,0.6-1.3,1.2-1.9,1.7c-0.5,0.4-0.9,0.8-1.4,1.3C124.1-257.4,124-257.3,123.9-257.1z
		 M116.7-259.1c0,0.7,0,1.5,0.1,2.2c1.4-0.9,2.9-2.3,4.4-4c0-1.2,0.1-2.3,0.1-3.5c-1.2,1.4-2.5,2.9-3.7,4.3
		C117.3-259.8,117-259.4,116.7-259.1z M124-263.9c0,2,0,4,0,6c1.2-2.2,2.3-4.4,3.5-6.6c0.1-0.2,0.3-0.5,0.4-0.7
		c0.1-1.7,0.2-3.4,0.2-5C126.6-267.8,125.2-265.7,124-263.9z M127.8-264.3c-1,1.9-2,3.8-3,5.7c0.2-0.2,0.4-0.4,0.6-0.5
		c0.7-0.7,1.5-1.3,2.2-2C127.6-262.2,127.7-263.3,127.8-264.3z M135.4-278.4c0.2,6.4,0.4,12.8,0.5,19.1c0.2-1.5,0.5-2.9,0.7-4.4
		c-0.3-5.1-0.5-10.3-0.8-15.5C135.7-278.9,135.6-278.7,135.4-278.4z M116.4-266.9c0.1,2.4,0.2,4.8,0.3,7.3c0.2-0.2,0.4-0.5,0.6-0.7
		c1.3-1.5,2.7-3.1,4-4.7c0.1-2.4,0.2-4.7,0.4-7.1C120-270.3,118.2-268.5,116.4-266.9z M127.9-261C127.9-261,127.9-260.9,127.9-261
		c0.3-0.2,0.5-0.5,0.8-0.7C128.5-261.5,128.2-261.2,127.9-261z M109.6-274.2c-2.6,4.3-4.6,8.8-5.6,13.2c1.6-0.2,3.1-0.6,4.5-1.2
		c0.3-2.8,0.5-5.7,0.8-8.5C109.4-271.9,109.5-273.1,109.6-274.2z M121.7-264.9c-0.1,1.2-0.1,2.3-0.2,3.5c0.7-0.8,1.4-1.7,2-2.6
		c0-0.7,0-1.4,0-2.1c0-0.3,0-0.7,0-1C123-266.4,122.3-265.6,121.7-264.9z M128.2-265.1c-0.1,1.2-0.1,2.4-0.2,3.6
		c0.3-0.3,0.6-0.6,1-0.9c0.1-1.5,0.2-3.1,0.2-4.6C128.8-266.4,128.5-265.8,128.2-265.1z M111.7-277.6c-0.8,5-1.6,10.1-2.6,15
		c1.6-0.7,3.1-1.6,4.5-2.7c0-5-0.1-9.8-0.3-14.6C112.8-279.1,112.3-278.3,111.7-277.6z M129.6-267.8c-0.1,1.7-0.2,3.3-0.2,5
		c0.7-0.7,1.5-1.3,2.2-2c0-2.2,0-4.4,0.1-6.8C130.9-270.3,130.2-269.1,129.6-267.8z M105.5-269.5c-0.4,2-0.8,4-1.2,6
		c1.2-3.9,3.1-7.8,5.4-11.6c0.3-3,0.6-5.9,0.9-8.9C108.9-279.1,107.2-274.3,105.5-269.5z M110-275c-0.1,1.4-0.3,2.8-0.4,4.2
		c-0.2,2.1-0.4,4.3-0.6,6.5c0.8-4.2,1.5-8.4,2.2-12.6C110.8-276.2,110.4-275.6,110-275z M133.6-275.3c0,3.6,0,7.3-0.2,10.9
		c0.4-4.1,0.7-8.3,1-12.4C134.2-276.3,133.9-275.8,133.6-275.3z M124-267.6c0,0.5,0,1,0,1.5c0,0.5,0,1,0,1.5c1.4-2,2.8-4.2,4.1-6.5
		c0-0.5,0-1,0.1-1.5C126.8-270.9,125.4-269.2,124-267.6z M122.1-272.6c-0.1,2.4-0.2,4.7-0.4,7.1c0.6-0.7,1.2-1.5,1.9-2.2
		c0-2.4,0-4.6,0-6.6C123.1-273.7,122.6-273.1,122.1-272.6z M115.7-273c-0.4,2.4-0.7,4.7-1,7.1c0.5-0.4,0.9-0.7,1.4-1.1
		C115.9-269.1,115.8-271.1,115.7-273z M128.5-271c-0.1,1.7-0.1,3.3-0.2,4.9c0.3-0.6,0.6-1.2,1-1.9c0.1-1.6,0.1-3.2,0.2-4.7
		C129.1-272.1,128.8-271.5,128.5-271z M137-280.9c0,4.9,0,9.8,0.1,14.7c0-0.1,0-0.2,0-0.2c0.5-3.5,1.1-7.2,1.7-10.7
		c0.1-0.7,0.2-1.4,0.4-2.2c0.1-1.8,0.2-3.5,0.3-5.3C138.6-283.5,137.8-282.2,137-280.9z M115.2-278.4c-0.3,3.9-0.6,7.9-0.9,11.8
		c0.3-2.6,0.7-5.3,1.2-8.1C115.4-275.9,115.3-277.2,115.2-278.4z M113.7-280.3c0.2,4.3,0.3,8.6,0.3,13.1c0.3-4.1,0.6-8.3,0.9-12.3
		c0-0.4,0.1-0.7,0.1-1.1c0-0.4-0.1-0.8-0.1-1.1C114.5-281.3,114.1-280.8,113.7-280.3z M115.9-274.6c0.2,2.3,0.3,4.8,0.5,7.2
		c1.8-1.6,3.6-3.4,5.4-5.3c0.3-5.9,0.7-11.9,1.3-17.7c-1.7,1.6-3.4,3.3-5,5C117.2-281.8,116.5-278.2,115.9-274.6z M124-274.8
		c-0.1,2-0.1,4.2-0.1,6.6c1.4-1.7,2.8-3.4,4.2-5.1c0.1-2.2,0.1-4.5,0.2-6.7c0,0-0.1,0.1-0.1,0.1C126.9-278.1,125.5-276.4,124-274.8z
		 M129.8-273.4c0,1.6-0.1,3.1-0.2,4.7c0.7-1.2,1.3-2.5,2-3.7c0-1.6,0.1-3.1,0.1-4.8c-0.4,0.9-0.9,1.8-1.3,2.6
		C130.2-274.1,130-273.7,129.8-273.4z M136.2-279.7c0.1,3,0.3,6,0.4,9c0-3.2,0-6.4,0-9.6C136.5-280.1,136.3-279.9,136.2-279.7z
		 M128.5-273.1c0,0.4,0,0.9,0,1.3c0.3-0.5,0.6-1.1,0.9-1.7c0-0.3,0-0.5,0-0.8C129.1-273.9,128.8-273.5,128.5-273.1z M110.6-310.3
		c-0.4,12.8-2.2,25.6-4.7,38.3c1.6-4.6,3.2-9.1,4.8-13.7c0.4-3.8,0.9-7.6,1.5-11.3C111.8-301.6,111.3-306,110.6-310.3z M132.1-277.8
		c-0.1,1.6-0.1,3.1-0.1,4.7c0.4-0.8,0.9-1.6,1.3-2.3c0-1.3,0-2.6,0-3.9C132.9-278.8,132.5-278.3,132.1-277.8z M123.4-290.8
		c-0.5,5.8-0.9,11.7-1.3,17.7c0.5-0.6,1-1.1,1.5-1.7c0.1-4.7,0.4-9.5,0.6-14.6c0-0.7,0.1-1.4,0.1-2.2
		C124-291.4,123.7-291.1,123.4-290.8z M128.8-280.4c-0.1,2.2-0.1,4.4-0.2,6.7c0.3-0.4,0.6-0.7,0.9-1.1c0.1-2.2,0.1-4.3,0.1-6.5
		C129.3-281.1,129-280.7,128.8-280.4z M129.8-274.8c0,0.2,0,0.4,0,0.5c0.3-0.5,0.5-1,0.8-1.5C130.3-275.4,130.1-275.1,129.8-274.8z
		 M124.7-292c0,0.8-0.1,1.7-0.1,2.5c-0.2,4.9-0.4,9.6-0.6,14.1c1.3-1.6,2.6-3.1,4-4.7c0.1-0.2,0.3-0.3,0.4-0.5
		c0-1.2,0.1-2.4,0.1-3.6c0.1-3.7,0.2-7.4,0.3-11.2C127.5-294.3,126.1-293.2,124.7-292z M129.9-281.8c0,2.1-0.1,4.3-0.1,6.5
		c0.6-0.7,1.1-1.5,1.7-2.2c0.1-0.2,0.2-0.4,0.3-0.5c0.1-1.7,0.1-3.4,0.2-5.2c0-0.3,0-0.7,0-1C131.3-283.5,130.6-282.7,129.9-281.8z
		 M111.1-285.6c-0.4,3.3-0.7,6.6-1,9.8c0.4-0.6,0.8-1.3,1.3-1.9c0.6-3.7,1.1-7.3,1.5-11c0-0.7-0.1-1.3-0.1-2
		C112.2-288.9,111.7-287.3,111.1-285.6z M133.6-279.8c0,1.2,0,2.5,0,3.7c0.3-0.5,0.6-1,0.9-1.5c0.1-1.2,0.1-2.5,0.2-3.7
		C134.4-280.8,134-280.3,133.6-279.8z M115.4-280.7c0.1,1.5,0.3,3,0.4,4.5c0.5-2.9,1.1-5.8,1.7-8.7c-0.7,0.7-1.3,1.5-2,2.3
		C115.5-281.9,115.4-281.3,115.4-280.7z M135-279.5c0,0.4,0,0.8-0.1,1.2c0-0.1,0.1-0.1,0.1-0.2C135-278.9,135-279.2,135-279.5z
		 M113-286.7c-0.4,2.8-0.8,5.5-1.2,8.3c0.5-0.7,1-1.4,1.5-2C113.3-282.5,113.2-284.6,113-286.7z M132.4-284.7c0,0.5,0,1-0.1,1.5
		c-0.1,1.5-0.1,2.9-0.2,4.3c0.4-0.7,0.7-1.5,1-2.2c0-1.5-0.1-2.9-0.1-4.4C132.9-285.3,132.6-285,132.4-284.7z M135.3-282.2
		c0,1,0.1,2,0.1,3.1c0.1-0.2,0.3-0.5,0.4-0.7c0-1-0.1-2-0.1-3C135.6-282.6,135.4-282.4,135.3-282.2z M133.2-280.3
		c-0.2,0.3-0.3,0.7-0.5,1c0.2-0.2,0.3-0.4,0.5-0.7C133.2-280,133.2-280.1,133.2-280.3z M136.1-283.3c0,1,0.1,1.9,0.1,2.9
		c0.1-0.2,0.3-0.4,0.4-0.6c0-1,0-2,0-3C136.4-283.8,136.2-283.6,136.1-283.3z M133.6-281.1c0,0.2,0,0.4,0,0.6
		c0.4-0.5,0.8-1.1,1.2-1.6c0-0.6,0.1-1.2,0.1-1.8C134.4-282.9,134-282,133.6-281.1z M113.3-288.6c0.2,2.6,0.3,5.2,0.4,7.8
		c0.4-0.5,0.8-1,1.2-1.5c-0.4-3.6-0.8-6.8-1.2-9.6C113.6-290.8,113.4-289.7,113.3-288.6z M129.2-295.6c-0.1,3.8-0.2,7.7-0.3,11.5
		c0,1-0.1,2.1-0.1,3.1c0.3-0.3,0.5-0.6,0.8-0.9c0-4.7,0-9.3-0.1-13.8C129.4-295.7,129.3-295.7,129.2-295.6z M136.9-284.6
		c0,1,0,2,0,3c0.8-1.3,1.7-2.6,2.6-3.8c0.1-1.3,0.2-2.5,0.3-3.7C138.9-287.6,137.9-286.1,136.9-284.6z M133.5-286
		c0,1.3,0.1,2.7,0.1,4c0.4-1,0.8-1.9,1.2-2.9c0-0.8-0.1-1.7-0.1-2.5C134.3-286.9,133.9-286.5,133.5-286z M139.9-285.2
		c-0.1,1.1-0.1,2.1-0.2,3.2c0.1-0.4,0.2-0.9,0.3-1.3c0-0.5,0-1.1,0-1.6C139.9-285.1,139.9-285.2,139.9-285.2
		C139.9-285.3,139.9-285.3,139.9-285.2z M129.8-296c0.1,4.5,0.2,9,0.1,13.6c0.7-0.8,1.4-1.6,2.1-2.5c0.2-4.2,0.3-8.6,0.4-13
		C131.5-297.3,130.7-296.7,129.8-296z M135.2-284.1c0,0.4,0,0.9,0.1,1.3c0.1-0.2,0.3-0.4,0.4-0.6c0-0.8-0.1-1.6-0.1-2.3
		c-0.1,0.3-0.3,0.6-0.4,0.9C135.2-284.6,135.2-284.3,135.2-284.1z M123.3-339.1c-4.7,17.2-6.3,36.8-7.7,55.9
		c0.7-0.8,1.4-1.6,2.1-2.4c1.9-8.5,4.3-16.8,7.3-23.8C125.1-319.5,124.8-329.6,123.3-339.1z M136-286.6c0,0.9,0.1,1.8,0.1,2.7
		c0.2-0.2,0.3-0.5,0.5-0.8c0-0.8,0-1.6,0-2.5c0-0.3,0-0.6,0-0.9C136.4-287.6,136.2-287.1,136-286.6z M140.3-285.8c0,0.3,0,0.5,0,0.8
		c0,0,0,0,0,0c0.1-0.4,0.2-0.8,0.3-1.2C140.5-286,140.4-285.9,140.3-285.8z M136.9-289c0,0.6,0,1.2,0,1.9c0,0.6,0,1.3,0,1.9
		c1-1.5,2-3.1,2.9-4.7c0-0.1,0-0.3,0-0.4c0-0.7,0-1.4,0-2.1c-0.9,0.7-1.7,1.5-2.6,2.4C137.2-289.7,137-289.4,136.9-289z
		 M132.7-296.1c-0.1,3.6-0.2,7.3-0.3,10.8c0.2-0.3,0.5-0.5,0.7-0.8C133-289.5,132.9-292.8,132.7-296.1z M135.3-288
		c0,0.7,0,1.4,0,2.1c0.1-0.3,0.2-0.5,0.3-0.8c0-0.5,0-1,0-1.5C135.5-288.2,135.4-288.1,135.3-288z M125-308.4
		c-2.8,6.6-5,14.3-6.8,22.3c1.6-1.7,3.2-3.3,4.9-4.9c0.5-5.6,1.1-11.2,1.9-16.6C124.9-307.9,125-308.1,125-308.4z M140.3-289.9
		c0,1.2,0,2.4,0,3.5c0.2-0.2,0.3-0.4,0.5-0.6c0.2-1,0.5-2.1,0.7-3.2c0.2-1,0.5-2,0.7-3.1C141.5-292.2,140.9-291,140.3-289.9z
		 M133-298.3c0.2,3.9,0.3,7.8,0.4,11.7c0.4-0.5,0.8-0.9,1.2-1.4c-0.2-3.7-0.3-7.4-0.5-11.1C133.8-298.7,133.4-298.5,133-298.3z
		 M112.4-295.4c-0.4,2.7-0.8,5.3-1.1,8c0.5-1.4,0.9-2.8,1.4-4.2C112.6-292.9,112.5-294.2,112.4-295.4z M135.9-288.7c0,0.3,0,0.7,0,1
		c0.2-0.5,0.4-1,0.6-1.5c0,0,0-0.1,0-0.1C136.3-289.1,136.1-288.9,135.9-288.7z M142.3-292.1c-0.1,0.7-0.3,1.3-0.4,1.9
		c-0.2,0.8-0.4,1.7-0.5,2.5c0.4-0.4,0.7-0.9,1.1-1.3C142.3-290,142.3-291,142.3-292.1z M135.2-299.6c0.2,3.7,0.2,7.3,0.2,11
		c0.1-0.1,0.1-0.2,0.2-0.2c-0.1-3.6-0.1-7.2-0.1-10.8c0,0,0-0.1,0-0.1C135.4-299.7,135.3-299.6,135.2-299.6z M135.8-299.9
		c0,0.1,0,0.2,0,0.4c0,3.4,0,6.9,0.1,10.4c0.2-0.2,0.4-0.4,0.6-0.6c0-3.5,0-7,0-10.5C136.3-300.2,136-300,135.8-299.9z M134.5-299.2
		c0.2,3.1,0.3,6.2,0.5,9.3c0-3.1,0-6.3-0.2-9.4C134.7-299.3,134.6-299.2,134.5-299.2z M136.9-300.5c0,3.4,0,6.9,0,10.3c0,0,0,0,0,0
		c1.4-3.9,2.5-7.4,3.1-10.1c0-0.3,0-0.6,0-0.9c0-0.2,0-0.5,0-0.7C139-301.6,137.9-301.1,136.9-300.5z M113.1-291.5
		c0,0.3,0,0.6,0.1,1c0.1-0.6,0.2-1.3,0.2-1.9C113.3-292.2,113.2-291.9,113.1-291.5z M140.5-292.9c-0.1,0.7-0.1,1.5-0.2,2.2
		c0.7-1.1,1.3-2.3,1.9-3.4c0,0,0-0.1,0-0.1C141.6-293.8,141-293.4,140.5-292.9z M140-298.5c-0.6,2.3-1.4,4.9-2.4,7.6
		c0.8-0.7,1.5-1.4,2.3-2.1C139.9-294.8,140-296.6,140-298.5z M124.9-304.1c-0.5,4.2-1,8.4-1.4,12.7c0.3-0.3,0.6-0.5,0.9-0.8
		C124.6-296.1,124.7-300.1,124.9-304.1z M112.6-297c0.1,1.5,0.3,2.9,0.4,4.4c0.1-0.4,0.3-0.9,0.4-1.3c0-0.1,0.1-0.1,0.1-0.1
		c0.7-5.6,1.3-11.1,1.8-16.3C114.2-306,113.3-301.5,112.6-297z M125.3-307.6c-0.1,5-0.3,10.1-0.6,15.1c1.3-1.2,2.7-2.3,4.1-3.3
		c0.1-2.3,0.2-4.6,0.3-6.9c-0.2-4.3-0.5-8.5-0.9-12.6c-0.9,1.7-1.8,3.4-2.6,5.3C125.5-309.2,125.4-308.4,125.3-307.6z M141.6-304.3
		c-0.4,3.6-0.7,7.2-1.1,10.8c0.5-0.4,1.1-0.9,1.6-1.2C142-297.9,141.8-301.1,141.6-304.3z M141.8-306.2c0.3,3.7,0.6,7.5,0.7,11.2
		c3.8-17.4,8.5-40.4,5.4-50C145.3-332,143.3-319.4,141.8-306.2z M140.4-300.3c0,1.6-0.1,3.2-0.1,4.8c0.3-3.6,0.7-7.2,1.1-10.7
		c-0.2-2.6-0.5-5.2-0.8-7.8c0,3.9-0.1,7.7-0.2,11.4c0,0,0,0,0.1,0c0.1,0,0.1,0,0.2,0c0.1,0,0.1,0.1,0.1,0.2
		C140.7-301.8,140.6-301.1,140.4-300.3z M129.3-298.6c0,0.8-0.1,1.7-0.1,2.5c0.1,0,0.1-0.1,0.2-0.1
		C129.4-297,129.4-297.8,129.3-298.6z M129.5-302.7c0.1,2.1,0.2,4.1,0.2,6.2c0.9-0.6,1.7-1.2,2.6-1.8c0-1.9,0-3.9,0-5.8
		c0-0.4,0-0.9-0.1-1.3c-0.1-2.6-0.2-5.2-0.4-7.9c-0.2-2.3-0.4-4.5-0.8-6.7c-0.1,0.1-0.1,0.2-0.2,0.2
		C130.3-314.2,129.9-308.5,129.5-302.7z M132.8-304.1c0.1,1.8,0.2,3.6,0.2,5.4c0.4-0.2,0.7-0.5,1.1-0.7c-0.3-5.7-0.7-11.4-1.1-17.1
		c-0.3-1.6-0.6-3.2-0.9-4.8c0,0-0.1,0.1-0.1,0.1c0.1,2.6,0.2,5.2,0.3,7.7C132.6-310.3,132.7-307.2,132.8-304.1z M133.8-311.7
		c0.3,4,0.5,8.1,0.7,12.1c0.1-0.1,0.2-0.1,0.3-0.2C134.6-303.7,134.3-307.7,133.8-311.7z M136.5-332.1c-1.5,7.1-1.1,19-0.8,26.6
		c0.1,2,0.1,3.8,0.1,5.1c0.2-0.1,0.4-0.2,0.7-0.4C136.5-311.1,136.4-321.6,136.5-332.1z M136.8-333.7c0,11,0,21.9,0,32.8
		c1.1-0.6,2.2-1.1,3.2-1.5c0.1-4.8,0.2-9.7,0.2-14.6c-0.8-6.1-1.8-12.1-3-17.9C137.1-334.6,137-334.1,136.8-333.7z M128.6-315.9
		c0.3,3.2,0.5,6.5,0.7,9.9c0.3-4.4,0.7-8.8,1.2-13C129.9-318.1,129.3-317,128.6-315.9z M127.7-321.6c-0.7,3.3-1.3,6.7-1.8,10.2
		c0.8-1.6,1.5-3.2,2.4-4.6C128.1-317.9,127.9-319.7,127.7-321.6z M131.5-320.4c0.1,0.5,0.1,1,0.2,1.4c0-0.5,0-1.1-0.1-1.6
		C131.6-320.6,131.6-320.5,131.5-320.4z M137.3-335.8C137.3-335.8,137.3-335.8,137.3-335.8c0.1,0,0.2,0.1,0.2,0.1
		c1.1,5.1,2,10.4,2.7,15.7c-0.1-11.4-0.8-22.5-3.3-31.2c-0.1,5.4-0.1,10.7-0.1,16.1c0.1-0.3,0.2-0.5,0.3-0.7
		C137.2-335.7,137.2-335.8,137.3-335.8z M132.2-321.8C132.2-321.8,132.3-321.8,132.2-321.8c0.1,0,0.2,0.1,0.2,0.1
		c0.1,0.6,0.2,1.1,0.4,1.7c-0.3-3.8-0.6-7.5-1-11.2c0,3.2,0.1,6.3,0.2,9.5c0,0,0,0,0.1-0.1C132.1-321.8,132.2-321.8,132.2-321.8z"/>
</g>
<g>
	<g>
		<path class="st3" d="M187.5-227.4V-239c-0.1,0.8-0.1,0.9-0.6,2.2l-3.6,9.3h-2.7l-3.3-9.2c-0.3-0.9-0.4-1.2-0.6-2.5v11.7H174v-15.8
			h3.6l4.2,11.3c0.2,0.5,0.2,0.6,0.3,1.2c0.1-0.7,0.1-0.8,0.3-1.2l4.4-11.3h3.6v15.8H187.5z"/>
	</g>
	<g>
		<path class="st3" d="M205.2-227.4l-1.2-3.9h-5.3l-1.3,3.9h-3.2l5.7-15.8h2.7l5.7,15.8H205.2z M201.3-239.6l-1.8,5.7h3.7
			L201.3-239.6z"/>
	</g>
	<g>
		<path class="st3" d="M220.2-227.4l-3.6-6.3h-1.5v6.3h-3v-15.8h5.3c2.3,0,3.3,0.3,4.3,1.2c0.9,0.8,1.3,1.9,1.3,3.4
			c0,1.2-0.3,2.2-0.9,3c-0.6,0.8-1.1,1.1-2.5,1.5l3.9,6.8H220.2z M217-240.6h-2v4.3h2c1.9,0,2.7-0.7,2.7-2.2
			C219.8-240,219-240.6,217-240.6z"/>
	</g>
	<g>
		<path class="st3" d="M235.6-227.4l-5.3-7.5v7.5h-3v-15.8h3v7.4l4.9-7.4h3.5l-5.4,7.7l5.7,8.1H235.6z"/>
	</g>
	<g>
		<path class="st3" d="M242.7-227.4v-15.8h9.6v2.6h-6.6v3.9h5.4v2.6h-5.4v4.2h6.9v2.6H242.7z"/>
	</g>
	<g>
		<path class="st3" d="M262.8-240.6v13.2h-3v-13.2h-4.7v-2.6h12.5v2.6H262.8z"/>
	</g>
	<g>
		<path class="st3" d="M271.4-227.4v-15.8h3v15.8H271.4z"/>
	</g>
	<g>
		<path class="st3" d="M290.6-227.3l-6.8-10.2c0-0.1-0.2-0.3-0.3-0.6c-0.1-0.2-0.2-0.3-0.2-0.3c-0.1-0.2-0.1-0.3-0.2-0.5v11.6h-2.9
			v-15.8h3.5l6.6,10.4c0,0,0.1,0.2,0.2,0.3c0.1,0.2,0.1,0.3,0.1,0.3l0.1,0.4l0.1,0.3v-11.7h2.8v15.9H290.6z"/>
	</g>
	<g>
		<path class="st3" d="M311.2-227.6c-1.7,0.4-2.7,0.5-4,0.5c-5.2,0-8.9-3.3-8.9-8.2c0-2.4,0.9-4.5,2.6-6c1.6-1.5,3.4-2.1,6.2-2.1
			c1.2,0,2.3,0.1,3.3,0.4c0.8,0.2,1.2,0.4,2.3,0.8l-0.7,2.5c-0.6-0.2-1-0.4-1.3-0.5c-1.1-0.4-2.2-0.6-3.3-0.6c-3.5,0-6,2.2-6,5.3
			c0,3.2,2.7,5.7,6.2,5.7c0.7,0,1.1-0.1,2.1-0.3v-4.4h3v6.5C312.1-227.9,311.5-227.7,311.2-227.6z"/>
	</g>
	<g>
		<path class="st3" d="M330.2-233.7v6.2h-2.6v-6.2h-6.2v-2.6h6.2v-6.2h2.6v6.2h6.2v2.6H330.2z"/>
	</g>
	<g>
		<path class="st3" d="M358.7-227.4V-239c-0.1,0.8-0.1,0.9-0.6,2.2l-3.6,9.3h-2.7l-3.3-9.2c-0.3-0.9-0.4-1.2-0.6-2.5v11.7h-2.7
			v-15.8h3.6l4.2,11.3c0.2,0.5,0.2,0.6,0.3,1.2c0.1-0.7,0.1-0.8,0.3-1.2l4.4-11.3h3.6v15.8H358.7z"/>
	</g>
	<g>
		<path class="st3" d="M367.5-227.4v-15.8h9.6v2.6h-6.6v3.9h5.4v2.6h-5.4v4.2h6.9v2.6H367.5z"/>
	</g>
	<g>
		<path class="st3" d="M394-229.7c-1.5,1.6-3.5,2.3-6.4,2.3h-5.8v-15.8h5.9c3,0,4.9,0.7,6.4,2.3c1.4,1.5,2.1,3.5,2.1,5.5
			C396.2-233.3,395.4-231.2,394-229.7z M391.1-239.6c-0.8-0.6-2.1-0.9-3.8-0.9h-2.4v10.5h2.4c3.6,0,5.6-1.9,5.6-5.3
			C392.9-237.1,392.2-238.8,391.1-239.6z"/>
	</g>
	<g>
		<path class="st3" d="M400.3-227.4v-15.8h3v15.8H400.3z"/>
	</g>
	<g>
		<path class="st3" d="M417.9-227.4l-1.2-3.9h-5.3l-1.3,3.9H407l5.7-15.8h2.7l5.7,15.8H417.9z M414.1-239.6l-1.8,5.7h3.7
			L414.1-239.6z"/>
	</g>
</g>
<g>
	<g>
		<path class="st3" d="M199.6-300.1c-2.3-1.4-3.3-1.9-4.8-2.3c-1.7-0.6-4.5-1-6.3-1c-5.2,0-8.7,2.6-8.7,6.4c0,3.4,2,5.1,11.3,10
			c3.1,1.7,5.5,3.2,7.2,4.6c2.2,1.9,3.5,5,3.5,8.3c0,7.8-5.8,12.7-15,12.7c-3.1,0-6-0.6-8.4-1.5c-1.7-0.7-2.9-1.4-5.9-3.4l2.9-4.5
			c2.6,1.7,3.7,2.3,5.2,3c2,0.8,4.2,1.2,6.6,1.2c5.4,0,8.6-2.6,8.6-6.9c0-1.3-0.2-2.4-0.7-3.2c-0.8-1.4-2.1-2.7-3.9-3.7
			c-0.8-0.4-3.3-1.7-7.6-4.1c-6.8-3.7-9.7-7.3-9.7-11.9c0-7.3,6-12.1,15-12.1c2.6,0,5.3,0.3,7.7,1.1c1.9,0.6,3,1.2,5.5,2.7
			L199.6-300.1z"/>
	</g>
	<g>
		<path class="st3" d="M233.6-263.5c-2.6,1.4-5.6,2.1-8.7,2.1c-9.5,0-16-6.6-16-16.2c0-9.9,6.8-16.8,16.4-16.8
			c1.6,0,3.1,0.2,4.6,0.6c2.1,0.6,3,1,5.2,2.6l-3,4.2c-2.4-2-4.2-2.7-7-2.7c-6.3,0-10.5,4.8-10.5,11.9c0,7.2,4.2,11.7,10.9,11.7
			c3,0,5-0.7,7.5-2.6l2.7,4.1C234.8-264.1,234.1-263.7,233.6-263.5z"/>
	</g>
	<g>
		<path class="st3" d="M257.3-287.9c-1-0.9-1.6-1.2-2.2-1.2c-1.9,0-4.4,2.8-7.4,8.2v18.6h-5.2v-31.3h5.2v5.7c3.9-5,5.8-6.5,8.1-6.5
			c1.2,0,2.6,0.8,4,2.1L257.3-287.9z"/>
	</g>
	<g>
		<path class="st3" d="M288-261.3c-4.3-0.3-5.8-1.4-6.1-4.3c-1.6,1.4-2.3,1.9-3.3,2.5c-1.9,1.1-4.4,1.8-6.6,1.8
			c-5,0-8.4-3.2-8.4-8.2c0-4.6,2.4-7.6,7-8.7l10.8-2.6v-5.7c0-2.6-1.9-3.9-5.9-3.9c-3.2,0-4.8,0.9-4.8,2.7c0,0.3,0.1,0.6,0.3,1.2
			l-5.2,1.1c-0.5-0.8-0.6-1.2-0.6-1.9c0-4.1,4.6-7,11.3-7c6.3,0,10.2,3,10.2,7.8v16.9v2.3c0.1,0.8,1,1.4,2.6,1.7L288-261.3z
			 M281.4-276.5l-11.7,3c-0.8,1.4-0.9,2.1-0.9,3.4c0,2.5,1.7,4.1,4.2,4.1c2.3,0,3.9-0.8,8.4-4V-276.5z"/>
	</g>
	<g>
		<path class="st3" d="M305-261.3c-3.6,0-6-2.8-6-7v-20.8h-5.2v-3l5.2-1.3v-9.1h5.2v9.1h8.3v4.3h-8.3v17.8l0.1,1.4
			c0.1,1,0.1,1.6,0.1,1.9c0.1,1,0.7,1.5,1.8,1.5c1.3,0,2.3-0.6,4.6-2.2l2.1,3.5C309.2-262.2,307.5-261.3,305-261.3z"/>
	</g>
	<g>
		<path class="st3" d="M341.8-263.5c-2.6,1.4-5.6,2.1-8.7,2.1c-9.5,0-16-6.6-16-16.2c0-9.9,6.8-16.8,16.4-16.8
			c1.6,0,3.1,0.2,4.6,0.6c2.1,0.6,3,1,5.2,2.6l-3,4.2c-2.4-2-4.2-2.7-7-2.7c-6.3,0-10.5,4.8-10.5,11.9c0,7.2,4.2,11.7,10.9,11.7
			c3,0,5-0.7,7.5-2.6l2.7,4.1C342.9-264.1,342.2-263.7,341.8-263.5z"/>
	</g>
	<g>
		<path class="st3" d="M370.9-262.2v-22.2c0-2.1-0.1-2.8-0.5-3.7c-0.5-1-1.7-1.7-3.1-1.7c-3.2,0-6.6,2.3-12,8.4v19.1h-5.2v-50.3h5.2
			v25.6c2.1-2.4,2.7-3,4.2-4.3c2.4-2,5.5-3.1,8.4-3.1c5.5,0,8.2,2.8,8.2,8.7v23.4H370.9z"/>
	</g>
	<g>
		<path class="st3" d="M396.4-295.4V-307c-0.1,0.8-0.1,0.9-0.6,2.2l-3.6,9.3h-2.7l-3.3-9.2c-0.3-0.9-0.4-1.2-0.6-2.5v11.7h-2.7
			v-15.8h3.6l4.2,11.3c0.2,0.5,0.2,0.6,0.3,1.2c0.1-0.7,0.1-0.8,0.3-1.2l4.4-11.3h3.6v15.8H396.4z"/>
	</g>
	<g>
		<path class="st3" d="M418.9-295.4V-307c-0.1,0.8-0.1,0.9-0.6,2.2l-3.6,9.3H412l-3.3-9.2c-0.3-0.9-0.4-1.2-0.6-2.5v11.7h-2.7v-15.8
			h3.6l4.2,11.3c0.2,0.5,0.2,0.6,0.3,1.2c0.1-0.7,0.1-0.8,0.3-1.2l4.4-11.3h3.6v15.8H418.9z"/>
	</g>
</g>
<g>
	<path class="st3" d="M34.5,269C34.5,269,34.5,269,34.5,269c-0.2,0-0.3-0.1-0.3-0.3c1.3-26.1,6.7-52.1,12.4-77.3
		c0.2-6.2,0.4-12.4,0.7-18.5c-0.7,1.8-1.3,3.6-1.9,5.4c0,0.1-0.1,0.1-0.2,0.2c-0.1,0-0.2,0-0.2,0c-4.7-2.8-16.5,7.9-25.1,15.7
		c-3.8,3.4-7,6.4-9.3,7.9c-0.1,0.1-0.3,0.1-0.4-0.1c-0.1-0.1,0-0.3,0.1-0.4c2.3-1.5,5.5-4.5,9.3-7.9c9-8.2,20.2-18.3,25.4-15.9
		c0.8-2.2,1.6-4.4,2.4-6.7c2.1-42.5,7.3-81.4,15-109.9c0-0.1,0.1-0.2,0.2-0.2c0.1,0,0.2,0.1,0.3,0.2c4.2,11.7-1.3,43.4-4.2,60.5
		c-0.7,3.8-1.2,6.8-1.4,8.7c-1,7.3-2,14.6-3.1,22.1c1-2.7,1.9-5.4,2.9-8.1c3.8-19.4,6.7-39,7.1-58.6c0-0.1,0.1-0.2,0.2-0.3
		c0.1,0,0.3,0.1,0.3,0.2c1,6.1,1.8,12.5,2.5,19.2c1.1-6.7,2.5-13.2,4.3-19.4c0-0.1,0.2-0.2,0.3-0.2c0.1,0,0.2,0.1,0.2,0.3l-0.2,1.7
		c-0.8,7.9-1.7,16.1-2.7,24.6c0.6,4,1.2,8.9,1.8,14.3c2-26.8,4.2-54.2,10.9-78.2c0-0.1,0.1-0.2,0.3-0.2c0.1,0,0.2,0.1,0.2,0.2
		C84.5,61,85,74.7,84.8,88.4c0.9-5.7,1.8-11.3,3-16.7c0-0.1,0.1-0.2,0.3-0.2c0.1,0,0.2,0.1,0.2,0.2c0.3,2.8,0.6,5.6,0.9,8.5
		c0.9-1.6,1.9-3.1,2.9-4.5c0.1-0.9,0.2-1.7,0.4-2.5c0-0.1,0.1-0.2,0.3-0.2c0.1,0,0.2,0.1,0.3,0.2c0.1,0.4,0.1,0.7,0.2,1.1
		c0.1-0.1,0.2-0.3,0.3-0.4c-0.2-6.4-0.4-12.9-0.4-19.4c0-0.1,0.1-0.3,0.2-0.3c0.1,0,0.3,0.1,0.3,0.2c0.9,8.6,1.6,17.2,2.3,25.9
		c1.3,7.5,2,15,2.4,22.6c0.1-0.1,0.3-0.1,0.4-0.2c0-1.8-0.1-4.4-0.2-7.3c-0.4-11.2-1-29.2,1.6-38.7c0-8.5,0.1-17,0.2-25.4
		c0-0.1,0.1-0.2,0.2-0.3c0.1,0,0.2,0.1,0.3,0.2c4,13.2,5,30.7,5,48.4c0.5,4.1,1,8.2,1.4,12.3c2.1-17.5,4.8-34.3,8.3-51.6
		c0-0.1,0.1-0.2,0.2-0.2c0.1,0,0.2,0.1,0.3,0.2c4.9,12.7-1.7,45-7.1,69.4c0.1,0.1,0.1,0.2,0,0.3c-0.1,0.1-0.1,0.2-0.2,0.3
		c-0.1,0.5-0.2,1-0.3,1.5c0.1,1.9,0.1,3.8,0.2,5.7c1.5-1.7,3.1-3.1,4.7-4.3c0.1-0.1,0.3-0.1,0.4,0.1c0.1,0.1,0.1,0.3-0.1,0.4
		c-1.7,1.3-3.3,2.8-5,4.7c0.4,18-0.5,35.9-2.8,52.6c0,10.1,0,20,0,30.9c0,6.8,0,14,0,21.7c0,0.1-0.1,0.2-0.2,0.3
		c-0.1,0-0.3-0.1-0.3-0.2c-1.9-17.8-2.4-21.8-3-33.9c-0.1,0-0.1-0.1-0.1-0.2c0-0.5,0-1,0-1.5c-0.1-2.6-0.3-5.5-0.5-9l-0.2-3.4
		c-0.2-4.2-0.5-8.5-0.7-12.8c0,28.3-0.2,56.8-1,85c0,0.1-0.1,0.2-0.3,0.2c-0.1,0-0.3-0.1-0.3-0.3l0-1.3c0-27.1,0.1-54.5-0.4-82
		c-1.7,10.3-3.5,20.6-5.7,30.5c-0.6,8.2-1.6,16.8-3.5,26.8c0,0.1-0.1,0.2-0.3,0.2c-0.1,0-0.2-0.1-0.2-0.2
		c-1.2-14.4,0.4-23.3,2.3-33.7c0.5-3,1.1-6,1.6-9.2c0.1-0.5,0.1-1.1,0.2-1.6c0-4.3,0-8.6,0-13.2c0-3.9,0-7.8,0-11.9
		c-1,1-2,2.1-3.1,3.1c-1.7,29.2-5.5,58.8-11.5,85.9c0,0.1-0.1,0.2-0.3,0.2c-0.1,0-0.2-0.1-0.2-0.3c-0.1-15.7,2.5-32.1,5-47.9
		c1.4-8.9,2.9-18.1,3.8-26.9c0.3-2.8,0.5-5.7,0.7-8.5c-0.1,0.1-0.2,0.2-0.3,0.3c-1.5,1.5-3,3-4.5,4.6c-0.2,12.4-1.1,25.3-4.6,34.3
		c0,0.1-0.2,0.2-0.3,0.2c-0.1,0-0.2-0.1-0.2-0.3L78,191c0.2-7.1,0.4-14.4,0.6-21.7c-1.8,3.2-3.7,6.2-5.6,8.9
		c-0.5,16.5-2.5,36.1-8.7,47.5c-0.4,3.1-0.8,6.3-1.3,9.4c0,0.1-0.1,0.2-0.3,0.2c-0.1,0-0.2-0.1-0.2-0.2c-0.1-2.1-0.1-4.2-0.1-6.3
		c-1.3,1.8-2.8,3.3-4.5,4.4c-0.1,0-0.2,0.1-0.2,0c-0.1,0-0.1-0.1-0.2-0.2c-3.7-14.7-1.8-33,0.6-50.2c-1.3,1-2.6,2-3.9,3
		c-2.1,6.1-4.5,12-7.2,17.4c-0.1,0.1-0.2,0.2-0.3,0.1c-0.1,0-0.2-0.1-0.2-0.3c0-0.4,0-0.7,0-1c-3.5,21.2-7.4,43.4-11.7,66.8
		C34.8,268.9,34.7,269,34.5,269z M46.6,194c-5.2,23.1-10,46.8-11.6,70.7c4.3-23.1,8.1-45.1,11.5-66.1
		C46.6,197.1,46.6,195.5,46.6,194z M88.2,157.1c-0.2,3.1-0.5,6.1-0.8,9.2c-0.9,8.8-2.4,18-3.8,26.9c-2.4,15-4.8,30.4-5,45.4
		c5.6-26.2,9.3-54.7,10.9-82.9C89.2,156.2,88.7,156.7,88.2,157.1z M58.6,182.4c-2.4,17.1-4.3,35.5-0.7,50.2c1.7-1.2,3.1-2.8,4.4-4.7
		c0-13.6,1.2-26.8,2.8-40.2c-0.5,0.5-1,0.9-1.6,1.3c-0.1,0.1-0.2,0.1-0.3,0c-0.1-0.1-0.1-0.2-0.1-0.3c0.7-1.7,1.5-3.4,2.4-5
		c0.2-2.1,0.5-4.1,0.7-6.2c0.1-0.5,0.1-1.1,0.2-1.6C63.9,178.1,61.3,180.2,58.6,182.4z M62.8,228c0,1.3,0,2.7,0,4
		c0.2-1.7,0.5-3.5,0.7-5.2C63.3,227.3,63.1,227.6,62.8,228z M65.7,187.1c-1.5,13.4-2.8,26.5-2.8,40c0.3-0.5,0.6-1,0.9-1.6
		c1.8-13.5,3.1-27.1,3.9-40.5C67,185.8,66.3,186.5,65.7,187.1z M99.3,161.5c0.4,21.3,0.5,42.6,0.5,63.8c0.4-23.2,0.5-46.5,0.5-69.6
		C99.9,157.6,99.6,159.5,99.3,161.5z M68.2,184.4c-0.8,13.1-2.1,26.5-3.8,39.8c5.6-11.2,7.5-29.5,8-45.3
		C71.1,180.9,69.6,182.8,68.2,184.4z M92.4,186c-0.1,0.7-0.3,1.4-0.4,2.1c-1.8,9.8-3.4,18.4-2.5,31.6c1.4-7.9,2.3-14.8,2.9-21.5
		c-0.2,1.1-0.5,2.1-0.8,3.1c0,0.1-0.2,0.2-0.3,0.2c-0.1,0-0.2-0.1-0.2-0.3C91.5,196.2,91.9,191.1,92.4,186z M102.7,189.1
		c0.6,11.3,1,15.6,2.5,29.7c0-6,0-11.6,0-17c0-9.6,0-18.4,0-27.3C104.5,179.4,103.7,184.3,102.7,189.1z M47.1,198.7
		c0,1.1,0,2.2,0,3.3c2.4-4.9,4.5-10.1,6.4-15.6c-1.6,1.3-3.3,2.5-5,3.7C48,192.9,47.5,195.8,47.1,198.7z M93.2,183.2
		c-0.5,5-0.9,10-1.3,15.1c0.3-1.1,0.5-2.3,0.8-3.5C92.9,190.8,93.1,187,93.2,183.2z M79.1,168.3c-0.3,7.7-0.5,15.3-0.7,22.7
		l-0.1,4.2c2.9-8.7,3.7-20.6,4-32.1c-0.2,0.3-0.5,0.5-0.7,0.8C80.8,165.4,80,166.9,79.1,168.3z M47.2,191.5c0,1.2-0.1,2.4-0.1,3.6
		c0.3-1.6,0.5-3.1,0.8-4.7c0,0-0.1,0-0.1-0.1c-0.1-0.1-0.1-0.2,0-0.3c0.1-0.1,0.2-0.2,0.2-0.4c0.3-1.8,0.6-3.6,0.8-5.3
		C48.3,186.7,47.8,189.1,47.2,191.5z M93.8,177.7c0,4.6-0.2,9.1-0.4,13.8c2.1-9.7,3.8-19.9,5.5-30.1c-0.2-9.4-0.4-18.8-0.7-28.3
		c-0.1,0.1-0.2,0.3-0.2,0.4c-0.6,9.4-1.5,18.7-2.4,28c-0.1,1.6-0.2,3.3-0.3,4.9C94.7,170.7,94.3,174.3,93.8,177.7z M55.5,180
		c-2.3,3-4.5,6-6.6,9.1c1.6-1.1,3.2-2.3,4.7-3.5C54.4,183.7,55,181.9,55.5,180z M47.9,171.3c-0.3,5.8-0.5,11.7-0.7,17.6
		c0.6-2.8,1.3-5.6,1.9-8.4c0.3-1.1,0.5-2.2,0.8-3.4c1-6.6,2-13.1,3-19.6c-1,2.8-2.1,5.7-3.1,8.5C49.2,167.8,48.6,169.5,47.9,171.3z
		 M50.5,177.2c-0.6,3.8-1.2,7.6-1.8,11.4c2.3-3.4,4.8-6.8,7.3-10c2.1-7,4-14.4,5.5-22c0.1-0.5,0.1-1,0.2-1.6
		c-2.1,0.8-4.2,1.4-6.4,1.7c-0.1,0-0.1,0-0.1,0C53.6,163.6,52.1,170.4,50.5,177.2z M65.4,185.1c-0.5,0.9-0.9,1.9-1.4,2.8
		c0.4-0.3,0.8-0.7,1.2-1.1C65.2,186.3,65.3,185.7,65.4,185.1z M104.1,131.1c-1,17.2-1.5,35.5-1.5,55.7c1-5.2,1.9-10.5,2.6-16
		c0-13.3-0.2-26.8-0.4-42.9C104.6,129,104.3,130.1,104.1,131.1z M66,183.8c-0.1,0.8-0.2,1.6-0.3,2.5c0.7-0.7,1.3-1.4,2-2.1
		c0.1-1.2,0.1-2.3,0.2-3.5C67.3,181.7,66.6,182.8,66,183.8z M56.4,178.8c-0.6,2.1-1.3,4.2-2,6.2c1.2-0.9,2.5-1.9,3.7-2.9
		c0.3-2.2,0.6-4.5,0.9-6.7C58.2,176.6,57.3,177.7,56.4,178.8z M68.5,179.8c-0.1,1.3-0.1,2.5-0.2,3.8c1.4-1.7,2.8-3.5,4.2-5.6
		c0-0.5,0-0.9,0-1.4c0-0.8,0-1.7,0-2.5C71.1,176,69.7,177.9,68.5,179.8z M67,175.3c-0.1,0.7-0.2,1.5-0.3,2.2c-0.2,1.7-0.4,3.4-0.6,5
		c0.6-1,1.2-1.9,1.8-2.9c0.1-1.8,0.2-3.6,0.3-5.3C67.8,174.7,67.4,175,67,175.3z M59.7,174.6c0,0.2-0.1,0.4-0.1,0.5
		c-0.3,2.1-0.6,4.3-0.9,6.4c2.6-2.1,5.2-4.3,7.8-6.5c0.2-1.7,0.4-3.4,0.6-5.2c0.2-1.6,0.4-3.3,0.5-4.9
		C65,168.2,62.3,171.4,59.7,174.6z M68.8,173.9c-0.1,1.7-0.1,3.3-0.2,5c1.3-1.9,2.6-3.7,4.1-5.5c0-0.9,0-1.9,0-2.9
		C71.3,171.6,70,172.7,68.8,173.9z M100.8,153.2c0.1,2.6,0.3,5.2,0.4,7.8c0.3,4.8,0.5,9.7,0.8,14.4l0.2,3.3
		c0.1-15.4,0.5-29.7,1.2-43.3c-0.7,4.4-1.4,9-2.1,13.4c-0.2,1.2-0.4,2.4-0.5,3.6C100.8,152.7,100.8,152.9,100.8,153.2z M61,161.4
		c-1.2,5.5-2.6,10.8-4.1,16c0.8-1,1.6-2,2.4-3C59.9,169.9,60.5,165.5,61,161.4z M73.1,173.5c0,1.1,0,2.1-0.1,3.2c0,0.2,0,0.4,0,0.6
		c1.9-2.8,3.8-5.9,5.6-9.1c0-0.4,0-0.7,0-1.1C76.7,169.1,74.9,171.3,73.1,173.5z M68.3,164.3c-0.2,1.9-0.4,3.8-0.6,5.7
		c-0.2,1.5-0.4,3.1-0.5,4.6c0.4-0.3,0.8-0.6,1.1-1c0.1-3.2,0.2-6.3,0.3-9.5c-0.1,0-0.1,0-0.2,0C68.4,164.2,68.3,164.2,68.3,164.3z
		 M62,156.7c-0.1,0.6-0.1,1.1-0.2,1.6c-0.5,4.7-1.2,9.9-2,15.3c2.6-3.2,5.3-6.4,7.9-9.6c0.3-3.3,0.7-6.7,1-10.1c0-1,0-1.9,0-2.9
		c-2.1,1.5-4.2,2.7-6.3,3.7C62.3,155.4,62.2,156,62,156.7z M69.1,164c-0.1,3-0.2,6.1-0.3,9.1c1.3-1.1,2.6-2.2,3.8-3.4
		c0-2.4,0-4.7-0.1-7.1C71.2,163.5,70,163.9,69.1,164z M73.1,170c0,0.9,0,1.8,0,2.7c1.8-2.2,3.7-4.3,5.6-6.4c0-0.4,0-0.9,0-1.3
		C76.9,166.6,75,168.3,73.1,170z M93.7,151.5c0,4.3,0,8.4,0,12.5c0,2.8,0,5.5,0,8.1c0.1-1.2,0.3-2.4,0.4-3.6
		c0.2-2.3,0.5-4.6,0.7-6.9c0.5-8.1,0.7-16.1,0.7-24c-0.6,1.1-1.2,2.1-1.8,3.2c0,0.3,0,0.7,0,1c-0.1,3.1-0.1,6-0.1,8.9
		c0.3-0.2,0.5-0.5,0.8-0.7c0.1-0.1,0.3-0.1,0.4,0c0.1,0.1,0.1,0.3,0,0.4C94.5,150.7,94.1,151.1,93.7,151.5z M53.8,155.1
		c-0.7,5-1.5,10-2.2,15c1.7-7.4,3.3-14.8,4.8-22.2C55.6,150.3,54.7,152.7,53.8,155.1z M62.7,62.3c-7.4,28-12.6,65.9-14.7,107.3
		c0.5-1.3,0.9-2.5,1.4-3.8c1.3-3.6,2.6-7.2,3.9-10.8c1.2-8.3,2.4-16.5,3.5-24.6c0.3-1.9,0.8-4.9,1.4-8.7
		C61.1,105.1,66.4,74.5,62.7,62.3z M73.1,162.4c0,2.3,0.1,4.6,0.1,6.9c1.9-1.7,3.8-3.4,5.6-5.1c0.1-2.4,0.2-4.8,0.3-7.2
		C76.7,159.7,74.8,161.3,73.1,162.4z M79.2,166.5c0,0.2,0,0.5,0,0.7c0.3-0.6,0.7-1.2,1-1.8C79.9,165.8,79.5,166.1,79.2,166.5z
		 M105.3,125.7c0.3,15.5,0.4,28.5,0.5,41.2c1.9-15.5,2.6-31.7,2.3-48.1c-0.6,0.7-1.2,1.4-1.7,2.1C106,122.5,105.6,124.1,105.3,125.7
		z M79.3,164.5c0,0.4,0,0.8,0,1.2c0.6-0.7,1.3-1.4,1.9-2.1c0.3-0.6,0.6-1.2,1-1.8C81.2,162.7,80.2,163.6,79.3,164.5z M79.6,156.5
		c-0.1,2.4-0.2,4.9-0.3,7.3c1-0.9,2-1.9,3.1-2.8c0-2.7,0-5.4,0-8.1C81.4,154.3,80.5,155.4,79.6,156.5z M69.1,163.3
		c0,0.1,0,0.1,0,0.2c1.1-0.2,2.3-0.7,3.4-1.4c0-0.9,0-1.8-0.1-2.7C71.4,160.7,70.2,162,69.1,163.3z M69.2,157.1
		c0,1.8-0.1,3.6-0.1,5.4c1.1-1.3,2.2-2.6,3.3-3.9c-0.1-3.4-0.2-6.8-0.4-10.1c-0.7,0.6-1.3,1.1-2,1.6
		C69.7,152.5,69.5,154.9,69.2,157.1z M82.9,161.6c0,0.1,0,0.2,0,0.3c1.4-1.4,2.8-2.8,4.2-4.2c0.2-0.2,0.5-0.5,0.7-0.7
		c0-0.1,0-0.1,0-0.2c-0.9,0.8-1.7,1.6-2.6,2.4c-0.6,0.6-1.3,1.2-1.9,1.7C83.1,161.1,83,161.3,82.9,161.6z M73,158.8c0,1,0.1,2,0.1,3
		c2-1.3,4-3.2,6-5.5c0.1-1.6,0.1-3.2,0.2-4.8c-1.7,2-3.4,3.9-5,5.9C73.8,157.9,73.4,158.3,73,158.8z M82.9,152.2c0,2.7,0,5.4,0,8.3
		c1.6-3,3.2-6,4.8-9.1c0.2-0.3,0.3-0.7,0.5-1c0.1-2.3,0.2-4.6,0.3-6.9C86.5,146.9,84.6,149.8,82.9,152.2z M88.1,151.7
		c-1.4,2.6-2.7,5.2-4.1,7.8c0.3-0.3,0.5-0.5,0.8-0.7c1-0.9,2-1.8,3-2.7C87.9,154.6,88,153.1,88.1,151.7z M98.6,132.4
		c0.3,8.7,0.5,17.5,0.7,26.2c0.3-2,0.6-4,0.9-6c-0.4-7-0.7-14.1-1-21.2C99,131.7,98.8,132,98.6,132.4z M72.5,148.1
		c0.2,3.3,0.3,6.6,0.4,10c0.3-0.3,0.6-0.7,0.9-1c1.8-2.1,3.6-4.2,5.5-6.4c0.1-3.2,0.3-6.5,0.5-9.7C77.4,143.5,75,146,72.5,148.1z
		 M88.3,156.2c0,0,0,0.1,0,0.1c0.4-0.4,0.7-0.8,1.1-1.1C89.1,155.6,88.7,155.9,88.3,156.2z M63.2,138.1c-3.6,5.9-6.3,12-7.7,18.1
		c2.1-0.3,4.2-0.9,6.2-1.7c0.4-3.9,0.7-7.8,1.1-11.7C62.9,141.2,63.1,139.7,63.2,138.1z M79.8,150.9c-0.1,1.6-0.1,3.2-0.2,4.8
		c0.9-1.1,1.9-2.3,2.8-3.6c0-1,0-1.9,0-2.8c0-0.5,0-0.9,0-1.4C81.5,148.8,80.7,149.9,79.8,150.9z M88.7,150.6
		c-0.1,1.6-0.2,3.3-0.3,4.9c0.4-0.4,0.9-0.8,1.3-1.2c0.1-2.1,0.2-4.2,0.3-6.3C89.6,148.8,89.1,149.7,88.7,150.6z M66.2,133.6
		c-1.1,6.9-2.2,13.8-3.6,20.6c2.1-1,4.2-2.2,6.2-3.7c0-6.8-0.1-13.5-0.4-20C67.6,131.5,66.9,132.5,66.2,133.6z M90.6,146.9
		c-0.1,2.3-0.2,4.6-0.3,6.9c1-0.9,2-1.8,3-2.7c0-3,0-6.1,0.1-9.3C92.4,143.5,91.5,145.2,90.6,146.9z M57.6,144.6
		c-0.5,2.7-1.1,5.5-1.7,8.2c1.6-5.3,4.2-10.7,7.4-15.8c0.4-4,0.8-8.1,1.2-12.2C62.3,131.4,60,138,57.6,144.6z M63.8,137.1
		c-0.2,1.9-0.3,3.8-0.5,5.8c-0.3,2.9-0.5,5.9-0.8,8.9c1.1-5.7,2.1-11.4,3-17.2C64.9,135.4,64.4,136.2,63.8,137.1z M96.1,136.6
		c0,4.9-0.1,9.9-0.2,15c0.5-5.6,1-11.3,1.4-17C96.9,135.3,96.5,135.9,96.1,136.6z M82.9,147.2c0,0.7,0,1.3,0,2c0,0.7,0,1.4,0,2.1
		c1.9-2.7,3.8-5.7,5.6-8.9c0-0.7,0.1-1.4,0.1-2.1C86.7,142.6,84.8,144.9,82.9,147.2z M80.3,140.4c-0.2,3.2-0.3,6.4-0.5,9.7
		c0.8-1,1.7-2,2.5-3c0-3.2,0-6.3,0.1-9C81.8,138.8,81.1,139.6,80.3,140.4z M71.5,139.8c-0.5,3.3-1,6.5-1.4,9.7
		c0.6-0.5,1.3-1,1.9-1.5C71.9,145.1,71.7,142.4,71.5,139.8z M89,142.5c-0.1,2.3-0.2,4.5-0.3,6.8c0.4-0.8,0.9-1.7,1.3-2.5
		c0.1-2.2,0.2-4.3,0.2-6.5C89.9,141.1,89.5,141.8,89,142.5z M100.7,129c0,6.7,0.1,13.4,0.1,20.1c0-0.1,0-0.2,0.1-0.3
		c0.7-4.8,1.5-9.9,2.3-14.7c0.1-0.9,0.3-1.9,0.5-3c0.1-2.4,0.3-4.8,0.5-7.2C102.9,125.4,101.8,127.2,100.7,129z M70.9,132.4
		c-0.4,5.4-0.8,10.8-1.2,16.2c0.5-3.6,1-7.3,1.6-11C71.2,135.8,71.1,134.1,70.9,132.4z M68.9,129.8c0.2,5.9,0.4,11.8,0.4,17.9
		c0.5-5.6,0.9-11.3,1.3-16.9c0-0.5,0.1-1,0.1-1.5c0-0.5-0.1-1-0.1-1.5C70,128.4,69.4,129.1,68.9,129.8z M71.9,137.6
		c0.2,3.2,0.5,6.5,0.6,9.9c2.5-2.2,4.9-4.7,7.3-7.3c0.5-8.1,1-16.2,1.7-24.3c-2.4,2.2-4.7,4.5-6.8,6.9
		C73.6,127.7,72.7,132.7,71.9,137.6z M83,137.4c-0.1,2.7-0.1,5.8-0.1,9c1.9-2.3,3.9-4.6,5.7-7c0.1-3.1,0.2-6.1,0.3-9.1
		c0,0.1-0.1,0.1-0.1,0.2C86.9,132.8,84.9,135.1,83,137.4z M90.8,139.3c-0.1,2.1-0.1,4.3-0.2,6.4c0.9-1.7,1.8-3.4,2.7-5.1
		c0-2.1,0.1-4.3,0.2-6.5c-0.6,1.2-1.2,2.4-1.8,3.6C91.4,138.2,91.1,138.8,90.8,139.3z M99.7,130.6c0.2,4.1,0.4,8.2,0.6,12.3
		c0-4.4,0-8.8-0.1-13.1C100,130,99.8,130.3,99.7,130.6z M89.2,139.6c0,0.6,0,1.2-0.1,1.8c0.4-0.7,0.8-1.5,1.2-2.3c0-0.4,0-0.7,0-1.1
		C90,138.6,89.6,139.1,89.2,139.6z M64.6,88.8c-0.5,17.5-3,35.1-6.4,52.4c2.2-6.2,4.4-12.5,6.5-18.8c0.6-5.2,1.2-10.3,2.1-15.4
		C66.2,100.7,65.5,94.6,64.6,88.8z M94.1,133.3c-0.1,2.2-0.1,4.3-0.2,6.4c0.6-1.1,1.2-2.1,1.8-3.2c0-1.8,0-3.5,0-5.3
		C95.1,131.9,94.6,132.6,94.1,133.3z M82.1,115.4c-0.7,8-1.3,16.1-1.7,24.2c0.7-0.8,1.4-1.6,2.1-2.4c0.2-6.5,0.5-13.1,0.8-20
		c0-1,0.1-2,0.1-2.9C83,114.6,82.6,115,82.1,115.4z M89.5,129.6c-0.1,3-0.2,6.1-0.3,9.1c0.4-0.5,0.8-1,1.2-1.5
		c0.1-3,0.1-5.9,0.2-8.9C90.2,128.8,89.8,129.2,89.5,129.6z M90.9,137.4c0,0.2,0,0.5,0,0.7c0.4-0.7,0.7-1.4,1.1-2.1
		C91.6,136.5,91.3,136.9,90.9,137.4z M84,113.8c-0.1,1.1-0.1,2.3-0.2,3.4c-0.3,6.7-0.6,13.1-0.8,19.4c1.8-2.1,3.6-4.3,5.4-6.5
		c0.2-0.2,0.4-0.4,0.5-0.7c0-1.7,0.1-3.3,0.1-4.9c0.1-5.1,0.3-10.2,0.5-15.3C87.7,110.6,85.8,112.2,84,113.8z M91.1,127.7
		c0,2.9-0.1,5.9-0.1,8.8c0.8-1,1.5-2,2.3-3c0.1-0.2,0.2-0.5,0.4-0.7c0.1-2.3,0.2-4.7,0.3-7.1c0-0.5,0-0.9,0.1-1.4
		C92.9,125.5,92,126.6,91.1,127.7z M65.3,122.5c-0.5,4.5-0.9,9-1.4,13.4c0.6-0.9,1.1-1.7,1.7-2.6c0.8-5,1.5-10,2.1-15
		c-0.1-0.9-0.1-1.8-0.2-2.7C66.8,118,66.1,120.3,65.3,122.5z M96.1,130.5c0,1.7,0,3.4,0,5.1c0.4-0.7,0.8-1.4,1.2-2.1
		c0.1-1.7,0.2-3.4,0.3-5.1C97.1,129.1,96.6,129.8,96.1,130.5z M71.2,129.3c0.2,2,0.4,4.1,0.5,6.2c0.7-4,1.5-8,2.3-11.9
		c-0.9,1-1.8,2.1-2.7,3.1C71.3,127.6,71.2,128.4,71.2,129.3z M98,130.8c0,0.5-0.1,1.1-0.1,1.6c0-0.1,0.1-0.2,0.1-0.2
		C98,131.8,98,131.3,98,130.8z M67.9,121c-0.5,3.8-1,7.6-1.6,11.4c0.7-0.9,1.3-1.9,2-2.8C68.2,126.8,68.1,123.9,67.9,121z
		 M94.4,123.7c0,0.7-0.1,1.3-0.1,2c-0.1,2-0.2,4-0.2,5.9c0.5-1,1-2,1.4-3.1c0-2-0.1-4-0.1-6C95.1,123,94.8,123.3,94.4,123.7z
		 M98.4,127.2c0.1,1.4,0.1,2.8,0.2,4.2c0.2-0.3,0.4-0.7,0.6-1c-0.1-1.4-0.1-2.7-0.1-4.1C98.8,126.7,98.6,127,98.4,127.2z
		 M95.6,129.8c-0.2,0.5-0.4,0.9-0.7,1.4c0.2-0.3,0.4-0.6,0.7-0.9C95.6,130.2,95.6,130,95.6,129.8z M99.5,125.7c0,1.3,0.1,2.7,0.1,4
		c0.2-0.3,0.4-0.6,0.5-0.9c0-1.4,0-2.7,0-4.1C99.9,125,99.7,125.3,99.5,125.7z M96.1,128.8c0,0.3,0,0.6,0,0.9
		c0.5-0.7,1.1-1.5,1.6-2.3c0-0.8,0.1-1.7,0.1-2.5C97.2,126.2,96.6,127.5,96.1,128.8z M68.3,118.4c0.2,3.5,0.4,7,0.6,10.6
		c0.5-0.7,1-1.3,1.6-2c-0.5-4.9-1-9.3-1.6-13.2C68.7,115.4,68.5,116.9,68.3,118.4z M90.1,108.8c-0.2,5.2-0.3,10.5-0.5,15.7
		c0,1.4-0.1,2.8-0.1,4.3c0.4-0.4,0.7-0.9,1.1-1.3c0.1-6.4,0-12.7-0.2-18.9C90.3,108.7,90.2,108.8,90.1,108.8z M100.6,123.9
		c0,1.4,0,2.7,0,4.1c1.2-1.8,2.3-3.5,3.5-5.2c0.1-1.7,0.2-3.4,0.4-5.1C103.3,119.8,102,121.9,100.6,123.9z M95.9,122
		c0,1.8,0.1,3.6,0.1,5.5c0.6-1.3,1.2-2.6,1.7-3.9c0-1.1-0.1-2.3-0.1-3.4C97,120.8,96.5,121.4,95.9,122z M104.7,123
		c-0.1,1.5-0.2,2.9-0.3,4.4c0.1-0.6,0.3-1.2,0.4-1.8c0-0.7,0-1.5,0-2.2C104.7,123.3,104.7,123.1,104.7,123
		C104.7,123,104.7,123,104.7,123z M90.9,108.2c0.2,6.1,0.2,12.3,0.2,18.6c0.9-1.1,1.9-2.3,2.8-3.4c0.2-5.7,0.4-11.7,0.5-17.7
		C93.2,106.6,92.1,107.4,90.9,108.2z M98.3,124.6c0,0.6,0,1.2,0.1,1.8c0.2-0.3,0.4-0.6,0.6-0.9c0-1.1-0.1-2.1-0.1-3.2
		c-0.2,0.4-0.3,0.8-0.5,1.3C98.3,123.9,98.3,124.3,98.3,124.6z M82,49.3c-6.4,23.6-8.6,50.3-10.6,76.5c0.9-1.1,1.9-2.2,2.8-3.3
		c2.6-11.7,5.9-23,10-32.6C84.5,76.2,84.1,62.4,82,49.3z M99.3,121.1c0,1.2,0.1,2.4,0.1,3.7c0.2-0.3,0.5-0.7,0.7-1
		c0-1.1,0-2.2,0-3.4c0-0.4,0-0.8,0-1.2C99.9,119.8,99.6,120.5,99.3,121.1z M105.2,122.3c0,0.4,0,0.7,0,1.1c0,0,0,0,0,0
		c0.1-0.5,0.2-1.1,0.4-1.7C105.5,122,105.3,122.1,105.2,122.3z M100.6,117.9c0,0.9,0,1.7,0,2.5c0,0.9,0,1.7,0,2.6
		c1.4-2.1,2.7-4.2,4-6.4c0-0.2,0-0.4,0-0.6c0-0.9,0-1.9,0-2.8c-1.2,1-2.4,2.1-3.5,3.3C101,116.9,100.8,117.4,100.6,117.9z
		 M94.9,108.2c-0.1,5-0.3,9.9-0.5,14.7c0.3-0.4,0.6-0.7,0.9-1.1C95.3,117.2,95.1,112.7,94.9,108.2z M98.4,119.2c0,0.9,0,1.9-0.1,2.8
		c0.1-0.4,0.3-0.7,0.4-1.1c0-0.7,0-1.4-0.1-2.1C98.7,119,98.5,119.1,98.4,119.2z M84.3,91.4c-3.8,9.1-6.9,19.6-9.3,30.4
		c2.2-2.3,4.4-4.6,6.7-6.7c0.7-7.7,1.6-15.3,2.6-22.7C84.2,92.1,84.2,91.7,84.3,91.4z M105.2,116.6c0,1.7,0,3.3,0,4.8
		c0.2-0.3,0.4-0.6,0.7-0.8c0.3-1.4,0.6-2.9,1-4.4c0.3-1.4,0.6-2.8,0.9-4.2C106.9,113.6,106.1,115.1,105.2,116.6z M95.3,105.2
		c0.2,5.3,0.4,10.6,0.6,16c0.6-0.6,1.1-1.2,1.7-1.9c-0.2-5-0.5-10.1-0.7-15.1C96.3,104.6,95.8,104.9,95.3,105.2z M67,109.1
		c-0.6,3.6-1,7.3-1.5,11c0.6-1.9,1.3-3.8,1.9-5.7C67.3,112.6,67.2,110.8,67,109.1z M99.3,118.4c0,0.5,0,0.9,0,1.4
		c0.3-0.7,0.5-1.4,0.8-2.1c0-0.1,0-0.1,0-0.2C99.8,117.8,99.5,118.1,99.3,118.4z M107.9,113.7c-0.2,0.9-0.4,1.8-0.6,2.6
		c-0.3,1.1-0.5,2.3-0.8,3.4c0.5-0.6,1-1.2,1.5-1.7C108,116.6,108,115.1,107.9,113.7z M98.2,103.4c0.2,5,0.3,10,0.2,15
		c0.1-0.1,0.2-0.2,0.3-0.3c-0.1-5-0.2-9.9-0.1-14.7c0-0.1,0-0.1,0-0.2C98.5,103.3,98.4,103.4,98.2,103.4z M99.1,102.9
		c0,0.2,0,0.3,0,0.5c0,4.7,0,9.4,0.1,14.2c0.3-0.3,0.6-0.6,0.9-0.9c0-4.7,0-9.5-0.1-14.3C99.7,102.6,99.4,102.8,99.1,102.9z
		 M97.3,104c0.2,4.2,0.4,8.4,0.6,12.7c0-4.3,0-8.6-0.2-12.9C97.6,103.8,97.5,103.9,97.3,104z M100.5,102.2c0,4.7,0,9.4,0.1,14.1
		c0,0,0,0,0,0c1.9-5.3,3.4-10.1,4.2-13.9c0-0.4,0-0.8,0-1.3c0-0.3,0-0.7,0-1C103.5,100.7,102,101.4,100.5,102.2z M68,114.4
		c0,0.4,0.1,0.9,0.1,1.3c0.1-0.9,0.2-1.7,0.3-2.6C68.3,113.6,68.1,114,68,114.4z M105.5,112.5c-0.1,1-0.2,2-0.3,3
		c0.9-1.5,1.8-3.1,2.6-4.7c0,0,0-0.1,0-0.1C107,111.3,106.2,111.9,105.5,112.5z M104.8,104.9c-0.8,3.1-1.9,6.7-3.3,10.5
		c1-1,2.1-2,3.1-2.8C104.7,110,104.8,107.5,104.8,104.9z M84.1,97.2c-0.7,5.7-1.4,11.6-1.9,17.4c0.4-0.4,0.8-0.7,1.2-1.1
		C83.7,108.1,83.9,102.7,84.1,97.2z M67.4,107c0.2,2,0.4,4,0.5,6.1c0.2-0.6,0.4-1.2,0.6-1.8c0-0.1,0.1-0.1,0.2-0.2
		c0.9-7.7,1.7-15.2,2.5-22.4C69.6,94.7,68.4,100.8,67.4,107z M84.7,92.4c-0.1,6.9-0.4,13.8-0.8,20.6c1.8-1.6,3.7-3.1,5.6-4.5
		c0.1-3.2,0.3-6.3,0.4-9.5c-0.3-5.9-0.7-11.6-1.2-17.3c-1.3,2.3-2.5,4.7-3.6,7.3C85.1,90.2,84.9,91.3,84.7,92.4z M107,97
		c-0.5,4.9-1,9.8-1.4,14.8c0.7-0.6,1.5-1.2,2.2-1.7C107.6,105.7,107.3,101.3,107,97z M107.3,94.3c0.4,5.1,0.8,10.3,1,15.4
		c5.3-23.8,11.7-55.3,7.4-68.4C112.1,59,109.3,76.3,107.3,94.3z M105.4,102.4c0,2.2-0.1,4.4-0.1,6.6c0.4-5,0.9-9.8,1.5-14.7
		c-0.3-3.6-0.7-7.1-1.1-10.7c0,5.3-0.1,10.5-0.2,15.7c0,0,0.1,0,0.1,0c0.1,0,0.2,0,0.3,0c0.1,0.1,0.1,0.1,0.1,0.2
		C105.8,100.4,105.6,101.4,105.4,102.4z M90.2,104.7c0,1.1-0.1,2.3-0.1,3.4c0.1-0.1,0.2-0.1,0.2-0.2
		C90.3,106.9,90.3,105.8,90.2,104.7z M90.5,99.1c0.1,2.8,0.2,5.7,0.3,8.5c1.2-0.9,2.4-1.7,3.6-2.5c0-2.7,0-5.3,0-8
		c0-0.6-0.1-1.2-0.1-1.8c-0.2-3.6-0.3-7.2-0.5-10.8c-0.2-3.1-0.6-6.2-1-9.1c-0.1,0.1-0.2,0.2-0.2,0.3C91.6,83.4,91,91.2,90.5,99.1z
		 M94.9,97.2c0.1,2.5,0.2,5,0.3,7.4c0.5-0.3,1-0.6,1.5-0.9c-0.4-7.8-0.9-15.6-1.5-23.3c-0.4-2.2-0.8-4.4-1.2-6.5
		c0,0-0.1,0.1-0.1,0.1c0.1,3.6,0.3,7.1,0.4,10.6C94.7,88.7,94.9,92.9,94.9,97.2z M96.3,86.9c0.4,5.5,0.7,11,1,16.5
		c0.1-0.1,0.3-0.2,0.4-0.2C97.5,97.7,97,92.3,96.3,86.9z M100,58.9c-2,9.8-1.4,26.1-1.1,36.4c0.1,2.8,0.2,5.2,0.2,7
		c0.3-0.2,0.6-0.3,0.9-0.5C100,87.6,99.9,73.3,100,58.9z M100.5,56.7c-0.1,15,0,30,0,44.9c1.5-0.8,2.9-1.5,4.4-2.1
		c0.1-6.5,0.2-13.2,0.2-20c-1.1-8.3-2.4-16.6-4.1-24.5C100.9,55.6,100.7,56.1,100.5,56.7z M89.3,81c0.4,4.4,0.7,8.9,1,13.5
		c0.4-6,0.9-12,1.7-17.8C91,78.1,90.1,79.5,89.3,81z M88,73.3c-0.9,4.5-1.7,9.2-2.4,13.9c1-2.2,2.1-4.3,3.2-6.3
		C88.5,78.4,88.2,75.8,88,73.3z M93.3,74.9c0.1,0.7,0.2,1.3,0.3,2c0-0.7-0.1-1.5-0.1-2.3C93.4,74.7,93.3,74.8,93.3,74.9z
		 M101.2,53.9C101.2,53.9,101.2,53.9,101.2,53.9c0.1,0,0.2,0.1,0.3,0.2c1.5,7,2.7,14.2,3.7,21.5C105,60,104,44.8,100.7,32.9
		c-0.1,7.3-0.1,14.7-0.2,22.1c0.1-0.3,0.3-0.7,0.4-1C101,53.9,101,53.9,101.2,53.9z M94.2,73C94.2,73,94.2,73,94.2,73
		c0.2,0,0.2,0.1,0.3,0.2c0.2,0.8,0.3,1.6,0.5,2.4c-0.4-5.1-0.9-10.2-1.3-15.4c0.1,4.4,0.2,8.7,0.3,13c0,0,0-0.1,0.1-0.1
		C94,73,94.1,73,94.2,73z"/>
</g>
<g>
	<g>
		<path class="st3" d="M169.9,202.2v-15.8c-0.2,1.1-0.2,1.2-0.8,3.1l-4.9,12.8h-3.7l-4.5-12.5c-0.4-1.3-0.5-1.6-0.8-3.4v16h-3.7
			v-21.6h4.9L162,196c0.3,0.6,0.3,0.9,0.4,1.7c0.1-1,0.2-1.1,0.4-1.7l6-15.4h4.9v21.6H169.9z"/>
	</g>
	<g>
		<path class="st3" d="M194,202.2l-1.7-5.3h-7.2l-1.8,5.3H179l7.8-21.6h3.7l7.8,21.6H194z M188.7,185.5l-2.5,7.8h5L188.7,185.5z"/>
	</g>
	<g>
		<path class="st3" d="M214.6,202.2l-4.9-8.6h-2.1v8.6h-4.1v-21.6h7.2c3.1,0,4.6,0.4,5.8,1.6c1.2,1.1,1.8,2.6,1.8,4.7
			c0,1.7-0.4,3-1.2,4.1c-0.8,1-1.6,1.5-3.4,2l5.4,9.3H214.6z M210.2,184.1h-2.7v6h2.7c2.6,0,3.8-0.9,3.8-3.1
			C214,184.9,212.9,184.1,210.2,184.1z"/>
	</g>
	<g>
		<path class="st3" d="M235.7,202.2l-7.2-10.3v10.3h-4.1v-21.6h4.1v10.1l6.8-10.1h4.7l-7.4,10.5l7.8,11.1H235.7z"/>
	</g>
	<g>
		<path class="st3" d="M245.3,202.2v-21.6h13.1v3.5h-9v5.3h7.4v3.5h-7.4v5.8h9.5v3.5H245.3z"/>
	</g>
	<g>
		<path class="st3" d="M272.9,184.1v18.1h-4.1v-18.1h-6.5v-3.5h17.1v3.5H272.9z"/>
	</g>
	<g>
		<path class="st3" d="M284.6,202.2v-21.6h4.1v21.6H284.6z"/>
	</g>
	<g>
		<path class="st3" d="M311,202.3l-9.3-14c-0.1-0.1-0.2-0.4-0.5-0.9c-0.2-0.3-0.2-0.4-0.3-0.5c-0.1-0.3-0.2-0.4-0.3-0.8v15.8h-3.9
			v-21.6h4.7l9.1,14.2c0,0.1,0.1,0.2,0.2,0.5c0.1,0.2,0.2,0.4,0.2,0.4l0.2,0.6l0.2,0.4v-16h3.9v21.8H311z"/>
	</g>
	<g>
		<path class="st3" d="M339.1,201.9c-2.3,0.6-3.6,0.7-5.4,0.7c-7.2,0-12.1-4.6-12.1-11.3c0-3.3,1.2-6.1,3.6-8.2
			c2.2-2,4.7-2.9,8.4-2.9c1.6,0,3.1,0.2,4.5,0.5c1.1,0.3,1.7,0.5,3.2,1.1l-1,3.4c-0.8-0.3-1.4-0.5-1.8-0.6c-1.5-0.5-3.1-0.8-4.4-0.8
			c-4.8,0-8.2,3-8.2,7.3c0,4.4,3.7,7.8,8.5,7.8c1,0,1.5-0.1,2.8-0.5v-6h4.1v8.8C340.3,201.6,339.6,201.8,339.1,201.9z"/>
	</g>
	<g>
		<path class="st3" d="M365.1,193.6v8.5h-3.6v-8.5H353V190h8.5v-8.5h3.6v8.5h8.5v3.6H365.1z"/>
	</g>
	<g>
		<path class="st3" d="M404.1,202.2v-15.8c-0.2,1.1-0.2,1.2-0.8,3.1l-4.9,12.8h-3.7l-4.5-12.5c-0.4-1.3-0.5-1.6-0.8-3.4v16h-3.7
			v-21.6h4.9l5.8,15.4c0.3,0.6,0.3,0.9,0.4,1.7c0.1-1,0.2-1.1,0.4-1.7l6-15.4h4.9v21.6H404.1z"/>
	</g>
	<g>
		<path class="st3" d="M416.2,202.2v-21.6h13.1v3.5h-9v5.3h7.4v3.5h-7.4v5.8h9.5v3.5H416.2z"/>
	</g>
	<g>
		<path class="st3" d="M452.4,199c-2,2.1-4.8,3.2-8.7,3.2h-8v-21.6h8c4.1,0,6.6,0.9,8.8,3.2c1.9,2,2.9,4.7,2.9,7.6
			C455.3,194.2,454.3,197,452.4,199z M448.4,185.5c-1.1-0.9-2.8-1.3-5.2-1.3H440v14.3h3.3c4.9,0,7.6-2.6,7.6-7.2
			C450.9,188.9,449.9,186.6,448.4,185.5z"/>
	</g>
	<g>
		<path class="st3" d="M461.1,202.2v-21.6h4.1v21.6H461.1z"/>
	</g>
	<g>
		<path class="st3" d="M485.2,202.2l-1.7-5.3h-7.2l-1.8,5.3h-4.3l7.8-21.6h3.7l7.8,21.6H485.2z M479.8,185.5l-2.5,7.8h5L479.8,185.5
			z"/>
	</g>
</g>
<g>
	<g>
		<path class="st3" d="M186.4,102.7c-3.2-1.9-4.5-2.6-6.5-3.2c-2.4-0.8-6.1-1.3-8.6-1.3c-7.1,0-11.9,3.5-11.9,8.8
			c0,4.6,2.7,7,15.4,13.7c4.2,2.3,7.6,4.3,9.8,6.3c3,2.5,4.8,6.8,4.8,11.3c0,10.7-7.9,17.4-20.5,17.4c-4.2,0-8.2-0.8-11.5-2.1
			c-2.4-0.9-4-1.9-8-4.6l4-6.1c3.5,2.4,5,3.2,7.2,4.1c2.7,1,5.8,1.6,9,1.6c7.4,0,11.8-3.5,11.8-9.4c0-1.8-0.3-3.3-0.9-4.4
			c-1-1.9-2.8-3.7-5.3-5.1c-1-0.6-4.5-2.4-10.4-5.6c-9.3-5-13.3-9.9-13.3-16.3c0-9.9,8.2-16.5,20.6-16.5c3.6,0,7.3,0.5,10.5,1.5
			c2.5,0.9,4.1,1.6,7.6,3.7L186.4,102.7z"/>
	</g>
	<g>
		<path class="st3" d="M233,152.8c-3.5,1.9-7.7,2.9-11.9,2.9c-13,0-21.9-9-21.9-22.1c0-13.5,9.3-23,22.4-23c2.2,0,4.3,0.3,6.3,0.9
			c2.8,0.8,4.2,1.4,7.1,3.5l-4.1,5.8c-3.3-2.7-5.8-3.7-9.6-3.7c-8.6,0-14.4,6.6-14.4,16.3c0,9.8,5.8,16,14.9,16
			c4.2,0,6.8-0.9,10.3-3.6l3.7,5.6C234.6,152,233.6,152.5,233,152.8z"/>
	</g>
	<g>
		<path class="st3" d="M265.4,119.5c-1.4-1.2-2.2-1.7-3-1.7c-2.6,0-6,3.9-10.1,11.2v25.5h-7.1v-42.8h7.1v7.7
			c5.3-6.8,7.9-8.9,11.1-8.9c1.6,0,3.6,1,5.5,2.9L265.4,119.5z"/>
	</g>
	<g>
		<path class="st3" d="M307.3,155.7c-5.9-0.4-7.9-1.9-8.3-6c-2.2,1.9-3.1,2.6-4.5,3.4c-2.6,1.5-6,2.5-9.1,2.5
			c-6.9,0-11.4-4.4-11.4-11.2c0-6.2,3.3-10.4,9.5-11.9l14.8-3.5v-7.7c0-3.5-2.6-5.3-8.1-5.3c-4.4,0-6.5,1.2-6.5,3.7
			c0,0.5,0.1,0.9,0.4,1.6l-7.2,1.5c-0.7-1.1-0.8-1.6-0.8-2.6c0-5.7,6.2-9.5,15.4-9.5c8.6,0,14,4.1,14,10.7v23.1v3.1
			c0.2,1.1,1.3,1.9,3.5,2.3L307.3,155.7z M298.3,135l-16.1,4.2c-1,2-1.2,2.9-1.2,4.6c0,3.4,2.3,5.6,5.8,5.6c3.2,0,5.4-1,11.5-5.5
			V135z"/>
	</g>
	<g>
		<path class="st3" d="M330.6,155.7c-4.9,0-8.2-3.9-8.2-9.5v-28.5h-7.2v-4.2l7.2-1.8V99.2h7.1v12.5h11.3v6h-11.3V142l0.1,1.9
			c0.1,1.3,0.1,2.2,0.2,2.6c0.1,1.4,0.9,2.1,2.5,2.1c1.8,0,3.2-0.8,6.2-3l2.9,4.7C336.4,154.5,334,155.7,330.6,155.7z"/>
	</g>
	<g>
		<path class="st3" d="M380.9,152.8c-3.5,1.9-7.6,2.9-11.9,2.9c-13,0-21.9-9-21.9-22.1c0-13.5,9.3-23,22.4-23c2.2,0,4.2,0.3,6.3,0.9
			c2.8,0.8,4.2,1.4,7.1,3.5l-4.1,5.8c-3.3-2.7-5.8-3.7-9.6-3.7c-8.6,0-14.4,6.6-14.4,16.3c0,9.8,5.8,16,14.9,16
			c4.2,0,6.8-0.9,10.3-3.6l3.7,5.6C382.5,152,381.6,152.5,380.9,152.8z"/>
	</g>
	<g>
		<path class="st3" d="M420.8,154.5v-30.3c0-2.8-0.1-3.8-0.7-5c-0.7-1.4-2.3-2.3-4.3-2.3c-4.4,0-9.1,3.2-16.4,11.4v26.2h-7.1V85.6
			h7.1v35c2.9-3.3,3.7-4.2,5.8-5.9c3.3-2.7,7.5-4.3,11.5-4.3c7.6,0,11.2,3.9,11.2,11.9v32H420.8z"/>
	</g>
	<g>
		<path class="st3" d="M455.7,109.1V93.3c-0.2,1.1-0.2,1.2-0.8,3.1l-4.9,12.8h-3.7l-4.5-12.5c-0.4-1.3-0.5-1.6-0.8-3.4v16h-3.7V87.5
			h4.9l5.8,15.4c0.3,0.6,0.3,0.9,0.4,1.7c0.1-1,0.2-1.1,0.4-1.7l6-15.4h4.9v21.6H455.7z"/>
	</g>
	<g>
		<path class="st3" d="M486.5,109.1V93.3c-0.2,1.1-0.2,1.2-0.8,3.1l-4.9,12.8H477l-4.5-12.5c-0.4-1.3-0.5-1.6-0.8-3.4v16H468V87.5
			h4.9l5.8,15.4c0.3,0.6,0.3,0.9,0.4,1.7c0.1-1,0.2-1.1,0.4-1.7l6-15.4h4.9v21.6H486.5z"/>
	</g>
</g>
</svg>
