<?xml version="1.0" encoding="utf-8"?>
<!-- Generator: Adobe Illustrator 21.1.0, SVG Export Plug-In . SVG Version: 6.00 Build 0)  -->
<svg version="1.1" xmlns="http://www.w3.org/2000/svg" xmlns:xlink="http://www.w3.org/1999/xlink" x="0px" y="0px"
	 viewBox="0 0 1020 964" style="enable-background:new 0 0 1020 964;" xml:space="preserve">
<style type="text/css">
	.st0{fill:url(#SVGID_1_);}
	.st1{fill:#CCCCFF;}
	.st2{fill:#FFFFFF;}
	.st3{font-family:'Moon-Light';}
	.st4{font-size:148px;}
	.st5{letter-spacing:-3;}
	.st6{font-family:'Montserrat-Light';}
	.st7{font-size:48px;}
</style>
<g id="Layer_2">
	<linearGradient id="SVGID_1_" gradientUnits="userSpaceOnUse" x1="510" y1="964" x2="510" y2="-9.094947e-13">
		<stop  offset="0" style="stop-color:#FFCCCC"/>
		<stop  offset="1" style="stop-color:#9999CC"/>
	</linearGradient>
	<rect class="st0" width="1020" height="964"/>
	<rect x="1791" y="-189" class="st1" width="1200" height="1200"/>
</g>
<g id="Layer_1">
	<path class="st2" d="M2711.5,569.9c-37.6-9-53-30.1-58.3-51.2c24.2,5.6,54.9,8.1,91.8,2.2c92-14.7,99.4-122,99.4-122
		s-33.5,57.1-102.2,59c-27.6,0.7-44-9.2-53.7-22c12.4-3.4,25.8-8.4,39.9-15.5c70.4-35.4,48.9-123.7,48.9-123.7s-12.4,54.6-67.3,73.6
		c-10.5,3.6-19.5,4.7-27.3,3.9c4.9-20.6,7.4-42.1,7.4-64.2c0-154.1-124.9-279-279-279s-279,124.9-279,279c0,15.5,1.3,30.8,3.7,45.6
		c-6.5-0.4-13.7-1.9-21.7-5.1c-54-21.4-63.9-76.5-63.9-76.5s-25.4,87.3,43.3,125.8c10.8,6,21.1,10.7,31,14.4
		c-10.5,11.4-27.1,19.7-53.1,19c-72.4-1.9-107.7-62.2-107.7-62.2s7.7,113.2,104.8,128.7c45,7.2,81.3,2.6,108.3-5.3
		c-3.1,23.4-16.9,49-59.1,59c-78.8,18.8-134.4-36.1-134.4-36.1s41,120.1,150.3,108.8c72.8-7.5,119.1-36.1,144.4-57.7
		c-5.1,14.7-13.9,33-29,54.6c-35,50,28,147,28,147s-21-60,53-105c43.6-26.5,63.7-52,72.9-71.3c9.2,19.3,29.3,44.8,72.9,71.3
		c74,45,53,105,53,105s63-97,28-147c-16.6-23.8-25.6-43.6-30.4-58.9c0.3-0.1,0.5-0.3,0.8-0.4c13,16,63.9,69.3,168.1,80.1
		c111.1,11.4,152.8-110.6,152.8-110.6S2791.5,589,2711.5,569.9z M2502.5,227c20.2,0,36.5,16.3,36.5,36.5s-16.3,36.5-36.5,36.5
		s-36.5-16.3-36.5-36.5S2482.3,227,2502.5,227z M2411,376c30.4,0,55-25.7,55-13c0,12.7-24.6,35-55,35s-55-22.3-55-35
		C2356,350.3,2380.6,376,2411,376z M2318.5,227c20.2,0,36.5,16.3,36.5,36.5s-16.3,36.5-36.5,36.5s-36.5-16.3-36.5-36.5
		S2298.3,227,2318.5,227z"/>
	<text transform="matrix(1 0 0 1 55.5 812)"><tspan x="0" y="0" class="st2 st3 st4">Amelia </tspan><tspan x="566.6" y="0" class="st2 st3 st4 st5">Oo</tspan><tspan x="797.1" y="0" class="st2 st3 st4">n</tspan></text>
	<text transform="matrix(1 0 0 1 149.5 880)" class="st2 st6 st7">illustration • animation • design</text>
	<path class="st2" d="M762,508.2c-31-7.4-43.7-24.8-48.1-42.2c19.9,4.6,45.2,6.6,75.6,1.8c75.8-12.1,81.8-100.5,81.8-100.5
		s-27.6,47.1-84.2,48.6c-22.7,0.6-36.2-7.6-44.2-18.1c10.3-2.8,21.2-6.9,32.8-12.8c58-29.1,40.3-101.9,40.3-101.9
		s-10.2,45-55.4,60.6c-8.6,3-16.1,3.9-22.5,3.2c4-17,6.1-34.7,6.1-52.9c0-126.9-102.9-229.8-229.8-229.8S284.8,167.2,284.8,294.1
		c0,12.8,1.1,25.3,3.1,37.5c-5.3-0.3-11.3-1.6-17.9-4.2c-44.4-17.7-52.7-63-52.7-63S196.4,336.4,253,368c8.9,5,17.4,8.8,25.6,11.9
		c-8.7,9.4-22.3,16.2-43.7,15.6c-59.6-1.6-88.7-51.2-88.7-51.2s6.4,93.2,86.3,106c37.1,5.9,67,2.1,89.2-4.3
		c-2.5,19.3-13.9,40.3-48.6,48.6c-64.9,15.5-110.7-29.7-110.7-29.7s33.8,98.9,123.8,89.6c59.9-6.2,98.1-29.7,119-47.5
		c-4.2,12.1-11.4,27.2-23.9,45C352.3,593.1,404.2,673,404.2,673s-17.3-49.4,43.7-86.5c35.9-21.8,52.5-42.9,60-58.7
		c7.5,15.9,24.1,36.9,60,58.7c60.9,37.1,43.7,86.5,43.7,86.5s51.9-79.9,23.1-121.1c-13.7-19.6-21.1-35.9-25-48.5
		c0.2-0.1,0.4-0.2,0.7-0.3c10.7,13.1,52.6,57.1,138.4,65.9c91.5,9.4,125.8-91.1,125.8-91.1S828,524,762,508.2z M589.9,225.8
		c16.6,0,30.1,13.5,30.1,30.1s-13.5,30.1-30.1,30.1s-30.1-13.5-30.1-30.1S573.3,225.8,589.9,225.8z M514.6,348.5
		c25,0,45.3-21.2,45.3-10.7c0,10.5-20.3,28.8-45.3,28.8c-25,0-45.3-18.4-45.3-28.8C469.3,327.3,489.6,348.5,514.6,348.5z
		 M438.4,225.8c16.6,0,30.1,13.5,30.1,30.1s-13.5,30.1-30.1,30.1c-16.6,0-30.1-13.5-30.1-30.1S421.8,225.8,438.4,225.8z"/>
</g>
</svg>
